<?xml version="1.0" encoding="utf-8"?>
<!-- Generator: Adobe Illustrator 26.5.2, SVG Export Plug-In . SVG Version: 6.00 Build 0)  -->
<svg version="1.1" id="Layer_1" xmlns="http://www.w3.org/2000/svg" xmlns:xlink="http://www.w3.org/1999/xlink" x="0px" y="0px"
	 viewBox="0 0 958 410" style="enable-background:new 0 0 958 410;" xml:space="preserve">
<style type="text/css">
	.st0{fill-rule:evenodd;clip-rule:evenodd;fill:#00EE00;}
	.st1{fill:#00EE00;}
</style>
<g>
	<path class="st0" d="M88.3,263.9c36.5,0,95,0.2,115.4,2.1c-20.4,1.9-79.5,2-115.4,2C52.3,268,51.9,263.9,88.3,263.9L88.3,263.9z
		 M434.1,251.5h21c1.9,0.5,3.7,1.9,5.1,3.9c1.3,1.8,2.2,4.1,2.7,6.7c-7.1,0-14.8,0-22.9,0C439.2,257,437.3,252.6,434.1,251.5
		L434.1,251.5z M462.8,269.9c-0.5,2.6-1.4,4.9-2.7,6.7c-1.4,2-3.1,3.4-5.1,3.9h-20.9c3.3-1.1,5.2-5.5,5.8-10.6
		C448,269.9,455.7,269.9,462.8,269.9L462.8,269.9z M84.9,270.7C27,309,38.2,343.8,70.7,347.1c38.5,3.8,107.7-29.7,137.4-70.8
		c44.2,1.7,175.1,3.2,219.8,4.4c3.9,0.1,6.2-4.9,6.8-10.8c-46.7-0.2-189.8-0.9-212.1-3.9c22.4-3,165.2-3.7,212.1-3.9
		c-0.7-5.9-3-10.9-6.8-10.8c-44.4,1.2-175.3,2.7-219.7,4.4c-29.6-41-98.9-74.6-137.4-70.8c-32.5,3.2-43.8,38,14.2,76.3
		c-10.6,0.5-21.3,1.1-31.9,1.6c-6.8,0.4-6.3,5.9,0,6.3C63.6,269.7,74.2,270.2,84.9,270.7L84.9,270.7z M517.9,262.8l43.8,0.1
		l20.2,3.1l-20.2,3.2h-43.8C518.3,267.1,518.3,264.9,517.9,262.8L517.9,262.8z M461.4,251.5c0.5,0.6,1.1,1.2,1.5,1.9
		c1.6,2.3,2.8,5.3,3.3,8.6c1.3,0,2.6,0,3.9,0c-0.5-2.6-1.4-4.9-2.7-6.7c-1.4-2-3.1-3.4-5.1-3.9H461.4L461.4,251.5z M470.2,269.9
		c-1.3,0-2.6,0-3.9,0c-0.5,3.3-1.7,6.3-3.3,8.6c-0.5,0.7-1,1.3-1.5,1.9h1c1.9-0.5,3.7-1.9,5.1-3.9
		C468.8,274.8,469.7,272.5,470.2,269.9L470.2,269.9z M468.8,251.5h27.9c2.1,0.8,3.9,2,5.5,3.7c2.5,2.8,4.1,6.6,4.1,10.8
		c0,4.2-1.6,8-4.1,10.8c-1.5,1.6-3.4,2.9-5.5,3.7h-27.9c0.6-0.6,1.1-1.2,1.5-1.9c1.6-2.4,2.8-5.4,3.4-8.7c38.6-0.7,39-7,0-7.7
		c-0.5-3.3-1.7-6.3-3.4-8.7C469.9,252.7,469.4,252.1,468.8,251.5L468.8,251.5z M501.6,251.5c0.8,0.6,1.6,1.3,2.3,2.1
		c2.9,3.2,4.8,7.5,4.8,12.4c0,4.8-1.8,9.2-4.8,12.4c-0.7,0.8-1.5,1.5-2.3,2.1h0.3c18.6,0,18.6-29,0-29H501.6z"/>
</g>
<g>
	<path class="st1" d="M343.4,202.2c-22.8,0-33.2-16.2-42.1-33.1c-16.6,17.2-36.3,31.2-57.1,31.2c-14.5,0-25.3-11.3-25.3-27
		c0-28.9,24.9-59.1,57.5-59.1c12.4,0,21.1,4.6,27.6,11.6c4.8-6.8,9.4-13.6,14-20.5c15.2-23.1,34.8-44.4,54.8-58.5
		c-5.1-1-10.8-1.4-17.1-1.4c-39.7,0-75.7,26.3-75.7,42.1c0,2.2,2.6,4,5.3,4c19.7,0,37.1-26.9,40.5-33c0.4-0.6,0.9-1,1.2-1
		c0.4,0,0.9,0.9,0.9,1.6c0,35.7-24.7,51.9-43.5,51.9c-11.6,0-20.8-6.2-20.8-17.8c0-20.8,42.1-57.5,99.4-57.5c8.2,0,16,0.9,23.1,2.7
		c10.3-5.3,20.1-8.4,29.1-8.4c6.1,0,9.4,1.7,9.4,2.6c0,1.2-1,1.2-5.3,1.2c-6.6,0-13.4,3.5-20.5,9.3c20.1,9.4,32.5,28.9,32.5,59
		C431.4,149.2,392.7,202.2,343.4,202.2z M266.1,130.2c-20.2,0-37.1,16.6-37.1,35.8c0,9.4,6.2,15.5,13.6,15.5
		c12.9,0,29.6-15.5,46.5-36.1C283.4,136.7,276.6,130.2,266.1,130.2z M387.9,53.9c-18.1,20.1-35.7,50.6-48.6,67.9
		c-5.6,7.8-12.6,17.5-20.7,27.6c7.2,15.2,13.3,29.9,28,29.9c34.1,0,54.5-48,54.5-85.9C401.1,76.3,396.7,61.3,387.9,53.9z"/>
	<path class="st1" d="M499.3,200.1c-14.9,0-18.2-17.5-18.8-17.5c-0.6,0-16,19.5-33.7,19.5c-11.6,0-23.1-9.4-23.1-28.3
		c0-31.1,36.7-80.1,71.4-80.1c17.1,0,18.6,14.6,19.2,14.6c1,0,12.3-13.6,16-13.6s3.6,0.6,6.2,1.2c2.2,0.4,5.2,0.9,5.2,3.8
		c0,11.6-37.1,64-37.1,77.2c0,2.2,1,3.6,3.2,3.6c13.4,0,35.7-37.4,37.9-37.4c1.7,0,2.7,3.6,2.7,7.7
		C548.6,154.4,517.8,200.1,499.3,200.1z M492.1,105.2c-17.1,0-41.9,44.1-41.9,65c0,6.8,2.5,10.7,6.6,10.7c5.3,0,20.2-10.3,20.2-14.3
		c0-1.6-4.5-2.2-6.2-2.2v-1.6c5.3-1.4,29.9-26.5,29.9-46C500.8,110.3,497.3,105.2,492.1,105.2z"/>
	<path class="st1" d="M579.6,201.1c-13.3,0-23.7-7.8-23.7-23.1c0-20.7,28.5-58.8,28.5-59.4c0-0.4-7.1-3.5-10.7-3.5
		c-0.9,0-1.4,0.1-1.6,0.6c-10.4,16.9-20.7,32.2-28,42.9c-0.6,1-1.4,1.6-2.5,1.6c-1.7,0-3.2-2.6-3.2-6.4c0-1.4,1.2-3.6,1.7-4.6
		c2.7-4,8.2-12.3,14-24.3c6.4-12.6,7.7-21.8,11.6-31.2c4.2-10.7,7.4-12.6,14.5-12.6c3.2,0,4.8,1.7,4.8,5.3c0,4.2-2.2,6.1-2.2,6.6
		c0,0.9,1.2,1.4,4.6,1.4c10,0,21.8-1.6,24.7-1.6c6.1,0,13.6,11.6,13.6,16.5c0,3.8-6.6,7.2-11.3,12.4c-7.9,8.7-29.9,39.3-29.9,55.8
		c0,1.4,0.9,3.2,3,3.2c5.2,0,14.9-8.2,22.1-17.1c7.9-9.7,14.9-20.2,15.9-20.2c1.7,0,2.7,3.8,2.7,7.7
		C628.9,155.1,598.1,201.1,579.6,201.1z"/>
	<path class="st1" d="M685.2,103.6c-2.7,0-2.2,0.1-11.3,0.1c-15.6,29.1-31.7,58-31.7,67.8c0,7.1,4.6,8.4,7.7,8.4
		c13.4,0,35.8-37.4,37.9-37.4c1.7,0,2.7,3.6,2.7,7.7s-31.5,50.9-49.9,50.9c-13.6,0-29.3-7.8-29.3-20.1c0-14.9,22.7-53.9,33.1-73.6
		l2.6-4.6c-4.2-0.4-10.8-1.6-10.8-7.1c0-3.6,0-7.2,0.4-8.7c0.1-1,0.6-1.4,2.2-1.4c1,0,4,0.1,6.6,0.1c3,0,9.3-1.2,11.3-1.2
		C666,67.4,676.4,49,679,49c9.7,0,15.6,9,15.6,13.6c0,2.6-3.2,8.8-10.8,23.1h11.4c4,0,6.1,1.2,6.1,3.2
		C700.8,97,691.7,103.6,685.2,103.6z"/>
	<path class="st1" d="M765.7,128.1c-1,5.2-2.5,11.6-4,18.6c1.7,0.6,3.6,0.9,4.8,0.9c4.5,0,5.2-2.7,5.6-2.7c1,0,1.2,0.1,1.2,1v0.4
		c0.1,12.3-7.9,19.5-16,19.5c-0.6,0-1.2,0-1.6,0c-10.4,25.7-31.2,36.7-49.7,36.7s-34.1-11.3-34.1-30.6c0-17.8,14.6-36.9,36.7-36.9
		c3,0,5.8,0.1,8.8,0.6c6.2-7.1,13.6-16.5,20.2-26.5c12-17.2,28.6-27,36.7-27c5.2,0,9.3,1.7,9.3,4.8
		C783.5,91.4,769.6,110,765.7,128.1z M708.3,157.6c-14,0-21.1,9-21.1,17.2c0,6.6,4.6,12.6,14.3,12.6c9.7,0,21.8-7.2,28.3-26.5
		C722.1,159.2,715.1,157.6,708.3,157.6z M740.1,121.7c-1.6,2.5-7.2,9.3-12.6,15.9c2.7,0.9,5.3,1.4,8.2,2.5c2.2-7.8,3.8-14,5.1-17.8
		L740.1,121.7z"/>
</g>
<g>
	<path class="st1" d="M662.5,294.5c-11.4,0-22.1-2.6-31.4-7.2c-17.3,18.2-30.6,38.9-30.6,55.4c0,9.7,6.9,15.6,16.8,15.6
		c26.6,0,44.5-25.1,44.5-37.6c0-3.6-2.5-5.6-6.1-5.6c-6.1,0-14.6,6.8-16.2,16c-0.3,1.2-0.1,1.7-0.9,1.7c-0.7,0-2.3-3.5-2.3-7.1
		c0-10.3,9-21.7,22.8-21.7c10.3,0,14.7,5.9,14.7,14.3c0,20.2-26.3,54.6-62.6,54.6c-19.5,0-34.5-13-34.5-31.8
		c0-22.3,16.2-46.7,38.4-66.5c-7.7-8.7-12.1-19.7-12.1-32.7c0-10,7.2-18.8,9.5-18.8c0.3,0,0.3,0,0.3,0.3c0,0.7-0.1,1.9-0.1,3.8
		c0,14.9,5.1,27.9,15.5,36.9c23-17.1,49.9-28.5,70.5-28.5c15,0,23.7,7.2,23.7,16.9C722.3,270.8,697.5,294.5,662.5,294.5z M697.5,244
		c-11.7,0-32.7,12.4-52.2,29.8c6.4,2,13.9,3.2,22.3,3.2c23.8,0,41.5-13.3,41.5-23.7C709,246.9,704.1,244,697.5,244z"/>
	<path class="st1" d="M712.2,339.1c-1.6,5.2-2.6,9.8-2.6,14c0,3.3,3.2,6.1,6.8,6.1c16.5,0,37.6-36,39.5-36s2.3,3.8,2.3,5.6
		c0,6.1-26.7,42.2-49.1,42.2c-10.3,0-20.2-10.8-20.2-19.1c0-27.6,47.1-111.4,80.4-111.4c6.8,0,12.1,4,12.1,6.8
		C781.3,254.6,742,323.1,712.2,339.1z M767.1,255c-2.6,0-31.1,34.8-47.1,65.8c18.6-15.2,47.6-62.2,47.6-65.2
		C767.6,255.3,767.3,255,767.1,255z"/>
	<path class="st1" d="M801.8,371.1c-8.2,0-15.9-6.4-15.9-15.5c0-1.7,0-2.3,0.1-3.3c-2.7,4-16,18.8-24,18.8c-7.8,0-15.8-10-15.8-19.9
		c0-21.1,27-64.8,35.8-68.4c0.7-0.1,2.5-0.3,4.5-0.3c4.3,0,10.4,0.9,10.4,3.8c0,0.3-0.1,0.9-0.6,1.4c-3.6,6.9-29.6,52.2-29.6,64.2
		c0,2.6,1,3.6,2.5,3.6c4,0,18.2-15.6,28-32.4c8.7-14.3,19.9-40.2,23.7-40.2c8.5,0,14.9,2.9,14.9,6.1c0,4.6-2.7,9-5.1,13.7
		c-2.5,4.6-22,39.9-22,47.4c0,2,0.6,3.6,4.2,3.6c8.8,0,27.9-30.9,29.2-30.9c1.7,0,2.3,2.9,2.3,5.9
		C844.6,333.9,818.9,371.1,801.8,371.1z"/>
	<path class="st1" d="M857.9,370.9c-11.7,0-23.6-5.9-23.6-28.3c0-7.8,12.9-30.6,26.3-53c14.7-24.6,28.5-48.4,37-48.4
		c4.6,0,11.6,3.3,11.6,5.6s-7.9,13.3-12.4,20.8c-4.6,7.7-11.1,18.8-11.1,19.5l0.3,0.1c4.5-2.5,9-3.6,12.9-3.6
		c9.5,0,16.2,6.9,16.2,20.5C915.1,330,891.4,370.9,857.9,370.9z M890.6,293.2c-6.1,0-11.3,6.5-13.9,9.4
		c-2.6,2.9-24.7,44.2-24.7,51.9c0,2.9,1.7,5.3,6.1,5.3c13.7,0,39.3-41,39.3-58.5C897.3,298,895,293.2,890.6,293.2z"/>
</g>
</svg>
