<?xml version="1.0" encoding="UTF-8"?>
<svg id="Layer_1" data-name="Layer 1" xmlns="http://www.w3.org/2000/svg" version="1.1" viewBox="0 0 432 194.3">
  <defs>
    <style>
      .cls-1 {
        fill: #b52828;
        stroke-width: 0px;
      }

      .cls-2 {
        isolation: isolate;
      }
    </style>
  </defs>
  <g class="cls-2">
    <path class="cls-1" d="M93.4,67c-1.3,0-2.5,0-3.7-.1-6,10.3-12.7,21.6-20.3,31.6,9.1,8.3,17.3,16.1,26.1,16.1s7.5-3.5,8-3.5,1,.2,1,.8-11.6,17.5-22.2,17.5-15.8-8.7-24-18.1c-8.9,8.5-19.2,14.1-31,14.1S3.8,115.5,3.8,104.7s10.1-26.3,29.1-26.3,17.2,4.2,24.4,9.8c5.9-8.1,11.8-17,17.9-25.5-10.9-5.3-18.6-14.6-18.6-22.1s4-8,5.7-8,1.9,2.8,3,5c3.6,7.4,9.9,12.6,17,15.8,10.6-13.2,22-23.1,35.4-23.1s14,5.1,14,11.4c0,10.9-13.2,25.4-38.3,25.4ZM26.4,88.5c-8.9,0-15,6.4-15,13.5s4.7,11.7,13.2,11.7,15.8-5.6,23.3-13.8c-6.6-6.5-13.7-11.5-21.5-11.5ZM117,36.2c-7,0-13.8,8.7-21.3,20.8,1.7.2,3.5.4,5.2.4,15.1,0,22.6-8.3,22.6-14.5s-2.4-6.6-6.5-6.6Z"/>
    <path class="cls-1" d="M123.1,125.6c-8.2,0-14.6-8.3-14.6-18.2,0-15.3,18.1-42.9,34.3-42.9s6.6-1.3,9.2-1.3c3.9,0,7.5,4.5,7.5,9.2,0,9.1-13.4,24.8-32.9,24.8s-.7,0-1.1-.1c-1.6,3.6-2.5,7-2.5,9.9,0,5.3,1.9,8.7,6.4,8.7,16.1,0,29.4-23.9,30.8-23.9s1.4,2.2,1.4,4c0,4.3-18.5,30-38.5,30ZM148.4,70.2c-4.2,0-13.8,10.1-19.8,20.8,9.5-2.1,22-11.8,22-18.7s-.7-2.1-2.2-2.1Z"/>
    <path class="cls-1" d="M197.6,124.3c-8.5,0-10.4-10-10.8-10s-9.2,11.1-19.2,11.1-13.2-5.4-13.2-16.2c0-17.8,21-45.8,40.8-45.8s10.6,8.3,11,8.3c.6,0,7-7.9,9.2-7.9s2.1.4,3.5.7c1.2.2,3,.5,3,2.2,0,6.6-21.3,36.6-21.3,44.1s.6,2.1,1.8,2.1c7.7,0,20.4-21.4,21.6-21.4s1.6,2.1,1.6,4.3-17.6,28.4-28.1,28.4ZM193.4,70c-9.8,0-23.9,25.2-23.9,37.1s1.3,6,3.7,6,11.6-5.8,11.6-8.1-2.5-1.2-3.5-1.2v-1c3.1-.8,17-15.1,17-26.2s-2.1-6.6-5-6.6Z"/>
    <path class="cls-1" d="M266.5,112.7c-10.4,21.6-22.7,52.1-44,52.1s-19.9-6.3-19.9-16.1,10.8-20.8,20.2-20.8,8.7,3.5,8.7,7.1-3,6.4-3.5,6.4-.2-.1-.2-.2v-1c0-1.4-2.5-2.4-5.8-2.4-7.4,0-12.1,5.2-12.1,9.8s3.9,7.9,8.2,7.9c10.1,0,17.5-13.4,21.1-20.7,3.7-7.1,6.5-15.1,6.8-16.3-3.9,4.5-8.1,6.3-12.1,6.3-7.9,0-14.6-7.7-14.6-17.4,0-23.7,25.5-44.5,41.1-44.5s10.1,2.9,11.4,9.5c.6-.7,4.8-6.5,6.2-7.2,1-.6,2.7-.7,4.2-.7h1.4c1.7,0,5.2,1,5.2,2.7,0,2.8-12,23.9-22.2,45.5ZM261,71.5c-11.1,0-26.6,24.4-26.6,35s1.7,6.8,5.1,6.8c8.5,0,25.7-28.6,25.7-35.5s-1-6.3-4.2-6.3Z"/>
    <path class="cls-1" d="M347.5,125c-5.8,0-11.1-4.5-11.1-10.8,0-13.8,12.7-33.3,15.7-37.7l-.4-.2c-4.7,3.9-14.7,12.8-23.3,26.8-7.1,11.4-11.6,22.7-14,22.7-4.2,0-11.1-2.7-11.1-5.2s0-.5.1-.7c5.9-12.9,20.9-39.3,20.9-42.8l-.4-.4c-.4,0-12.3,9.3-21.9,22.5-8.1,11.4-16.1,26-19.3,26s-9.8-3.1-9.8-6.4,5.9-15.3,14-30.8c8.1-15.3,14.7-25.5,16.5-25.5s10.1,1.9,10.1,4.3-5.2,13.8-5.7,15.5c.4,0,18-18.5,23.3-18.5s11.6,3.7,11.6,7-1.6,4.7-3.9,10c3.7-4.2,15.6-17.3,21.6-17.3s10.3,3,10.3,5.2c0,3.3-1.6,5.3-3.1,8.6-1.7,3.3-15.3,27.9-15.3,33.1s.4,2.5,2.9,2.5c6.2,0,19.4-21.6,20.4-21.6s1.6,2.1,1.6,4.1c0,3.5-18,29.5-29.8,29.5Z"/>
    <path class="cls-1" d="M385.3,125.6c-8.2,0-14.6-8.3-14.6-18.2,0-15.3,18.1-42.9,34.3-42.9s6.6-1.3,9.2-1.3c3.9,0,7.5,4.5,7.5,9.2,0,9.1-13.4,24.8-32.9,24.8s-.7,0-1.1-.1c-1.6,3.6-2.5,7-2.5,9.9,0,5.3,1.9,8.7,6.4,8.7,16.1,0,29.4-23.9,30.8-23.9s1.4,2.2,1.4,4c0,4.3-18.5,30-38.5,30ZM410.5,70.2c-4.2,0-13.8,10.1-19.8,20.8,9.5-2.1,22-11.8,22-18.7s-.7-2.1-2.2-2.1Z"/>
  </g>
</svg>