<?xml version="1.0" encoding="utf-8"?>
<!-- Generator: Adobe Illustrator 26.5.2, SVG Export Plug-In . SVG Version: 6.00 Build 0)  -->
<svg version="1.1" id="Layer_1" xmlns="http://www.w3.org/2000/svg" xmlns:xlink="http://www.w3.org/1999/xlink" x="0px" y="0px"
	 viewBox="0 0 595 286.3" style="enable-background:new 0 0 595 286.3;" xml:space="preserve">
<style type="text/css">
	.st0{fill-rule:evenodd;clip-rule:evenodd;fill:#00EE00;}
	.st1{fill:#00EE00;}
</style>
<g>
	
		<image style="overflow:visible;" width="2797" height="1493" xlink:href="43AB12FF.png"  transform="matrix(0.24 0 0 0.24 -40.08 -36.02)">
	</image>
</g>
<g>
	<path class="st0" d="M120.1,215.1c13.1,0,34.3,0.1,41.6,0.7c-7.4,0.6-28.7,0.7-41.6,0.7C107,216.5,106.9,215.1,120.1,215.1
		L120.1,215.1z M244.8,210.6h7.6c0.7,0.2,1.3,0.6,1.8,1.4c0.5,0.6,0.7,1.5,0.9,2.4c-2.6,0-5.4,0-8.2,0
		C246.7,212.6,246,211,244.8,210.6L244.8,210.6z M255.2,217.3c-0.2,0.9-0.5,1.8-0.9,2.4c-0.5,0.7-1.1,1.2-1.8,1.4h-7.6
		c1.2-0.4,1.8-1.9,2.1-3.8C249.8,217.3,252.6,217.3,255.2,217.3L255.2,217.3z M118.8,217.6c-20.9,13.9-16.8,26.4-5.1,27.5
		c13.9,1.4,38.9-10.7,49.6-25.6c16,0.6,63.2,1.2,79.3,1.6c1.4,0,2.2-1.8,2.5-3.9c-16.8-0.1-68.5-0.4-76.6-1.4
		c8-1.1,59.7-1.4,76.6-1.4c-0.3-2.1-1.1-4-2.4-3.9c-16.1,0.5-63.3,1-79.3,1.6c-10.7-14.8-35.6-27-49.6-25.6
		c-11.7,1.2-15.8,13.8,5.1,27.5c-3.9,0.2-7.7,0.4-11.5,0.6c-2.5,0.1-2.3,2.1,0,2.2C111.1,217.2,115,217.4,118.8,217.6L118.8,217.6z
		 M275.1,214.7l15.8,0.1l7.3,1.1l-7.3,1.1h-15.8C275.2,216.3,275.2,215.4,275.1,214.7L275.1,214.7z M254.7,210.6
		c0.2,0.2,0.4,0.5,0.6,0.6c0.6,0.8,1,1.9,1.2,3.1c0.5,0,0.9,0,1.4,0c-0.2-0.9-0.5-1.8-0.9-2.4c-0.5-0.7-1.1-1.2-1.8-1.4L254.7,210.6
		L254.7,210.6z M257.8,217.3c-0.5,0-0.9,0-1.4,0c-0.2,1.2-0.6,2.3-1.2,3.1c-0.2,0.3-0.4,0.5-0.6,0.6h0.4c0.7-0.2,1.3-0.6,1.8-1.4
		C257.4,219,257.7,218.2,257.8,217.3L257.8,217.3z M257.4,210.6h10.1c0.7,0.3,1.4,0.7,1.9,1.3c0.9,1,1.5,2.4,1.5,3.9
		c0,1.6-0.6,2.9-1.5,3.9c-0.6,0.6-1.2,1-1.9,1.3h-10.1c0.2-0.2,0.4-0.5,0.6-0.6c0.6-0.8,1-1.9,1.2-3.1c13.9-0.3,14-2.5,0-2.8
		c-0.2-1.2-0.6-2.3-1.2-3.1C257.8,211.1,257.6,210.8,257.4,210.6L257.4,210.6z M269.2,210.6c0.3,0.2,0.6,0.5,0.8,0.7
		c1,1.1,1.8,2.7,1.8,4.4c0,1.8-0.6,3.3-1.8,4.4c-0.3,0.3-0.6,0.6-0.8,0.7h0.1C276,221,276,210.5,269.2,210.6L269.2,210.6
		L269.2,210.6z"/>
</g>
<path class="st1" d="M155.9,153.4c-16.7,0-24.3-11.8-30.8-24.2C112.9,141.8,98.6,152,83.4,152c-10.6,0-18.5-8.2-18.5-19.8
	C64.9,111.1,83.1,89,107,89c9.1,0,15.4,3.4,20.2,8.5c3.5-5,6.9-9.9,10.3-15c11.1-16.9,25.5-32.4,40.1-42.8
	c-3.7-0.7-7.9-1.1-12.5-1.1c-29.1,0-55.4,19.2-55.4,30.8c0,1.6,1.9,3,3.9,3c14.4,0,27.2-19.7,29.6-24.1c0.3-0.4,0.6-0.7,0.8-0.7
	c0.3,0,0.6,0.6,0.6,1.2c0,26.1-18.1,37.9-31.8,37.9c-8.5,0-15.2-4.5-15.2-13c0-15.2,30.8-42.1,72.7-42.1c6,0,11.7,0.6,16.9,2
	c7.5-3.9,14.7-6.1,21.2-6.1c4.4,0,6.9,1.3,6.9,1.9c0,0.8-0.7,0.8-3.9,0.8c-4.9,0-9.8,2.5-15,6.8c14.7,6.9,23.8,21.1,23.8,43.1
	C220.2,114.7,191.9,153.4,155.9,153.4z M99.3,100.8c-14.8,0-27.2,12.2-27.2,26.2c0,6.9,4.5,11.3,9.9,11.3c9.4,0,21.7-11.3,34-26.4
	C112,105.6,107.1,100.8,99.3,100.8z M188.4,45c-13.2,14.7-26.1,37-35.5,49.7c-4.1,5.7-9.2,12.8-15.1,20.2
	c5.3,11.1,9.7,21.9,20.5,21.9c24.9,0,39.8-35.1,39.8-62.8C198.1,61.4,194.9,50.4,188.4,45z"/>
<path class="st1" d="M269.9,151.9c-10.9,0-13.3-12.8-13.7-12.8c-0.4,0-11.7,14.3-24.6,14.3c-8.5,0-16.9-6.9-16.9-20.7
	c0-22.7,26.8-58.5,52.2-58.5c12.5,0,13.6,10.7,14.1,10.7c0.7,0,9-9.9,11.7-9.9s2.6,0.4,4.5,0.8c1.6,0.3,3.8,0.6,3.8,2.7
	c0,8.5-27.2,46.8-27.2,56.4c0,1.6,0.7,2.6,2.3,2.6c9.8,0,26.1-27.4,27.7-27.4c1.3,0,2,2.6,2,5.6C306,118.5,283.4,151.9,269.9,151.9z
	 M264.6,82.5c-12.5,0-30.6,32.2-30.6,47.6c0,5,1.8,7.8,4.9,7.8c3.9,0,14.8-7.5,14.8-10.5c0-1.2-3.3-1.6-4.5-1.6v-1.2
	c3.9-1.1,21.9-19.3,21.9-33.6C271,86.2,268.4,82.5,264.6,82.5z"/>
<path class="st1" d="M328.6,152.6c-9.7,0-17.3-5.7-17.3-16.9c0-15.1,20.8-43,20.8-43.4c0-0.3-5.2-2.5-7.8-2.5
	c-0.6,0-1.1,0.1-1.2,0.4c-7.6,12.4-15.1,23.6-20.5,31.4c-0.4,0.7-1.1,1.2-1.8,1.2c-1.3,0-2.3-1.9-2.3-4.7c0-1.1,0.8-2.6,1.3-3.4
	c2-3,6-9,10.3-17.8c4.7-9.2,5.6-16,8.5-22.8c3.1-7.8,5.4-9.2,10.6-9.2c2.3,0,3.5,1.3,3.5,3.9c0,3.1-1.6,4.4-1.6,4.9
	c0,0.6,0.8,1.1,3.4,1.1c7.3,0,16-1.2,18.1-1.2c4.4,0,9.9,8.5,9.9,12c0,2.7-4.9,5.3-8.2,9.1c-5.8,6.3-21.9,28.7-21.9,40.8
	c0,1.1,0.6,2.3,2.2,2.3c3.8,0,10.9-6,16.2-12.5c5.8-7.1,10.9-14.8,11.6-14.8c1.3,0,2,2.7,2,5.6C364.6,119,342.1,152.6,328.6,152.6z"
	/>
<path class="st1" d="M405.8,81.4c-2,0-1.6,0.1-8.2,0.1c-11.4,21.2-23.1,42.4-23.1,49.6c0,5.2,3.4,6.1,5.6,6.1
	c9.8,0,26.2-27.4,27.7-27.4c1.3,0,2,2.6,2,5.6s-23,37.2-36.5,37.2c-9.9,0-21.5-5.7-21.5-14.7c0-10.9,16.6-39.4,24.2-53.8l1.9-3.4
	c-3.1-0.3-7.9-1.2-7.9-5.2c0-2.6,0-5.3,0.3-6.3c0.1-0.7,0.4-1.1,1.6-1.1c0.7,0,3,0.1,4.9,0.1c2.2,0,6.8-0.8,8.2-0.8
	c6.8-12.6,14.4-26,16.3-26c7.1,0,11.4,6.6,11.4,9.9c0,1.9-2.3,6.4-7.9,16.9h8.3c3,0,4.4,0.8,4.4,2.3
	C417.2,76.5,410.6,81.4,405.8,81.4z"/>
<path class="st1" d="M464.7,99.2c-0.7,3.8-1.8,8.5-3,13.6c1.3,0.4,2.6,0.6,3.5,0.6c3.3,0,3.8-2,4.1-2c0.7,0,0.8,0.1,0.8,0.7v0.3
	c0.1,9-5.8,14.3-11.7,14.3c-0.4,0-0.8,0-1.2,0c-7.6,18.8-22.8,26.8-36.4,26.8c-13.5,0-24.9-8.2-24.9-22.4c0-13,10.7-26.9,26.8-26.9
	c2.2,0,4.2,0.1,6.4,0.4c4.5-5.2,9.9-12,14.8-19.3c8.8-12.6,20.9-19.8,26.8-19.8c3.8,0,6.8,1.3,6.8,3.5
	C477.7,72.4,467.5,86,464.7,99.2z M422.7,120.8c-10.3,0-15.4,6.6-15.4,12.6c0,4.9,3.4,9.2,10.5,9.2s16-5.3,20.7-19.3
	C432.8,122,427.7,120.8,422.7,120.8z M446,94.6c-1.2,1.8-5.3,6.8-9.2,11.6c2,0.6,3.9,1.1,6,1.8c1.6-5.7,2.7-10.3,3.7-13L446,94.6z"
	/>
<path class="st1" d="M350.8,203.8c-8.3,0-16.1-1.9-22.8-5.3c-12.6,13.2-22.3,28.3-22.3,40.3c0,7,5,11.4,12.2,11.4
	c19.3,0,32.4-18.3,32.4-27.3c0-2.6-1.8-4.1-4.4-4.1c-4.4,0-10.6,4.9-11.8,11.7c-0.2,0.8-0.1,1.3-0.6,1.3s-1.7-2.5-1.7-5.1
	c0-7.5,6.5-15.8,16.6-15.8c7.5,0,10.7,4.3,10.7,10.4c0,14.7-19.1,39.7-45.5,39.7c-14.2,0-25.1-9.5-25.1-23.1
	c0-16.2,11.8-33.9,28-48.3c-5.6-6.3-8.8-14.3-8.8-23.8c0-7.3,5.3-13.7,6.9-13.7c0.2,0,0.2,0,0.2,0.2c0,0.5-0.1,1.4-0.1,2.7
	c0,10.8,3.7,20.3,11.2,26.8c16.7-12.4,36.3-20.7,51.3-20.7c10.9,0,17.2,5.3,17.2,12.3C394.3,186.6,376.2,203.8,350.8,203.8z
	 M376.2,167.1c-8.5,0-23.8,9-37.9,21.6c4.6,1.5,10.1,2.3,16.2,2.3c17.3,0,30.2-9.7,30.2-17.2C384.6,169.2,381.1,167.1,376.2,167.1z"
	/>
<path class="st1" d="M386.9,236.3c-1.2,3.8-1.9,7.1-1.9,10.2c0,2.4,2.3,4.4,4.9,4.4c12,0,27.3-26.2,28.7-26.2c1.4,0,1.7,2.7,1.7,4.1
	c0,4.4-19.4,30.7-35.7,30.7c-7.5,0-14.7-7.9-14.7-13.9c0-20.1,34.3-81,58.4-81c4.9,0,8.8,2.9,8.8,4.9
	C437.2,174.8,408.6,224.6,386.9,236.3z M426.9,175.1c-1.9,0-22.6,25.3-34.3,47.8c13.6-11,34.6-45.2,34.6-47.4
	C427.2,175.3,427,175.1,426.9,175.1z"/>
<path class="st1" d="M452.1,259.5c-6,0-11.6-4.6-11.6-11.2c0-1.3,0-1.7,0.1-2.4c-2,2.9-11.7,13.7-17.4,13.7
	c-5.7,0-11.5-7.3-11.5-14.5c0-15.3,19.7-47.1,26.1-49.7c0.5-0.1,1.8-0.2,3.3-0.2c3.2,0,7.6,0.6,7.6,2.7c0,0.2-0.1,0.6-0.4,1.1
	c-2.6,5-21.5,37.9-21.5,46.7c0,1.9,0.7,2.6,1.8,2.6c2.9,0,13.2-11.4,20.4-23.5c6.3-10.4,14.5-29.2,17.2-29.2
	c6.2,0,10.8,2.1,10.8,4.4c0,3.4-2,6.5-3.7,10c-1.8,3.4-16,29-16,34.5c0,1.5,0.4,2.6,3,2.6c6.4,0,20.3-22.5,21.2-22.5
	c1.3,0,1.7,2.1,1.7,4.3C483.2,232.5,464.5,259.5,452.1,259.5z"/>
<path class="st1" d="M492.9,259.4c-8.5,0-17.1-4.3-17.1-20.6c0-5.7,9.4-22.3,19.1-38.6c10.7-17.9,20.7-35.2,26.9-35.2
	c3.4,0,8.4,2.4,8.4,4.1c0,1.7-5.8,9.7-9,15.1c-3.4,5.6-8.1,13.7-8.1,14.2l0.2,0.1c3.3-1.8,6.5-2.6,9.4-2.6c6.9,0,11.8,5,11.8,14.9
	C534.5,229.7,517.3,259.4,492.9,259.4z M516.6,202.9c-4.4,0-8.2,4.7-10.1,6.8s-18,32.2-18,37.7c0,2.1,1.3,3.9,4.4,3.9
	c10,0,28.6-29.8,28.6-42.6C521.6,206.3,519.9,202.9,516.6,202.9z"/>
</svg>
