<?xml version="1.0" encoding="UTF-8"?>
<svg xmlns="http://www.w3.org/2000/svg" version="1.1" viewBox="0 0 432 194.3">
  <defs>
    <style>
      .cls-1 {
        font-family: CornerStoreJF, CornerStoreJF;
        font-size: 82.6px;
      }

      .cls-1, .cls-2 {
        fill: #0e0;
      }
    </style>
  </defs>
  <!-- Generator: Adobe Illustrator 28.6.0, SVG Export Plug-In . SVG Version: 1.2.0 Build 709)  -->
  <g>
    <g id="Layer_1">
      <g>
        <path class="cls-2" d="M92,78.3c-1.3,0-2.4,0-3.6-.1-5.8,9.9-12.2,20.8-19.6,30.5,8.7,8,16.6,15.5,25.1,15.5s7.2-3.4,7.7-3.4.9.2.9.8-11.2,16.9-21.4,16.9-15.3-8.4-23.2-17.5c-8.6,8.2-18.5,13.6-29.9,13.6s-22.5-9.7-22.5-20,9.8-25.4,28.1-25.4,16.5,4.1,23.5,9.4c5.7-7.8,11.4-16.4,17.2-24.6-10.5-5.1-17.9-14.1-17.9-21.3s3.8-7.7,5.5-7.7,1.9,2.7,2.9,4.8c3.5,7.1,9.5,12.1,16.4,15.2,10.2-12.7,21.2-22.2,34.1-22.2s13.5,4.9,13.5,10.9c0,10.5-12.7,24.4-36.9,24.4ZM27.4,99c-8.6,0-14.4,6.2-14.4,13s4.5,11.3,12.7,11.3,15.3-5.4,22.5-13.3c-6.4-6.3-13.2-11.1-20.7-11.1ZM114.7,48.6c-6.8,0-13.3,8.4-20.5,20,1.6.2,3.4.3,5,.3,14.6,0,21.8-8,21.8-14s-2.3-6.4-6.3-6.4Z"/>
        <path class="cls-2" d="M120.6,134.8c-7.9,0-14.1-8-14.1-17.6,0-14.8,17.5-41.3,33.1-41.3s6.4-1.3,8.8-1.3c3.7,0,7.2,4.3,7.2,8.8,0,8.7-12.9,23.9-31.7,23.9s-.7,0-1-.1c-1.5,3.5-2.4,6.8-2.4,9.5,0,5.1,1.9,8.4,6.2,8.4,15.5,0,28.3-23.1,29.7-23.1s1.4,2.1,1.4,3.8c0,4.2-17.8,28.9-37.1,28.9ZM144.9,81.3c-4.1,0-13.3,9.8-19.1,20,9.2-2,21.2-11.4,21.2-18s-.7-2-2.1-2Z"/>
        <path class="cls-2" d="M192.3,133.5c-8.1,0-10-9.7-10.4-9.7s-8.8,10.7-18.5,10.7-12.7-5.2-12.7-15.6c0-17.1,20.3-44.1,39.3-44.1s10.2,8,10.6,8c.6,0,6.8-7.6,8.8-7.6s2,.3,3.4.7c1.2.2,2.9.5,2.9,2.1,0,6.4-20.5,35.3-20.5,42.5s.6,2,1.7,2c7.5,0,19.7-20.6,20.8-20.6s1.5,2,1.5,4.2-17,27.4-27.1,27.4ZM188.4,81.2c-9.4,0-23.1,24.3-23.1,35.7s1.3,5.8,3.6,5.8,11.2-5.6,11.2-7.8-2.4-1.2-3.4-1.2v-.9c3-.8,16.4-14.6,16.4-25.3s-2-6.4-4.8-6.4Z"/>
        <path class="cls-2" d="M258.8,122.3c-10,20.8-21.9,50.2-42.4,50.2s-19.2-6.1-19.2-15.5,10.4-20,19.4-20,8.4,3.4,8.4,6.9-2.9,6.2-3.4,6.2-.2-.1-.2-.2v-.9c0-1.4-2.4-2.3-5.6-2.3-7.1,0-11.6,5-11.6,9.4s3.7,7.6,7.9,7.6c9.8,0,16.9-12.9,20.4-19.9,3.6-6.9,6.3-14.6,6.5-15.7-3.7,4.3-7.8,6.1-11.6,6.1-7.6,0-14.1-7.5-14.1-16.8,0-22.8,24.6-42.8,39.6-42.8s9.8,2.8,10.9,9.2c.6-.7,4.7-6.3,5.9-7,.9-.6,2.6-.7,4.1-.7h1.4c1.6,0,5,.9,5,2.6,0,2.7-11.5,23.1-21.4,43.9ZM253.4,82.6c-10.7,0-25.6,23.5-25.6,33.8s1.6,6.5,4.9,6.5c8.1,0,24.8-27.6,24.8-34.2s-.9-6.1-4.1-6.1Z"/>
        <path class="cls-2" d="M368.3,144.5c-.7,0-2.7,3-7.3,3s-10.5-4.5-10.5-12.7c0-14.6,7.8-31,16.1-47.8,8.3-16.9,19.6-34.6,19.6-39.7s-3.6-4.4-6.1-4.4-5.5.1-8.5,1.9c-9.4,5.7-35.5,44.7-45.8,61.1l-.7-.5c3.5-8.3,22.2-52.4,22.2-58.1s-3.1-4.5-6.8-4.5-6.2-.2-9.5,2.8c-8.6,7.6-20,24.8-27.8,36.9-11,17-27.6,45.7-49,49.4l-9.3-2c0,1.6-.7,3.3-1.9,4.7,4.5.2,10-1.1,12.6-1s3.8-.2,5.7-.8c32.3-10.2,53.6-53.8,63.7-67.4h1c-3.4,9.8-22.5,58.6-23.9,61.1-1.4,2.4-3,3.8-3,5.5s2.8,2.3,5.9,2.3c5.6,0,7.8-1.4,10.8-4,4.8-4.1,38.3-56.2,47.3-67.1h.6c-6.4,9.7-29.1,48.7-29.1,72.2s8,21.7,17.6,21.7,16.9-9.7,16.9-11.6-.2-1-.8-1Z"/>
        <path class="cls-2" d="M380,134.8c-7.9,0-14.1-8-14.1-17.6,0-14.8,17.5-41.3,33.1-41.3s6.4-1.3,8.8-1.3c3.7,0,7.2,4.3,7.2,8.8,0,8.7-12.9,23.9-31.7,23.9s-.7,0-1-.1c-1.5,3.5-2.4,6.8-2.4,9.5,0,5.1,1.9,8.4,6.2,8.4,15.5,0,28.3-23.1,29.7-23.1s1.4,2.1,1.4,3.8c0,4.2-17.8,28.9-37.1,28.9ZM404.3,81.3c-4.1,0-13.3,9.8-19.1,20,9.2-2,21.2-11.4,21.2-18s-.7-2-2.1-2Z"/>
      </g>
      <text class="cls-1" transform="translate(17.9 -82.1)"><tspan x="0" y="0">LeagMe</tspan></text>
    </g>
  </g>
</svg>