<?xml version="1.0" encoding="UTF-8"?>
<svg xmlns="http://www.w3.org/2000/svg" version="1.1" viewBox="0 0 432 194.3">
  <defs>
    <style>
      .cls-1 {
        fill: #0e0;
      }
    </style>
  </defs>
  <!-- Generator: Adobe Illustrator 28.6.0, SVG Export Plug-In . SVG Version: 1.2.0 Build 709)  -->
  <g>
    <g id="Layer_1">
      <g>
        <path class="cls-1" d="M146.7,69.1c-2.1,0-3.9,0-5.8-.2-9.4,16-19.7,33.6-31.5,49.2,14.1,13,26.8,25,40.5,25s11.6-5.4,12.4-5.4,1.5.4,1.5,1.3-18,27.2-34.5,27.2-24.6-13.5-37.4-28.2c-13.9,13.1-29.8,22-48.2,22S7.4,144.3,7.4,127.6s15.8-40.9,45.2-40.9,26.7,6.6,37.9,15.2c9.2-12.6,18.4-26.5,27.8-39.6-16.9-8.3-28.9-22.7-28.9-34.4s6.2-12.4,8.8-12.4,3,4.3,4.7,7.7c5.6,11.5,15.4,19.5,26.5,24.6,16.5-20.5,34.2-35.9,55-35.9s21.8,7.9,21.8,17.6c0,16.9-20.5,39.4-59.5,39.4ZM42.6,102.5c-13.9,0-23.3,9.9-23.3,21s7.3,18.2,20.5,18.2,24.6-8.6,36.2-21.4c-10.3-10.1-21.2-17.8-33.4-17.8ZM183.3,21.2c-10.9,0-21.4,13.5-33,32.3,2.6.4,5.4.6,8.1.6,23.5,0,35.1-13,35.1-22.5s-3.8-10.3-10.1-10.3Z"/>
        <path class="cls-1" d="M145.6,132.8c-7.5,0-13.3-7.6-13.3-16.7,0-14,16.5-39.1,31.3-39.1s6.1-1.2,8.4-1.2c3.5,0,6.8,4.1,6.8,8.4,0,8.3-12.2,22.6-30,22.6s-.7,0-1-.1c-1.4,3.3-2.3,6.4-2.3,9,0,4.9,1.8,7.9,5.8,7.9,14.7,0,26.8-21.8,28.1-21.8s1.3,2,1.3,3.6c0,4-16.9,27.3-35.2,27.3ZM168.6,82.2c-3.9,0-12.6,9.3-18.1,19,8.7-1.9,20.1-10.8,20.1-17.1s-.7-1.9-2-1.9Z"/>
        <path class="cls-1" d="M213.5,131.6c-7.7,0-9.5-9.2-9.8-9.2s-8.4,10.1-17.5,10.1-12-5-12-14.8c0-16.2,19.2-41.8,37.3-41.8s9.7,7.6,10,7.6c.6,0,6.4-7.2,8.4-7.2s1.9.3,3.2.7c1.1.2,2.8.4,2.8,2,0,6.1-19.4,33.4-19.4,40.2s.6,1.9,1.7,1.9c7.1,0,18.6-19.5,19.7-19.5s1.4,1.9,1.4,4-16.1,25.9-25.7,25.9ZM209.7,82.1c-8.9,0-21.8,23-21.8,33.9s1.2,5.5,3.4,5.5,10.6-5.3,10.6-7.4-2.3-1.1-3.2-1.1v-.9c2.9-.8,15.5-13.8,15.5-23.9s-1.9-6.1-4.5-6.1Z"/>
        <path class="cls-1" d="M276.4,121c-9.5,19.7-20.7,47.5-40.1,47.5s-18.2-5.7-18.2-14.7,9.8-19,18.4-19,7.9,3.2,7.9,6.5-2.8,5.8-3.2,5.8-.2-.1-.2-.2v-.9c0-1.3-2.3-2.2-5.3-2.2-6.7,0-11,4.7-11,8.9s3.5,7.2,7.5,7.2c9.3,0,16-12.2,19.3-18.9,3.4-6.5,6-13.8,6.2-14.9-3.5,4.1-7.4,5.7-11,5.7-7.2,0-13.3-7.1-13.3-15.9,0-21.6,23.3-40.6,37.5-40.6s9.3,2.6,10.4,8.7c.6-.7,4.4-6,5.6-6.6.9-.6,2.4-.7,3.9-.7h1.3c1.5,0,4.7.9,4.7,2.4,0,2.5-10.9,21.8-20.3,41.6ZM271.4,83.4c-10.1,0-24.3,22.3-24.3,32s1.5,6.2,4.6,6.2c7.7,0,23.5-26.1,23.5-32.4s-.9-5.7-3.9-5.7Z"/>
        <path class="cls-1" d="M350.3,132.2c-5.3,0-10.1-4.1-10.1-9.8,0-12.6,11.6-30.4,14.3-34.4l-.3-.2c-4.3,3.5-13.5,11.7-21.3,24.5-6.5,10.4-10.6,20.7-12.8,20.7-3.9,0-10.1-2.4-10.1-4.7s0-.4.1-.7c5.4-11.8,19.1-35.8,19.1-39l-.3-.3c-.3,0-11.2,8.5-20,20.5-7.4,10.4-14.7,23.7-17.6,23.7s-8.9-2.9-8.9-5.8,5.4-14,12.8-28.1c7.4-14,13.5-23.3,15.1-23.3s9.3,1.8,9.3,4-4.7,12.6-5.2,14.1c.3,0,16.4-16.9,21.3-16.9s10.6,3.4,10.6,6.4-1.4,4.3-3.5,9.2c3.4-3.9,14.2-15.8,19.7-15.8s9.4,2.8,9.4,4.7c0,3-1.4,4.9-2.9,7.8-1.5,3-14,25.5-14,30.2s.3,2.3,2.6,2.3c5.6,0,17.8-19.7,18.6-19.7s1.4,1.9,1.4,3.8c0,3.2-16.4,26.9-27.2,26.9Z"/>
        <path class="cls-1" d="M384.8,132.8c-7.5,0-13.3-7.6-13.3-16.7,0-14,16.5-39.1,31.3-39.1s6.1-1.2,8.4-1.2c3.5,0,6.8,4.1,6.8,8.4,0,8.3-12.2,22.6-30,22.6s-.7,0-1-.1c-1.4,3.3-2.3,6.4-2.3,9,0,4.9,1.8,7.9,5.8,7.9,14.7,0,26.8-21.8,28.1-21.8s1.3,2,1.3,3.6c0,4-16.9,27.3-35.2,27.3ZM407.9,82.2c-3.9,0-12.6,9.3-18.1,19,8.7-1.9,20.1-10.8,20.1-17.1s-.7-1.9-2-1.9Z"/>
      </g>
    </g>
  </g>
</svg>