<?xml version="1.0" encoding="UTF-8"?>
<svg id="Layer_1" data-name="Layer 1" xmlns="http://www.w3.org/2000/svg" version="1.1" viewBox="0 0 432 194.3">
  <defs>
    <style>
      .cls-1 {
        fill: #0e0;
      }

      .cls-1, .cls-2, .cls-3, .cls-4, .cls-5, .cls-6, .cls-7, .cls-8, .cls-9 {
        stroke-width: 0px;
      }

      .cls-10 {
        font-family: CornerStoreJF, CornerStoreJF;
        font-size: 82.6px;
      }

      .cls-10, .cls-4 {
        fill: #b52828;
      }

      .cls-10, .cls-11 {
        isolation: isolate;
      }

      .cls-2 {
        fill: #c92f2f;
      }

      .cls-3 {
        fill: #36482e;
      }

      .cls-5 {
        fill: #161616;
      }

      .cls-6 {
        fill: #ffe422;
      }

      .cls-7 {
        fill: none;
      }

      .cls-8 {
        fill: #bfb5ac;
      }

      .cls-9 {
        fill: #6e7a18;
      }
    </style>
  </defs>
  <g>
    <path class="cls-4" d="M1179.4-204.7c-3,6.8-5.8,14.3-8.3,22.3-8.3,26.9-21.1,53.3-53.1,53.3s-37.6-19.3-37.6-39.5,1.5-14.6,4.5-21.4c-.8-1.4-1.4-3-1.4-5.1,0-5.7,3.9-9.6,9.8-9.6s1.2,0,1.8.1c6.3-6.1,14.6-9.9,24.5-9.9s18.2,6.3,19.8,17.5c7.9-1.8,15.2-4.1,21.8-6.8,10.1-18.2,22.3-33.8,43.3-33.8s8,2.6,8,4.7c0,8.3-14.1,18.9-33.1,28.2ZM1139.8-189.8c-.7,14.1-15,32.7-24.5,32.7s-12.3-3.4-12.3-4.3,2.6-.7,4.5-1.7c1.4-.7,9.5-8.7,12.1-22-5.6.8-11,1.4-15.7,1.4s-7.6-.3-10.6-1.1c-1.8,4.4-2.8,9-2.8,13.5,0,15.7,9.2,25.9,21.2,25.9,22.5,0,32.8-25.6,45.1-49.7-5.5,1.8-11.3,3.7-17,5.3ZM1113.5-205.6c-3.6,0-7.7,2.5-11.4,6.5,2.3,2.6,5.1,5.1,9.5,5.1s6.1-.1,9-.3c0-7.8-2.7-11.3-7.1-11.3ZM1218.9-259.8c-7.7,5.1-14.1,15.7-19.7,15.7s-5.5-11.3-8.1-15.7c-3.2-5.2-9.5-9.4-9.5-10.2,0-1.8,2.3-2.9,3.9-2.9,8.1,0,15.3,7.7,18.9,14.5,7.2-5.8,19.8-14.5,29.4-14.5s2.2.6,2.2,1.7c-.1,3.2-10.9,7.2-17.1,11.4ZM1198.5-229.9c-3.9,0-8.8,5.5-13.8,14.2,9.5-6.1,14.9-11.6,14.9-13.4s-.4-.8-1.1-.8Z"/>
    <path class="cls-4" d="M1192.3-129.5c-7,0-11.3-8-11.3-15.8,0-16.8,21.4-51.5,28.5-54.4.6-.1,1.9-.3,3.4-.3,3.6,0,8.3.7,8.3,3s0,.7-.3,1.1c-3,5.5-23.6,41.6-23.6,51.1s.8,2.9,1.8,2.9c8.5,0,24.5-26,25.8-26s1.7,3.2,1.7,5.1c0,2.4-20.1,33.3-34.3,33.3ZM1211.5-207.1c-1.8,0-2.9-1.2-2.9-2.3,0-2.2,8-3.6,13.8-9.9,5-5.4,6.6-16.7,12-16.7s8.4,3.2,8.4,7.7c0,8.4-23,21.2-31.3,21.2Z"/>
    <path class="cls-4" d="M1243.5-129.2c-6.3,0-12.7-5.4-15.3-11.2-12.5,25.6-22.7,44.5-27.3,44.5s-8-4.8-8-8.4,10.9-23.7,25.2-51c14.5-27.3,24.8-48.8,28-48.8s9.6,2.5,9.6,4.5-.8,3.7-2.5,7.4c5.8-4.3,12.1-8,18.1-8s12.7,5.4,12.7,16c0,20.7-21.5,55-40.5,55ZM1264-190.7c-3.6,0-10.5,5.2-16.3,10.2-3.2,6.8-7.4,15.3-12.5,25.8,1.4,6.5,4.1,12.7,7.7,12.7,7.6,0,25.2-35.6,25.2-43.8,0-2.8-1.4-4.9-4.1-4.9Z"/>
    <path class="cls-4" d="M1318.8-129.1c-8.8,0-14.6-7-14.6-15s4-18.7,6.2-23l-.4-.4c-5.4,5.1-13.9,16.8-18.5,25.4-4.4,8.4-4.7,12.8-6.5,12.8-3,0-10.2-5-10.2-10.6s12.3-28.4,22.5-46.9c10.1-18.3,23.8-43.1,29.6-43.1s8.3,1.8,8.3,5.4c0,5.5-4.3,12.3-9.8,20.9-5.4,8.8-10.7,18.6-11.9,20.8h.7c4.3-3.9,20-17.4,33.8-17.4s9.8,2.9,9.8,8.3c0,9-12.8,26-24,26s-4.5-1.4-5.1-1.4-7.7,19.4-7.7,24.8,1.2,3.9,4.3,3.9c16.3,0,32.7-29.2,34.3-29.2s1.8,3,1.8,4.8c0,1.3-17.8,33.9-42.6,33.9ZM1345.2-194.7c-2.1,0-20.4,11.4-20.4,13.2s1.8,2.1,4.3,2.1c4.1,0,16.9-10.6,16.9-14.5s-.3-.8-.8-.8Z"/>
    <path class="cls-4" d="M1402.1-130.5c-9.6,0-11.9-11.4-12.3-11.4s-10.5,12.7-21.9,12.7-15-6.2-15-18.5c0-20.3,24-52.2,46.6-52.2s12.1,9.5,12.5,9.5c.7,0,8-9,10.5-9s2.3.4,4,.8c1.4.3,3.4.6,3.4,2.5,0,7.6-24.3,41.8-24.3,50.3s.7,2.3,2.1,2.3c8.8,0,23.3-24.4,24.7-24.4s1.8,2.3,1.8,5-20.1,32.4-32.1,32.4ZM1397.4-192.3c-11.2,0-27.3,28.8-27.3,42.3s1.5,6.9,4.3,6.9,13.2-6.6,13.2-9.2-2.9-1.4-4-1.4v-1.1c3.6-1,19.4-17.2,19.4-29.9s-2.3-7.6-5.6-7.6Z"/>
    <path class="cls-8" d="M1454.4-129.8c-8.7,0-15.4-5.1-15.4-15s18.6-38.3,18.6-38.7-4.5-2.2-6.9-2.2-1,.1-1.1.4c-6.8,11-13.5,21.1-18.3,28-.4.7-1,1.1-1.5,1.1-1.2,0-2.1-1.7-2.1-4.1s.8-2.3,1.2-3c1.8-2.6,5.4-8,9.1-15.8,4.1-8.3,5-14.2,7.6-20.4,2.8-6.9,4.8-8.3,9.4-8.3s3.2,1.2,3.2,3.6-1.4,3.9-1.4,4.3c0,.6.8,1,3,1,6.5,0,14.2-1.1,16.1-1.1,3.9,0,9,7.6,9,10.7s-4.3,4.7-7.3,8.1c-5.2,5.6-19.4,25.6-19.4,36.4s.6,2.1,1.9,2.1c3.4,0,9.6-5.4,14.3-11.2,5.2-6.3,9.6-13.2,10.3-13.2,1.2,0,1.8,2.5,1.8,5,0,2.4-20.1,32.3-32.1,32.3Z"/>
    <path class="cls-8" d="M1495.9-128.9c-9.4,0-16.7-9.5-16.7-20.8,0-17.5,20.7-48.9,39.1-48.9s7.6-1.5,10.5-1.5c4.4,0,8.5,5.1,8.5,10.5,0,10.3-15.3,28.2-37.5,28.2s-.8,0-1.2-.1c-1.8,4.1-2.9,8-2.9,11.3,0,6.1,2.2,9.9,7.3,9.9,18.3,0,33.5-27.3,35.1-27.3s1.7,2.5,1.7,4.5c0,5-21,34.2-43.9,34.2ZM1524.7-192.2c-4.8,0-15.7,11.6-22.6,23.7,10.9-2.3,25.1-13.5,25.1-21.4s-.8-2.3-2.5-2.3Z"/>
    <path class="cls-8" d="M1573.1-129.6c-6.5,0-12.7-5.1-12.7-12.3,0-15.7,14.5-38,18.1-43l-.6-.3c-7.6,7.3-22.5,24-30.2,35.7-7.6,11.6-10.3,19.7-13.2,19.7s-8.8-4.1-8.8-9.2,26.3-61.6,32.4-61.6,9.5,1.8,9.5,5.7-4.7,13.6-5.4,16h0c2.5-2.4,18.2-20.7,25.8-20.7s11.7,3.4,11.7,5.9c0,3.7-1.7,6.1-3.6,9.8-1.8,3.7-17.4,31.8-17.4,37.8s.4,2.9,3.2,2.9c7.2,0,22.2-24.7,23.4-24.7s1.8,2.3,1.8,4.7c0,3.9-20.6,33.6-34.1,33.6ZM1596.9-218.6c-6.5,4.3-11.9,13.2-16.7,13.2s-4.5-9.5-6.8-13.2c-2.8-4.4-8.1-7.9-8.1-8.5,0-1.5,2.1-2.5,3.3-2.5,6.9,0,13,6.5,16,12.1,6.1-4.8,16.7-12.1,24.7-12.1s1.9.4,1.9,1.4c0,2.7-9.1,6.1-14.3,9.6Z"/>
  </g>
  <g>
    <path class="cls-4" d="M1129.2,171.6c-14.9,0-21.8-10.6-27.4-21.6-10.9,11.3-23.7,20.4-37.2,20.4s-16.5-7.3-16.5-17.6c0-18.9,16.3-38.6,37.5-38.6s13.8,3,18.1,7.6c3.2-4.4,6.2-9,9.1-13.4,9.9-15,22.7-28.9,35.7-38.2-3.3-.7-7-1-11.2-1-25.9,0-49.5,17.1-49.5,27.4s1.7,2.6,3.6,2.6c12.8,0,24.3-17.5,26.5-21.5.3-.4.6-.7.8-.7.3,0,.6.6.6,1.1,0,23.3-16.1,33.9-28.4,33.9s-13.6-4-13.6-11.6c0-13.6,27.4-37.5,64.9-37.5s10.5.6,15,1.8c6.6-3.6,13.1-5.5,19-5.5s6.2,1.2,6.2,1.7c0,.8-.7.8-3.6.8-4.3,0-8.8,2.2-13.4,6.1,13.1,6.2,21.2,18.9,21.2,38.4,0,30.6-25.3,65.4-57.4,65.4ZM1078.8,124.6c-13.2,0-24.3,10.9-24.3,23.4s4,10.1,9,10.1c8.4,0,19.3-10.1,30.3-23.6-3.7-5.8-8.2-9.9-15-9.9ZM1158.1,74.7c-11.7,13.1-23.3,32.9-31.7,44.4-3.7,5.1-8.3,11.4-13.5,18.1,4.7,9.9,8.7,19.4,18.3,19.4,22.2,0,35.6-31.3,35.6-55.9s-2.9-21-8.7-26Z"/>
    <path class="cls-4" d="M1230.9,170.1c-9.6,0-11.9-11.4-12.3-11.4s-10.5,12.7-21.9,12.7-15-6.2-15-18.5c0-20.3,24-52.2,46.6-52.2s12.1,9.5,12.5,9.5c.7,0,8-9,10.5-9s2.3.4,4,.8c1.4.3,3.4.6,3.4,2.5,0,7.6-24.3,41.8-24.3,50.3s.7,2.3,2.1,2.3c8.8,0,23.3-24.4,24.7-24.4s1.8,2.3,1.8,5-20.1,32.4-32.1,32.4ZM1226.2,108.2c-11.2,0-27.3,28.8-27.3,42.3s1.5,6.9,4.3,6.9,13.2-6.6,13.2-9.2-2.9-1.4-4-1.4v-1.1c3.6-1,19.4-17.2,19.4-29.9,0-4.3-2.3-7.6-5.6-7.6Z"/>
    <path class="cls-2" d="M1283.2,170.7c-8.7,0-15.4-5.1-15.4-15s18.6-38.3,18.6-38.7-4.5-2.2-6.9-2.2-1,0-1.1.4c-6.8,11-13.5,21.1-18.3,28-.4.7-1,1.1-1.5,1.1-1.2,0-2.1-1.7-2.1-4.1s.8-2.3,1.2-3c1.8-2.6,5.4-8,9.1-15.8,4.1-8.3,5-14.2,7.6-20.4,2.8-6.9,4.8-8.3,9.4-8.3s3.2,1.2,3.2,3.6-1.4,3.9-1.4,4.3c0,.6.8,1,3,1,6.5,0,14.2-1.1,16.1-1.1,3.9,0,9,7.6,9,10.7s-4.3,4.7-7.3,8.1c-5.2,5.6-19.4,25.6-19.4,36.4s.6,2.1,1.9,2.1c3.4,0,9.6-5.4,14.3-11.2,5.2-6.3,9.6-13.2,10.3-13.2,1.2,0,1.8,2.5,1.8,5,0,2.4-20.1,32.3-32.1,32.3Z"/>
    <path class="cls-2" d="M1352.1,107.2c-1.8,0-1.4,0-7.3,0-10.2,19-20.7,37.8-20.7,44.2s3,5.5,5,5.5c8.8,0,23.4-24.4,24.7-24.4s1.8,2.3,1.8,5-20.5,33.2-32.5,33.2-19.2-5.1-19.2-13.1,14.7-35.1,21.6-48l1.7-3c-2.8-.3-7-1.1-7-4.5s0-4.7.3-5.6c0-.7.4-1,1.4-1s2.6,0,4.3,0,6.1-.8,7.3-.8c6.1-11.3,12.8-23.2,14.5-23.2,6.3,0,10.2,5.9,10.2,9s-2.1,5.8-7,15h7.4c2.6,0,3.9.8,3.9,2.1-.2,5-6.2,9.4-10.4,9.4Z"/>
    <path class="cls-2" d="M1404.5,123.2c-.7,3.4-1.5,7.6-2.6,12.1,1.2.4,2.3.6,3.2.6,2.9,0,3.4-1.8,3.7-1.8.7,0,.8.1.8.7v.3c0,8-5.2,12.7-10.5,12.7h-1.1c-6.8,16.7-20.4,24-32.4,24s-22.2-7.3-22.2-20,9.5-24.1,24-24.1,3.9,0,5.8.4c4-4.5,9-10.7,13.2-17.2,7.6-11.4,18.5-17.9,23.7-17.9s6.1,1.2,6.1,3.2c0,3-9.1,15.1-11.7,27ZM1367.2,142.4c-9.1,0-13.8,5.9-13.8,11.3s3,8.3,9.2,8.3,14.2-4.7,18.5-17.2c-5-1.3-9.5-2.4-13.9-2.4ZM1388,118.9c-1.1,1.5-4.7,6.1-8.3,10.3,1.8.6,3.6,1,5.4,1.5,1.4-5.1,2.5-9.1,3.3-11.6l-.4-.2Z"/>
    <path class="cls-8" d="M1480.1,109.8c-9.1,0-17.6-2.1-24.9-5.8-13.8,14.5-24.4,31-24.4,44.1s5.5,12.4,13.4,12.4c21.2,0,35.4-20,35.4-29.9s-1.9-4.5-4.8-4.5c-4.8,0-11.6,5.4-13,12.8-.3,1,0,1.4-.7,1.4s-1.8-2.8-1.8-5.6c0-8.1,7.2-17.2,18.2-17.2s11.7,4.7,11.7,11.4c0,16.1-20.9,43.5-49.9,43.5s-27.6-10.3-27.6-25.4,13-37.2,30.6-52.9c-6.1-6.9-9.6-15.7-9.6-26s5.8-15,7.6-15,.3,0,.3.3c0,.6,0,1.5,0,3,0,11.9,4,22.2,12.3,29.4,18.3-13.6,39.7-22.7,56.2-22.7s18.9,5.8,18.9,13.5c0,14.4-19.9,33.2-47.8,33.2ZM1508,69.6c-9.4,0-26,9.9-41.6,23.7,5.1,1.7,11,2.5,17.8,2.5,19,0,33.1-10.6,33.1-18.9-.1-5-3.9-7.3-9.3-7.3Z"/>
    <path class="cls-8" d="M1519.8,145.4c-1.2,4.1-2.1,7.9-2.1,11.2s2.5,4.8,5.4,4.8c13.1,0,29.9-28.7,31.4-28.7s1.8,3,1.8,4.5c0,4.8-21.4,33.6-39.1,33.6s-16.1-8.7-16.1-15.2c0-22,37.5-88.7,64.1-88.7s9.6,3.2,9.6,5.4c0,5.7-31.3,60.3-55,73.1ZM1563.5,78.4c-2.1,0-24.8,27.7-37.5,52.4,14.9-12.1,37.9-49.5,37.9-52s-.2-.4-.4-.4Z"/>
    <path class="cls-8" d="M1591.2,170.9c-6.6,0-12.7-5.1-12.7-12.3s0-1.8,0-2.6c-2.2,3.2-12.8,15-19.2,15s-12.5-8-12.5-15.8c0-16.8,21.5-51.5,28.5-54.4.6,0,1.9-.3,3.6-.3,3.4,0,8.3.7,8.3,3s0,.7-.4,1.1c-2.9,5.5-23.6,41.6-23.6,51.1s.8,2.9,1.9,2.9c3.2,0,14.5-12.4,22.3-25.8,6.9-11.4,15.8-32,18.9-32,6.8,0,11.9,2.3,11.9,4.8,0,3.7-2.2,7.2-4,10.9-1.9,3.7-17.5,31.8-17.5,37.8s.4,2.9,3.3,2.9c7,0,22.2-24.7,23.3-24.7s1.8,2.3,1.8,4.7c0,4.1-20.5,33.7-34,33.7Z"/>
    <path class="cls-8" d="M1635.9,170.7c-9.4,0-18.7-4.7-18.7-22.6s10.2-24.4,20.9-42.3c11.7-19.6,22.7-38.6,29.5-38.6s9.2,2.6,9.2,4.5-6.3,10.6-9.9,16.5c-3.7,6.1-8.8,15-8.8,15.6h.3c3.6-1.8,7.2-2.8,10.2-2.8,7.6,0,13,5.5,13,16.4,0,20.7-19,53.3-45.7,53.3ZM1661.9,108.7c-4.8,0-9,5.2-11,7.4-2.1,2.3-19.7,35.3-19.7,41.3s1.4,4.3,4.8,4.3c10.9,0,31.3-32.7,31.3-46.6,0-2.5-1.8-6.4-5.4-6.4Z"/>
  </g>
  <rect class="cls-7" x="565.2" y="90.1" width="330" height="57.9"/>
  <g class="cls-11">
    <path class="cls-4" d="M742.2,450.6c-15.1,0-22-10.7-27.9-21.9-11,11.4-24.1,20.7-37.9,20.7s-16.8-7.5-16.8-17.9c0-19.2,16.5-39.2,38.1-39.2s14,3.1,18.3,7.7c3.2-4.5,6.2-9,9.3-13.6,10.1-15.3,23.1-29.4,36.3-38.8-3.4-.7-7.2-1-11.3-1-26.4,0-50.2,17.4-50.2,27.9s1.7,2.7,3.5,2.7c13,0,24.6-17.8,26.8-21.8.3-.4.6-.7.8-.7.3,0,.6.6.6,1.1.2,23.5-16.2,34.2-28.7,34.2s-13.8-4.1-13.8-11.8c0-13.8,27.9-38.1,65.9-38.1s10.6.6,15.3,1.8c6.8-3.5,13.3-5.6,19.3-5.6s6.2,1.1,6.2,1.7-.7.8-3.5.8c-4.4,0-8.9,2.3-13.6,6.1,13.3,6.2,21.6,19.2,21.6,39.1.1,31.4-25.6,66.6-58.3,66.6ZM690.9,402.9c-13.4,0-24.6,11-24.6,23.8s4.1,10.3,9,10.3c8.5,0,19.6-10.3,30.9-24-3.8-5.8-8.3-10.1-15.3-10.1ZM771.7,352.3c-12,13.3-23.7,33.5-32.2,45-3.7,5.2-8.3,11.6-13.7,18.3,4.8,10.1,8.8,19.8,18.6,19.8,22.6,0,36.1-31.8,36.1-56.9,0-11.4-2.9-21.3-8.8-26.2Z"/>
    <path class="cls-4" d="M845.6,449.2c-9.9,0-12.1-11.6-12.5-11.6s-10.6,12.9-22.3,12.9-15.3-6.2-15.3-18.8c0-20.6,24.3-53.1,47.3-53.1s12.4,9.7,12.7,9.7c.7,0,8.1-9,10.6-9s2.4.4,4.1.8c1.4.3,3.4.6,3.4,2.5,0,7.7-24.6,42.5-24.6,51.2s.7,2.4,2.1,2.4c8.9,0,23.7-24.8,25.1-24.8s1.8,2.4,1.8,5.1c.3,2.4-20.1,32.7-32.4,32.7ZM840.8,386.3c-11.3,0-27.8,29.2-27.8,43.1s1.6,7.1,4.4,7.1,13.4-6.8,13.4-9.5-3-1.4-4.1-1.4v-1.1c3.5-1,19.8-17.5,19.8-30.5,0-4.4-2.2-7.7-5.7-7.7Z"/>
    <path class="cls-4" d="M898.8,449.8c-8.8,0-15.7-5.2-15.7-15.3s18.9-39,18.9-39.4-4.7-2.3-7.1-2.3-1,.1-1.1.4c-6.9,11.2-13.7,21.4-18.6,28.5-.4.7-1,1.1-1.6,1.1-1.1,0-2.1-1.7-2.1-4.2s.8-2.4,1.1-3.1c1.8-2.7,5.5-8.1,9.3-16.1,4.2-8.3,5.1-14.5,7.7-20.7,2.8-7.1,4.9-8.3,9.6-8.3s3.2,1.1,3.2,3.5-1.4,4-1.4,4.4c0,.6.8,1,3.1,1,6.6,0,14.5-1.1,16.4-1.1,4,0,9,7.7,9,10.9s-4.4,4.8-7.5,8.2c-5.3,5.7-19.8,26.1-19.8,37s.6,2.1,2,2.1c3.4,0,9.9-5.5,14.7-11.3,5.3-6.4,9.9-13.4,10.5-13.4,1.1,0,1.8,2.5,1.8,5.1.3,2.6-20.1,33-32.4,33Z"/>
    <path class="cls-4" d="M968.8,385.2c-1.8,0-1.4.1-7.5.1-10.3,19.3-21,38.4-21,44.9s3.1,5.6,5.1,5.6c8.9,0,23.8-24.8,25.1-24.8s1.8,2.4,1.8,5.1-20.9,33.7-33.1,33.7-19.5-5.2-19.5-13.3,15-35.7,21.9-48.8l1.7-3.1c-2.8-.3-7.2-1.1-7.2-4.7s0-4.8.3-5.7c0-.7.4-1,1.4-1s2.7.1,4.4.1,6.1-.8,7.5-.8c6.1-11.4,13-23.6,14.8-23.6,6.4,0,10.3,5.9,10.3,9s-2.1,5.8-7.2,15.3h7.6c2.7,0,4,.8,4,2.1,0,5.5-6.1,9.9-10.4,9.9Z"/>
    <path class="cls-4" d="M1022.2,401.4c-.7,3.4-1.6,7.7-2.7,12.4,1.1.4,2.4.6,3.2.6,3,0,3.4-1.8,3.7-1.8.7,0,.8.1.8.7v.3c0,8.1-5.3,12.9-10.6,12.9h-1.1c-6.9,17.1-20.7,24.3-33,24.3s-22.6-7.5-22.6-20.3,9.7-24.4,24.3-24.4,3.8.1,5.8.4c4.1-4.7,9-10.9,13.4-17.5,8-11.4,19-17.9,24.3-17.9s6.1,1.1,6.1,3.2c.2,2.8-9,15.2-11.6,27.1ZM984.2,421c-9.3,0-14,5.9-14,11.4s3.1,8.3,9.5,8.3,14.5-4.8,18.8-17.5c-5.2-1.2-9.8-2.2-14.3-2.2ZM1005.3,397.2c-1.1,1.6-4.8,6.1-8.3,10.5,1.8.6,3.5,1,5.5,1.6,1.4-5.2,2.5-9.3,3.4-11.8l-.6-.3Z"/>
  </g>
  <g class="cls-11">
    <path class="cls-4" d="M-484.4,624.3c-16.2,0-23.6-11.6-29.8-23.6-11.8,12.3-25.8,22.1-40.5,22.1s-18-8-18-19.2c0-20.5,17.6-41.9,40.8-41.9s15.1,3.3,19.6,8.2c3.4-4.7,6.7-9.8,10-14.5,10.7-16.3,24.7-31.4,38.8-41.6-3.6-.7-7.6-1.1-12.2-1.1-28.1,0-53.7,18.5-53.7,29.8s1.8,2.9,3.8,2.9c14,0,26.3-19.1,28.9-23.4.4-.4.5-.7.9-.7s.5.5.5,1.3c0,25.4-17.6,36.9-30.9,36.9s-14.9-4.4-14.9-12.5c0-14.9,29.8-40.8,70.6-40.8s11.4.5,16.3,2c7.3-3.8,14.2-6,20.7-6s6.7,1.3,6.7,1.8c0,.9-.7.9-3.8.9-4.7,0-9.6,2.4-14.5,6.5,14.2,6.7,23.1,20.5,23.1,41.8,0,33.3-27.6,71.1-62.4,71.1ZM-539.3,573.1c-14.3,0-26.3,11.8-26.3,25.4s4.4,10.9,9.8,10.9c9.1,0,21.1-10.9,33-25.6-4.3-6.2-9-10.7-16.5-10.7ZM-453,518.8c-12.7,14.2-25.4,35.8-34.5,48.3-4,5.6-9.1,12.5-14.7,19.6,5.1,10.7,9.4,21.1,20,21.1,24.1,0,38.7-33.9,38.7-60.8-.1-12-3.2-22.7-9.5-28.2Z"/>
    <path class="cls-4" d="M-377.9,623.6c-7.3,0-13.8-5.6-13.8-13.3s0-2,.2-2.9c-2.4,3.4-14,16.3-20.9,16.3s-13.6-8.7-13.6-17.2c0-18.3,23.4-56.1,31-59.2.5-.2,2.2-.4,3.8-.4,3.8,0,9.1.7,9.1,3.3s-.2.7-.4,1.3c-3.1,6-25.6,45.2-25.6,55.5s.9,3.1,2.2,3.1c3.4,0,15.8-13.4,24.3-28,7.4-12.5,17.2-34.9,20.5-34.9,7.3,0,12.9,2.5,12.9,5.3,0,4-2.4,7.8-4.4,11.8-2.2,4-19.1,34.7-19.1,41s.4,3.1,3.6,3.1c7.6,0,24.1-26.9,25.4-26.9s2,2.5,2,5.1c-.1,4.6-22.5,37-37.2,37Z"/>
    <path class="cls-4" d="M-330.9,624.3c-10.2,0-18.2-10.3-18.2-22.7,0-19.1,22.5-53.2,42.7-53.2s8.2-1.6,11.4-1.6c4.7,0,9.3,5.6,9.3,11.4,0,11.3-16.7,30.7-40.8,30.7s-.9,0-1.3-.2c-2,4.5-3.1,8.7-3.1,12.3,0,6.5,2.4,10.7,8,10.7,20,0,36.5-29.8,38.3-29.8s1.8,2.7,1.8,4.9c-.3,5.7-23.2,37.5-48.1,37.5ZM-299.6,555.5c-5.3,0-17.1,12.5-24.5,25.8,11.8-2.5,27.2-14.7,27.2-23.2s-.9-2.6-2.7-2.6Z"/>
    <path class="cls-4" d="M-272.4,595.8c-1.3,4.5-2.2,8.5-2.2,12.2s2.7,5.3,5.8,5.3c14.2,0,32.5-31.2,34.1-31.2s2,3.3,2,4.9c0,5.3-23.2,36.5-42.7,36.5s-17.6-9.4-17.6-16.5c0-24,40.8-96.6,69.7-96.6s10.5,3.4,10.5,5.8c.1,6.2-33.8,65.6-59.6,79.6ZM-225,523c-2.2,0-27,30.1-40.8,57,16.2-13.3,41.2-53.7,41.2-56.5,0-.5-.3-.5-.4-.5Z"/>
    <path class="cls-4" d="M-179.5,571.6c-.7,3.8-1.6,8.2-2.9,13.3,1.3.4,2.5.5,3.4.5,3.1,0,3.8-2,4-2,.7,0,.9.2.9.7v.4c.2,8.7-5.6,13.8-11.4,13.8h-1.3c-7.3,18.2-22.1,26.1-35.2,26.1s-24.1-8-24.1-21.8,10.3-26.3,26.1-26.3,4.2.2,6.4.4c4.4-4.9,9.8-11.6,14.3-18.7,8.2-12.5,20.1-19.4,25.8-19.4s6.5,1.3,6.5,3.4c.2,3.5-9.7,16.7-12.5,29.6ZM-220.1,592.5c-10,0-15.1,6.5-15.1,12.3s3.3,9.1,10,9.1,15.4-5.1,20.1-18.7c-5.4-1.6-10.3-2.7-15-2.7ZM-197.4,566.9c-1.3,1.6-5.1,6.5-9.1,11.3,2,.5,3.8,1.1,5.8,1.6,1.5-5.6,2.7-10,3.6-12.5l-.3-.4Z"/>
  </g>
  <g class="cls-11">
    <path class="cls-4" d="M30.7,243.3c-2.5,0-4.9-.5-7.2-1.4-1.9,2.4-3.1,4.7-3.1,6.5s1.9,4.3,4.4,4.3,3.9-1.3,6.2-1.3,2.5.9,2.5,2.2c0,3.6-6.5,3.5-14,6s-14,9.8-14,16.5,3.1,7.2,7.1,7.2c7.3,0,14.5-6.7,14.5-11.7s-1-2.8-2.6-2.8c-5.1,0-7.4,5.3-7.7,6.6-.1.5-.1,1.1-.3,1.1-.3,0-.6-.5-.6-2,0-6.6,4.8-11.7,10.4-11.7s6.1,3,6.1,6.1c0,8.8-10.9,19-24.2,19s-14.1-6.3-14.1-12.2c0-11.7,14.2-18.5,19.5-19.1v-.4c-2-.9-4.7-3-4.7-6.7s2.7-9.1,6.7-12.4c-3.9-3.6-6.5-7.9-6.5-11s1.3-3.7,1.5-3.7c.4,0,3.4,6.6,10.2,11.2,6.5-3.5,14.3-5.4,20.1-5.4s8.4,1.8,8.4,4.7c.1,4.1-7.4,10.4-18.6,10.4ZM42.6,231.4c-4.7,0-9.9,2.5-14.1,5.6,2.1.6,4.4.9,6.9.9,6.5,0,9.8-2.8,9.8-4.8,0-.9-.9-1.7-2.6-1.7Z"/>
    <path class="cls-4" d="M62.1,275c0,.7.4,1.2,1.1,1.2,4.5,0,11.9-12.4,12.5-12.4s1,1.2,1,2.5-10.3,16.5-16.4,16.5-7-3.3-7.6-5.8c-1,1.5-5.1,6.5-9.6,6.5s-7.7-3.2-7.7-9.4c0-10.3,12.2-26.6,23.8-26.6s4.8,4.2,4.9,4.8c1.9-3.4,10.7-22.1,12.1-22.1,2.8,0,4.7,3.2,4.7,5.6,0,2.7-18.8,33.5-18.8,39.2ZM57.7,251.6c-6,0-13.6,14.8-13.6,21.6s.7,3.2,2.2,3.2c4,0,14.2-18.1,14.2-19.9,0-3.6-1.4-4.9-2.8-4.9Z"/>
    <path class="cls-4" d="M77.7,283.3c-3.5,0-5.8-4.1-5.8-8.1,0-8.6,11-26.3,14.5-27.8.3-.1,1-.1,1.8-.1,1.8,0,4.2.4,4.2,1.5s0,.4-.2.6c-1.5,2.8-12,21.2-12,26.1s.4,1.5,1,1.5c4.4,0,12.4-13.3,13.1-13.3s.8,1.6.8,2.6c0,1.3-10.1,17-17.4,17ZM94.9,243.2c-3.3,0-6.2-2.4-6.2-5.8s3.3-6.5,6.8-6.5,6.2,2.4,6.2,5.8c0,3.7-3.3,6.5-6.8,6.5Z"/>
    <path class="cls-4" d="M113.8,250.8c-.9,0-.7.1-3.7.1-5.2,9.7-10.5,19.3-10.5,22.6s1.5,2.8,2.5,2.8c4.5,0,11.9-12.4,12.6-12.4s.9,1.2.9,2.5-10.5,16.9-16.6,16.9-9.8-2.6-9.8-6.7,7.5-17.9,11-24.5l.8-1.5c-1.4-.1-3.6-.6-3.6-2.3s0-2.4,0-2.9c0-.4.2-.5.7-.5s1.3.1,2.2.1,3.1-.4,3.7-.4c3.1-5.8,6.5-11.8,7.4-11.8,3.2,0,5.2,3,5.2,4.6s-1.1,3-3.6,7.7h3.8c1.3,0,2,.4,2,1.1,0,2.3-3,4.6-5.1,4.6Z"/>
    <path class="cls-4" d="M182.5,245c-1.5,3.4-3,7.3-4.2,11.4-4.2,13.7-10.8,27.2-27.1,27.2s-19.2-9.8-19.2-20.2.8-7.4,2.3-10.9c-.4-.7-.7-1.5-.7-2.6,0-2.9,2-4.9,5-4.9s.6,0,.9.1c3.2-3.1,7.4-5.1,12.5-5.1s9.3,3.2,10.1,8.9c4-.9,7.7-2.1,11.1-3.4,5.1-9.3,11.4-17.2,22.1-17.2s4.1,1.3,4.1,2.4c0,4.1-7.2,9.6-16.9,14.3ZM162.3,252.6c-.4,7.2-7.7,16.7-12.5,16.7s-6.3-1.8-6.3-2.2,1.3-.4,2.3-.8c.7-.4,4.8-4.4,6.2-11.2-2.9.4-5.6.7-8,.7s-3.9-.1-5.4-.6c-.9,2.2-1.4,4.6-1.4,6.9,0,8,4.7,13.2,10.8,13.2,11.5,0,16.7-13.1,23-25.4-2.9.9-5.8,1.9-8.7,2.7ZM148.9,244.5c-1.8,0-3.9,1.3-5.8,3.3,1.2,1.3,2.6,2.6,4.8,2.6s3.1-.1,4.6-.1c0-4-1.4-5.8-3.6-5.8ZM192.2,232.1c-2,0-4.5,2.8-7,7.2,4.8-3.1,7.6-5.9,7.6-6.8s-.2-.4-.6-.4Z"/>
    <path class="cls-4" d="M187.5,283.6c-4.8,0-8.5-4.8-8.5-10.6,0-8.9,10.5-24.9,20-24.9s3.9-.8,5.3-.8c2.2,0,4.4,2.6,4.4,5.3,0,5.3-7.8,14.4-19.1,14.4s-.4,0-.6-.1c-.9,2.1-1.5,4.1-1.5,5.8,0,3.1,1.1,5.1,3.7,5.1,9.3,0,17.1-13.9,17.9-13.9s.8,1.3.8,2.3c0,2.5-10.7,17.4-22.4,17.4ZM202.2,251.4c-2.5,0-8,5.9-11.5,12.1,5.6-1.2,12.8-6.9,12.8-10.9s-.4-1.2-1.3-1.2Z"/>
    <path class="cls-4" d="M230.8,282.8c-4.9,0-6-5.8-6.3-5.8s-5.3,6.5-11.2,6.5-7.7-3.2-7.7-9.4c0-10.3,12.2-26.6,23.8-26.6s6.2,4.8,6.4,4.8c.4,0,4.1-4.6,5.3-4.6s1.2.2,2,.4c.7.1,1.8.3,1.8,1.3,0,3.9-12.4,21.3-12.4,25.6s.4,1.2,1.1,1.2c4.5,0,11.9-12.4,12.6-12.4s.9,1.2.9,2.5c0,1.4-10.2,16.5-16.3,16.5ZM228.4,251.3c-5.7,0-13.9,14.7-13.9,21.6s.8,3.5,2.2,3.5,6.7-3.4,6.7-4.7-1.5-.7-2-.7v-.6c1.8-.5,9.9-8.8,9.9-15.2,0-2.2-1.2-3.9-2.9-3.9Z"/>
    <path class="cls-4" d="M272.1,258.9c-.4,1.8-.8,3.9-1.3,6.2.6.2,1.2.3,1.6.3,1.5,0,1.8-.9,1.9-.9.4,0,.4.1.4.4h0c.1,4.2-2.7,6.6-5.3,6.6h-.6c-3.4,8.5-10.4,12.2-16.5,12.2s-11.3-3.7-11.3-10.2,4.8-12.3,12.2-12.3,2,.1,3,.2c2-2.3,4.6-5.5,6.7-8.8,3.9-5.8,9.4-9.1,12.1-9.1s3.1.6,3.1,1.6c0,1.6-4.6,7.8-6,13.8ZM253.1,268.7c-4.6,0-7,3-7,5.8s1.5,4.2,4.7,4.2,7.2-2.4,9.4-8.8c-2.5-.6-4.9-1.2-7.1-1.2ZM263.7,256.8c-.6.8-2.4,3.1-4.2,5.3.9.3,1.8.5,2.7.8.7-2.6,1.3-4.6,1.7-5.9l-.2-.2Z"/>
    <path class="cls-4" d="M311.8,266.7c-3.6,7.1-9.4,10-13.8,10h-.6c-3.7,4-7.9,6.8-12.5,6.8s-9.8-3.3-9.8-10c0-10.3,10.3-26.2,21.6-26.2s3.7.9,5.7.9c3.3,0,4.6,2.8,4.6,5.6,0,5.1-2,11.5-5.3,17.1.4.1.8.3,1.2.3,4.1,0,7.1-7,8.1-7s1.1.9,1.1,1.8c-.1.3-.2.5-.3.7ZM299.7,252.1c-5.6,0-14.5,12.2-14.5,20.5s.8,4.1,3,4.1,2.5-.6,3.8-1.5c-1.8-1.1-2.8-2.7-2.8-4.5s1.7-4.7,4.7-4.7,3,.8,4.1,1.8c2.5-4.4,4.2-9.3,4.2-12.2,0-1.6-.5-3.5-2.5-3.5Z"/>
    <path class="cls-4" d="M328.8,283.3c-3.3,0-6.5-2.6-6.5-6.3,0-8,7.4-19.4,9.2-21.9h-.3c-3.9,3.6-11.5,12.1-15.4,18.1-3.9,5.9-5.3,10-6.7,10s-4.5-2.1-4.5-4.7,13.4-31.4,16.5-31.4,4.8.9,4.8,2.9-2.4,7-2.7,8.2h.1c1.3-1.2,9.3-10.5,13.1-10.5s6,1.8,6,3c0,1.9-.8,3.1-1.8,5-.9,1.9-8.9,16.2-8.9,19.3s.2,1.5,1.6,1.5c3.7,0,11.3-12.6,11.9-12.6s.9,1.2.9,2.4c.1,1.9-10.4,17-17.3,17Z"/>
  </g>
  <g class="cls-11">
    <path class="cls-4" d="M471.2-302.3c-1.8,4-3.5,8.6-5,13.4-5,16.1-12.6,32-31.8,32s-22.5-11.6-22.5-23.7.9-8.8,2.7-12.8c-.5-.8-.8-1.8-.8-3.1,0-3.4,2.3-5.8,5.9-5.8s.7,0,1.1.1c3.8-3.6,8.8-5.9,14.7-5.9s10.9,3.8,11.9,10.5c4.7-1.1,9.1-2.5,13-4,6-10.9,13.4-20.2,25.9-20.2s4.8,1.6,4.8,2.8c0,4.8-8.5,11.2-19.9,16.7ZM447.5-293.4c-.4,8.4-9,19.6-14.7,19.6s-7.3-2.1-7.3-2.6,1.6-.4,2.7-1c.8-.4,5.7-5.2,7.3-13.2-3.4.5-6.6.8-9.4.8s-4.5-.2-6.4-.7c-1.1,2.6-1.7,5.4-1.7,8.1,0,9.4,5.5,15.5,12.7,15.5,13.5,0,19.7-15.4,27-29.8-3.4,1.3-6.8,2.4-10.2,3.3ZM431.7-302.8c-2.1,0-4.6,1.5-6.9,3.9,1.4,1.6,3.1,3.1,5.7,3.1s3.6-.1,5.4-.2c0-4.7-1.6-6.8-4.2-6.8ZM482.7-317.4c-2.3,0-5.3,3.3-8.3,8.5,5.7-3.6,8.9-6.9,8.9-8,0-.2-.2-.5-.6-.5Z"/>
    <path class="cls-4" d="M492.9-257.3c-4,0-7.6-3.1-7.6-7.3s0-1.1.1-1.6c-1.3,1.9-7.7,9-11.5,9s-7.5-4.8-7.5-9.5c0-10.1,12.9-30.9,17.1-32.6.3-.1,1.2-.2,2.1-.2,2.1,0,5,.4,5,1.8s-.1.4-.2.7c-1.7,3.3-14.1,24.9-14.1,30.6s.5,1.7,1.2,1.7c1.9,0,8.7-7.4,13.4-15.4,4.1-6.9,9.5-19.2,11.3-19.2,4,0,7.1,1.4,7.1,2.9,0,2.2-1.3,4.3-2.4,6.5-1.2,2.2-10.5,19.1-10.5,22.6s.2,1.7,2,1.7c4.2,0,13.3-14.8,14-14.8s1.1,1.4,1.1,2.8c-.2,2.6-12.5,20.3-20.6,20.3Z"/>
    <path class="cls-4" d="M519.6-257.4c-5.6,0-11.2-2.8-11.2-13.5s6.1-14.6,12.6-25.4c7-11.7,13.6-23.1,17.7-23.1s5.5,1.6,5.5,2.7-3.8,6.4-5.9,9.9c-2.2,3.6-5.3,9-5.3,9.3h.2c2.1-1.1,4.3-1.6,6.1-1.6,4.5,0,7.8,3.3,7.8,9.8,0,12.4-11.4,31.9-27.5,31.9ZM535.3-294.5c-2.9,0-5.4,3.1-6.6,4.5-1.2,1.4-11.8,21.1-11.8,24.8s.8,2.6,2.9,2.6c6.5,0,18.7-19.6,18.7-27.9,0-1.7-1.1-4-3.2-4Z"/>
    <path class="cls-4" d="M580.9-285.8c-.4,2.1-.9,4.5-1.6,7.3.7.2,1.4.3,1.9.3,1.7,0,2.1-1.1,2.2-1.1.4,0,.5.1.5.4v.2c0,4.8-3.1,7.6-6.3,7.6h-.7c-4,10-12.2,14.4-19.4,14.4s-13.3-4.4-13.3-12,5.7-14.5,14.4-14.5,2.3.1,3.5.2c2.4-2.7,5.4-6.4,7.9-10.3,4.5-6.9,11.1-10.7,14.2-10.7s3.6.7,3.6,1.9c0,1.9-5.3,9.2-6.9,16.3ZM558.5-274.4c-5.5,0-8.3,3.6-8.3,6.8s1.8,5,5.5,5,8.5-2.8,11.1-10.3c-2.9-.8-5.6-1.5-8.3-1.5ZM571-288.4c-.7.9-2.8,3.6-5,6.2,1.1.3,2.1.6,3.2.9.8-3.1,1.5-5.5,2-6.9l-.2-.2Z"/>
    <path class="cls-4" d="M596.1-256.2c-6.2,0-11.6-4.1-11.6-13s11.6-29.6,23-29.6,3.4-.7,6-.7c3.8,0,6.7,1.9,6.7,8.1s-3.4,7.8-5.5,8.8c-2.1,1.2-4.5,2-5.8,2s-.5-.2-.5-.4.4-.2,1-1.1,2.9-6.2,2.9-10.7-.2-1.9-1.1-1.9c-2.9,0-16.1,15.9-16.1,26.1s2.7,5.7,5.2,5.7c12.2,0,21.1-17.1,22.1-17.1s1,1.9,1,2.9c0,1.4-11.1,20.9-27.3,20.9Z"/>
    <path class="cls-4" d="M635.7-257.4c-5.2,0-9.2-3.1-9.2-9s11.1-23,11.1-23.2-2.7-1.3-4.1-1.3-.6.1-.7.2c-4,6.6-8.1,12.6-11,16.8-.2.4-.6.7-.9.7-.7,0-1.2-1-1.2-2.5s.5-1.4.7-1.8c1.1-1.6,3.2-4.8,5.5-9.5,2.5-5,3-8.5,4.5-12.2,1.7-4.1,2.9-5,5.6-5s1.9.7,1.9,2.1-.8,2.3-.8,2.6.5.6,1.8.6c3.9,0,8.5-.7,9.7-.7,2.3,0,5.4,4.5,5.4,6.4s-2.6,2.8-4.4,4.9c-3.1,3.4-11.6,15.4-11.6,21.8s.3,1.2,1.2,1.2c2.1,0,5.8-3.2,8.6-6.7,3.1-3.8,5.8-7.9,6.2-7.9.7,0,1.1,1.5,1.1,3,0,1.6-12.2,19.5-19.4,19.5Z"/>
    <path class="cls-4" d="M656.5-257.2c-4.1,0-6.8-4.8-6.8-9.5,0-10.1,12.9-30.9,17.1-32.6.3-.1,1.2-.2,2.1-.2,2.1,0,5,.4,5,1.8s0,.4-.2.7c-1.7,3.3-14.1,24.9-14.1,30.6s.5,1.7,1.2,1.7c5.1,0,14.6-15.6,15.4-15.6s1,1.9,1,3.1c-.2,1.5-12.1,20-20.7,20ZM676.7-304.3c-3.9,0-7.3-2.8-7.3-6.8s3.9-7.6,8-7.6,7.3,2.8,7.3,6.8-3.9,7.6-8,7.6Z"/>
    <path class="cls-4" d="M683.4-257.4c-5.6,0-11.2-2.8-11.2-13.5s6.1-14.6,12.6-25.4c7-11.7,13.6-23.1,17.7-23.1s5.5,1.6,5.5,2.7-3.8,6.4-5.9,9.9c-2.2,3.6-5.3,9-5.3,9.3h.2c2.1-1.1,4.3-1.6,6.1-1.6,4.5,0,7.8,3.3,7.8,9.8-.2,12.4-11.5,31.9-27.5,31.9ZM699-294.5c-2.9,0-5.4,3.1-6.6,4.5-1.2,1.4-11.8,21.1-11.8,24.8s.8,2.6,2.9,2.6c6.5,0,18.7-19.6,18.7-27.9,0-1.7-1-4-3.2-4Z"/>
    <path class="cls-4" d="M719.5-256.9c-5.6,0-10-5.7-10-12.5,0-10.5,12.4-29.3,23.5-29.3s4.5-.9,6.3-.9c2.6,0,5.1,3.1,5.1,6.3,0,6.2-9.2,16.9-22.5,16.9s-.5,0-.7-.1c-1.1,2.5-1.7,4.8-1.7,6.8,0,3.6,1.3,5.9,4.4,5.9,11,0,20.1-16.4,21.1-16.4s1,1.5,1,2.7c-.2,3.1-12.8,20.6-26.5,20.6ZM736.7-294.8c-2.9,0-9.4,6.9-13.5,14.2,6.5-1.4,15-8.1,15-12.8s-.5-1.4-1.5-1.4Z"/>
  </g>
  <text class="cls-10" transform="translate(-36.6 -104.9)"><tspan x="0" y="0">Seasons</tspan></text>
  <g class="cls-11">
    <path class="cls-4" d="M-9.5-288.2c-2.1,4.8-4.1,10.1-5.8,15.7-5.8,18.9-14.9,37.6-37.4,37.6s-26.5-13.6-26.5-27.9,1.1-10.3,3.2-15.1c-.6-1-1-2.1-1-3.6,0-4,2.7-6.8,6.9-6.8s.9,0,1.3.1c4.5-4.3,10.3-7,17.3-7s12.8,4.5,14,12.3c5.5-1.3,10.7-2.9,15.3-4.8,7.1-12.8,15.7-23.8,30.5-23.8s5.6,1.8,5.6,3.3c0,6-10,13.5-23.4,20ZM-37.3-277.7c-.5,9.9-10.6,23-17.3,23s-8.6-2.4-8.6-3,1.8-.5,3.2-1.2c1-.5,6.7-6.1,8.5-15.5-4,.6-7.8,1-11.1,1s-5.3-.2-7.5-.8c-1.3,3.1-1.9,6.3-1.9,9.5,0,11.1,6.5,18.3,15,18.3,15.8,0,23.1-18.1,31.8-35.1-4.1,1.3-8.2,2.7-12.1,3.8ZM-55.9-288.8c-2.5,0-5.4,1.7-8.1,4.6,1.7,1.8,3.6,3.6,6.7,3.6s4.3-.1,6.3-.2c0-5.6-1.8-8-4.9-8ZM4-306c-2.7,0-6.2,3.9-9.7,10,6.7-4.3,10.5-8.2,10.5-9.4s-.3-.6-.8-.6Z"/>
    <path class="cls-4" d="M2.9-235c-4.5,0-8.9-3.8-10.8-7.9-8.8,18.1-16,31.4-19.2,31.4s-5.6-3.4-5.6-5.9,7.7-16.7,17.8-35.9c10.2-19.2,17.5-34.4,19.7-34.4s6.8,1.7,6.8,3.2-.6,2.6-1.7,5.2c4.1-3,8.5-5.6,12.7-5.6s8.9,3.8,8.9,11.3c0,14.4-15.2,38.6-28.6,38.6ZM17.3-278.3c-2.5,0-7.4,3.7-11.5,7.2-2.2,4.7-5.2,10.7-8.8,18.1,1,4.6,2.9,8.9,5.4,8.9,5.3,0,17.8-25.1,17.8-30.9,0-1.9-.9-3.3-2.9-3.3Z"/>
    <path class="cls-4" d="M64.1-235.9c-6.8,0-8.4-8.1-8.6-8.1-.3,0-7.4,8.9-15.4,8.9s-10.6-4.4-10.6-13c0-14.3,16.9-36.8,32.8-36.8s8.5,6.7,8.8,6.7c.5,0,5.6-6.3,7.4-6.3s1.7.3,2.8.6c1,.2,2.4.4,2.4,1.7,0,5.3-17.1,29.4-17.1,35.4s.5,1.7,1.5,1.7c6.2,0,16.4-17.2,17.4-17.2s1.3,1.7,1.3,3.5c0,1.9-14.2,22.9-22.7,22.9ZM60.8-279.5c-7.9,0-19.2,20.3-19.2,29.8s1.1,4.9,3,4.9,9.3-4.7,9.3-6.5-2-1-2.8-1v-.8c2.5-.7,13.7-12.1,13.7-21.1,0-3-1.6-5.3-4-5.3Z"/>
    <path class="cls-4" d="M101-235.4c-6.1,0-10.9-3.6-10.9-10.6s13.1-27,13.1-27.3-3.2-1.6-4.9-1.6-.7.1-.8.3c-4.8,7.8-9.5,14.9-12.9,19.7-.3.5-.7.8-1.1.8-.9,0-1.5-1.2-1.5-2.9s.6-1.7.9-2.1c1.3-1.8,3.8-5.6,6.4-11.2,2.9-5.8,3.5-10,5.3-14.4,1.9-4.9,3.4-5.8,6.6-5.8s2.2.9,2.2,2.5-1,2.7-1,3,.6.7,2.1.7c4.6,0,10-.8,11.4-.8,2.7,0,6.3,5.3,6.3,7.6s-3,3.3-5.1,5.7c-3.7,4-13.7,18.1-13.7,25.6s.4,1.5,1.4,1.5c2.4,0,6.8-3.8,10.1-7.9,3.7-4.5,6.8-9.3,7.3-9.3.9,0,1.3,1.7,1.3,3.5.2,1.9-14,23-22.5,23Z"/>
    <path class="cls-4" d="M138.1-235.4c-6.1,0-10.9-3.6-10.9-10.6s13.1-27,13.1-27.3-3.2-1.6-4.9-1.6-.7.1-.8.3c-4.8,7.8-9.5,14.9-12.9,19.7-.3.5-.7.8-1.1.8-.9,0-1.5-1.2-1.5-2.9s.6-1.7.9-2.1c1.3-1.8,3.8-5.6,6.4-11.2,2.9-5.8,3.5-10,5.3-14.4,1.9-4.9,3.4-5.8,6.6-5.8s2.2.9,2.2,2.5-1,2.7-1,3,.6.7,2.1.7c4.6,0,10-.8,11.4-.8,2.7,0,6.3,5.3,6.3,7.6s-3,3.3-5.1,5.7c-3.7,4-13.7,18.1-13.7,25.6s.4,1.5,1.4,1.5c2.4,0,6.8-3.8,10.1-7.9,3.7-4.5,6.8-9.3,7.3-9.3.9,0,1.3,1.7,1.3,3.5,0,1.9-14,23-22.5,23Z"/>
    <path class="cls-4" d="M162.5-235.2c-4.9,0-8-5.6-8-11.2,0-11.8,15.1-36.3,20.1-38.4.4-.1,1.4-.2,2.5-.2,2.4,0,5.8.5,5.8,2.1s-.1.5-.3.8c-2,3.9-16.6,29.3-16.6,36s.6,2,1.4,2c6,0,17.2-18.4,18.1-18.4s1.2,2.2,1.2,3.6-14.1,23.7-24.2,23.7ZM186.3-290.7c-4.6,0-8.5-3.3-8.5-8s4.6-8.9,9.4-8.9,8.5,3.3,8.5,8-4.6,8.9-9.4,8.9Z"/>
    <path class="cls-4" d="M210-235.3c-4.6,0-8.9-3.6-8.9-8.6,0-11.1,10.2-26.8,12.7-30.3l-.4-.2c-5.3,5.1-15.8,16.9-21.3,25.1-5.3,8.2-7.3,13.9-9.3,13.9s-6.2-2.9-6.2-6.5,18.5-43.4,22.8-43.4,6.7,1.3,6.7,4-3.3,9.6-3.8,11.3h.1c1.7-1.6,12.8-14.6,18.2-14.6s8.3,2.4,8.3,4.2c0,2.6-1.2,4.3-2.5,6.9-1.4,2.6-12.4,22.4-12.4,26.5s.3,2,2.2,2c5,0,15.6-17.4,16.5-17.4s1.3,1.7,1.3,3.3c.1,2.9-14.5,23.8-24,23.8Z"/>
    <path class="cls-4" d="M266.9-245.2c-8.4,17.4-18.3,41.9-35.3,41.9s-16-5-16-12.9,8.6-16.7,16.2-16.7,7,2.8,7,5.7-2.4,5.1-2.8,5.1-.2-.1-.2-.2v-.8c0-1.2-2-1.9-4.7-1.9-5.9,0-9.7,4.2-9.7,7.9s3.1,6.3,6.6,6.3c8.2,0,14.1-10.8,17-16.6,3-5.7,5.2-12.1,5.4-13.1-3.1,3.6-6.5,5.1-9.7,5.1-6.3,0-11.7-6.2-11.7-14,0-19,20.5-35.7,33-35.7s8.2,2.3,9.1,7.7c.5-.6,3.9-5.2,5-5.8.8-.5,2.1-.6,3.4-.6h1.2c1.4,0,4.2.8,4.2,2.1-.2,2.1-9.8,19.1-18,36.5ZM262.4-278.3c-8.9,0-21.4,19.6-21.4,28.2s1.4,5.4,4.1,5.4c6.8,0,20.7-23,20.7-28.5,0-3.1-.8-5.1-3.4-5.1Z"/>
    <path class="cls-4" d="M318.1-268.9c-.5,2.4-1.1,5.3-1.8,8.5.9.3,1.7.4,2.2.4,2,0,2.4-1.3,2.6-1.3.5,0,.6.1.6.5v.2c.1,5.6-3.7,8.9-7.4,8.9h-.8c-4.8,11.7-14.4,16.9-22.8,16.9s-15.6-5.1-15.6-14.1,6.7-17,16.9-17,2.7.1,4.1.3c2.8-3.2,6.3-7.6,9.3-12.1,5.3-8.1,13-12.6,16.7-12.6s4.3.9,4.3,2.2c0,2.3-6.4,10.8-8.3,19.2ZM291.8-255.4c-6.4,0-9.7,4.2-9.7,8s2.1,5.8,6.5,5.8,10-3.3,13-12.1c-3.5-.9-6.7-1.7-9.8-1.7ZM306.5-271.9c-.8,1.1-3.3,4.3-5.8,7.3,1.3.4,2.5.7,3.8,1.1,1-3.6,1.7-6.4,2.3-8.2l-.3-.2Z"/>
  </g>
  <g class="cls-11">
    <path class="cls-6" d="M-463.1,405.6c-5,0-8.1-5.7-8.1-11.4,0-12.1,15.4-37,20.5-39.1.4-.1,1.4-.2,2.6-.2,2.5,0,5.9.5,5.9,2.2s-.1.5-.3.8c-2.1,4-16.9,29.9-16.9,36.7s.6,2.1,1.4,2.1c6.1,0,17.5-18.7,18.4-18.7s1.2,2.3,1.2,3.7-14.4,23.9-24.7,23.9ZM-438.8,349.1c-4.7,0-8.7-3.4-8.7-8.1s4.7-9.1,9.6-9.1,8.7,3.4,8.7,8.1c0,5.2-4.7,9.1-9.6,9.1Z"/>
    <path class="cls-1" d="M-372.4,351.6c-2.2,4.9-4.2,10.3-5.9,16-5.9,19.3-15.1,38.3-38.1,38.3s-27-13.9-27-28.4,1.1-10.5,3.3-15.3c-.6-1-1-2.2-1-3.7,0-4.1,2.8-6.9,7-6.9s.9,0,1.3.1c4.6-4.4,10.5-7.1,17.6-7.1s13.1,4.6,14.3,12.6c5.6-1.3,10.9-3,15.6-4.9,7.2-13.1,16-24.3,31.1-24.3s5.7,1.9,5.7,3.4c0,5.9-10.2,13.6-23.9,20.2ZM-400.8,362.3c-.5,10.1-10.8,23.4-17.6,23.4s-8.8-2.5-8.8-3.1,1.9-.5,3.3-1.2c1-.5,6.8-6.2,8.7-15.8-4.1.6-7.9,1-11.3,1s-5.4-.2-7.6-.8c-1.3,3.2-2,6.4-2,9.7,0,11.3,6.6,18.6,15.2,18.6,16.1,0,23.6-18.4,32.4-35.7-4.1,1.4-8.2,2.8-12.3,3.9ZM-419.7,351c-2.6,0-5.5,1.8-8.2,4.7,1.7,1.9,3.7,3.7,6.8,3.7s4.4-.1,6.4-.2c.1-5.7-1.8-8.2-5-8.2ZM-358.6,333.5c-2.8,0-6.3,4-9.9,10.2,6.8-4.4,10.7-8.3,10.7-9.6s-.3-.6-.8-.6Z"/>
    <path class="cls-1" d="M-359.8,405.8c-4.6,0-9.1-3.9-11-8-9,18.4-16.3,32-19.6,32s-5.7-3.5-5.7-6,7.8-17,18.1-36.6c10.4-19.6,17.8-35,20.1-35s6.9,1.8,6.9,3.3-.6,2.7-1.8,5.3c4.2-3.1,8.7-5.7,13-5.7s9.1,3.9,9.1,11.5c0,14.6-15.4,39.2-29.1,39.2ZM-345,361.7c-2.6,0-7.5,3.8-11.7,7.3-2.3,4.9-5.3,11-9,18.5,1,4.7,3,9.1,5.5,9.1,5.4,0,18.1-25.5,18.1-31.5s-1-3.4-2.9-3.4Z"/>
    <path class="cls-1" d="M-297.3,405c-6.9,0-8.5-8.2-8.8-8.2s-7.5,9.1-15.7,9.1-10.8-4.5-10.8-13.3c0-14.6,17.2-37.5,33.5-37.5s8.7,6.8,9,6.8c.5,0,5.7-6.4,7.5-6.4s1.7.3,2.9.6c1,.2,2.5.4,2.5,1.8,0,5.4-17.4,30-17.4,36.1s.5,1.7,1.5,1.7c6.3,0,16.7-17.5,17.7-17.5s1.3,1.7,1.3,3.6c-.2,1.8-14.6,23.2-23.2,23.2ZM-300.7,360.5c-8,0-19.6,20.7-19.6,30.4s1.1,5,3.1,5,9.5-4.8,9.5-6.6-2.1-1-2.9-1v-.8c2.6-.7,14-12.4,14-21.5s-1.7-5.5-4.1-5.5Z"/>
    <path class="cls-1" d="M-259.7,405.4c-6.2,0-11.1-3.7-11.1-10.8s13.4-27.5,13.4-27.8-3.3-1.6-5-1.6-.7.1-.8.3c-4.9,7.9-9.7,15.1-13.2,20.1-.3.5-.7.8-1.1.8-.9,0-1.5-1.2-1.5-3s.6-1.7.9-2.2c1.3-1.9,3.9-5.7,6.5-11.4,3-5.9,3.6-10.2,5.4-14.7,2-4.9,3.5-5.9,6.7-5.9s2.3.9,2.3,2.6-1,2.8-1,3.1.6.7,2.2.7c4.7,0,10.2-.8,11.6-.8,2.8,0,6.4,5.4,6.4,7.7s-3.1,3.4-5.2,5.8c-3.8,4.1-14,18.4-14,26.1s.4,1.5,1.4,1.5c2.5,0,6.9-3.9,10.3-8,3.8-4.6,6.9-9.5,7.4-9.5.9,0,1.3,1.8,1.3,3.6.2,2-14.3,23.4-22.9,23.4Z"/>
    <path class="cls-1" d="M-221.9,405.4c-6.2,0-11.1-3.7-11.1-10.8s13.4-27.5,13.4-27.8-3.3-1.6-5-1.6-.7.1-.8.3c-4.9,7.9-9.7,15.1-13.2,20.1-.3.5-.7.8-1.1.8-.9,0-1.5-1.2-1.5-3s.6-1.7.9-2.2c1.3-1.9,3.9-5.7,6.5-11.4,3-5.9,3.6-10.2,5.4-14.7,2-4.9,3.5-5.9,6.7-5.9s2.3.9,2.3,2.6-1,2.8-1,3.1.6.7,2.2.7c4.7,0,10.2-.8,11.6-.8,2.8,0,6.4,5.4,6.4,7.7s-3.1,3.4-5.2,5.8c-3.8,4.1-14,18.4-14,26.1s.4,1.5,1.4,1.5c2.5,0,6.9-3.9,10.3-8,3.8-4.6,6.9-9.5,7.4-9.5.9,0,1.3,1.8,1.3,3.6.2,2-14.3,23.4-22.9,23.4Z"/>
    <path class="cls-1" d="M-197,405.6c-5,0-8.1-5.7-8.1-11.4,0-12.1,15.4-37,20.5-39.1.4-.1,1.4-.2,2.6-.2,2.5,0,5.9.5,5.9,2.2s-.1.5-.3.8c-2.1,4-16.9,29.9-16.9,36.7s.6,2.1,1.4,2.1c6.1,0,17.5-18.7,18.4-18.7s1.2,2.3,1.2,3.7c0,1.8-14.5,23.9-24.7,23.9ZM-172.8,349.1c-4.7,0-8.7-3.4-8.7-8.1s4.7-9.1,9.6-9.1,8.7,3.4,8.7,8.1-4.6,9.1-9.6,9.1Z"/>
    <path class="cls-1" d="M-148.6,405.5c-4.7,0-9.1-3.7-9.1-8.8,0-11.3,10.4-27.3,13-30.9l-.4-.2c-5.4,5.2-16.1,17.2-21.7,25.6-5.4,8.3-7.4,14.2-9.5,14.2s-6.3-3-6.3-6.6,18.9-44.3,23.3-44.3,6.8,1.3,6.8,4.1-3.4,9.8-3.9,11.5h.1c1.8-1.7,13.1-14.8,18.5-14.8s8.4,2.5,8.4,4.3c0,2.7-1.2,4.4-2.6,7-1.3,2.7-12.5,22.9-12.5,27.1s.3,2.1,2.3,2.1c5.1,0,15.9-17.7,16.8-17.7s1.3,1.7,1.3,3.4c0,2.8-14.8,24-24.5,24Z"/>
    <path class="cls-1" d="M-90.6,395.4c-8.5,17.7-18.6,42.7-36,42.7s-16.3-5.1-16.3-13.2,8.8-17,16.5-17,7.1,2.9,7.1,5.8-2.5,5.2-2.9,5.2-.2-.1-.2-.2v-.8c0-1.2-2.1-2-4.8-2-6,0-9.9,4.3-9.9,8s3.2,6.4,6.7,6.4c8.3,0,14.4-11,17.3-16.9,3.1-5.8,5.3-12.4,5.5-13.4-3.2,3.7-6.6,5.1-9.9,5.1-6.4,0-12-6.3-12-14.3,0-19.4,20.9-36.4,33.7-36.4s8.3,2.4,9.3,7.8c.5-.6,4-5.3,5-5.9.8-.5,2.2-.6,3.5-.6h1.2c1.4,0,4.3.8,4.3,2.2,0,2.5-9.7,19.8-18.1,37.5ZM-95.2,361.7c-9.1,0-21.8,20-21.8,28.7s1.4,5.5,4.2,5.5c6.9,0,21.1-23.5,21.1-29.1,0-3-.8-5.1-3.5-5.1Z"/>
  </g>
  <g class="cls-11">
    <path class="cls-5" d="M-482-11.3c-2.5,5.6-4.8,11.8-6.8,18.4-6.8,22.2-17.4,44-43.8,44s-31-15.9-31-32.6,1.2-12,3.7-17.6c-.7-1.1-1.1-2.5-1.1-4.2,0-4.7,3.2-8,8.1-8s1,0,1.5.1c5.2-5,12-8.2,20.2-8.2s15,5.2,16.4,14.4c6.5-1.5,12.5-3.4,18-5.6,8.3-15,18.4-27.8,35.7-27.8s6.6,2.2,6.6,3.9c-.1,6.8-11.8,15.6-27.5,23.2ZM-514.6,1c-.6,11.6-12.4,26.9-20.2,26.9s-10.1-2.8-10.1-3.5,2.2-.6,3.7-1.4c1.1-.6,7.8-7.2,10-18.2-4.7.7-9.1,1.1-13,1.1s-6.2-.2-8.7-.9c-1.5,3.6-2.3,7.4-2.3,11.1,0,13,7.6,21.4,17.5,21.4,18.5,0,27-21.1,37.2-41-4.7,1.6-9.5,3.2-14.1,4.5ZM-536.3-12c-3,0-6.4,2-9.4,5.3,1.9,2.2,4.2,4.2,7.8,4.2s5,0,7.4-.2c0-6.4-2.2-9.3-5.8-9.3ZM-466.2-32.1c-3.2,0-7.3,4.5-11.4,11.7,7.8-5,12.3-9.5,12.3-11,0-.3-.3-.7-.9-.7Z"/>
    <path class="cls-5" d="M-466.4,51c-5.2,0-10.5-4.4-12.6-9.2-10.3,21.1-18.7,36.7-22.5,36.7s-6.6-4-6.6-6.9,9-19.5,20.8-42c11.9-22.6,20.4-40.3,23-40.3s8,2,8,3.8-.7,3.1-2,6.1c4.8-3.5,10-6.6,14.9-6.6s10.5,4.4,10.5,13.2c0,16.9-17.9,45.2-33.5,45.2ZM-449.5.3c-3,0-8.6,4.3-13.4,8.4-2.6,5.6-6.2,12.6-10.4,21.3,1.1,5.3,3.4,10.5,6.4,10.5,6.2,0,20.8-29.3,20.8-36.1s-1.1-4.1-3.4-4.1Z"/>
    <path class="cls-5" d="M-394.7,49.9c-8,0-9.8-9.4-10.1-9.4s-8.6,10.5-18.1,10.5-12.4-5.1-12.4-15.2c0-16.7,19.8-43.1,38.4-43.1s10,7.8,10.3,7.8c.6,0,6.6-7.4,8.6-7.4s1.9.3,3.3.7c1.1.2,2.8.5,2.8,2,0,6.2-20,34.4-20,41.5s.6,1.9,1.7,1.9c7.3,0,19.2-20.1,20.3-20.1s1.5,1.9,1.5,4.1c.1,2.2-16.5,26.7-26.3,26.7ZM-398.6-1.1c-9.2,0-22.5,23.7-22.5,34.9s1.2,5.7,3.5,5.7,10.9-5.5,10.9-7.6-2.4-1.1-3.3-1.1v-.9c3-.8,16-14.2,16-24.7s-1.9-6.3-4.6-6.3Z"/>
    <path class="cls-5" d="M-351.6,50.5c-7.2,0-12.7-4.2-12.7-12.4,0-11.1,15.3-31.6,15.3-31.9s-3.8-1.8-5.7-1.8-.8,0-.9.3c-5.6,9.1-11.1,17.4-15.1,23.1-.3.6-.8.9-1.2.9-1,0-1.7-1.4-1.7-3.4s.7-1.9,1-2.5c1.5-2.2,4.4-6.6,7.5-13.1,3.4-6.8,4.1-11.7,6.2-16.8,2.3-5.7,4-6.8,7.7-6.8s2.6,1,2.6,3-1.1,3.2-1.1,3.5c0,.5.7.8,2.5.8,5.3,0,11.7-.9,13.3-.9,3.2,0,7.4,6.2,7.4,8.9s-3.5,3.9-6,6.7c-4.3,4.7-16,21.1-16,30s.5,1.7,1.6,1.7c2.8,0,8-4.4,11.8-9.2,4.3-5.2,8-10.9,8.5-10.9,1,0,1.5,2,1.5,4.1,0,2.1-16.6,26.7-26.5,26.7Z"/>
    <path class="cls-5" d="M-308.2,50.5c-7.2,0-12.7-4.2-12.7-12.4s15.3-31.6,15.3-31.9-3.8-1.8-5.7-1.8-.8,0-.9.3c-5.6,9.1-11.1,17.4-15.1,23.1-.3.6-.8.9-1.2.9-1,0-1.7-1.4-1.7-3.4s.7-1.9,1-2.5c1.5-2.2,4.4-6.6,7.5-13.1,3.4-6.8,4.1-11.7,6.2-16.8,2.3-5.7,4-6.8,7.7-6.8s2.6,1,2.6,3-1.1,3.2-1.1,3.5c0,.5.7.8,2.5.8,5.3,0,11.7-.9,13.3-.9,3.2,0,7.4,6.2,7.4,8.9s-3.5,3.9-6,6.7c-4.3,4.7-16,21.1-16,30s.5,1.7,1.6,1.7c2.8,0,8-4.4,11.8-9.2,4.3-5.2,8-10.9,8.5-10.9,1,0,1.5,2,1.5,4.1,0,2.1-16.6,26.7-26.5,26.7Z"/>
    <path class="cls-5" d="M-279.6,50.7c-5.7,0-9.3-6.6-9.3-13.1,0-13.9,17.7-42.5,23.5-44.9.5,0,1.6-.2,3-.2,2.8,0,6.8.6,6.8,2.5s-.1.6-.3.9c-2.4,4.5-19.4,34.3-19.4,42.2s.7,2.4,1.6,2.4c7,0,20.1-21.5,21.1-21.5s1.4,2.6,1.4,4.2c-.2,2.1-16.6,27.5-28.4,27.5ZM-251.8-14.1c-5.3,0-10-3.9-10-9.3s5.3-10.5,11-10.5,10,3.9,10,9.3c0,5.9-5.3,10.5-11,10.5Z"/>
    <path class="cls-5" d="M-224.1,50.6c-5.3,0-10.5-4.2-10.5-10.1,0-13,11.9-31.4,14.9-35.5l-.5-.2c-6.2,6-18.5,19.8-24.9,29.4-6.2,9.5-8.5,16.2-10.9,16.2s-7.3-3.4-7.3-7.6,21.7-50.8,26.7-50.8,7.8,1.5,7.8,4.7-3.9,11.2-4.4,13.2h.1c2-1.9,15-17.1,21.2-17.1s9.7,2.8,9.7,4.9c0,3.1-1.4,5-3,8.1-1.5,3.1-14.3,26.2-14.3,31.1s.3,2.4,2.6,2.4c5.9,0,18.3-20.3,19.3-20.3s1.5,1.9,1.5,3.9c.2,3.3-16.8,27.7-28,27.7Z"/>
    <path class="cls-5" d="M-157.5,39c-9.8,20.3-21.4,49-41.4,49s-18.7-5.9-18.7-15.1,10.1-19.5,19-19.5,8.2,3.3,8.2,6.7-2.8,6-3.3,6-.2,0-.2-.2v-.9c0-1.4-2.4-2.3-5.5-2.3-6.9,0-11.4,4.9-11.4,9.2s3.6,7.4,7.7,7.4c9.5,0,16.5-12.6,19.9-19.4,3.5-6.7,6.1-14.2,6.4-15.3-3.6,4.2-7.6,5.9-11.4,5.9-7.4,0-13.8-7.3-13.8-16.4,0-22.3,24-41.8,38.6-41.8s9.5,2.7,10.7,9c.6-.7,4.5-6.1,5.8-6.8.9-.6,2.5-.7,4-.7h1.4c1.6,0,4.9.9,4.9,2.5,0,2.5-11.2,22.4-20.9,42.7ZM-162.7.3c-10.5,0-25,23-25,33s1.6,6.4,4.8,6.4c8,0,24.2-26.9,24.2-33.4s-1-6-4-6Z"/>
  </g>
  <rect class="cls-7" x="16.2" y="-214.9" width="330" height="57.9"/>
  <g class="cls-11">
    <path class="cls-9" d="M895,482.1c-6,0-11.6-1.4-16.4-3.8-9.1,9.5-16,20.3-16,28.9s3.6,8.2,8.8,8.2c13.9,0,23.3-13.1,23.3-19.6s-1.3-2.9-3.2-2.9c-3.2,0-7.6,3.6-8.5,8.4-.2.6,0,.9-.5.9s-1.2-1.8-1.2-3.7c0-5.4,4.7-11.3,11.9-11.3s7.7,3.1,7.7,7.5c0,10.6-13.7,28.6-32.7,28.6s-18.1-6.8-18.1-16.6,8.5-24.4,20.1-34.8c-4-4.5-6.3-10.3-6.3-17.1s3.8-9.8,5-9.8.2,0,.2.2c0,.4,0,1,0,2,0,7.8,2.6,14.6,8.1,19.3,12-8.9,26.1-14.9,36.9-14.9s12.4,3.8,12.4,8.8c-.1,9.3-13.1,21.7-31.4,21.7ZM913.3,455.7c-6.1,0-17.1,6.5-27.3,15.6,3.3,1.1,7.3,1.7,11.6,1.7,12.5,0,21.7-7,21.7-12.4s-2.6-4.9-6-4.9Z"/>
    <path class="cls-9" d="M921,505.4c-.8,2.7-1.4,5.1-1.4,7.3s1.7,3.2,3.6,3.2c8.6,0,19.6-18.8,20.6-18.8s1.2,2,1.2,2.9c0,3.2-14,22.1-25.7,22.1s-10.6-5.7-10.6-10c0-14.4,24.6-58.2,42-58.2s6.3,2.1,6.3,3.6c.1,3.7-20.5,39.5-36,47.9ZM949.7,461.5c-1.4,0-16.2,18.2-24.6,34.4,9.7-7.9,24.9-32.5,24.9-34.1-.1-.2-.2-.3-.3-.3Z"/>
    <path class="cls-9" d="M967.8,522.1c-4.3,0-8.3-3.3-8.3-8.1s0-1.2,0-1.7c-1.4,2.1-8.4,9.8-12.5,9.8s-8.2-5.2-8.2-10.4c0-11,14.1-33.8,18.7-35.7.4-.1,1.3-.2,2.3-.2,2.3,0,5.4.5,5.4,2s0,.5-.3.8c-1.9,3.6-15.5,27.3-15.5,33.5s.5,1.9,1.3,1.9c2.1,0,9.5-8.2,14.7-16.9,4.5-7.5,10.4-21,12.4-21,4.5,0,7.8,1.5,7.8,3.2s-1.4,4.7-2.6,7.2c-1.3,2.4-11.5,20.9-11.5,24.8s.3,1.9,2.2,1.9c4.6,0,14.6-16.2,15.3-16.2s1.2,1.5,1.2,3.1c-.1,2.6-13.6,22-22.5,22Z"/>
    <path class="cls-9" d="M997.1,522c-6.1,0-12.3-3.1-12.3-14.8s6.7-16,13.7-27.7c7.7-12.8,14.9-25.3,19.3-25.3s6,1.7,6,2.9-4.2,7-6.5,10.9c-2.4,4-5.8,9.8-5.8,10.2h.2c2.3-1.2,4.7-1.8,6.7-1.8,5,0,8.5,3.6,8.5,10.7,0,13.6-12.2,34.9-29.8,34.9ZM1014.2,481.4c-3.2,0-5.9,3.4-7.3,4.9-1.4,1.5-12.9,23.1-12.9,27.1s.9,2.8,3.2,2.8c7.2,0,20.5-21.5,20.5-30.6,0-1.7-1.2-4.2-3.5-4.2Z"/>
  </g>
  <g class="cls-11">
    <path class="cls-5" d="M-360.9,93.3c-6.1,0-11.8-1.4-16.8-3.9-9.2,9.8-16.3,20.8-16.3,29.5s3.7,8.3,9,8.3c14.2,0,23.8-13.4,23.8-20s-1.3-3-3.3-3c-3.3,0-7.8,3.6-8.6,8.6-.2.6-.1.9-.4.9s-1.2-1.9-1.2-3.8c0-5.5,4.8-11.6,12.2-11.6s7.9,3.2,7.9,7.6c0,10.8-14,29.2-33.4,29.2s-18.4-6.9-18.4-16.9,8.6-24.9,20.5-35.5c-4.1-4.6-6.5-10.5-6.5-17.5s3.9-10,5.1-10,.2,0,.2.2c0,.4-.1,1-.1,2,0,8,2.7,14.9,8.2,19.7,12.2-9.1,26.6-15.2,37.7-15.2s12.7,3.9,12.7,9c-.4,9.7-13.7,22.4-32.3,22.4ZM-342.3,66.3c-6.2,0-17.5,6.7-27.8,15.9,3.4,1.1,7.5,1.7,11.9,1.7,12.8,0,22.2-7.1,22.2-12.7-.1-3.4-2.8-4.9-6.3-4.9Z"/>
    <path class="cls-5" d="M-334.4,117.1c-.9,2.7-1.4,5.2-1.4,7.5s1.7,3.3,3.6,3.3c8.8,0,20-19.2,21.1-19.2s1.2,2,1.2,3c0,3.3-14.3,22.5-26.3,22.5s-10.8-5.8-10.8-10.2c0-14.7,25.2-59.5,42.9-59.5s6.5,2.1,6.5,3.6c0,3.8-20.9,40.4-36.8,49ZM-305,72.1c-1.4,0-16.6,18.6-25.2,35.1,9.9-8.1,25.4-33.2,25.4-34.8,0,0-.2-.3-.2-.3Z"/>
    <path class="cls-5" d="M-286.5,134.1c-4.4,0-8.5-3.4-8.5-8.2s0-1.2.1-1.8c-1.5,2.1-8.6,10-12.8,10s-8.4-5.3-8.4-10.6c0-11.3,14.5-34.6,19.2-36.5.4,0,1.3-.2,2.4-.2,2.3,0,5.6.4,5.6,2s-.1.4-.3.8c-2,3.7-15.8,27.8-15.8,34.2s.5,2,1.3,2c2.1,0,9.8-8.3,15-17.3,4.6-7.6,10.6-21.5,12.7-21.5,4.5,0,8,1.5,8,3.3s-1.5,4.8-2.7,7.4c-1.3,2.5-11.7,21.3-11.7,25.3s.3,2,2.2,2c4.7,0,14.9-16.5,15.6-16.5s1.2,1.5,1.2,3.2c-.3,2.6-14.1,22.4-23.1,22.4Z"/>
    <path class="cls-5" d="M-256.6,134.1c-6.2,0-12.6-3.2-12.6-15.2s6.8-16.3,14-28.3c7.9-13.1,15.2-25.9,19.8-25.9s6.2,1.8,6.2,3-4.3,7.1-6.7,11.1c-2.5,4.1-5.9,10-5.9,10.4h.2c2.4-1.2,4.8-1.9,6.8-1.9,5.1,0,8.6,3.7,8.6,11,.2,13.9-12.5,35.8-30.4,35.8ZM-239.1,92.5c-3.3,0-6,3.5-7.5,5.1-1.4,1.5-13.2,23.6-13.2,27.7s.9,2.8,3.3,2.8c7.4,0,21-21.9,21-31.2,0-1.9-1.3-4.4-3.6-4.4Z"/>
  </g>
  <g class="cls-11">
    <path class="cls-4" d="M-372.3-195.4c-1.4,3.2-2.7,6.7-3.9,10.5-3.9,12.6-9.9,25-24.9,25s-17.6-9-17.6-18.6.7-6.9,2.1-10c-.4-.6-.6-1.4-.6-2.4,0-2.7,1.8-4.5,4.6-4.5s.6,0,.8.1c3-2.8,6.9-4.7,11.5-4.7s8.5,3,9.3,8.2c3.7-.8,7.1-1.9,10.2-3.2,4.7-8.5,10.5-15.8,20.3-15.8s3.7,1.2,3.7,2.2c0,3.9-6.6,8.9-15.5,13.2ZM-390.9-188.4c-.3,6.6-7,15.3-11.5,15.3s-5.8-1.6-5.8-2,1.2-.3,2.1-.8c.6-.3,4.5-4.1,5.7-10.3-2.6.4-5.2.6-7.4.6s-3.6-.1-5-.5c-.8,2.1-1.3,4.2-1.3,6.3,0,7.4,4.3,12.2,10,12.2,10.5,0,15.4-12,21.1-23.3-2.5.9-5.2,1.8-7.9,2.5ZM-403.2-195.8c-1.7,0-3.6,1.2-5.4,3,1.1,1.2,2.4,2.4,4.5,2.4s2.8-.1,4.2-.1c0-3.7-1.2-5.3-3.3-5.3ZM-353.8-221.3c-3.6,2.4-6.6,7.4-9.2,7.4s-2.6-5.3-3.8-7.4c-1.5-2.5-4.5-4.4-4.5-4.8,0-.8,1.1-1.4,1.8-1.4,3.8,0,7.2,3.6,8.9,6.8,3.4-2.7,9.3-6.8,13.8-6.8s1,.3,1,.8c0,1.6-5,3.5-8,5.4ZM-363.3-207.2c-1.8,0-4.1,2.6-6.5,6.7,4.5-2.8,7-5.4,7-6.3s-.2-.4-.5-.4Z"/>
    <path class="cls-4" d="M-366.2-160.1c-3.3,0-5.3-3.7-5.3-7.4,0-7.9,10-24.2,13.4-25.5.3-.1.9-.1,1.6-.1,1.7,0,3.9.3,3.9,1.4s0,.3-.1.5c-1.4,2.6-11.1,19.5-11.1,24s.4,1.4.8,1.4c4,0,11.5-12.2,12.1-12.2s.8,1.5.8,2.4c0,1-9.5,15.5-16.1,15.5ZM-357.2-196.5c-.8,0-1.4-.6-1.4-1.1,0-1,3.7-1.7,6.5-4.7,2.3-2.5,3.1-7.8,5.6-7.8s3.9,1.5,3.9,3.6c0,4-10.8,10-14.6,10Z"/>
    <path class="cls-4" d="M-342.2-160c-3,0-5.9-2.5-7.2-5.2-5.9,12-10.7,20.9-12.8,20.9s-3.7-2.3-3.7-3.9,5.1-11.1,11.8-23.9c6.8-12.8,11.6-22.9,13.1-22.9s4.5,1.2,4.5,2.1-.4,1.7-1.2,3.5c2.7-2,5.7-3.7,8.5-3.7s5.9,2.5,5.9,7.5c.1,9.5-10,25.6-18.9,25.6ZM-332.6-188.8c-1.7,0-4.9,2.5-7.6,4.8-1.5,3.2-3.5,7.2-5.9,12.1.6,3,1.9,5.9,3.6,5.9,3.6,0,11.8-16.7,11.8-20.6s-.6-2.2-1.9-2.2Z"/>
    <path class="cls-4" d="M-306.9-159.9c-4.1,0-6.9-3.3-6.9-7s1.9-8.8,2.9-10.8l-.2-.2c-2.5,2.4-6.5,7.9-8.7,11.9-2.1,3.9-2.2,6-3,6-1.4,0-4.8-2.3-4.8-5s5.8-13.3,10.5-22c4.7-8.6,11.2-20.2,13.9-20.2s3.9.8,3.9,2.5c0,2.6-2,5.8-4.6,9.8-2.5,4.1-5,8.7-5.6,9.8h.3c2-1.8,9.4-8.1,15.8-8.1s4.6,1.4,4.6,3.9c0,4.2-6,12.2-11.2,12.2s-2.1-.6-2.4-.6-3.6,9.1-3.6,11.6.6,1.8,2,1.8c7.6,0,15.3-13.7,16.1-13.7s.8,1.4.8,2.3c.2.5-8.1,15.8-19.8,15.8ZM-294.5-190.7c-1,0-9.6,5.4-9.6,6.2s.8,1,2,1c1.9,0,8-5,8-6.8s-.2-.4-.4-.4Z"/>
    <path class="cls-4" d="M-267.8-160.6c-4.5,0-5.6-5.4-5.8-5.4s-4.9,5.9-10.3,5.9-7-2.9-7-8.7c0-9.5,11.2-24.5,21.8-24.5s5.7,4.5,5.9,4.5c.3,0,3.7-4.2,4.9-4.2s1.1.2,1.9.4c.6.1,1.6.3,1.6,1.2,0,3.6-11.4,19.6-11.4,23.6s.3,1.1,1,1.1c4.1,0,10.9-11.4,11.6-11.4s.8,1.1.8,2.3c0,1.3-9.4,15.2-15,15.2ZM-270-189.6c-5.2,0-12.8,13.5-12.8,19.8s.7,3.2,2,3.2,6.2-3.1,6.2-4.3-1.4-.6-1.9-.6v-.5c1.7-.5,9.1-8.1,9.1-14,0-2-1.1-3.6-2.6-3.6Z"/>
    <path class="cls-3" d="M-243.3-160.2c-4.1,0-7.2-2.4-7.2-7s8.7-18,8.7-18.2-2.1-1-3.2-1-.5.1-.5.2c-3.2,5.2-6.3,9.9-8.6,13.1-.2.3-.5.5-.7.5-.6,0-1-.8-1-1.9s.4-1.1.6-1.4c.8-1.2,2.5-3.7,4.3-7.4,1.9-3.9,2.3-6.7,3.6-9.6,1.3-3.2,2.3-3.9,4.4-3.9s1.5.6,1.5,1.7-.6,1.8-.6,2c0,.3.4.5,1.4.5,3,0,6.7-.5,7.6-.5,1.8,0,4.2,3.6,4.2,5s-2,2.2-3.4,3.8c-2.5,2.6-9.1,12-9.1,17.1s.3,1,.9,1c1.6,0,4.5-2.5,6.7-5.2,2.5-3,4.5-6.2,4.8-6.2.6,0,.8,1.2.8,2.3,0,1-9.6,15.1-15.2,15.1Z"/>
    <path class="cls-3" d="M-223.8-159.9c-4.4,0-7.8-4.5-7.8-9.8,0-8.2,9.7-22.9,18.4-22.9s3.6-.7,4.9-.7c2.1,0,4,2.4,4,4.9,0,4.8-7.2,13.3-17.6,13.3s-.4,0-.6-.1c-.8,1.9-1.4,3.7-1.4,5.3,0,2.8,1,4.7,3.4,4.7,8.6,0,15.7-12.8,16.5-12.8s.8,1.2.8,2.1c0,2.3-9.9,16-20.6,16ZM-210.3-189.5c-2.3,0-7.4,5.4-10.6,11.1,5.1-1.1,11.8-6.3,11.8-10s-.4-1.1-1.2-1.1Z"/>
    <path class="cls-3" d="M-187.6-160.2c-3,0-5.9-2.4-5.9-5.8,0-7.4,6.8-17.8,8.5-20.2h-.3c-3.6,3.3-10.5,11.1-14.2,16.6-3.6,5.4-4.8,9.2-6.2,9.2s-4.1-1.9-4.1-4.3,12.3-28.9,15.2-28.9,4.5.8,4.5,2.7-2.2,6.4-2.5,7.5h.1c1.2-1.1,8.5-9.7,12.1-9.7s5.5,1.6,5.5,2.8c0,1.7-.8,2.8-1.7,4.6-.8,1.7-8.1,14.9-8.1,17.7s.2,1.4,1.5,1.4c3.4,0,10.4-11.6,11-11.6s.8,1.1.8,2.2c-.2,1.9-9.9,15.8-16.2,15.8ZM-176.4-201.9c-3,2-5.6,6.2-7.8,6.2s-2.1-4.5-3.2-6.2c-1.3-2.1-3.8-3.7-3.8-4,0-.7,1-1.2,1.6-1.2,3.2,0,6.1,3,7.5,5.7,2.8-2.3,7.8-5.7,11.6-5.7s.9.2.9.6c-.1,1.3-4.4,3-6.8,4.6Z"/>
  </g>
  <circle class="cls-4" cx="809.2" cy="-150.5" r="37.5"/>
  <circle class="cls-8" cx="809.2" cy="-150.5" r="28.5"/>
  <circle class="cls-4" cx="809.2" cy="-150.5" r="20"/>
  <circle class="cls-8" cx="809.2" cy="-150.5" r="10"/>
  <g class="cls-11">
    <path class="cls-9" d="M273,144.4c-6.3,0-12.1-1.5-17.1-4-9.5,9.9-16.7,21.1-16.7,30.1s3.8,8.5,9.2,8.5c14.5,0,24.3-13.6,24.3-20.4s-1.4-3-3.3-3c-3.3,0-7.9,3.8-8.9,8.8-.2.6-.1.9-.5.9s-1.3-1.9-1.3-3.9c0-5.6,4.9-11.8,12.4-11.8s8,3.2,8,7.8c0,11-14.3,29.8-34.1,29.8s-18.9-7.1-18.9-17.3,8.9-25.4,20.9-36.3c-4.2-4.7-6.6-10.7-6.6-17.8s4-10.2,5.2-10.2.2,0,.2.2c0,.4-.1,1-.1,2.1,0,8.1,2.7,15.2,8.4,20.1,12.5-9.3,27.2-15.5,38.4-15.5s12.9,4,12.9,9.2c.2,9.8-13.3,22.7-32.4,22.7ZM292.1,116.9c-6.4,0-17.8,6.8-28.4,16.3,3.4,1.1,7.6,1.8,12.1,1.8,13,0,22.6-7.3,22.6-12.9-.1-3.6-2.8-5.2-6.3-5.2Z"/>
    <path class="cls-9" d="M300.1,168.7c-.8,2.8-1.5,5.3-1.5,7.6s1.8,3.3,3.8,3.3c9,0,20.4-19.6,21.5-19.6s1.3,2.1,1.3,3c0,3.3-14.6,23-26.8,23s-11-5.9-11-10.4c0-15,25.6-60.6,43.8-60.6s6.6,2.2,6.6,3.8c0,3.9-21.6,41.2-37.7,49.9ZM330,123c-1.5,0-16.9,19-25.6,35.8,10.1-8.2,25.9-33.9,25.9-35.5,0-.2-.2-.3-.3-.3Z"/>
    <path class="cls-9" d="M348.8,186.1c-4.5,0-8.6-3.4-8.6-8.4s0-1.3.1-1.8c-1.5,2.2-8.8,10.2-13,10.2s-8.5-5.4-8.5-10.8c0-11.5,14.7-35.2,19.5-37.2.4-.1,1.4-.2,2.4-.2,2.4,0,5.6.5,5.6,2.1s-.1.5-.3.8c-2,3.8-16.1,28.4-16.1,34.9s.5,2,1.4,2c2.2,0,9.9-8.5,15.3-17.6,4.7-7.8,10.8-21.9,12.9-21.9,4.7,0,8.1,1.6,8.1,3.3,0,2.5-1.5,4.9-2.7,7.5-1.4,2.5-12,21.8-12,25.8s.3,2,2.3,2c4.8,0,15.2-16.9,15.9-16.9s1.3,1.6,1.3,3.2c-.2,2.8-14.3,23-23.6,23Z"/>
    <path class="cls-9" d="M379.4,186c-6.4,0-12.8-3.2-12.8-15.4s7-16.7,14.3-28.9c8-13.3,15.5-26.4,20.1-26.4s6.3,1.8,6.3,3-4.4,7.3-6.8,11.4c-2.5,4.2-6,10.2-6,10.6h.2c2.4-1.3,4.9-1.9,7-1.9,5.2,0,8.9,3.8,8.9,11.1-.1,14.3-12.9,36.5-31.2,36.5ZM397.2,143.7c-3.3,0-6.1,3.5-7.6,5.1s-13.4,24.1-13.4,28.2.9,2.9,3.3,2.9c7.5,0,21.4-22.4,21.4-31.9s-1.3-4.3-3.7-4.3Z"/>
  </g>
  <g class="cls-11">
    <path class="cls-4" d="M86.8,34.5c-2.5,5.5-4.7,11.6-6.7,18.1-6.7,21.8-17.1,43.3-43.1,43.3S6.5,80.2,6.5,63.8s1.2-11.9,3.7-17.3c-.7-1.1-1.1-2.5-1.1-4.1,0-4.6,3.1-7.8,7.9-7.8s1,0,1.5,0c5.1-4.9,11.8-8,19.9-8s14.8,5.1,16.1,14.2c6.4-1.5,12.3-3.4,17.7-5.5,8.2-14.8,18.1-27.4,35.1-27.4s6.5,2.1,6.5,3.8c0,6.6-11.6,15.2-27,22.7ZM54.7,46.6c-.6,11.4-12.2,26.5-19.9,26.5s-9.9-2.8-9.9-3.5,2.1-.6,3.7-1.3c1.1-.6,7.7-7,9.8-17.9-4.6.7-8.9,1.1-12.7,1.1s-6.1-.2-8.6-.9c-1.5,3.6-2.2,7.3-2.2,11,0,12.7,7.5,21,17.2,21,18.2,0,26.6-20.8,36.6-40.4-4.7,1.6-9.4,3.2-14,4.4ZM33.3,33.8c-2.9,0-6.3,2-9.3,5.3,1.9,2.1,4.1,4.1,7.7,4.1s4.9,0,7.3-.2c0-6.4-2.1-9.2-5.7-9.2ZM102.3,14c-3.1,0-7.2,4.5-11.2,11.5,7.7-4.9,12.1-9.4,12.1-10.8,0-.3-.3-.7-.9-.7Z"/>
    <path class="cls-4" d="M101,95.8c-5.1,0-10.3-4.4-12.4-9.1-10.2,20.8-18.4,36.1-22.1,36.1s-6.5-3.9-6.5-6.8,8.8-19.2,20.5-41.4c11.7-22.1,20.1-39.6,22.7-39.6s7.8,2,7.8,3.7-.7,3-2,6c4.7-3.5,9.8-6.5,14.6-6.5s10.3,4.4,10.3,13c0,16.7-17.5,44.6-32.9,44.6ZM117.6,45.9c-2.9,0-8.5,4.2-13.2,8.3-2.6,5.5-6,12.4-10.2,20.9,1.1,5.3,3.4,10.3,6.3,10.3,6.1,0,20.5-28.8,20.5-35.5,0-2.3-1.1-4-3.4-4Z"/>
    <path class="cls-4" d="M171.5,94.8c-7.8,0-9.6-9.3-9.9-9.3s-8.5,10.3-17.8,10.3-12.2-5-12.2-15c0-16.4,19.5-42.4,37.8-42.4s9.8,7.7,10.2,7.7c.6,0,6.5-7.3,8.5-7.3s1.9.3,3.2.7c1.1.2,2.8.4,2.8,2,0,6.1-19.7,33.9-19.7,40.8s.6,1.9,1.7,1.9c7.2,0,18.9-19.8,20-19.8s1.5,1.9,1.5,4-16.4,26.4-26.1,26.4ZM167.7,44.6c-9.1,0-22.1,23.4-22.1,34.3s1.2,5.6,3.5,5.6,10.7-5.4,10.7-7.5-2.3-1.1-3.2-1.1v-.9c2.9-.8,15.8-14,15.8-24.3,0-3.5-2-6.1-4.7-6.1Z"/>
    <path class="cls-4" d="M214,95.3c-7,0-12.5-4.1-12.5-12.2s15.1-31.1,15.1-31.4-3.7-1.8-5.6-1.8-.8,0-.9.3c-5.5,8.9-11,17.1-14.9,22.7-.3.6-.8.9-1.2.9-1,0-1.7-1.3-1.7-3.4s.7-1.9,1-2.5c1.5-2.1,4.4-6.5,7.4-12.9,3.4-6.7,4-11.5,6.1-16.5,2.2-5.6,3.9-6.7,7.6-6.7s2.6,1,2.6,2.9-1.1,3.1-1.1,3.5.7.8,2.5.8c5.3,0,11.5-.9,13.1-.9,3.1,0,7.3,6.1,7.3,8.7s-3.5,3.8-5.9,6.6c-4.4,4.7-15.9,20.9-15.9,29.6s.4,1.7,1.6,1.7c2.8,0,7.8-4.4,11.6-9.1,4.2-5.1,7.8-10.7,8.4-10.7,1,0,1.5,2,1.5,4-.1,2.2-16.4,26.4-26.1,26.4Z"/>
    <path class="cls-4" d="M256.7,95.3c-7,0-12.5-4.1-12.5-12.2s15.1-31.1,15.1-31.4-3.7-1.8-5.6-1.8-.8,0-.9.3c-5.5,8.9-11,17.1-14.9,22.7-.3.6-.8.9-1.2.9-1,0-1.7-1.3-1.7-3.4s.7-1.9,1-2.5c1.5-2.1,4.4-6.5,7.4-12.9,3.4-6.7,4-11.5,6.1-16.5,2.2-5.6,3.9-6.7,7.6-6.7s2.6,1,2.6,2.9-1.1,3.1-1.1,3.5.7.8,2.5.8c5.3,0,11.5-.9,13.1-.9,3.1,0,7.3,6.1,7.3,8.7s-3.5,3.8-5.9,6.6c-4.2,4.6-15.8,20.8-15.8,29.5s.4,1.7,1.6,1.7c2.8,0,7.8-4.4,11.6-9.1,4.2-5.1,7.8-10.7,8.4-10.7,1,0,1.5,2,1.5,4-.2,2.3-16.5,26.5-26.2,26.5Z"/>
    <path class="cls-4" d="M284.7,95.5c-5.6,0-9.2-6.5-9.2-12.9,0-13.6,17.4-41.8,23.1-44.2.4,0,1.6-.2,2.9-.2,2.8,0,6.7.6,6.7,2.5s-.1.6-.3.9c-2.3,4.5-19.1,33.8-19.1,41.5s.7,2.3,1.6,2.3c6.9,0,19.8-21.1,20.8-21.1s1.3,2.6,1.3,4.1c.1,2.1-16.1,27.1-27.8,27.1ZM312.1,31.7c-5.3,0-9.8-3.8-9.8-9.2s5.3-10.3,10.8-10.3,9.8,3.8,9.8,9.2c.1,5.8-5.2,10.3-10.8,10.3Z"/>
    <path class="cls-4" d="M339.4,95.4c-5.3,0-10.3-4.1-10.3-9.9,0-12.7,11.7-30.9,14.6-34.9l-.4-.2c-6.1,5.9-18.2,19.5-24.5,29-6.1,9.4-8.4,16-10.7,16s-7.2-3.4-7.2-7.5,21.4-50,26.3-50,7.7,1.5,7.7,4.6-3.8,11.1-4.4,13h.1c2-1.9,14.8-16.8,20.9-16.8s9.5,2.8,9.5,4.8c0,3-1.3,4.9-2.9,7.9-1.5,3-14.1,25.8-14.1,30.6s.3,2.3,2.6,2.3c5.8,0,18-20,19-20s1.5,1.9,1.5,3.8c0,3.3-16.7,27.3-27.7,27.3Z"/>
    <path class="cls-4" d="M404.9,84c-9.6,20-21,48.2-40.7,48.2s-18.4-5.8-18.4-14.9,9.9-19.2,18.7-19.2,8,3.2,8,6.6-2.8,5.9-3.2,5.9-.2,0-.2-.2v-.9c0-1.3-2.3-2.2-5.4-2.2-6.8,0-11.2,4.8-11.2,9.1s3.6,7.3,7.6,7.3c9.4,0,16.2-12.4,19.6-19.1,3.5-6.6,6-14,6.3-15.1-3.6,4.1-7.5,5.8-11.2,5.8-7.3,0-13.5-7.2-13.5-16.1,0-21.9,23.6-41.1,38-41.1s9.4,2.7,10.5,8.8c.6-.7,4.5-6,5.7-6.7.9-.6,2.5-.7,3.9-.7h1.3c1.6,0,4.8.9,4.8,2.5,0,2.5-11.1,22-20.6,42ZM399.8,45.9c-10.3,0-24.6,22.6-24.6,32.4s1.6,6.3,4.7,6.3c7.8,0,23.8-26.5,23.8-32.9,0-3.4-.9-5.8-3.9-5.8Z"/>
  </g>
</svg>