<?xml version="1.0" encoding="utf-8"?>
<!-- Generator: Adobe Illustrator 26.5.2, SVG Export Plug-In . SVG Version: 6.00 Build 0)  -->
<svg version="1.1" id="Layer_1" xmlns="http://www.w3.org/2000/svg" xmlns:xlink="http://www.w3.org/1999/xlink" x="0px" y="0px"
	 viewBox="0 0 246 246" style="enable-background:new 0 0 246 246;" xml:space="preserve">
<style type="text/css">
	.st0{fill-rule:evenodd;clip-rule:evenodd;fill:#00EE00;}
	.st1{fill:#00EE00;}
</style>
<g>
	<path class="st0" d="M24.2,144.4c9.4,0,24.6,0,29.8,0.5c-5.3,0.5-20.5,0.5-29.8,0.5C14.9,145.5,14.8,144.4,24.2,144.4L24.2,144.4z
		 M113.6,141.2h5.4c0.5,0.1,1,0.5,1.3,1c0.3,0.5,0.6,1.1,0.7,1.7c-1.8,0-3.8,0-5.9,0C114.9,142.6,114.4,141.5,113.6,141.2
		L113.6,141.2z M121,146c-0.1,0.7-0.4,1.3-0.7,1.7c-0.4,0.5-0.8,0.9-1.3,1h-5.4c0.8-0.3,1.3-1.4,1.5-2.7
		C117.1,146,119.1,146,121,146L121,146z M23.3,146.2c-15,9.9-12.1,18.9-3.7,19.7c10,1,27.8-7.7,35.5-18.3
		c11.4,0.4,45.3,0.8,56.8,1.1c1,0,1.6-1.3,1.8-2.8c-12.1,0-49.1-0.2-54.8-1c5.8-0.8,42.7-1,54.8-1c-0.2-1.5-0.8-2.8-1.8-2.8
		c-11.5,0.3-45.3,0.7-56.8,1.1C47.5,131.7,29.6,123,19.6,124c-8.4,0.8-11.3,9.8,3.7,19.7c-2.7,0.1-5.5,0.3-8.2,0.4
		c-1.8,0.1-1.6,1.5,0,1.6C17.8,145.9,20.5,146.1,23.3,146.2L23.3,146.2z M135.2,144.1l11.3,0l5.2,0.8l-5.2,0.8h-11.3
		C135.3,145.2,135.3,144.7,135.2,144.1L135.2,144.1z M120.6,141.2c0.1,0.1,0.3,0.3,0.4,0.5c0.4,0.6,0.7,1.4,0.9,2.2c0.3,0,0.7,0,1,0
		c-0.1-0.7-0.4-1.3-0.7-1.7c-0.4-0.5-0.8-0.9-1.3-1H120.6L120.6,141.2z M122.9,146c-0.3,0-0.7,0-1,0c-0.1,0.9-0.4,1.6-0.9,2.2
		c-0.1,0.2-0.3,0.3-0.4,0.5h0.3c0.5-0.1,1-0.5,1.3-1C122.5,147.2,122.8,146.6,122.9,146L122.9,146z M122.5,141.2h7.2
		c0.5,0.2,1,0.5,1.4,0.9c0.7,0.7,1.1,1.7,1.1,2.8c0,1.1-0.4,2.1-1.1,2.8c-0.4,0.4-0.9,0.8-1.4,0.9h-7.2c0.1-0.2,0.3-0.3,0.4-0.5
		c0.4-0.6,0.7-1.4,0.9-2.3c10-0.2,10.1-1.8,0-2c-0.1-0.9-0.4-1.6-0.9-2.2C122.8,141.5,122.7,141.4,122.5,141.2L122.5,141.2z
		 M131,141.2c0.2,0.2,0.4,0.3,0.6,0.5c0.8,0.8,1.2,2,1.2,3.2c0,1.2-0.5,2.4-1.2,3.2c-0.2,0.2-0.4,0.4-0.6,0.5h0.1
		C135.9,148.7,135.9,141.2,131,141.2L131,141.2z"/>
</g>
<path class="st1" d="M71,119.1c-7.7,0-11.1-5.4-14.1-11.1c-5.6,5.8-12.2,10.5-19.1,10.5c-4.8,0-8.5-3.8-8.5-9.1
	c0-9.7,8.3-19.8,19.3-19.8c4.2,0,7.1,1.6,9.3,3.9c1.6-2.3,3.2-4.6,4.7-6.9c5.1-7.8,11.7-14.9,18.4-19.6c-1.7-0.3-3.6-0.5-5.7-0.5
	c-13.3,0-25.4,8.8-25.4,14.1c0,0.7,0.9,1.4,1.8,1.4c6.6,0,12.5-9,13.6-11.1c0.1-0.2,0.3-0.3,0.4-0.3c0.1,0,0.3,0.3,0.3,0.5
	c0,12-8.3,17.4-14.6,17.4c-3.9,0-7-2.1-7-6c0-7,14.1-19.3,33.3-19.3c2.8,0,5.4,0.3,7.8,0.9c3.4-1.8,6.7-2.8,9.7-2.8
	c2,0,3.2,0.6,3.2,0.9c0,0.4-0.3,0.4-1.8,0.4c-2.2,0-4.5,1.2-6.9,3.1c6.7,3.2,10.9,9.7,10.9,19.8C100.6,101.3,87.6,119.1,71,119.1z
	 M45.1,94.9c-6.8,0-12.5,5.6-12.5,12c0,3.2,2.1,5.2,4.6,5.2c4.3,0,9.9-5.2,15.6-12.1C50.9,97.1,48.6,94.9,45.1,94.9z M86,69.4
	c-6.1,6.7-12,17-16.3,22.8c-1.9,2.6-4.2,5.9-6.9,9.3c2.4,5.1,4.5,10,9.4,10c11.4,0,18.3-16.1,18.3-28.8C90.4,76.9,88.9,71.8,86,69.4
	z"/>
<path class="st1" d="M123.3,118.4c-5,0-6.1-5.9-6.3-5.9s-5.4,6.5-11.3,6.5c-3.9,0-7.8-3.2-7.8-9.5c0-10.4,12.3-26.9,23.9-26.9
	c5.7,0,6.3,4.9,6.4,4.9c0.3,0,4.1-4.6,5.4-4.6c1.3,0,1.2,0.2,2.1,0.4c0.7,0.1,1.7,0.3,1.7,1.3c0,3.9-12.5,21.5-12.5,25.9
	c0,0.7,0.3,1.2,1.1,1.2c4.5,0,12-12.6,12.7-12.6c0.6,0,0.9,1.2,0.9,2.6C139.9,103,129.5,118.4,123.3,118.4z M120.9,86.6
	c-5.7,0-14.1,14.8-14.1,21.8c0,2.3,0.8,3.6,2.2,3.6c1.8,0,6.8-3.4,6.8-4.8c0-0.5-1.5-0.7-2.1-0.7v-0.5c1.8-0.5,10-8.9,10-15.4
	C123.8,88.3,122.7,86.6,120.9,86.6z"/>
<path class="st1" d="M150.2,118.7c-4.5,0-7.9-2.6-7.9-7.8c0-6.9,9.5-19.7,9.5-19.9c0-0.1-2.4-1.2-3.6-1.2c-0.3,0-0.5,0-0.5,0.2
	c-3.5,5.7-6.9,10.8-9.4,14.4c-0.2,0.3-0.5,0.5-0.8,0.5c-0.6,0-1.1-0.9-1.1-2.1c0-0.5,0.4-1.2,0.6-1.6c0.9-1.4,2.8-4.1,4.7-8.1
	c2.1-4.2,2.6-7.3,3.9-10.5c1.4-3.6,2.5-4.2,4.8-4.2c1.1,0,1.6,0.6,1.6,1.8c0,1.4-0.7,2-0.7,2.2c0,0.3,0.4,0.5,1.6,0.5
	c3.3,0,7.3-0.5,8.3-0.5c2,0,4.6,3.9,4.6,5.5c0,1.3-2.2,2.4-3.8,4.2c-2.7,2.9-10,13.2-10,18.7c0,0.5,0.3,1.1,1,1.1
	c1.7,0,5-2.8,7.4-5.7c2.7-3.2,5-6.8,5.3-6.8c0.6,0,0.9,1.3,0.9,2.6C166.8,103.3,156.4,118.7,150.2,118.7z"/>
<path class="st1" d="M185.7,86c-0.9,0-0.7,0-3.8,0c-5.2,9.7-10.6,19.4-10.6,22.7c0,2.4,1.6,2.8,2.6,2.8c4.5,0,12-12.6,12.7-12.6
	c0.6,0,0.9,1.2,0.9,2.6s-10.6,17.1-16.7,17.1c-4.6,0-9.8-2.6-9.8-6.7c0-5,7.6-18.1,11.1-24.7l0.9-1.6c-1.4-0.1-3.6-0.5-3.6-2.4
	c0-1.2,0-2.4,0.1-2.9c0-0.3,0.2-0.5,0.7-0.5c0.3,0,1.4,0,2.2,0c1,0,3.1-0.4,3.8-0.4c3.1-5.8,6.6-11.9,7.5-11.9c3.2,0,5.2,3,5.2,4.6
	c0,0.9-1.1,3-3.6,7.8h3.8c1.4,0,2,0.4,2,1.1C190.9,83.8,187.8,86,185.7,86z"/>
<path class="st1" d="M212.7,94.2c-0.3,1.7-0.8,3.9-1.4,6.3c0.6,0.2,1.2,0.3,1.6,0.3c1.5,0,1.7-0.9,1.9-0.9c0.3,0,0.4,0,0.4,0.3v0.1
	c0,4.1-2.7,6.5-5.4,6.5c-0.2,0-0.4,0-0.5,0c-3.5,8.6-10.5,12.3-16.7,12.3s-11.4-3.8-11.4-10.3c0-6,4.9-12.4,12.3-12.4
	c1,0,1.9,0,3,0.2c2.1-2.4,4.6-5.5,6.8-8.9c4-5.8,9.6-9.1,12.3-9.1c1.7,0,3.1,0.6,3.1,1.6C218.6,81.9,214,88.2,212.7,94.2z
	 M193.4,104.1c-4.7,0-7.1,3-7.1,5.8c0,2.2,1.6,4.2,4.8,4.2s7.3-2.4,9.5-8.9C198,104.6,195.7,104.1,193.4,104.1z M204.1,92.1
	c-0.5,0.8-2.4,3.1-4.2,5.3c0.9,0.3,1.8,0.5,2.8,0.8c0.7-2.6,1.3-4.7,1.7-6L204.1,92.1z"/>
<path class="st1" d="M163,142c-3,0-5.7-0.7-8.1-1.9c-4.5,4.7-7.9,10-7.9,14.3c0,2.5,1.8,4,4.3,4c6.9,0,11.5-6.5,11.5-9.7
	c0-0.9-0.6-1.5-1.6-1.5c-1.6,0-3.8,1.8-4.2,4.1c-0.1,0.3,0,0.4-0.2,0.4s-0.6-0.9-0.6-1.8c0-2.7,2.3-5.6,5.9-5.6
	c2.7,0,3.8,1.5,3.8,3.7c0,5.2-6.8,14.1-16.2,14.1c-5,0-8.9-3.4-8.9-8.2c0-5.8,4.2-12.1,9.9-17.2c-2-2.2-3.1-5.1-3.1-8.4
	c0-2.6,1.9-4.9,2.5-4.9c0.1,0,0.1,0,0.1,0.1c0,0.2,0,0.5,0,1c0,3.8,1.3,7.2,4,9.5c5.9-4.4,12.9-7.4,18.2-7.4c3.9,0,6.1,1.9,6.1,4.4
	C178.5,135.8,172.1,142,163,142z M172.1,128.9c-3,0-8.4,3.2-13.5,7.7c1.6,0.5,3.6,0.8,5.8,0.8c6.2,0,10.7-3.4,10.7-6.1
	C175.1,129.7,173.8,128.9,172.1,128.9z"/>
<path class="st1" d="M175.9,153.5c-0.4,1.3-0.7,2.5-0.7,3.6c0,0.9,0.8,1.6,1.8,1.6c4.3,0,9.7-9.3,10.2-9.3c0.5,0,0.6,1,0.6,1.5
	c0,1.6-6.9,10.9-12.7,10.9c-2.7,0-5.2-2.8-5.2-4.9c0-7.1,12.2-28.8,20.8-28.8c1.8,0,3.1,1,3.1,1.8
	C193.7,131.7,183.6,149.4,175.9,153.5z M190.1,131.8c-0.7,0-8,9-12.2,17c4.8-3.9,12.3-16.1,12.3-16.8
	C190.2,131.9,190.1,131.8,190.1,131.8z"/>
<path class="st1" d="M199,161.8c-2.1,0-4.1-1.6-4.1-4c0-0.4,0-0.6,0-0.9c-0.7,1-4.1,4.9-6.2,4.9c-2,0-4.1-2.6-4.1-5.2
	c0-5.5,7-16.7,9.3-17.7c0.2,0,0.6-0.1,1.2-0.1c1.1,0,2.7,0.2,2.7,1c0,0.1,0,0.2-0.1,0.4c-0.9,1.8-7.7,13.5-7.7,16.6
	c0,0.7,0.3,0.9,0.6,0.9c1,0,4.7-4,7.2-8.4c2.2-3.7,5.2-10.4,6.1-10.4c2.2,0,3.8,0.7,3.8,1.6c0,1.2-0.7,2.3-1.3,3.5
	c-0.6,1.2-5.7,10.3-5.7,12.3c0,0.5,0.1,0.9,1.1,0.9c2.3,0,7.2-8,7.5-8c0.4,0,0.6,0.7,0.6,1.5C210.1,152.2,203.5,161.8,199,161.8z"/>
<path class="st1" d="M213.5,161.7c-3,0-6.1-1.5-6.1-7.3c0-2,3.3-7.9,6.8-13.7c3.8-6.4,7.4-12.5,9.6-12.5c1.2,0,3,0.9,3,1.5
	s-2.1,3.4-3.2,5.4c-1.2,2-2.9,4.9-2.9,5l0.1,0c1.2-0.6,2.3-0.9,3.3-0.9c2.5,0,4.2,1.8,4.2,5.3C228.3,151.2,222.2,161.7,213.5,161.7z
	 M222,141.6c-1.6,0-2.9,1.7-3.6,2.4c-0.7,0.7-6.4,11.4-6.4,13.4c0,0.7,0.4,1.4,1.6,1.4c3.5,0,10.2-10.6,10.2-15.1
	C223.7,142.9,223.1,141.6,222,141.6z"/>
</svg>
