<?xml version="1.0" encoding="UTF-8"?>
<svg xmlns="http://www.w3.org/2000/svg" version="1.1" viewBox="0 0 432 194.3">
  <defs>
    <style>
      .cls-1 {
        isolation: isolate;
      }

      .cls-2 {
        fill: #b52828;
      }
    </style>
  </defs>
  <!-- Generator: Adobe Illustrator 28.7.1, SVG Export Plug-In . SVG Version: 1.2.0 Build 142)  -->
  <g>
    <g id="Layer_1">
      <g class="cls-1">
        <path class="cls-2" d="M123.4,84.8c-5.9,12-11.4,23.6-11.4,33.9s3.2,9,7.4,9,4.7-2.1,5.2-2.1.6.4.6.7c0,1.4-5.8,8.3-12,8.3s-12.5-6.1-12.5-15.4c0-16.7,16.1-44.3,20.6-51.1h-.4c-6.4,7.6-30.1,44.6-33.5,47.5-2.1,1.8-3.7,2.8-7.7,2.8s-4.2-.6-4.2-1.7,1.2-2.1,2.1-3.9c1-1.8,14.5-36.4,16.9-43.4h-.7c-7.3,9.9-26.8,49.4-48.1,49.4s-15.9-7.5-15.9-17.9,13.6-26.9,26.5-26.9,11.3,5.9,11.3,12.1-8.8,18.2-17,18.2-5.3-.7-5.3-1.1,1.7-.5,3.1-1.2c1.4-.7,10.7-7.3,10.7-16.4s-2-7.1-5.4-7.1c-8.1,0-16.6,12.6-16.6,21.2s4,11.5,11,11.5c11.6,0,22.6-17.5,30.1-29.6,5.5-8.7,13.6-20.8,19.7-26.2,2.4-2.1,6-2,6.8-2,2.6,0,4.8.4,4.8,3.2,0,4-13.3,35.3-15.8,41.2l.5.3c7.3-11.6,25.8-39.3,32.5-43.4,2.1-1.2,4.2-1.3,6-1.3s4.3.6,4.3,3.1c0,3.6-8,16.2-13.9,28.2Z"/>
        <path class="cls-2" d="M152.1,108.5c-6.3,14.1-11.6,30.6-15.9,36.3-4.2,5.6-11,9-17.2,9-9.6,0-15.4-7-15.4-14.8s7.9-17.3,14.9-17.3,10.1,3.9,10.1,12.3-.4,2.4-1,2.4-.2-.2-.2-.3v-.7c0-1.9-3.1-4.7-7.1-4.7-7.3,0-11.6,4.7-11.6,9.4s4.5,8.5,8.8,8.5c11,0,13.5-14,16.3-22.4,2.9-8.3,4.9-12.4,5.9-14.5l-.2-.2c-3,3.2-7.4,7.1-11.9,7.1s-6.1-3.6-6.1-10.2,3.1-10.2,6.4-16.6c4-7.7,9-15.1,12.3-15.1s5.9.2,5.9,2.6-4.4,6.3-9.1,15.6c-2.9,5.8-5.2,11.6-5.2,14.8s.3,1.4,1.2,1.4c2.2,0,10.4-7.8,12.5-11.4,2.1-3.7,4.3-8.8,7.3-14,3-5.3,5.6-9.7,8.2-9.7s5.5.9,5.5,2.9c0,3.9-8,15.6-14.3,29.7Z"/>
        <path class="cls-2" d="M199.5,118.5c-3.8,0-7.6-3.2-9.2-6.7-7.5,15.4-13.6,26.7-16.4,26.7s-4.8-2.9-4.8-5,6.5-14.2,15.1-30.6c8.7-16.4,14.9-29.2,16.8-29.2s5.8,1.5,5.8,2.7-.5,2.2-1.5,4.5c3.5-2.6,7.3-4.8,10.8-4.8s7.6,3.2,7.6,9.6c0,12.3-12.9,32.9-24.3,32.9ZM211.9,81.6c-2.1,0-6.3,3.1-9.7,6.1-1.9,4-4.5,9.2-7.5,15.4.8,3.9,2.5,7.6,4.6,7.6,4.5,0,15.1-21.3,15.1-26.3s-.8-2.9-2.5-2.9Z"/>
        <path class="cls-2" d="M233,102.9c-.7,2.5-1.2,4.7-1.2,6.7s1.5,2.9,3.2,2.9c7.8,0,17.9-17.2,18.8-17.2s1.1,1.8,1.1,2.7c0,2.9-12.8,20.1-23.5,20.1s-9.7-5.2-9.7-9.1c0-13.2,22.5-53.2,38.4-53.2s5.8,1.9,5.8,3.2c0,3.4-18.7,36.1-32.9,43.8ZM259.2,62.8c-1.2,0-14.9,16.6-22.5,31.4,8.9-7.3,22.7-29.6,22.7-31.1s-.2-.2-.2-.2Z"/>
        <path class="cls-2" d="M279.3,117.7c-5.8,0-7.1-6.9-7.3-6.9s-6.3,7.6-13.1,7.6-9-3.7-9-11.1c0-12.1,14.4-31.3,27.9-31.3s7.3,5.7,7.5,5.7c.4,0,4.8-5.4,6.3-5.4s1.4.2,2.4.5c.8.2,2.1.3,2.1,1.5,0,4.5-14.5,25-14.5,30.1s.4,1.4,1.2,1.4c5.3,0,14-14.6,14.8-14.6s1.1,1.4,1.1,3-12.1,19.4-19.2,19.4ZM276.5,80.6c-6.7,0-16.4,17.3-16.4,25.4s.9,4.1,2.6,4.1,7.9-4,7.9-5.5-1.7-.8-2.4-.8v-.7c2.1-.6,11.6-10.3,11.6-17.9s-1.4-4.5-3.4-4.5Z"/>
        <path class="cls-2" d="M305.6,119.3c-6.2,0-11.6-4.1-11.6-13s11.6-29.6,23-29.6,3.4-.7,6-.7c3.8,0,6.7,1.9,6.7,8.1s-3.4,7.8-5.5,8.8c-2.1,1.2-4.5,2-5.8,2s-.5-.2-.5-.4.4-.2,1-1.1c.6-.9,2.9-6.2,2.9-10.7s-.2-1.9-1.1-1.9c-2.9,0-16.1,15.9-16.1,26.1s2.7,5.7,5.2,5.7c12.2,0,21.1-17.1,22.1-17.1s1,1.9,1,2.9c0,1.5-11.2,21-27.4,21Z"/>
        <path class="cls-2" d="M338.5,118.6c-5.6,0-10-5.7-10-12.5,0-10.5,12.4-29.3,23.5-29.3s4.5-.9,6.3-.9c2.6,0,5.1,3.1,5.1,6.3,0,6.2-9.2,16.9-22.5,16.9s-.5,0-.7,0c-1.1,2.5-1.7,4.8-1.7,6.8,0,3.6,1.3,5.9,4.4,5.9,11,0,20.1-16.4,21.1-16.4s1,1.5,1,2.7c0,3-12.6,20.5-26.3,20.5ZM355.8,80.7c-2.9,0-9.4,6.9-13.5,14.2,6.5-1.4,15-8.1,15-12.8s-.5-1.4-1.5-1.4Z"/>
        <path class="cls-2" d="M394.3,89.6c-.4,2.1-.9,4.5-1.6,7.3.7.2,1.4.3,1.9.3,1.7,0,2.1-1.1,2.2-1.1.4,0,.5,0,.5.4v.2c0,4.8-3.1,7.6-6.3,7.6h-.7c-4,10-12.2,14.4-19.4,14.4s-13.3-4.4-13.3-12,5.7-14.5,14.4-14.5,2.3,0,3.5.2c2.4-2.7,5.4-6.4,7.9-10.3,4.5-6.9,11.1-10.7,14.2-10.7s3.6.7,3.6,1.9c0,1.9-5.5,9.2-7,16.3ZM371.9,101.1c-5.5,0-8.3,3.6-8.3,6.8s1.8,5,5.5,5,8.5-2.8,11.1-10.3c-3-.7-5.7-1.4-8.3-1.4ZM384.4,87.1c-.7.9-2.8,3.6-5,6.2,1.1.3,2.1.6,3.2.9.8-3.1,1.5-5.5,2-6.9l-.2-.2Z"/>
      </g>
    </g>
  </g>
</svg>