<?xml version="1.0" encoding="utf-8"?>
<!-- Generator: Adobe Illustrator 26.5.3, SVG Export Plug-In . SVG Version: 6.00 Build 0)  -->
<svg version="1.1" id="Layer_1" xmlns="http://www.w3.org/2000/svg" xmlns:xlink="http://www.w3.org/1999/xlink" x="0px" y="0px"
	 viewBox="0 0 328.9 85.1" style="enable-background:new 0 0 328.9 85.1;" xml:space="preserve">
<style type="text/css">
	.st0{fill:#B52828;}
	.st1{fill:#BFB5AC;}
	.st2{fill:#C92F2F;}
	.st3{fill:none;}
	.st4{enable-background:new    ;}
	.st5{fill:#6E7A18;}
	.st6{fill:#36482E;}
</style>
<g>
	<path class="st0" d="M1254.3-204.7c-3,6.8-5.8,14.3-8.3,22.3c-8.3,26.9-21.1,53.3-53.1,53.3c-25.9,0-37.6-19.3-37.6-39.5
		c0-7.3,1.5-14.6,4.5-21.4c-0.8-1.4-1.4-3-1.4-5.1c0-5.7,3.9-9.6,9.8-9.6c0.7,0,1.2,0,1.8,0.1c6.3-6.1,14.6-9.9,24.5-9.9
		c11.9,0,18.2,6.3,19.8,17.5c7.9-1.8,15.2-4.1,21.8-6.8c10.1-18.2,22.3-33.8,43.3-33.8c5.5,0,8,2.6,8,4.7
		C1287.5-224.6,1273.3-214,1254.3-204.7z M1214.7-189.8c-0.7,14.1-15,32.7-24.5,32.7c-4.5,0-12.3-3.4-12.3-4.3
		c0-0.7,2.6-0.7,4.5-1.7c1.4-0.7,9.5-8.7,12.1-22c-5.6,0.8-11,1.4-15.7,1.4c-4,0-7.6-0.3-10.6-1.1c-1.8,4.4-2.8,9-2.8,13.5
		c0,15.7,9.2,25.9,21.2,25.9c22.5,0,32.8-25.6,45.1-49.7C1226.2-193.3,1220.4-191.4,1214.7-189.8z M1188.4-205.6
		c-3.6,0-7.7,2.5-11.4,6.5c2.3,2.6,5.1,5.1,9.5,5.1c3,0,6.1-0.1,9-0.3C1195.4-202.1,1192.8-205.6,1188.4-205.6z M1293.8-259.8
		c-7.7,5.1-14.1,15.7-19.7,15.7c-4.7,0-5.5-11.3-8.1-15.7c-3.2-5.2-9.5-9.4-9.5-10.2c0-1.8,2.3-2.9,3.9-2.9
		c8.1,0,15.3,7.7,18.9,14.5c7.2-5.8,19.8-14.5,29.4-14.5c1,0,2.2,0.6,2.2,1.7C1310.8-268,1300-264,1293.8-259.8z M1273.4-229.9
		c-3.9,0-8.8,5.5-13.8,14.2c9.5-6.1,14.9-11.6,14.9-13.4C1274.5-229.5,1274.1-229.9,1273.4-229.9z"/>
	<path class="st0" d="M1267.2-129.5c-7,0-11.3-8-11.3-15.8c0-16.8,21.4-51.5,28.5-54.4c0.6-0.1,1.9-0.3,3.4-0.3c3.6,0,8.3,0.7,8.3,3
		c0,0.3,0,0.7-0.3,1.1c-3,5.5-23.6,41.6-23.6,51.1c0,2.1,0.8,2.9,1.8,2.9c8.5,0,24.5-26,25.8-26c1.5,0,1.7,3.2,1.7,5.1
		C1301.6-160.4,1281.4-129.5,1267.2-129.5z M1286.4-207.1c-1.8,0-2.9-1.2-2.9-2.3c0-2.2,8-3.6,13.8-9.9c5-5.4,6.6-16.7,12-16.7
		c3.4,0,8.4,3.2,8.4,7.7C1317.7-219.9,1294.7-207.1,1286.4-207.1z"/>
	<path class="st0" d="M1318.4-129.2c-6.3,0-12.7-5.4-15.3-11.2c-12.5,25.6-22.7,44.5-27.3,44.5c-3,0-8-4.8-8-8.4
		c0-3.7,10.9-23.7,25.2-51c14.5-27.3,24.8-48.8,28-48.8c4.4,0,9.6,2.5,9.6,4.5c0,1.2-0.8,3.7-2.5,7.4c5.8-4.3,12.1-8,18.1-8
		c8.3,0,12.7,5.4,12.7,16C1358.9-163.5,1337.4-129.2,1318.4-129.2z M1338.9-190.7c-3.6,0-10.5,5.2-16.3,10.2
		c-3.2,6.8-7.4,15.3-12.5,25.8c1.4,6.5,4.1,12.7,7.7,12.7c7.6,0,25.2-35.6,25.2-43.8C1343-188.6,1341.6-190.7,1338.9-190.7z"/>
	<path class="st0" d="M1393.7-129.1c-8.8,0-14.6-7-14.6-15c0-9.9,4-18.7,6.2-23l-0.4-0.4c-5.4,5.1-13.9,16.8-18.5,25.4
		c-4.4,8.4-4.7,12.8-6.5,12.8c-3,0-10.2-5-10.2-10.6s12.3-28.4,22.5-46.9c10.1-18.3,23.8-43.1,29.6-43.1c2.9,0,8.3,1.8,8.3,5.4
		c0,5.5-4.3,12.3-9.8,20.9c-5.4,8.8-10.7,18.6-11.9,20.8l0.7,0.1c4.3-4,20-17.5,33.8-17.5c5.5,0,9.8,2.9,9.8,8.3c0,9-12.8,26-24,26
		c-3.3,0-4.5-1.4-5.1-1.4c-0.4,0-7.7,19.4-7.7,24.8c0,2.1,1.2,3.9,4.3,3.9c16.3,0,32.7-29.2,34.3-29.2c1.1,0,1.8,3,1.8,4.8
		C1436.3-161.7,1418.5-129.1,1393.7-129.1z M1420.1-194.7c-2.1,0-20.4,11.4-20.4,13.2c0,0.7,1.8,2.1,4.3,2.1
		c4.1,0,16.9-10.6,16.9-14.5C1420.9-194.4,1420.6-194.7,1420.1-194.7z"/>
	<path class="st0" d="M1477-130.5c-9.6,0-11.9-11.4-12.3-11.4s-10.5,12.7-21.9,12.7c-7.6,0-15-6.2-15-18.5c0-20.3,24-52.2,46.6-52.2
		c11.2,0,12.1,9.5,12.5,9.5c0.7,0,8-9,10.5-9s2.3,0.4,4,0.8c1.4,0.3,3.4,0.6,3.4,2.5c0,7.6-24.3,41.8-24.3,50.3
		c0,1.4,0.7,2.3,2.1,2.3c8.8,0,23.3-24.4,24.7-24.4c1.2,0,1.8,2.3,1.8,5S1489-130.5,1477-130.5z M1472.3-192.3
		c-11.2,0-27.3,28.8-27.3,42.3c0,4.4,1.5,6.9,4.3,6.9c3.6,0,13.2-6.6,13.2-9.2c0-1.1-2.9-1.4-4-1.4v-1.1c3.6-1,19.4-17.2,19.4-29.9
		C1477.9-189,1475.6-192.3,1472.3-192.3z"/>
	<path class="st1" d="M1529.3-129.8c-8.7,0-15.4-5.1-15.4-15c0-13.5,18.6-38.3,18.6-38.7c0-0.3-4.5-2.2-6.9-2.2
		c-0.6,0-1,0.1-1.1,0.4c-6.8,11-13.5,21.1-18.3,28c-0.4,0.7-1,1.1-1.5,1.1c-1.2,0-2.1-1.7-2.1-4.1c0-1,0.8-2.3,1.2-3
		c1.8-2.6,5.4-8,9.1-15.8c4.1-8.3,5-14.2,7.6-20.4c2.8-6.9,4.8-8.3,9.4-8.3c2.1,0,3.2,1.2,3.2,3.6c0,2.8-1.4,3.9-1.4,4.3
		c0,0.6,0.8,1,3,1c6.5,0,14.2-1.1,16.1-1.1c3.9,0,9,7.6,9,10.7c0,2.5-4.3,4.7-7.3,8.1c-5.2,5.6-19.4,25.6-19.4,36.4
		c0,1,0.6,2.1,1.9,2.1c3.4,0,9.6-5.4,14.3-11.2c5.2-6.3,9.6-13.2,10.3-13.2c1.2,0,1.8,2.5,1.8,5
		C1561.4-159.7,1541.3-129.8,1529.3-129.8z"/>
	<path class="st1" d="M1570.8-128.9c-9.4,0-16.7-9.5-16.7-20.8c0-17.5,20.7-48.9,39.1-48.9c5,0,7.6-1.5,10.5-1.5
		c4.4,0,8.5,5.1,8.5,10.5c0,10.3-15.3,28.2-37.5,28.2c-0.4,0-0.8,0-1.2-0.1c-1.8,4.1-2.9,8-2.9,11.3c0,6.1,2.2,9.9,7.3,9.9
		c18.3,0,33.5-27.3,35.1-27.3c1.5,0,1.7,2.5,1.7,4.5C1614.8-158.1,1593.7-128.9,1570.8-128.9z M1599.6-192.2
		c-4.8,0-15.7,11.6-22.6,23.7c10.9-2.3,25.1-13.5,25.1-21.4C1602.1-191.4,1601.3-192.2,1599.6-192.2z"/>
	<path class="st1" d="M1648-129.6c-6.5,0-12.7-5.1-12.7-12.3c0-15.7,14.5-38,18.1-43l-0.6-0.3c-7.6,7.3-22.5,24-30.2,35.7
		c-7.6,11.6-10.3,19.7-13.2,19.7c-2.8,0-8.8-4.1-8.8-9.2c0-6.5,26.3-61.6,32.4-61.6c2.1,0,9.5,1.8,9.5,5.7c0,3.4-4.7,13.6-5.4,16
		l0.1,0.1c2.5-2.5,18.2-20.8,25.8-20.8c5.1,0,11.7,3.4,11.7,5.9c0,3.7-1.7,6.1-3.6,9.8c-1.8,3.7-17.4,31.8-17.4,37.8
		c0,1.7,0.4,2.9,3.2,2.9c7.2,0,22.2-24.7,23.4-24.7s1.8,2.3,1.8,4.7C1682.1-159.3,1661.5-129.6,1648-129.6z M1671.8-218.6
		c-6.5,4.3-11.9,13.2-16.7,13.2c-3.9,0-4.5-9.5-6.8-13.2c-2.8-4.4-8.1-7.9-8.1-8.5c0-1.5,2.1-2.5,3.3-2.5c6.9,0,13,6.5,16,12.1
		c6.1-4.8,16.7-12.1,24.7-12.1c0.8,0,1.9,0.4,1.9,1.4C1686.1-225.5,1677-222.1,1671.8-218.6z"/>
</g>
<g>
	<path class="st0" d="M-310,179.5c-6.7,0-9.8-4.8-12.3-9.7c-4.9,5.1-10.7,9.2-16.7,9.2c-4.2,0-7.4-3.3-7.4-7.9
		c0-8.5,7.3-17.4,16.9-17.4c3.6,0,6.2,1.4,8.1,3.4c1.4-2,2.8-4.1,4.1-6c4.5-6.8,10.2-13,16.1-17.2c-1.5-0.3-3.2-0.5-5-0.5
		c-11.9,0-22.5,7.7-22.5,12.4c0,0.6,0.8,1.2,1.6,1.2c5.8,0,10.9-7.9,11.9-9.7c0.2-0.2,0.3-0.4,0.4-0.4s0.3,0.3,0.3,0.5
		c0,10.5-7.2,15.3-12.8,15.3c-3.4,0-6.1-1.8-6.1-5.2c0-6.1,12.3-16.9,29.2-16.9c2.4,0,4.7,0.3,6.8,0.8c3-1.6,5.9-2.5,8.6-2.5
		c1.8,0,2.8,0.5,2.8,0.8c0,0.4-0.3,0.4-1.6,0.4c-1.9,0-4,1-6,2.7c5.9,2.8,9.5,8.5,9.5,17.3C-284.3,163.9-295.6,179.5-310,179.5z
		 M-332.7,158.4c-6,0-11,4.9-11,10.5c0,2.8,1.8,4.5,4.1,4.5c3.8,0,8.7-4.5,13.6-10.6C-327.7,160.2-329.7,158.4-332.7,158.4z
		 M-297,135.9c-5.3,5.9-10.5,14.8-14.3,20c-1.7,2.3-3.7,5.1-6.1,8.1c2.1,4.5,3.9,8.7,8.2,8.7c10,0,16-14.1,16-25.2
		C-293.1,142.5-294.4,138.2-297,135.9z"/>
	<path class="st0" d="M-264.3,178.9c-4.3,0-5.4-5.1-5.5-5.1c-0.2,0-4.7,5.7-9.9,5.7c-3.4,0-6.8-2.8-6.8-8.3c0-9.1,10.8-23.5,21-23.5
		c5,0,5.4,4.3,5.6,4.3c0.3,0,3.6-4.1,4.7-4.1s1,0.2,1.8,0.4c0.6,0.1,1.5,0.3,1.5,1.1c0.2,3.3-10.8,18.7-10.8,22.6c0,0.6,0.3,1,0.9,1
		c4,0,10.5-11,11.1-11c0.5,0,0.8,1,0.8,2.3S-258.9,178.9-264.3,178.9z M-266.4,151c-5,0-12.3,13-12.3,19c0,2,0.7,3.1,1.9,3.1
		c1.6,0,5.9-3,5.9-4.1c0-0.5-1.3-0.6-1.8-0.6v-0.5c1.6-0.5,8.7-7.7,8.7-13.5C-263.9,152.5-264.9,151-266.4,151z"/>
	<path class="st2" d="M-240.7,179.1c-3.9,0-6.9-2.3-6.9-6.8c0-6.1,8.4-17.2,8.4-17.4c0-0.1-2-1-3.1-1c-0.3,0-0.5,0-0.5,0.2
		c-3.1,5-6.1,9.5-8.2,12.6c-0.2,0.3-0.5,0.5-0.7,0.5c-0.5,0-0.9-0.8-0.9-1.8c0-0.5,0.4-1,0.5-1.4c0.8-1.2,2.4-3.6,4.1-7.1
		c1.8-3.7,2.3-6.4,3.4-9.2c1.3-3.1,2.2-3.7,4.2-3.7c0.9,0,1.4,0.5,1.4,1.6c0,1.3-0.6,1.8-0.6,1.9c0,0.3,0.4,0.5,1.4,0.5
		c2.9,0,6.4-0.5,7.2-0.5c1.8,0,4.1,3.4,4.1,4.8c0,1.1-1.9,2.1-3.3,3.6c-2.3,2.5-8.7,11.5-8.7,16.4c0,0.5,0.3,0.9,0.9,0.9
		c1.5,0,4.3-2.4,6.4-5c2.3-2.8,4.3-5.9,4.6-5.9c0.5,0,0.8,1.1,0.8,2.3C-226.3,165.7-235.3,179.1-240.7,179.1z"/>
	<path class="st2" d="M-209.7,150.5c-0.8,0-0.6,0-3.3,0c-4.6,8.6-9.3,17-9.3,19.9c0,2,1.4,2.5,2.3,2.5c4,0,10.5-11,11.1-11
		s0.8,1,0.8,2.3c0,1.2-9.2,14.9-14.6,14.9c-4.1,0-8.6-2.3-8.6-5.9c0-4.3,6.6-15.8,9.7-21.6l0.8-1.4c-1.3-0.1-3.2-0.5-3.2-2
		c0-1,0-2.1,0.1-2.5c0-0.3,0.2-0.5,0.6-0.5c0.3,0,1.2,0,1.9,0c0.9,0,2.7-0.4,3.3-0.4c2.7-5.1,5.8-10.4,6.5-10.4
		c2.8,0,4.6,2.7,4.6,4.1c0,0.8-0.9,2.6-3.2,6.8h3.3c1.2,0,1.8,0.4,1.8,0.9C-205.1,148.6-207.8,150.5-209.7,150.5z"/>
	<path class="st2" d="M-186.1,157.7c-0.3,1.5-0.7,3.4-1.2,5.4c0.5,0.2,1,0.3,1.4,0.3c1.3,0,1.5-0.8,1.7-0.8c0.3,0,0.4,0,0.4,0.3v0.1
		c0,3.6-2.3,5.7-4.7,5.7c-0.2,0-0.4,0-0.5,0c-3.1,7.5-9.2,10.8-14.6,10.8s-10-3.3-10-9c0-5.2,4.3-10.9,10.8-10.9
		c0.9,0,1.8,0,2.6,0.2c1.8-2,4.1-4.8,5.9-7.7c3.4-5.1,8.3-8.1,10.7-8.1c1.5,0,2.7,0.5,2.7,1.4C-180.8,146.9-184.9,152.4-186.1,157.7
		z M-202.9,166.4c-4.1,0-6.2,2.7-6.2,5.1c0,1.9,1.4,3.7,4.1,3.7c2.8,0,6.4-2.1,8.3-7.7C-198.9,166.9-200.9,166.4-202.9,166.4z
		 M-193.5,155.8c-0.5,0.7-2.1,2.7-3.7,4.6c0.8,0.3,1.6,0.5,2.4,0.7c0.6-2.3,1.1-4.1,1.5-5.2L-193.5,155.8z"/>
	<path class="st1" d="M-240.4,195.4c-2.7,0-5.2-0.6-7.4-1.7c-4.1,4.3-7.2,9.2-7.2,13.1c0,2.3,1.6,3.7,4,3.7c6.3,0,10.5-5.9,10.5-8.9
		c0-0.9-0.6-1.3-1.4-1.3c-1.4,0-3.4,1.6-3.9,3.8c-0.1,0.3,0,0.4-0.2,0.4s-0.5-0.8-0.5-1.7c0-2.4,2.1-5.1,5.4-5.1
		c2.4,0,3.5,1.4,3.5,3.4c0,4.8-6.2,12.9-14.8,12.9c-4.6,0-8.2-3.1-8.2-7.5c0-5.3,3.9-11.1,9.1-15.7c-1.8-2-2.9-4.7-2.9-7.7
		c0-2.4,1.7-4.5,2.3-4.5c0.1,0,0.1,0,0.1,0.1c0,0.2,0,0.4,0,0.9c0,3.5,1.2,6.6,3.7,8.7c5.4-4,11.8-6.7,16.7-6.7c3.6,0,5.6,1.7,5.6,4
		C-226.2,189.8-232.1,195.4-240.4,195.4z M-232.1,183.4c-2.8,0-7.7,2.9-12.4,7c1.5,0.5,3.3,0.7,5.3,0.7c5.6,0,9.8-3.1,9.8-5.6
		C-229.4,184.1-230.5,183.4-232.1,183.4z"/>
	<path class="st1" d="M-228.6,205.9c-0.4,1.2-0.6,2.3-0.6,3.3c0,0.8,0.7,1.4,1.6,1.4c3.9,0,8.9-8.5,9.3-8.5s0.5,0.9,0.5,1.3
		c0,1.4-6.4,10-11.6,10c-2.4,0-4.8-2.6-4.8-4.5c0-6.5,11.1-26.4,19-26.4c1.6,0,2.9,1,2.9,1.6C-212.3,185.9-221.6,202.1-228.6,205.9z
		 M-215.6,186c-0.6,0-7.4,8.2-11.1,15.6c4.4-3.6,11.3-14.7,11.3-15.4C-215.5,186.1-215.6,186-215.6,186z"/>
	<path class="st1" d="M-207.4,213.5c-2,0-3.8-1.5-3.8-3.7c0-0.4,0-0.5,0-0.8c-0.7,1-3.8,4.5-5.7,4.5c-1.8,0-3.7-2.4-3.7-4.7
		c0-5,6.4-15.3,8.5-16.2c0.2,0,0.6-0.1,1.1-0.1c1,0,2.5,0.2,2.5,0.9c0,0.1,0,0.2-0.1,0.3c-0.9,1.6-7,12.4-7,15.2
		c0,0.6,0.2,0.9,0.6,0.9c1,0,4.3-3.7,6.6-7.7c2-3.4,4.7-9.5,5.6-9.5c2,0,3.5,0.7,3.5,1.4c0,1.1-0.7,2.1-1.2,3.2
		c-0.6,1.1-5.2,9.4-5.2,11.2c0,0.5,0.1,0.9,1,0.9c2.1,0,6.6-7.3,6.9-7.3c0.4,0,0.5,0.7,0.5,1.4
		C-197.3,204.7-203.4,213.5-207.4,213.5z"/>
	<path class="st1" d="M-194.1,213.5c-2.8,0-5.6-1.4-5.6-6.7c0-1.8,3-7.2,6.2-12.6c3.5-5.8,6.7-11.5,8.8-11.5c1.1,0,2.7,0.8,2.7,1.3
		s-1.9,3.1-2.9,4.9c-1.1,1.8-2.6,4.5-2.6,4.6h0.1c1.1-0.6,2.1-0.9,3-0.9c2.3,0,3.9,1.6,3.9,4.9
		C-180.6,203.8-186.2,213.5-194.1,213.5z M-186.4,195c-1.4,0-2.7,1.5-3.3,2.2s-5.9,10.5-5.9,12.3c0,0.7,0.4,1.3,1.4,1.3
		c3.2,0,9.3-9.7,9.3-13.8C-184.8,196.2-185.3,195-186.4,195z"/>
</g>
<rect x="640.1" y="90.1" class="st3" width="330" height="57.9"/>
<g class="st4">
	<path class="st0" d="M823.1,371c-15.8,0-23-11.2-29.1-22.9c-11.5,11.9-25.1,21.6-39.5,21.6c-10,0-17.5-7.8-17.5-18.7
		c0-20,17.2-40.9,39.8-40.9c8.6,0,14.6,3.2,19.1,8c3.3-4.7,6.5-9.4,9.7-14.2c10.5-16,24.1-30.7,37.9-40.5c-3.5-0.7-7.5-1-11.8-1
		c-27.5,0-52.4,18.2-52.4,29.1c0,1.5,1.8,2.8,3.7,2.8c13.6,0,25.7-18.6,28-22.8c0.3-0.4,0.6-0.7,0.8-0.7c0.3,0,0.6,0.6,0.6,1.1
		c0,24.7-17.1,35.9-30.1,35.9c-8,0-14.4-4.3-14.4-12.3c0-14.4,29.1-39.8,68.8-39.8c5.7,0,11.1,0.6,16,1.9c7.1-3.7,13.9-5.8,20.1-5.8
		c4.2,0,6.5,1.2,6.5,1.8c0,0.8-0.7,0.8-3.7,0.8c-4.6,0-9.3,2.4-14.2,6.4c13.9,6.5,22.5,20,22.5,40.8C884,334.3,857.2,371,823.1,371z
		 M769.6,321.2c-14,0-25.7,11.5-25.7,24.8c0,6.5,4.3,10.7,9.4,10.7c8.9,0,20.5-10.7,32.2-25C781.6,325.7,776.9,321.2,769.6,321.2z
		 M853.9,268.4c-12.5,13.9-24.7,35-33.6,47c-3.9,5.4-8.7,12.1-14.3,19.1c5,10.5,9.2,20.7,19.4,20.7c23.6,0,37.7-33.2,37.7-59.4
		C863,283.9,860,273.5,853.9,268.4z"/>
	<path class="st0" d="M931,369.5c-10.3,0-12.6-12.1-13-12.1s-11.1,13.5-23.3,13.5c-8,0-16-6.5-16-19.6c0-21.5,25.4-55.4,49.4-55.4
		c11.8,0,12.9,10.1,13.3,10.1c0.7,0,8.5-9.4,11.1-9.4s2.5,0.4,4.3,0.8c1.5,0.3,3.6,0.6,3.6,2.6c0,8-25.7,44.3-25.7,53.4
		c0,1.5,0.7,2.5,2.2,2.5c9.3,0,24.7-25.9,26.2-25.9c1.2,0,1.9,2.5,1.9,5.3C965.1,337.9,943.8,369.5,931,369.5z M926,303.9
		c-11.8,0-29,30.5-29,45c0,4.7,1.7,7.4,4.6,7.4c3.7,0,14-7.1,14-9.9c0-1.1-3.1-1.5-4.3-1.5v-1.1c3.7-1,20.7-18.3,20.7-31.8
		C932,307.4,929.6,303.9,926,303.9z"/>
	<path class="st0" d="M986.5,370.2c-9.2,0-16.4-5.4-16.4-16c0-14.3,19.7-40.7,19.7-41.1c0-0.3-4.9-2.4-7.4-2.4c-0.6,0-1,0.1-1.1,0.4
		c-7.2,11.7-14.3,22.3-19.4,29.7c-0.4,0.7-1,1.1-1.7,1.1c-1.2,0-2.2-1.8-2.2-4.4c0-1,0.8-2.5,1.2-3.2c1.9-2.8,5.7-8.5,9.7-16.8
		c4.4-8.7,5.3-15.1,8-21.6c2.9-7.4,5.1-8.7,10-8.7c2.2,0,3.3,1.2,3.3,3.7c0,2.9-1.5,4.2-1.5,4.6c0,0.6,0.8,1,3.2,1
		c6.9,0,15.1-1.1,17.1-1.1c4.2,0,9.4,8,9.4,11.4c0,2.6-4.6,5-7.8,8.6c-5.5,6-20.7,27.2-20.7,38.6c0,1,0.6,2.2,2.1,2.2
		c3.6,0,10.3-5.7,15.3-11.8c5.5-6.7,10.3-14,11-14c1.2,0,1.9,2.6,1.9,5.3C1020.6,338.4,999.3,370.2,986.5,370.2z"/>
	<path class="st0" d="M1059.6,302.8c-1.9,0-1.5,0.1-7.8,0.1c-10.8,20.1-21.9,40.1-21.9,46.9c0,4.9,3.2,5.8,5.3,5.8
		c9.3,0,24.8-25.9,26.2-25.9c1.2,0,1.9,2.5,1.9,5.3s-21.8,35.2-34.5,35.2c-9.4,0-20.3-5.4-20.3-13.9c0-10.3,15.7-37.3,22.9-50.9
		l1.8-3.2c-2.9-0.3-7.5-1.1-7.5-4.9c0-2.5,0-5,0.3-6c0.1-0.7,0.4-1,1.5-1c0.7,0,2.8,0.1,4.6,0.1c2.1,0,6.4-0.8,7.8-0.8
		c6.4-11.9,13.6-24.6,15.4-24.6c6.7,0,10.8,6.2,10.8,9.4c0,1.8-2.2,6.1-7.5,16h7.9c2.8,0,4.2,0.8,4.2,2.2
		C1070.4,298.2,1064.1,302.8,1059.6,302.8z"/>
	<path class="st0" d="M1115.3,319.7c-0.7,3.6-1.7,8-2.8,12.9c1.2,0.4,2.5,0.6,3.3,0.6c3.1,0,3.6-1.9,3.9-1.9c0.7,0,0.8,0.1,0.8,0.7
		v0.3c0.1,8.5-5.5,13.5-11.1,13.5c-0.4,0-0.8,0-1.1,0c-7.2,17.8-21.6,25.4-34.4,25.4s-23.6-7.8-23.6-21.2
		c0-12.3,10.1-25.5,25.4-25.5c2.1,0,4,0.1,6.1,0.4c4.3-4.9,9.4-11.4,14-18.3c8.3-11.9,19.8-18.7,25.4-18.7c3.6,0,6.4,1.2,6.4,3.3
		C1127.6,294.3,1118,307.2,1115.3,319.7z M1075.6,340.1c-9.7,0-14.6,6.2-14.6,11.9c0,4.6,3.2,8.7,9.9,8.7c6.7,0,15.1-5,19.6-18.3
		C1085.1,341.2,1080.3,340.1,1075.6,340.1z M1097.6,315.3c-1.1,1.7-5,6.4-8.7,11c1.9,0.6,3.7,1,5.7,1.7c1.5-5.4,2.6-9.7,3.5-12.3
		L1097.6,315.3z"/>
</g>
<g class="st4">
	<path class="st0" d="M-218.9-60.6c-1.8,4-3.5,8.6-5,13.4c-5,16.1-12.6,32-31.8,32c-15.5,0-22.5-11.6-22.5-23.7
		c0-4.4,0.9-8.8,2.7-12.8c-0.5-0.8-0.8-1.8-0.8-3.1c0-3.4,2.3-5.8,5.9-5.8c0.4,0,0.7,0,1.1,0.1c3.8-3.6,8.8-5.9,14.7-5.9
		c7.1,0,10.9,3.8,11.9,10.5c4.7-1.1,9.1-2.5,13-4c6-10.9,13.4-20.2,25.9-20.2c3.3,0,4.8,1.6,4.8,2.8
		C-199-72.5-207.5-66.2-218.9-60.6z M-242.6-51.7c-0.4,8.4-9,19.6-14.7,19.6c-2.7,0-7.3-2.1-7.3-2.6c0-0.4,1.6-0.4,2.7-1
		c0.8-0.4,5.7-5.2,7.3-13.2c-3.4,0.5-6.6,0.8-9.4,0.8c-2.4,0-4.5-0.2-6.4-0.7c-1.1,2.6-1.7,5.4-1.7,8.1c0,9.4,5.5,15.5,12.7,15.5
		c13.5,0,19.7-15.4,27-29.8C-235.7-53.8-239.2-52.6-242.6-51.7z M-258.4-61.1c-2.1,0-4.6,1.5-6.9,3.9c1.4,1.6,3.1,3.1,5.7,3.1
		c1.8,0,3.6-0.1,5.4-0.2C-254.2-59.1-255.7-61.1-258.4-61.1z M-207.4-75.8c-2.3,0-5.3,3.3-8.3,8.5c5.7-3.6,8.9-6.9,8.9-8
		C-206.8-75.5-207-75.8-207.4-75.8z"/>
	<path class="st0" d="M-213-15.2c-5.6,0-10-5.7-10-12.5c0-10.5,12.4-29.3,23.5-29.3c3,0,4.5-0.9,6.3-0.9c2.6,0,5.1,3.1,5.1,6.3
		c0,6.2-9.2,16.9-22.5,16.9c-0.2,0-0.5,0-0.7-0.1c-1.1,2.5-1.7,4.8-1.7,6.8c0,3.6,1.3,5.9,4.4,5.9c11,0,20.1-16.4,21.1-16.4
		c0.9,0,1,1.5,1,2.7C-186.6-32.7-199.2-15.2-213-15.2z M-195.7-53.1c-2.9,0-9.4,6.9-13.5,14.2c6.5-1.4,15-8.1,15-12.8
		C-194.2-52.6-194.7-53.1-195.7-53.1z"/>
	<path class="st0" d="M-162.1-16.1c-5.8,0-7.1-6.9-7.4-6.9c-0.2,0-6.3,7.6-13.1,7.6c-4.5,0-9-3.7-9-11.1c0-12.1,14.4-31.3,27.9-31.3
		c6.7,0,7.3,5.7,7.5,5.7c0.4,0,4.8-5.4,6.3-5.4s1.4,0.2,2.4,0.5c0.8,0.2,2.1,0.3,2.1,1.5c0,4.5-14.5,25-14.5,30.1
		c0,0.8,0.4,1.4,1.2,1.4c5.3,0,14-14.6,14.8-14.6c0.7,0,1.1,1.4,1.1,3S-154.9-16.1-162.1-16.1z M-164.9-53.2
		c-6.7,0-16.4,17.3-16.4,25.4c0,2.6,0.9,4.1,2.6,4.1c2.1,0,7.9-4,7.9-5.5c0-0.7-1.7-0.8-2.4-0.8v-0.7c2.2-0.6,11.7-10.4,11.7-18
		C-161.5-51.2-162.9-53.2-164.9-53.2z"/>
	<path class="st0" d="M-113.5-44.2c-0.4,2.1-0.9,4.5-1.6,7.3c0.7,0.2,1.4,0.3,1.9,0.3c1.7,0,2.1-1.1,2.2-1.1c0.4,0,0.5,0.1,0.5,0.4
		v0.2c0.1,4.8-3.1,7.6-6.3,7.6c-0.2,0-0.5,0-0.7,0c-4,10-12.2,14.4-19.4,14.4s-13.3-4.4-13.3-12c0-6.9,5.7-14.5,14.4-14.5
		c1.2,0,2.3,0.1,3.5,0.2c2.4-2.7,5.4-6.4,7.9-10.3c4.5-6.9,11.1-10.7,14.2-10.7c2.1,0,3.6,0.7,3.6,1.9
		C-106.5-58.6-112-51.3-113.5-44.2z M-135.9-32.7c-5.5,0-8.3,3.6-8.3,6.8c0,2.6,1.8,5,5.5,5c3.8,0,8.5-2.8,11.1-10.3
		C-130.5-32.1-133.3-32.7-135.9-32.7z M-123.4-46.8c-0.7,0.9-2.8,3.6-5,6.2c1.1,0.3,2.1,0.6,3.2,0.9c0.8-3.1,1.5-5.5,2-6.9
		L-123.4-46.8z"/>
	<path class="st0" d="M-66.9-35.1c-4.2,8.3-11.1,11.8-16.3,11.8c-0.2,0-0.4,0-0.7,0c-4.3,4.7-9.3,8-14.7,8
		c-6.9,0-11.6-3.9-11.6-11.8c0-12.1,12.1-30.8,25.4-30.8c2.4,0,4.4,1.1,6.7,1.1c3.9,0,5.4,3.3,5.4,6.6c0,5.9-2.4,13.5-6.3,20.1
		c0.5,0.2,0.9,0.3,1.4,0.3c4.8,0,8.3-8.2,9.5-8.2c0.7,0,1.2,1.1,1.2,2.1C-66.7-35.5-66.8-35.3-66.9-35.1z M-81.2-52.2
		c-6.5,0-17,14.3-17,24.1c0,2.8,1,4.8,3.6,4.8c1.5,0,3-0.7,4.5-1.7c-2.1-1.2-3.3-3.2-3.3-5.3c0-2.9,2-5.5,5.5-5.5c2,0,3.6,1,4.9,2.1
		c3-5.2,5-11,5-14.3C-78.1-50.1-78.8-52.2-81.2-52.2z"/>
	<path class="st0" d="M-47-15.6c-3.9,0-7.6-3.1-7.6-7.3c0-9.4,8.7-22.8,10.8-25.8l-0.3-0.2c-4.5,4.4-13.5,14.4-18.1,21.4
		c-4.5,6.9-6.2,11.8-7.9,11.8s-5.3-2.5-5.3-5.5c0-3.9,15.8-36.9,19.4-36.9c1.2,0,5.7,1.1,5.7,3.4c0,2.1-2.8,8.2-3.2,9.6l0.1,0.1
		c1.5-1.5,10.9-12.5,15.4-12.5c3.1,0,7,2.1,7,3.6c0,2.2-1,3.6-2.1,5.9c-1.1,2.2-10.4,19.1-10.4,22.6c0,1,0.2,1.7,1.9,1.7
		c4.3,0,13.3-14.8,14-14.8s1.1,1.4,1.1,2.8C-26.5-33.4-38.9-15.6-47-15.6z"/>
	<path class="st0" d="M2.8-44.2c-0.4,2.1-0.9,4.5-1.6,7.3c0.7,0.2,1.4,0.3,1.9,0.3c1.7,0,2.1-1.1,2.2-1.1c0.4,0,0.5,0.1,0.5,0.4v0.2
		c0.1,4.8-3.1,7.6-6.3,7.6c-0.2,0-0.5,0-0.7,0c-4,10-12.2,14.4-19.4,14.4c-7.2,0-13.3-4.4-13.3-12c0-6.9,5.7-14.5,14.4-14.5
		c1.2,0,2.3,0.1,3.5,0.2c2.4-2.7,5.4-6.4,7.9-10.3C-3.6-58.6,3-62.4,6.1-62.4c2.1,0,3.6,0.7,3.6,1.9C9.8-58.6,4.4-51.3,2.8-44.2z
		 M-19.6-32.7c-5.5,0-8.3,3.6-8.3,6.8c0,2.6,1.8,5,5.5,5c3.8,0,8.5-2.8,11.1-10.3C-14.2-32.1-16.9-32.7-19.6-32.7z M-7.1-46.8
		c-0.7,0.9-2.8,3.6-5,6.2c1.1,0.3,2.1,0.6,3.2,0.9c0.8-3.1,1.5-5.5,2-6.9L-7.1-46.8z"/>
</g>
<g class="st4">
	<path class="st0" d="M287.2-171.4c-0.9,0-1.7,0-2.6-0.1c-4.1,7-8.7,14.8-13.9,21.6c6.2,5.7,11.8,11,17.8,11c3.1,0,5.1-2.4,5.5-2.4
		s0.7,0.2,0.7,0.6c0,0.5-7.9,12-15.2,12c-5.5,0-10.8-5.9-16.4-12.4c-6.1,5.8-13.1,9.7-21.2,9.7c-10.8,0-15.9-6.9-15.9-14.2
		c0-8.6,6.9-18,19.9-18c6.3,0,11.7,2.9,16.7,6.7c4-5.5,8.1-11.6,12.2-17.4c-7.4-3.6-12.7-10-12.7-15.1c0-3.2,2.7-5.5,3.9-5.5
		c1,0,1.3,1.9,2.1,3.4c2.5,5,6.8,8.6,11.6,10.8c7.3-9,15-15.8,24.2-15.8c6.4,0,9.6,3.5,9.6,7.8C313.4-181.3,304.4-171.4,287.2-171.4
		z M241.3-156.7c-6.1,0-10.2,4.4-10.2,9.2c0,4.5,3.2,8,9,8c5.6,0,10.8-3.8,15.9-9.4C251.5-153.3,246.7-156.7,241.3-156.7z
		 M303.3-192.4c-4.8,0-9.4,5.9-14.5,14.2c1.2,0.2,2.4,0.2,3.6,0.2c10.3,0,15.4-5.7,15.4-9.9C307.7-190.4,306.1-192.4,303.3-192.4z"
		/>
	<path class="st0" d="M307.5-131.3c-5.6,0-10-5.7-10-12.5c0-10.5,12.4-29.3,23.5-29.3c3,0,4.5-0.9,6.3-0.9c2.6,0,5.1,3.1,5.1,6.3
		c0,6.2-9.2,16.9-22.5,16.9c-0.2,0-0.5,0-0.7-0.1c-1.1,2.5-1.7,4.8-1.7,6.8c0,3.6,1.3,5.9,4.4,5.9c11,0,20.1-16.4,21.1-16.4
		c0.9,0,1,1.5,1,2.7C333.8-148.8,321.2-131.3,307.5-131.3z M324.7-169.2c-2.9,0-9.4,6.9-13.5,14.2c6.5-1.4,15-8.1,15-12.8
		C326.2-168.7,325.7-169.2,324.7-169.2z"/>
	<path class="st0" d="M358.4-132.2c-5.8,0-7.1-6.9-7.4-6.9c-0.2,0-6.3,7.6-13.1,7.6c-4.5,0-9-3.7-9-11.1c0-12.1,14.4-31.3,27.9-31.3
		c6.7,0,7.3,5.7,7.5,5.7c0.4,0,4.8-5.4,6.3-5.4s1.4,0.2,2.4,0.5c0.8,0.2,2.1,0.3,2.1,1.5c0,4.5-14.5,25-14.5,30.1
		c0,0.8,0.4,1.4,1.2,1.4c5.3,0,14-14.6,14.8-14.6c0.7,0,1.1,1.4,1.1,3C377.6-150,365.5-132.2,358.4-132.2z M355.5-169.3
		c-6.7,0-16.4,17.3-16.4,25.4c0,2.6,0.9,4.1,2.6,4.1c2.1,0,7.9-4,7.9-5.5c0-0.7-1.7-0.8-2.4-0.8v-0.7c2.1-0.6,11.6-10.3,11.6-17.9
		C358.9-167.3,357.5-169.3,355.5-169.3z"/>
	<path class="st0" d="M405.5-140.1c-7.1,14.8-15.5,35.6-30.1,35.6c-7.4,0-13.6-4.3-13.6-11c0-8.1,7.3-14.2,13.8-14.2
		c3.8,0,5.9,2.4,5.9,4.9c0,2.6-2.1,4.4-2.4,4.4c-0.2,0-0.2-0.1-0.2-0.2c0-0.2,0-0.4,0-0.7c0-1-1.7-1.7-4-1.7c-5,0-8.3,3.6-8.3,6.7
		c0,3.5,2.6,5.4,5.6,5.4c6.9,0,12-9.2,14.5-14.1c2.6-4.9,4.5-10.3,4.6-11.1c-2.6,3.1-5.5,4.3-8.3,4.3c-5.4,0-10-5.3-10-11.9
		c0-16.2,17.4-30.4,28.1-30.4c4,0,6.9,2,7.8,6.5c0.4-0.5,3.3-4.5,4.2-5c0.7-0.4,1.8-0.5,2.9-0.5h1c1.2,0,3.6,0.7,3.6,1.8
		C420.7-169.4,412.5-154.9,405.5-140.1z M401.7-168.3c-7.6,0-18.2,16.7-18.2,23.9c0,2.5,1.2,4.6,3.5,4.6c5.8,0,17.6-19.6,17.6-24.3
		C404.6-166.6,403.9-168.3,401.7-168.3z"/>
	<path class="st0" d="M440.7-131.7c-4,0-7.6-3.1-7.6-7.3c0-0.8,0-1.1,0.1-1.6c-1.3,1.9-7.7,9-11.5,9c-3.7,0-7.5-4.8-7.5-9.5
		c0-10.1,12.9-30.9,17.1-32.6c0.3-0.1,1.2-0.2,2.1-0.2c2.1,0,5,0.4,5,1.8c0,0.2-0.1,0.4-0.2,0.7c-1.7,3.3-14.1,24.9-14.1,30.6
		c0,1.2,0.5,1.7,1.2,1.7c1.9,0,8.7-7.4,13.4-15.4c4.1-6.9,9.5-19.2,11.3-19.2c4,0,7.1,1.4,7.1,2.9c0,2.2-1.3,4.3-2.4,6.5
		c-1.2,2.2-10.5,19.1-10.5,22.6c0,1,0.2,1.7,2,1.7c4.2,0,13.3-14.8,14-14.8c0.8,0,1.1,1.4,1.1,2.8
		C461.1-149.5,448.8-131.7,440.7-131.7z"/>
	<path class="st0" d="M466.5-131.3c-5.6,0-10-5.7-10-12.5c0-10.5,12.4-29.3,23.5-29.3c3,0,4.5-0.9,6.3-0.9c2.6,0,5.1,3.1,5.1,6.3
		c0,6.2-9.2,16.9-22.5,16.9c-0.2,0-0.5,0-0.7-0.1c-1.1,2.5-1.7,4.8-1.7,6.8c0,3.6,1.3,5.9,4.4,5.9c11,0,20.1-16.4,21.1-16.4
		c0.9,0,1,1.5,1,2.7C492.9-148.8,480.2-131.3,466.5-131.3z M483.8-169.2c-2.9,0-9.4,6.9-13.5,14.2c6.5-1.4,15-8.1,15-12.8
		C485.3-168.7,484.8-169.2,483.8-169.2z"/>
</g>
<g class="st4">
	<path class="st0" d="M91.9,12.6c-13.5,2.8-20.1,13.6-26,24.5C60.2,48,55.9,60.5,52.7,65.2c-3.1,4.6-5.6,7.2-8.5,7.2
		c-1.9,0-2.6-0.6-2.6-1.4s1.3-1.3,1.6-4.2c0.4-2.8,0.7-21.4,1.6-28h-0.3c-4.7,7.8-14.5,32.8-27.7,32.8c-7.2,0-11.7-5.7-11.7-12.4
		c0-8.4,7.1-19.4,17-19.4c5,0,7.9,3.5,7.9,8.6c0,5.7-4,12.5-10.1,12.5c-1.6,0-2.6-0.1-2.6-0.4c0-0.5,1-0.4,2.1-1.1
		c1-0.8,5.5-5.9,5.5-11.3c0-3-1.6-4.6-3.9-4.6c-4.8,0-10.1,7.2-10.1,14.9c0,5.4,3.2,8.6,7.4,8.6c7.2,0,12.8-11.7,18.4-23.5
		c5.6-11.8,9.7-18.6,12.7-20.4c1.2-0.8,2.4-0.9,3.8-0.9c1.4,0,2.7,0.6,2.7,1.4c0,0.9-2.1,8-2.8,14.1c-0.7,6.1-0.9,13.1-1.3,16.6
		l0.2,0.1c4.2-8.5,10.9-21.4,14.5-27.2C73.5,16.4,82.6,10,90.6,10c1.6,0,2.7,0.9,2.7,1.7C93.3,12.5,92.7,12.4,91.9,12.6z"/>
	<path class="st0" d="M69,71.7c-4.3,0-7.6-4.3-7.6-9.5c0-8,9.5-22.4,17.9-22.4c2.3,0,3.5-0.7,4.8-0.7c2,0,3.9,2.3,3.9,4.8
		c0,4.7-7,12.9-17.1,12.9c-0.2,0-0.4,0-0.6-0.1C69.5,58.7,69,60.5,69,62c0,2.8,1,4.5,3.3,4.5c8.4,0,15.3-12.5,16.1-12.5
		c0.7,0,0.8,1.1,0.8,2.1C89.1,58.4,79.5,71.7,69,71.7z M82.2,42.8c-2.2,0-7.2,5.3-10.3,10.8c5-1.1,11.5-6.2,11.5-9.8
		C83.3,43.2,83,42.8,82.2,42.8z"/>
	<path class="st0" d="M123.5,50.9c-0.9,0-2.1-0.4-2.8-1.1c-2,2.9-15.8,22.1-18,22.1s-4.1-2.8-4.1-4.5c0-1.8,2.8-10.1,4.9-16.4
		c-4.9,6.5-12.2,18-13.9,20.2c-0.3,0.3-0.6,0.4-0.9,0.4c-1.8,0-4.5-2.8-4.5-4.2c0-1.9,3.1-11.2,5.2-17.5c2.8-8.8,3.2-10.5,5.8-10.5
		c1.5,0,4,0.6,4,2.5c0,2.5-4.8,14.7-6.3,18.2l0.2,0.1c4.2-6.8,12-16.6,14-19.2c0.8-1.1,1.2-1.6,1.7-1.6c1.5,0,4.5,2,4.5,3.3
		c0,2.6-5.1,15.7-6.6,19.2l0.2,0.1c1.1-1.6,11.6-14.9,11.6-15.2c0-0.5-0.4-0.6-0.4-2.2c0-2.3,5.2-9.5,7.4-9.5c0.9,0,3,0.3,3,1.5
		c0,1.9-5.9,9.7-5.9,9.9c0,0.8,1,1.8,2.3,1.8c2.4,0,4.3-2.3,4.6-2.3c0.3,0,0.4,0.2,0.4,0.5C129.8,47.1,126.9,50.9,123.5,50.9z"/>
	<path class="st0" d="M184.6,37.1c-1.4,3.1-2.6,6.6-3.8,10.2c-3.8,12.3-9.6,24.4-24.3,24.4c-11.8,0-17.2-8.8-17.2-18.1
		c0-3.3,0.7-6.7,2.1-9.8c-0.4-0.6-0.6-1.4-0.6-2.3c0-2.6,1.8-4.4,4.5-4.4c0.3,0,0.6,0,0.8,0.1c2.9-2.8,6.7-4.5,11.2-4.5
		c5.4,0,8.3,2.9,9.1,8c3.6-0.8,6.9-1.9,10-3.1c4.6-8.3,10.2-15.4,19.8-15.4c2.5,0,3.7,1.2,3.7,2.1C199.8,28,193.3,32.9,184.6,37.1z
		 M166.6,43.9c-0.3,6.4-6.9,14.9-11.2,14.9c-2.1,0-5.6-1.6-5.6-2c0-0.3,1.2-0.3,2.1-0.8c0.6-0.3,4.3-4,5.5-10.1
		c-2.6,0.4-5,0.6-7.2,0.6c-1.8,0-3.5-0.1-4.9-0.5c-0.8,2-1.3,4.1-1.3,6.2c0,7.2,4.2,11.8,9.7,11.8c10.3,0,15-11.7,20.6-22.7
		C171.8,42.3,169.1,43.2,166.6,43.9z M154.5,36.7c-1.6,0-3.5,1.1-5.2,3c1.1,1.2,2.3,2.3,4.3,2.3c1.4,0,2.8-0.1,4.1-0.1
		C157.7,38.3,156.5,36.7,154.5,36.7z M193.4,25.5c-1.8,0-4,2.5-6.3,6.5c4.3-2.8,6.8-5.3,6.8-6.1C193.9,25.7,193.7,25.5,193.4,25.5z"
		/>
	<path class="st0" d="M189.2,71.7c-4.3,0-7.6-4.3-7.6-9.5c0-8,9.5-22.4,17.9-22.4c2.3,0,3.5-0.7,4.8-0.7c2,0,3.9,2.3,3.9,4.8
		c0,4.7-7,12.9-17.1,12.9c-0.2,0-0.4,0-0.6-0.1c-0.8,1.9-1.3,3.7-1.3,5.2c0,2.8,1,4.5,3.3,4.5c8.4,0,15.3-12.5,16.1-12.5
		c0.7,0,0.8,1.1,0.8,2.1C209.3,58.4,199.6,71.7,189.2,71.7z M202.3,42.8c-2.2,0-7.2,5.3-10.3,10.8c5-1.1,11.5-6.2,11.5-9.8
		C203.5,43.2,203.1,42.8,202.3,42.8z"/>
	<path class="st0" d="M231.7,49.6c-0.3,1.6-0.7,3.5-1.2,5.5c0.6,0.2,1.1,0.3,1.4,0.3c1.3,0,1.6-0.8,1.7-0.8c0.3,0,0.4,0.1,0.4,0.3
		V55c0.1,3.7-2.4,5.8-4.8,5.8c-0.2,0-0.4,0-0.5,0c-3.1,7.6-9.3,11-14.8,11s-10.1-3.3-10.1-9.1c0-5.3,4.3-11,11-11
		c0.9,0,1.8,0.1,2.6,0.2c1.8-2.1,4.1-4.9,6-7.9c3.5-5.2,8.4-8.2,10.8-8.2c1.6,0,2.8,0.6,2.8,1.4C237.1,38.7,232.9,44.2,231.7,49.6z
		 M214.6,58.4c-4.2,0-6.3,2.7-6.3,5.2c0,2,1.4,3.8,4.2,3.8c2.9,0,6.5-2.1,8.4-7.9C218.7,58.9,216.6,58.4,214.6,58.4z M224.1,47.7
		c-0.5,0.7-2.1,2.8-3.8,4.7c0.8,0.3,1.6,0.4,2.5,0.7c0.6-2.3,1.1-4.2,1.5-5.3L224.1,47.7z"/>
	<path class="st0" d="M257.7,49.6c-0.3,1.6-0.7,3.5-1.2,5.5c0.6,0.2,1.1,0.3,1.4,0.3c1.3,0,1.6-0.8,1.7-0.8c0.3,0,0.4,0.1,0.4,0.3
		V55c0.1,3.7-2.4,5.8-4.8,5.8c-0.2,0-0.4,0-0.5,0c-3.1,7.6-9.3,11-14.8,11s-10.1-3.3-10.1-9.1c0-5.3,4.3-11,11-11
		c0.9,0,1.8,0.1,2.6,0.2c1.8-2.1,4.1-4.9,6-7.9c3.5-5.2,8.4-8.2,10.8-8.2c1.6,0,2.8,0.6,2.8,1.4C263,38.7,258.8,44.2,257.7,49.6z
		 M240.6,58.4c-4.2,0-6.3,2.7-6.3,5.2c0,2,1.4,3.8,4.2,3.8c2.9,0,6.5-2.1,8.4-7.9C244.7,58.9,242.6,58.4,240.6,58.4z M250.1,47.7
		c-0.5,0.7-2.1,2.8-3.8,4.7c0.8,0.3,1.6,0.4,2.5,0.7c0.6-2.3,1.1-4.2,1.5-5.3L250.1,47.7z"/>
	<path class="st0" d="M293.2,56.5c-3.2,6.4-8.4,9-12.4,9c-0.2,0-0.3,0-0.5,0c-3.3,3.6-7.1,6.1-11.2,6.1c-5.3,0-8.8-3-8.8-9
		c0-9.2,9.2-23.5,19.4-23.5c1.8,0,3.3,0.8,5.1,0.8c3,0,4.1,2.5,4.1,5c0,4.5-1.8,10.3-4.8,15.3c0.4,0.1,0.7,0.3,1.1,0.3
		c3.7,0,6.4-6.2,7.2-6.2c0.5,0,0.9,0.8,0.9,1.6C293.4,56.2,293.3,56.4,293.2,56.5z M282.3,43.5c-5,0-13,10.9-13,18.4
		c0,2.1,0.8,3.7,2.7,3.7c1.1,0,2.3-0.5,3.4-1.3c-1.6-0.9-2.5-2.5-2.5-4c0-2.2,1.5-4.2,4.2-4.2c1.5,0,2.7,0.8,3.7,1.6
		c2.3-4,3.8-8.4,3.8-10.9C284.7,45.1,284.2,43.5,282.3,43.5z"/>
	<path class="st0" d="M308.4,71.4c-3,0-5.8-2.3-5.8-5.6c0-7.2,6.6-17.4,8.3-19.7l-0.3-0.1c-3.5,3.3-10.3,11-13.8,16.3
		c-3.5,5.3-4.7,9-6,9c-1.3,0-4-1.9-4-4.2c0-3,12-28.2,14.8-28.2c0.9,0,4.3,0.8,4.3,2.6c0,1.6-2.1,6.2-2.5,7.3l0.1,0.1
		c1.1-1.1,8.3-9.5,11.8-9.5c2.3,0,5.4,1.6,5.4,2.7c0,1.7-0.8,2.8-1.6,4.5c-0.8,1.7-7.9,14.6-7.9,17.3c0,0.8,0.2,1.3,1.4,1.3
		c3.3,0,10.1-11.3,10.7-11.3c0.6,0,0.8,1.1,0.8,2.1C324.1,57.9,314.6,71.4,308.4,71.4z"/>
</g>
<rect x="91.1" y="-214.9" class="st3" width="330" height="57.9"/>
<g class="st4">
	<path class="st5" d="M1013.1,421.5c-7.9,0-15.3-1.8-21.7-5c-12,12.6-21.2,26.9-21.2,38.3c0,6.7,4.8,10.8,11.6,10.8
		c18.4,0,30.8-17.4,30.8-26c0-2.5-1.7-3.9-4.2-3.9c-4.2,0-10.1,4.7-11.2,11.1c-0.2,0.8-0.1,1.2-0.6,1.2s-1.6-2.4-1.6-4.9
		c0-7.1,6.2-15,15.8-15c7.1,0,10.2,4.1,10.2,9.9c0,14-18.2,37.8-43.3,37.8c-13.5,0-23.9-9-23.9-22c0-15.4,11.2-32.3,26.6-46
		c-5.3-6-8.4-13.6-8.4-22.6c0-6.9,5-13,6.6-13c0.2,0,0.2,0,0.2,0.2c0,0.5-0.1,1.3-0.1,2.6c0,10.3,3.5,19.3,10.7,25.5
		c15.9-11.8,34.5-19.7,48.8-19.7c10.4,0,16.4,5,16.4,11.7C1054.5,405.1,1037.3,421.5,1013.1,421.5z M1037.3,386.6
		c-8.1,0-22.6,8.6-36.1,20.6c4.4,1.4,9.6,2.2,15.4,2.2c16.5,0,28.7-9.2,28.7-16.4C1045.3,388.6,1041.9,386.6,1037.3,386.6z"/>
	<path class="st5" d="M1047.5,452.4c-1.1,3.6-1.8,6.8-1.8,9.7c0,2.3,2.2,4.2,4.7,4.2c11.4,0,26-24.9,27.3-24.9
		c1.3,0,1.6,2.6,1.6,3.9c0,4.2-18.5,29.2-34,29.2c-7.1,0-14-7.5-14-13.2c0-19.1,32.6-77.1,55.6-77.1c4.7,0,8.4,2.8,8.4,4.7
		C1095.3,393.9,1068.1,441.3,1047.5,452.4z M1085.5,394.2c-1.8,0-21.5,24.1-32.6,45.5c12.9-10.5,32.9-43,32.9-45.1
		C1085.8,394.4,1085.6,394.2,1085.5,394.2z"/>
	<path class="st5" d="M1109.5,474.5c-5.7,0-11-4.4-11-10.7c0-1.2,0-1.6,0.1-2.3c-1.9,2.8-11.1,13-16.6,13c-5.4,0-10.9-6.9-10.9-13.8
		c0-14.6,18.7-44.8,24.8-47.3c0.5-0.1,1.7-0.2,3.1-0.2c3,0,7.2,0.6,7.2,2.6c0,0.2-0.1,0.6-0.4,1c-2.5,4.8-20.5,36.1-20.5,44.4
		c0,1.8,0.7,2.5,1.7,2.5c2.8,0,12.6-10.8,19.4-22.4c6-9.9,13.8-27.8,16.4-27.8c5.9,0,10.3,2,10.3,4.2c0,3.2-1.9,6.2-3.5,9.5
		c-1.7,3.2-15.2,27.6-15.2,32.8c0,1.4,0.4,2.5,2.9,2.5c6.1,0,19.3-21.4,20.2-21.4c1.2,0,1.6,2,1.6,4.1
		C1139.1,448.8,1121.3,474.5,1109.5,474.5z"/>
	<path class="st5" d="M1148.3,474.4c-8.1,0-16.3-4.1-16.3-19.6c0-5.4,8.9-21.2,18.2-36.7c10.2-17,19.7-33.5,25.6-33.5
		c3.2,0,8,2.3,8,3.9s-5.5,9.2-8.6,14.4c-3.2,5.3-7.7,13-7.7,13.5l0.2,0.1c3.1-1.7,6.2-2.5,8.9-2.5c6.6,0,11.2,4.8,11.2,14.2
		C1187.9,446.1,1171.5,474.4,1148.3,474.4z M1170.9,420.6c-4.2,0-7.8,4.5-9.6,6.5c-1.8,2-17.1,30.6-17.1,35.9c0,2,1.2,3.7,4.2,3.7
		c9.5,0,27.2-28.4,27.2-40.5C1175.6,423.9,1174,420.6,1170.9,420.6z"/>
</g>
<g class="st4">
	<path class="st0" d="M-297.4-195.4c-1.4,3.2-2.7,6.7-3.9,10.5c-3.9,12.6-9.9,25-24.9,25c-12.2,0-17.6-9-17.6-18.6
		c0-3.4,0.7-6.9,2.1-10c-0.4-0.6-0.6-1.4-0.6-2.4c0-2.7,1.8-4.5,4.6-4.5c0.3,0,0.6,0,0.8,0.1c3-2.8,6.9-4.7,11.5-4.7
		c5.6,0,8.5,3,9.3,8.2c3.7-0.8,7.1-1.9,10.2-3.2c4.7-8.5,10.5-15.8,20.3-15.8c2.6,0,3.7,1.2,3.7,2.2
		C-281.8-204.7-288.5-199.7-297.4-195.4z M-316-188.4c-0.3,6.6-7,15.3-11.5,15.3c-2.1,0-5.8-1.6-5.8-2c0-0.3,1.2-0.3,2.1-0.8
		c0.6-0.3,4.5-4.1,5.7-10.3c-2.6,0.4-5.2,0.6-7.4,0.6c-1.9,0-3.6-0.1-5-0.5c-0.8,2.1-1.3,4.2-1.3,6.3c0,7.4,4.3,12.2,10,12.2
		c10.5,0,15.4-12,21.1-23.3C-310.6-190-313.3-189.1-316-188.4z M-328.3-195.8c-1.7,0-3.6,1.2-5.4,3c1.1,1.2,2.4,2.4,4.5,2.4
		c1.4,0,2.8-0.1,4.2-0.1C-325-194.2-326.2-195.8-328.3-195.8z M-278.9-221.3c-3.6,2.4-6.6,7.4-9.2,7.4c-2.2,0-2.6-5.3-3.8-7.4
		c-1.5-2.5-4.5-4.4-4.5-4.8c0-0.8,1.1-1.4,1.8-1.4c3.8,0,7.2,3.6,8.9,6.8c3.4-2.7,9.3-6.8,13.8-6.8c0.5,0,1,0.3,1,0.8
		C-270.9-225.1-275.9-223.2-278.9-221.3z M-288.4-207.2c-1.8,0-4.1,2.6-6.5,6.7c4.5-2.8,7-5.4,7-6.3
		C-287.9-207-288.1-207.2-288.4-207.2z"/>
	<path class="st0" d="M-291.3-160.1c-3.3,0-5.3-3.7-5.3-7.4c0-7.9,10-24.2,13.4-25.5c0.3-0.1,0.9-0.1,1.6-0.1c1.7,0,3.9,0.3,3.9,1.4
		c0,0.1,0,0.3-0.1,0.5c-1.4,2.6-11.1,19.5-11.1,24c0,1,0.4,1.4,0.8,1.4c4,0,11.5-12.2,12.1-12.2c0.7,0,0.8,1.5,0.8,2.4
		C-275.2-174.6-284.7-160.1-291.3-160.1z M-282.3-196.5c-0.8,0-1.4-0.6-1.4-1.1c0-1,3.7-1.7,6.5-4.7c2.3-2.5,3.1-7.8,5.6-7.8
		c1.6,0,3.9,1.5,3.9,3.6C-267.7-202.5-278.5-196.5-282.3-196.5z"/>
	<path class="st0" d="M-267.3-160c-3,0-5.9-2.5-7.2-5.2c-5.9,12-10.7,20.9-12.8,20.9c-1.4,0-3.7-2.3-3.7-3.9
		c0-1.7,5.1-11.1,11.8-23.9c6.8-12.8,11.6-22.9,13.1-22.9c2.1,0,4.5,1.2,4.5,2.1c0,0.6-0.4,1.7-1.2,3.5c2.7-2,5.7-3.7,8.5-3.7
		c3.9,0,5.9,2.5,5.9,7.5C-248.3-176.1-258.4-160-267.3-160z M-257.7-188.8c-1.7,0-4.9,2.5-7.6,4.8c-1.5,3.2-3.5,7.2-5.9,12.1
		c0.6,3,1.9,5.9,3.6,5.9c3.6,0,11.8-16.7,11.8-20.6C-255.8-187.8-256.4-188.8-257.7-188.8z"/>
	<path class="st0" d="M-232-159.9c-4.1,0-6.9-3.3-6.9-7c0-4.7,1.9-8.8,2.9-10.8l-0.2-0.2c-2.5,2.4-6.5,7.9-8.7,11.9
		c-2.1,3.9-2.2,6-3,6c-1.4,0-4.8-2.3-4.8-5s5.8-13.3,10.5-22c4.7-8.6,11.2-20.2,13.9-20.2c1.4,0,3.9,0.8,3.9,2.5
		c0,2.6-2,5.8-4.6,9.8c-2.5,4.1-5,8.7-5.6,9.8l0.3,0.1c2-1.9,9.4-8.2,15.8-8.2c2.6,0,4.6,1.4,4.6,3.9c0,4.2-6,12.2-11.2,12.2
		c-1.6,0-2.1-0.6-2.4-0.6c-0.2,0-3.6,9.1-3.6,11.6c0,1,0.6,1.8,2,1.8c7.6,0,15.3-13.7,16.1-13.7c0.5,0,0.8,1.4,0.8,2.3
		C-212-175.2-220.3-159.9-232-159.9z M-219.6-190.7c-1,0-9.6,5.4-9.6,6.2c0,0.3,0.8,1,2,1c1.9,0,8-5,8-6.8
		C-219.2-190.6-219.4-190.7-219.6-190.7z"/>
	<path class="st0" d="M-192.9-160.6c-4.5,0-5.6-5.4-5.8-5.4s-4.9,5.9-10.3,5.9c-3.6,0-7-2.9-7-8.7c0-9.5,11.2-24.5,21.8-24.5
		c5.2,0,5.7,4.5,5.9,4.5c0.3,0,3.7-4.2,4.9-4.2s1.1,0.2,1.9,0.4c0.6,0.1,1.6,0.3,1.6,1.2c0,3.6-11.4,19.6-11.4,23.6
		c0,0.6,0.3,1.1,1,1.1c4.1,0,10.9-11.4,11.6-11.4c0.6,0,0.8,1.1,0.8,2.3C-177.9-174.5-187.3-160.6-192.9-160.6z M-195.1-189.6
		c-5.2,0-12.8,13.5-12.8,19.8c0,2.1,0.7,3.2,2,3.2c1.7,0,6.2-3.1,6.2-4.3c0-0.5-1.4-0.6-1.9-0.6v-0.5c1.7-0.5,9.1-8.1,9.1-14
		C-192.5-188-193.6-189.6-195.1-189.6z"/>
	<path class="st6" d="M-168.4-160.2c-4.1,0-7.2-2.4-7.2-7c0-6.3,8.7-18,8.7-18.2c0-0.1-2.1-1-3.2-1c-0.3,0-0.5,0.1-0.5,0.2
		c-3.2,5.2-6.3,9.9-8.6,13.1c-0.2,0.3-0.5,0.5-0.7,0.5c-0.6,0-1-0.8-1-1.9c0-0.5,0.4-1.1,0.6-1.4c0.8-1.2,2.5-3.7,4.3-7.4
		c1.9-3.9,2.3-6.7,3.6-9.6c1.3-3.2,2.3-3.9,4.4-3.9c1,0,1.5,0.6,1.5,1.7c0,1.3-0.6,1.8-0.6,2c0,0.3,0.4,0.5,1.4,0.5
		c3,0,6.7-0.5,7.6-0.5c1.8,0,4.2,3.6,4.2,5c0,1.2-2,2.2-3.4,3.8c-2.5,2.6-9.1,12-9.1,17.1c0,0.5,0.3,1,0.9,1c1.6,0,4.5-2.5,6.7-5.2
		c2.5-3,4.5-6.2,4.8-6.2c0.6,0,0.8,1.2,0.8,2.3C-153.3-174.3-162.8-160.2-168.4-160.2z"/>
	<path class="st6" d="M-148.9-159.9c-4.4,0-7.8-4.5-7.8-9.8c0-8.2,9.7-22.9,18.4-22.9c2.3,0,3.6-0.7,4.9-0.7c2.1,0,4,2.4,4,4.9
		c0,4.8-7.2,13.3-17.6,13.3c-0.2,0-0.4,0-0.6-0.1c-0.8,1.9-1.4,3.7-1.4,5.3c0,2.8,1,4.7,3.4,4.7c8.6,0,15.7-12.8,16.5-12.8
		c0.7,0,0.8,1.2,0.8,2.1C-128.3-173.6-138.2-159.9-148.9-159.9z M-135.4-189.5c-2.3,0-7.4,5.4-10.6,11.1c5.1-1.1,11.8-6.3,11.8-10
		C-134.2-189.1-134.6-189.5-135.4-189.5z"/>
	<path class="st6" d="M-112.7-160.2c-3,0-5.9-2.4-5.9-5.8c0-7.4,6.8-17.8,8.5-20.2l-0.3-0.1c-3.6,3.4-10.5,11.2-14.2,16.7
		c-3.6,5.4-4.8,9.2-6.2,9.2c-1.3,0-4.1-1.9-4.1-4.3c0-3,12.3-28.9,15.2-28.9c1,0,4.5,0.8,4.5,2.7c0,1.6-2.2,6.4-2.5,7.5l0.1,0.1
		c1.2-1.2,8.5-9.8,12.1-9.8c2.4,0,5.5,1.6,5.5,2.8c0,1.7-0.8,2.8-1.7,4.6c-0.8,1.7-8.1,14.9-8.1,17.7c0,0.8,0.2,1.4,1.5,1.4
		c3.4,0,10.4-11.6,11-11.6s0.8,1.1,0.8,2.2C-96.7-174.1-106.4-160.2-112.7-160.2z M-101.5-201.9c-3,2-5.6,6.2-7.8,6.2
		c-1.8,0-2.1-4.5-3.2-6.2c-1.3-2.1-3.8-3.7-3.8-4c0-0.7,1-1.2,1.6-1.2c3.2,0,6.1,3,7.5,5.7c2.8-2.3,7.8-5.7,11.6-5.7
		c0.4,0,0.9,0.2,0.9,0.6C-94.8-205.2-99.1-203.5-101.5-201.9z"/>
</g>
<circle class="st0" cx="884.1" cy="-150.5" r="37.5"/>
<circle class="st1" cx="884.1" cy="-150.5" r="28.5"/>
<circle class="st0" cx="884.1" cy="-150.5" r="20"/>
<circle class="st1" cx="884.1" cy="-150.5" r="10"/>
</svg>
