<?xml version="1.0" encoding="UTF-8"?>
<svg xmlns="http://www.w3.org/2000/svg" version="1.1" viewBox="0 0 406 115.4">
  <defs>
    <style>
      .cls-1 {
        fill: #c92f2f;
      }

      .cls-2 {
        fill: none;
      }

      .cls-3, .cls-4 {
        isolation: isolate;
      }

      .cls-5 {
        fill: #6e7a18;
      }

      .cls-6 {
        fill: #36482e;
      }

      .cls-4 {
        font-family: CornerStoreJF, CornerStoreJF;
        font-size: 82.6px;
      }

      .cls-4, .cls-7 {
        fill: #b52828;
      }

      .cls-8 {
        fill: #bfb5ac;
      }
    </style>
  </defs>
  <!-- Generator: Adobe Illustrator 28.7.1, SVG Export Plug-In . SVG Version: 1.2.0 Build 142)  -->
  <g>
    <g id="Layer_1">
      <g>
        <path class="cls-7" d="M1198.9-204.7c-3,6.8-5.8,14.3-8.3,22.3-8.3,26.9-21.1,53.3-53.1,53.3s-37.6-19.3-37.6-39.5,1.5-14.6,4.5-21.4c-.8-1.4-1.4-3-1.4-5.1,0-5.7,3.9-9.6,9.8-9.6s1.2,0,1.8.1c6.3-6.1,14.6-9.9,24.5-9.9s18.2,6.3,19.8,17.5c7.9-1.8,15.2-4.1,21.8-6.8,10.1-18.2,22.3-33.8,43.3-33.8s8,2.6,8,4.7c0,8.3-14.1,18.9-33.1,28.2h0ZM1159.3-189.8c-.7,14.1-15,32.7-24.5,32.7s-12.3-3.4-12.3-4.3,2.6-.7,4.5-1.7c1.4-.7,9.5-8.7,12.1-22-5.6.8-11,1.4-15.7,1.4s-7.6-.3-10.6-1.1c-1.8,4.4-2.8,9-2.8,13.5,0,15.7,9.2,25.9,21.2,25.9,22.5,0,32.8-25.6,45.1-49.7-5.5,1.8-11.3,3.7-17,5.3h0ZM1133-205.6c-3.6,0-7.7,2.5-11.4,6.5,2.3,2.6,5.1,5.1,9.5,5.1s6.1-.1,9-.3c0-7.8-2.7-11.3-7.1-11.3ZM1238.4-259.8c-7.7,5.1-14.1,15.7-19.7,15.7s-5.5-11.3-8.1-15.7c-3.2-5.2-9.5-9.4-9.5-10.2,0-1.8,2.3-2.9,3.9-2.9,8.1,0,15.3,7.7,18.9,14.5,7.2-5.8,19.8-14.5,29.4-14.5s2.2.6,2.2,1.7c0,3.2-10.9,7.2-17.1,11.4h0ZM1218-229.9c-3.9,0-8.8,5.5-13.8,14.2,9.5-6.1,14.9-11.6,14.9-13.4s-.4-.8-1.1-.8Z"/>
        <path class="cls-7" d="M1211.8-129.5c-7,0-11.3-8-11.3-15.8,0-16.8,21.4-51.5,28.5-54.4.6-.1,1.9-.3,3.4-.3,3.6,0,8.3.7,8.3,3s0,.7-.3,1.1c-3,5.5-23.6,41.6-23.6,51.1s.8,2.9,1.8,2.9c8.5,0,24.5-26,25.8-26s1.7,3.2,1.7,5.1-20.1,33.3-34.3,33.3h0ZM1231-207.1c-1.8,0-2.9-1.2-2.9-2.3,0-2.2,8-3.6,13.8-9.9,5-5.4,6.6-16.7,12-16.7s8.4,3.2,8.4,7.7c0,8.4-23,21.2-31.3,21.2Z"/>
        <path class="cls-7" d="M1263-129.2c-6.3,0-12.7-5.4-15.3-11.2-12.5,25.6-22.7,44.5-27.3,44.5s-8-4.8-8-8.4,10.9-23.7,25.2-51c14.5-27.3,24.8-48.8,28-48.8s9.6,2.5,9.6,4.5-.8,3.7-2.5,7.4c5.8-4.3,12.1-8,18.1-8s12.7,5.4,12.7,16c0,20.7-21.5,55-40.5,55h0ZM1283.5-190.7c-3.6,0-10.5,5.2-16.3,10.2-3.2,6.8-7.4,15.3-12.5,25.8,1.4,6.5,4.1,12.7,7.7,12.7,7.6,0,25.2-35.6,25.2-43.8s-1.4-4.9-4.1-4.9h0Z"/>
        <path class="cls-7" d="M1338.3-129.1c-8.8,0-14.6-7-14.6-15s4-18.7,6.2-23l-.4-.4c-5.4,5.1-13.9,16.8-18.5,25.4-4.4,8.4-4.7,12.8-6.5,12.8-3,0-10.2-5-10.2-10.6s12.3-28.4,22.5-46.9c10.1-18.3,23.8-43.1,29.6-43.1s8.3,1.8,8.3,5.4c0,5.5-4.3,12.3-9.8,20.9-5.4,8.8-10.7,18.6-11.9,20.8h.7c4.3-3.9,20-17.4,33.8-17.4s9.8,2.9,9.8,8.3c0,9-12.8,26-24,26s-4.5-1.4-5.1-1.4-7.7,19.4-7.7,24.8,1.2,3.9,4.3,3.9c16.3,0,32.7-29.2,34.3-29.2s1.8,3,1.8,4.8-17.8,33.9-42.6,33.9h0ZM1364.7-194.7c-2.1,0-20.4,11.4-20.4,13.2s1.8,2.1,4.3,2.1c4.1,0,16.9-10.6,16.9-14.5s-.3-.8-.8-.8Z"/>
        <path class="cls-7" d="M1421.6-130.5c-9.6,0-11.9-11.4-12.3-11.4s-10.5,12.7-21.9,12.7-15-6.2-15-18.5c0-20.3,24-52.2,46.6-52.2s12.1,9.5,12.5,9.5c.7,0,8-9,10.5-9s2.3.4,4,.8c1.4.3,3.4.6,3.4,2.5,0,7.6-24.3,41.8-24.3,50.3s.7,2.3,2.1,2.3c8.8,0,23.3-24.4,24.7-24.4s1.8,2.3,1.8,5-20.1,32.4-32.1,32.4h0ZM1416.9-192.3c-11.2,0-27.3,28.8-27.3,42.3s1.5,6.9,4.3,6.9,13.2-6.6,13.2-9.2-2.9-1.4-4-1.4v-1.1c3.6-1,19.4-17.2,19.4-29.9s-2.3-7.6-5.6-7.6Z"/>
        <path class="cls-8" d="M1473.9-129.8c-8.7,0-15.4-5.1-15.4-15s18.6-38.3,18.6-38.7-4.5-2.2-6.9-2.2-1,.1-1.1.4c-6.8,11-13.5,21.1-18.3,28-.4.7-1,1.1-1.5,1.1-1.2,0-2.1-1.7-2.1-4.1s.8-2.3,1.2-3c1.8-2.6,5.4-8,9.1-15.8,4.1-8.3,5-14.2,7.6-20.4,2.8-6.9,4.8-8.3,9.4-8.3s3.2,1.2,3.2,3.6-1.4,3.9-1.4,4.3c0,.6.8,1,3,1,6.5,0,14.2-1.1,16.1-1.1,3.9,0,9,7.6,9,10.7s-4.3,4.7-7.3,8.1c-5.2,5.6-19.4,25.6-19.4,36.4s.6,2.1,1.9,2.1c3.4,0,9.6-5.4,14.3-11.2,5.2-6.3,9.6-13.2,10.3-13.2,1.2,0,1.8,2.5,1.8,5s-20.1,32.3-32.1,32.3h0Z"/>
        <path class="cls-8" d="M1515.4-128.9c-9.4,0-16.7-9.5-16.7-20.8,0-17.5,20.7-48.9,39.1-48.9s7.6-1.5,10.5-1.5c4.4,0,8.5,5.1,8.5,10.5,0,10.3-15.3,28.2-37.5,28.2s-.8,0-1.2-.1c-1.8,4.1-2.9,8-2.9,11.3,0,6.1,2.2,9.9,7.3,9.9,18.3,0,33.5-27.3,35.1-27.3s1.7,2.5,1.7,4.5c0,5-21,34.2-43.9,34.2h0ZM1544.2-192.2c-4.8,0-15.7,11.6-22.6,23.7,10.9-2.3,25.1-13.5,25.1-21.4s-.8-2.3-2.5-2.3Z"/>
        <path class="cls-8" d="M1592.6-129.6c-6.5,0-12.7-5.1-12.7-12.3,0-15.7,14.5-38,18.1-43l-.6-.3c-7.6,7.3-22.5,24-30.2,35.7-7.6,11.6-10.3,19.7-13.2,19.7s-8.8-4.1-8.8-9.2,26.3-61.6,32.4-61.6,9.5,1.8,9.5,5.7-4.7,13.6-5.4,16h0c2.5-2.4,18.2-20.7,25.8-20.7s11.7,3.4,11.7,5.9c0,3.7-1.7,6.1-3.6,9.8-1.8,3.7-17.4,31.8-17.4,37.8s.4,2.9,3.2,2.9c7.2,0,22.2-24.7,23.4-24.7s1.8,2.3,1.8,4.7c0,3.9-20.6,33.6-34.1,33.6h0ZM1616.4-218.6c-6.5,4.3-11.9,13.2-16.7,13.2s-4.5-9.5-6.8-13.2c-2.8-4.4-8.1-7.9-8.1-8.5,0-1.5,2.1-2.5,3.3-2.5,6.9,0,13,6.5,16,12.1,6.1-4.8,16.7-12.1,24.7-12.1s1.9.4,1.9,1.4c0,2.7-9.1,6.1-14.3,9.6Z"/>
      </g>
      <g>
        <path class="cls-7" d="M1148.7,171.6c-14.9,0-21.8-10.6-27.4-21.6-10.9,11.3-23.7,20.4-37.2,20.4s-16.5-7.3-16.5-17.6c0-18.9,16.3-38.6,37.5-38.6s13.8,3,18.1,7.6c3.2-4.4,6.2-9,9.1-13.4,9.9-15,22.7-28.9,35.7-38.2-3.3-.7-7-1-11.2-1-25.9,0-49.5,17.1-49.5,27.4s1.7,2.6,3.6,2.6c12.8,0,24.3-17.5,26.5-21.5.3-.4.6-.7.8-.7.3,0,.6.6.6,1.1,0,23.3-16.1,33.9-28.4,33.9s-13.6-4-13.6-11.6c0-13.6,27.4-37.5,64.9-37.5s10.5.6,15,1.8c6.6-3.6,13.1-5.5,19-5.5s6.2,1.2,6.2,1.7c0,.8-.7.8-3.6.8-4.3,0-8.8,2.2-13.4,6.1,13.1,6.2,21.2,18.9,21.2,38.4,0,30.6-25.3,65.4-57.4,65.4h0ZM1098.3,124.6c-13.2,0-24.3,10.9-24.3,23.4s4,10.1,9,10.1c8.4,0,19.3-10.1,30.3-23.6-3.7-5.8-8.2-9.9-15-9.9ZM1177.6,74.7c-11.7,13.1-23.3,32.9-31.7,44.4-3.7,5.1-8.3,11.4-13.5,18.1,4.7,9.9,8.7,19.4,18.3,19.4,22.2,0,35.6-31.3,35.6-55.9s-2.9-21-8.7-26h0Z"/>
        <path class="cls-7" d="M1250.4,170.1c-9.6,0-11.9-11.4-12.3-11.4s-10.5,12.7-21.9,12.7-15-6.2-15-18.5c0-20.3,24-52.2,46.6-52.2s12.1,9.5,12.5,9.5c.7,0,8-9,10.5-9s2.3.4,4,.8c1.4.3,3.4.6,3.4,2.5,0,7.6-24.3,41.8-24.3,50.3s.7,2.3,2.1,2.3c8.8,0,23.3-24.4,24.7-24.4s1.8,2.3,1.8,5-20.1,32.4-32.1,32.4h0ZM1245.7,108.2c-11.2,0-27.3,28.8-27.3,42.3s1.5,6.9,4.3,6.9,13.2-6.6,13.2-9.2-2.9-1.4-4-1.4v-1.1c3.6-1,19.4-17.2,19.4-29.9s-2.3-7.6-5.6-7.6Z"/>
        <path class="cls-1" d="M1302.7,170.7c-8.7,0-15.4-5.1-15.4-15s18.6-38.3,18.6-38.7-4.5-2.2-6.9-2.2-1,0-1.1.4c-6.8,11-13.5,21.1-18.3,28-.4.7-1,1.1-1.5,1.1-1.2,0-2.1-1.7-2.1-4.1s.8-2.3,1.2-3c1.8-2.6,5.4-8,9.1-15.8,4.1-8.3,5-14.2,7.6-20.4,2.8-6.9,4.8-8.3,9.4-8.3s3.2,1.2,3.2,3.6-1.4,3.9-1.4,4.3c0,.6.8,1,3,1,6.5,0,14.2-1.1,16.1-1.1,3.9,0,9,7.6,9,10.7s-4.3,4.7-7.3,8.1c-5.2,5.6-19.4,25.6-19.4,36.4s.6,2.1,1.9,2.1c3.4,0,9.6-5.4,14.3-11.2,5.2-6.3,9.6-13.2,10.3-13.2,1.2,0,1.8,2.5,1.8,5s-20.1,32.3-32.1,32.3h0Z"/>
        <path class="cls-1" d="M1371.6,107.2h-7.3c-10.2,19-20.7,37.8-20.7,44.2s3,5.5,5,5.5c8.8,0,23.4-24.4,24.7-24.4s1.8,2.3,1.8,5-20.5,33.2-32.5,33.2-19.2-5.1-19.2-13.1,14.7-35.1,21.6-48l1.7-3c-2.8-.3-7-1.1-7-4.5s0-4.7.3-5.6c0-.7.4-1,1.4-1h4.3c1.7,0,6.1-.8,7.3-.8,6.1-11.3,12.8-23.2,14.5-23.2,6.3,0,10.2,5.9,10.2,9s-2.1,5.8-7,15h7.4c2.6,0,3.9.8,3.9,2.1-.2,5-6.2,9.4-10.4,9.4v.2Z"/>
        <path class="cls-1" d="M1424,123.2c-.7,3.4-1.5,7.6-2.6,12.1,1.2.4,2.3.6,3.2.6,2.9,0,3.4-1.8,3.7-1.8.7,0,.8.1.8.7v.3c0,8-5.2,12.7-10.5,12.7h-1.1c-6.8,16.7-20.4,24-32.4,24s-22.2-7.3-22.2-20,9.5-24.1,24-24.1,3.9,0,5.8.4c4-4.5,9-10.7,13.2-17.2,7.6-11.4,18.5-17.9,23.7-17.9s6.1,1.2,6.1,3.2c0,3-9.1,15.1-11.7,27ZM1386.7,142.4c-9.1,0-13.8,5.9-13.8,11.3s3,8.3,9.2,8.3,14.2-4.7,18.5-17.2c-5-1.3-9.5-2.4-13.9-2.4h0ZM1407.5,118.9c-1.1,1.5-4.7,6.1-8.3,10.3,1.8.6,3.6,1,5.4,1.5,1.4-5.1,2.5-9.1,3.3-11.6l-.4-.2Z"/>
        <path class="cls-8" d="M1499.6,109.8c-9.1,0-17.6-2.1-24.9-5.8-13.8,14.5-24.4,31-24.4,44.1s5.5,12.4,13.4,12.4c21.2,0,35.4-20,35.4-29.9s-1.9-4.5-4.8-4.5c-4.8,0-11.6,5.4-13,12.8-.3,1,0,1.4-.7,1.4s-1.8-2.8-1.8-5.6c0-8.1,7.2-17.2,18.2-17.2s11.7,4.7,11.7,11.4c0,16.1-20.9,43.5-49.9,43.5s-27.6-10.3-27.6-25.4,13-37.2,30.6-52.9c-6.1-6.9-9.6-15.7-9.6-26s5.8-15,7.6-15,.3,0,.3.3v3c0,11.9,4,22.2,12.3,29.4,18.3-13.6,39.7-22.7,56.2-22.7s18.9,5.8,18.9,13.5c0,14.4-19.9,33.2-47.8,33.2h0ZM1527.5,69.6c-9.4,0-26,9.9-41.6,23.7,5.1,1.7,11,2.5,17.8,2.5,19,0,33.1-10.6,33.1-18.9,0-5-3.9-7.3-9.3-7.3Z"/>
        <path class="cls-8" d="M1539.3,145.4c-1.2,4.1-2.1,7.9-2.1,11.2s2.5,4.8,5.4,4.8c13.1,0,29.9-28.7,31.4-28.7s1.8,3,1.8,4.5c0,4.8-21.4,33.6-39.1,33.6s-16.1-8.7-16.1-15.2c0-22,37.5-88.7,64.1-88.7s9.6,3.2,9.6,5.4c0,5.7-31.3,60.3-55,73.1h0ZM1583,78.4c-2.1,0-24.8,27.7-37.5,52.4,14.9-12.1,37.9-49.5,37.9-52s-.2-.4-.4-.4Z"/>
        <path class="cls-8" d="M1610.7,170.9c-6.6,0-12.7-5.1-12.7-12.3s0-1.8,0-2.6c-2.2,3.2-12.8,15-19.2,15s-12.5-8-12.5-15.8c0-16.8,21.5-51.5,28.5-54.4.6,0,1.9-.3,3.6-.3,3.4,0,8.3.7,8.3,3s0,.7-.4,1.1c-2.9,5.5-23.6,41.6-23.6,51.1s.8,2.9,1.9,2.9c3.2,0,14.5-12.4,22.3-25.8,6.9-11.4,15.8-32,18.9-32,6.8,0,11.9,2.3,11.9,4.8,0,3.7-2.2,7.2-4,10.9-1.9,3.7-17.5,31.8-17.5,37.8s.4,2.9,3.3,2.9c7,0,22.2-24.7,23.3-24.7s1.8,2.3,1.8,4.7c0,4.1-20.5,33.7-34,33.7h0Z"/>
        <path class="cls-8" d="M1655.4,170.7c-9.4,0-18.7-4.7-18.7-22.6s10.2-24.4,20.9-42.3c11.7-19.6,22.7-38.6,29.5-38.6s9.2,2.6,9.2,4.5-6.3,10.6-9.9,16.5c-3.7,6.1-8.8,15-8.8,15.6h.3c3.6-1.8,7.2-2.8,10.2-2.8,7.6,0,13,5.5,13,16.4,0,20.7-19,53.3-45.7,53.3h0ZM1681.4,108.7c-4.8,0-9,5.2-11,7.4-2.1,2.3-19.7,35.3-19.7,41.3s1.4,4.3,4.8,4.3c10.9,0,31.3-32.7,31.3-46.6s-1.8-6.4-5.4-6.4h0Z"/>
      </g>
      <rect class="cls-2" x="584.7" y="90.1" width="330" height="57.9"/>
      <g class="cls-3">
        <path class="cls-7" d="M767.7,371c-15.8,0-23-11.2-29.1-22.9-11.5,11.9-25.1,21.6-39.5,21.6s-17.5-7.8-17.5-18.7c0-20,17.2-40.9,39.8-40.9s14.6,3.2,19.1,8c3.3-4.7,6.5-9.4,9.7-14.2,10.5-16,24.1-30.7,37.9-40.5-3.5-.7-7.5-1-11.8-1-27.5,0-52.4,18.2-52.4,29.1s1.8,2.8,3.7,2.8c13.6,0,25.7-18.6,28-22.8.3-.4.6-.7.8-.7.3,0,.6.6.6,1.1,0,24.7-17.1,35.9-30.1,35.9s-14.4-4.3-14.4-12.3c0-14.4,29.1-39.8,68.8-39.8s11.1.6,16,1.9c7.1-3.7,13.9-5.8,20.1-5.8s6.5,1.2,6.5,1.8-.7.8-3.7.8c-4.6,0-9.3,2.4-14.2,6.4,13.9,6.5,22.5,20,22.5,40.8,0,32.7-26.7,69.4-60.8,69.4h0ZM714.2,321.2c-14,0-25.7,11.5-25.7,24.8s4.3,10.7,9.4,10.7c8.9,0,20.5-10.7,32.2-25-3.9-6-8.6-10.5-15.9-10.5ZM798.5,268.4c-12.5,13.9-24.7,35-33.6,47-3.9,5.4-8.7,12.1-14.3,19.1,5,10.5,9.2,20.7,19.4,20.7,23.6,0,37.7-33.2,37.7-59.4,0-11.9-3.1-22.3-9.2-27.4h0Z"/>
        <path class="cls-7" d="M875.6,369.5c-10.3,0-12.6-12.1-13-12.1s-11.1,13.5-23.3,13.5-16-6.5-16-19.6c0-21.5,25.4-55.4,49.4-55.4s12.9,10.1,13.3,10.1c.7,0,8.5-9.4,11.1-9.4s2.5.4,4.3.8c1.5.3,3.6.6,3.6,2.6,0,8-25.7,44.3-25.7,53.4s.7,2.5,2.2,2.5c9.3,0,24.7-25.9,26.2-25.9s1.9,2.5,1.9,5.3c0,2.6-21.2,34.2-34,34.2ZM870.6,303.9c-11.8,0-29,30.5-29,45s1.7,7.4,4.6,7.4,14-7.1,14-9.9-3.1-1.5-4.3-1.5v-1.1c3.7-1,20.7-18.3,20.7-31.8s-2.4-8.1-6-8.1Z"/>
        <path class="cls-7" d="M931.1,370.2c-9.2,0-16.4-5.4-16.4-16s19.7-40.7,19.7-41.1-4.9-2.4-7.4-2.4-1,.1-1.1.4c-7.2,11.7-14.3,22.3-19.4,29.7-.4.7-1,1.1-1.7,1.1-1.2,0-2.2-1.8-2.2-4.4s.8-2.5,1.2-3.2c1.9-2.8,5.7-8.5,9.7-16.8,4.4-8.7,5.3-15.1,8-21.6,2.9-7.4,5.1-8.7,10-8.7s3.3,1.2,3.3,3.7-1.5,4.2-1.5,4.6c0,.6.8,1,3.2,1,6.9,0,15.1-1.1,17.1-1.1,4.2,0,9.4,8,9.4,11.4s-4.6,5-7.8,8.6c-5.5,6-20.7,27.2-20.7,38.6s.6,2.2,2.1,2.2c3.6,0,10.3-5.7,15.3-11.8,5.5-6.7,10.3-14,11-14,1.2,0,1.9,2.6,1.9,5.3.4,2.7-20.9,34.5-33.7,34.5h0Z"/>
        <path class="cls-7" d="M1004.2,302.8c-1.9,0-1.5.1-7.8.1-10.8,20.1-21.9,40.1-21.9,46.9s3.2,5.8,5.3,5.8c9.3,0,24.8-25.9,26.2-25.9s1.9,2.5,1.9,5.3-21.8,35.2-34.5,35.2-20.3-5.4-20.3-13.9,15.7-37.3,22.9-50.9l1.8-3.2c-2.9-.3-7.5-1.1-7.5-4.9s0-5,.3-6c0-.7.4-1,1.5-1s2.8.1,4.6.1,6.4-.8,7.8-.8c6.4-11.9,13.6-24.6,15.4-24.6,6.7,0,10.8,6.2,10.8,9.4s-2.2,6.1-7.5,16h7.9c2.8,0,4.2.8,4.2,2.2-.3,5.6-6.6,10.2-11.1,10.2h0Z"/>
        <path class="cls-7" d="M1059.9,319.7c-.7,3.6-1.7,8-2.8,12.9,1.2.4,2.5.6,3.3.6,3.1,0,3.6-1.9,3.9-1.9.7,0,.8.1.8.7v.3c0,8.5-5.5,13.5-11.1,13.5h-1.1c-7.2,17.8-21.6,25.4-34.4,25.4s-23.6-7.8-23.6-21.2,10.1-25.5,25.4-25.5,4,.1,6.1.4c4.3-4.9,9.4-11.4,14-18.3,8.3-11.9,19.8-18.7,25.4-18.7s6.4,1.2,6.4,3.3c0,3.1-9.6,16-12.3,28.5h0ZM1020.2,340.1c-9.7,0-14.6,6.2-14.6,11.9s3.2,8.7,9.9,8.7,15.1-5,19.6-18.3c-5.4-1.2-10.2-2.3-14.9-2.3h0ZM1042.2,315.3c-1.1,1.7-5,6.4-8.7,11,1.9.6,3.7,1,5.7,1.7,1.5-5.4,2.6-9.7,3.5-12.3l-.5-.4h0Z"/>
      </g>
      <g class="cls-3">
        <text class="cls-4" transform="translate(5.2 -167.6)"><tspan x="0" y="0">Seasons</tspan></text>
      </g>
      <rect class="cls-2" x="35.7" y="-214.9" width="330" height="57.9"/>
      <g class="cls-3">
        <path class="cls-5" d="M957.7,421.5c-7.9,0-15.3-1.8-21.7-5-12,12.6-21.2,26.9-21.2,38.3s4.8,10.8,11.6,10.8c18.4,0,30.8-17.4,30.8-26s-1.7-3.9-4.2-3.9c-4.2,0-10.1,4.7-11.2,11.1-.2.8,0,1.2-.6,1.2s-1.6-2.4-1.6-4.9c0-7.1,6.2-15,15.8-15s10.2,4.1,10.2,9.9c0,14-18.2,37.8-43.3,37.8s-23.9-9-23.9-22,11.2-32.3,26.6-46c-5.3-6-8.4-13.6-8.4-22.6s5-13,6.6-13,.2,0,.2.2v2.6c0,10.3,3.5,19.3,10.7,25.5,15.9-11.8,34.5-19.7,48.8-19.7s16.4,5,16.4,11.7c0,12.6-17.3,29-41.5,29h0ZM981.9,386.6c-8.1,0-22.6,8.6-36.1,20.6,4.4,1.4,9.6,2.2,15.4,2.2,16.5,0,28.7-9.2,28.7-16.4s-3.4-6.4-8-6.4h0Z"/>
        <path class="cls-5" d="M992.1,452.4c-1.1,3.6-1.8,6.8-1.8,9.7s2.2,4.2,4.7,4.2c11.4,0,26-24.9,27.3-24.9s1.6,2.6,1.6,3.9c0,4.2-18.5,29.2-34,29.2s-14-7.5-14-13.2c0-19.1,32.6-77.1,55.6-77.1s8.4,2.8,8.4,4.7c0,5-27.2,52.4-47.8,63.5h0ZM1030.1,394.2c-1.8,0-21.5,24.1-32.6,45.5,12.9-10.5,32.9-43,32.9-45.1s-.2-.4-.3-.4Z"/>
        <path class="cls-5" d="M1054.1,474.5c-5.7,0-11-4.4-11-10.7s0-1.6,0-2.3c-1.9,2.8-11.1,13-16.6,13s-10.9-6.9-10.9-13.8c0-14.6,18.7-44.8,24.8-47.3.5-.1,1.7-.2,3.1-.2,3,0,7.2.6,7.2,2.6s0,.6-.4,1c-2.5,4.8-20.5,36.1-20.5,44.4s.7,2.5,1.7,2.5c2.8,0,12.6-10.8,19.4-22.4,6-9.9,13.8-27.8,16.4-27.8,5.9,0,10.3,2,10.3,4.2,0,3.2-1.9,6.2-3.5,9.5-1.7,3.2-15.2,27.6-15.2,32.8s.4,2.5,2.9,2.5c6.1,0,19.3-21.4,20.2-21.4s1.6,2,1.6,4.1c0,3.6-17.8,29.3-29.6,29.3h0Z"/>
        <path class="cls-5" d="M1092.9,474.4c-8.1,0-16.3-4.1-16.3-19.6s8.9-21.2,18.2-36.7c10.2-17,19.7-33.5,25.6-33.5s8,2.3,8,3.9-5.5,9.2-8.6,14.4c-3.2,5.3-7.7,13-7.7,13.5h.2c3.1-1.6,6.2-2.4,8.9-2.4,6.6,0,11.2,4.8,11.2,14.2,0,17.9-16.3,46.2-39.5,46.2h0ZM1115.5,420.6c-4.2,0-7.8,4.5-9.6,6.5-1.8,2-17.1,30.6-17.1,35.9s1.2,3.7,4.2,3.7c9.5,0,27.2-28.4,27.2-40.5s-1.6-5.6-4.7-5.6Z"/>
      </g>
      <g class="cls-3">
        <path class="cls-7" d="M-352.8-195.4c-1.4,3.2-2.7,6.7-3.9,10.5-3.9,12.6-9.9,25-24.9,25s-17.6-9-17.6-18.6.7-6.9,2.1-10c-.4-.6-.6-1.4-.6-2.4,0-2.7,1.8-4.5,4.6-4.5s.6,0,.8.1c3-2.8,6.9-4.7,11.5-4.7s8.5,3,9.3,8.2c3.7-.8,7.1-1.9,10.2-3.2,4.7-8.5,10.5-15.8,20.3-15.8s3.7,1.2,3.7,2.2c0,3.9-6.6,8.9-15.5,13.2ZM-371.4-188.4c-.3,6.6-7,15.3-11.5,15.3s-5.8-1.6-5.8-2,1.2-.3,2.1-.8c.6-.3,4.5-4.1,5.7-10.3-2.6.4-5.2.6-7.4.6s-3.6-.1-5-.5c-.8,2.1-1.3,4.2-1.3,6.3,0,7.4,4.3,12.2,10,12.2,10.5,0,15.4-12,21.1-23.3-2.5.9-5.2,1.8-7.9,2.5h0ZM-383.7-195.8c-1.7,0-3.6,1.2-5.4,3,1.1,1.2,2.4,2.4,4.5,2.4s2.8-.1,4.2-.1c0-3.7-1.2-5.3-3.3-5.3h0ZM-334.3-221.3c-3.6,2.4-6.6,7.4-9.2,7.4s-2.6-5.3-3.8-7.4c-1.5-2.5-4.5-4.4-4.5-4.8,0-.8,1.1-1.4,1.8-1.4,3.8,0,7.2,3.6,8.9,6.8,3.4-2.7,9.3-6.8,13.8-6.8s1,.3,1,.8c0,1.6-5,3.5-8,5.4h0ZM-343.8-207.2c-1.8,0-4.1,2.6-6.5,6.7,4.5-2.8,7-5.4,7-6.3s-.2-.4-.5-.4Z"/>
        <path class="cls-7" d="M-346.7-160.1c-3.3,0-5.3-3.7-5.3-7.4,0-7.9,10-24.2,13.4-25.5.3-.1.9-.1,1.6-.1,1.7,0,3.9.3,3.9,1.4s0,.3-.1.5c-1.4,2.6-11.1,19.5-11.1,24s.4,1.4.8,1.4c4,0,11.5-12.2,12.1-12.2s.8,1.5.8,2.4-9.5,15.5-16.1,15.5h0ZM-337.7-196.5c-.8,0-1.4-.6-1.4-1.1,0-1,3.7-1.7,6.5-4.7,2.3-2.5,3.1-7.8,5.6-7.8s3.9,1.5,3.9,3.6c0,4-10.8,10-14.6,10Z"/>
        <path class="cls-7" d="M-322.7-160c-3,0-5.9-2.5-7.2-5.2-5.9,12-10.7,20.9-12.8,20.9s-3.7-2.3-3.7-3.9,5.1-11.1,11.8-23.9c6.8-12.8,11.6-22.9,13.1-22.9s4.5,1.2,4.5,2.1-.4,1.7-1.2,3.5c2.7-2,5.7-3.7,8.5-3.7s5.9,2.5,5.9,7.5c.1,9.5-10,25.6-18.9,25.6h0ZM-313.1-188.8c-1.7,0-4.9,2.5-7.6,4.8-1.5,3.2-3.5,7.2-5.9,12.1.6,3,1.9,5.9,3.6,5.9,3.6,0,11.8-16.7,11.8-20.6s-.6-2.2-1.9-2.2Z"/>
        <path class="cls-7" d="M-287.4-159.9c-4.1,0-6.9-3.3-6.9-7s1.9-8.8,2.9-10.8l-.2-.2c-2.5,2.4-6.5,7.9-8.7,11.9-2.1,3.9-2.2,6-3,6-1.4,0-4.8-2.3-4.8-5s5.8-13.3,10.5-22c4.7-8.6,11.2-20.2,13.9-20.2s3.9.8,3.9,2.5c0,2.6-2,5.8-4.6,9.8-2.5,4.1-5,8.7-5.6,9.8h.3c2-1.8,9.4-8.1,15.8-8.1s4.6,1.4,4.6,3.9c0,4.2-6,12.2-11.2,12.2s-2.1-.6-2.4-.6-3.6,9.1-3.6,11.6.6,1.8,2,1.8c7.6,0,15.3-13.7,16.1-13.7s.8,1.4.8,2.3c.2.5-8.1,15.8-19.8,15.8h0ZM-275-190.7c-1,0-9.6,5.4-9.6,6.2s.8,1,2,1c1.9,0,8-5,8-6.8s-.2-.4-.4-.4Z"/>
        <path class="cls-7" d="M-248.3-160.6c-4.5,0-5.6-5.4-5.8-5.4s-4.9,5.9-10.3,5.9-7-2.9-7-8.7c0-9.5,11.2-24.5,21.8-24.5s5.7,4.5,5.9,4.5c.3,0,3.7-4.2,4.9-4.2s1.1.2,1.9.4c.6.1,1.6.3,1.6,1.2,0,3.6-11.4,19.6-11.4,23.6s.3,1.1,1,1.1c4.1,0,10.9-11.4,11.6-11.4s.8,1.1.8,2.3-9.4,15.2-15,15.2h0ZM-250.5-189.6c-5.2,0-12.8,13.5-12.8,19.8s.7,3.2,2,3.2,6.2-3.1,6.2-4.3-1.4-.6-1.9-.6v-.5c1.7-.5,9.1-8.1,9.1-14s-1.1-3.6-2.6-3.6h0Z"/>
        <path class="cls-6" d="M-223.8-160.2c-4.1,0-7.2-2.4-7.2-7s8.7-18,8.7-18.2-2.1-1-3.2-1-.5.1-.5.2c-3.2,5.2-6.3,9.9-8.6,13.1-.2.3-.5.5-.7.5-.6,0-1-.8-1-1.9s.4-1.1.6-1.4c.8-1.2,2.5-3.7,4.3-7.4,1.9-3.9,2.3-6.7,3.6-9.6,1.3-3.2,2.3-3.9,4.4-3.9s1.5.6,1.5,1.7-.6,1.8-.6,2c0,.3.4.5,1.4.5,3,0,6.7-.5,7.6-.5,1.8,0,4.2,3.6,4.2,5s-2,2.2-3.4,3.8c-2.5,2.6-9.1,12-9.1,17.1s.3,1,.9,1c1.6,0,4.5-2.5,6.7-5.2,2.5-3,4.5-6.2,4.8-6.2.6,0,.8,1.2.8,2.3s-9.6,15.1-15.2,15.1h0Z"/>
        <path class="cls-6" d="M-204.3-159.9c-4.4,0-7.8-4.5-7.8-9.8,0-8.2,9.7-22.9,18.4-22.9s3.6-.7,4.9-.7c2.1,0,4,2.4,4,4.9,0,4.8-7.2,13.3-17.6,13.3s-.4,0-.6-.1c-.8,1.9-1.4,3.7-1.4,5.3,0,2.8,1,4.7,3.4,4.7,8.6,0,15.7-12.8,16.5-12.8s.8,1.2.8,2.1c0,2.3-9.9,16-20.6,16h0ZM-190.8-189.5c-2.3,0-7.4,5.4-10.6,11.1,5.1-1.1,11.8-6.3,11.8-10s-.4-1.1-1.2-1.1Z"/>
        <path class="cls-6" d="M-168.1-160.2c-3,0-5.9-2.4-5.9-5.8,0-7.4,6.8-17.8,8.5-20.2h-.3c-3.6,3.3-10.5,11.1-14.2,16.6-3.6,5.4-4.8,9.2-6.2,9.2s-4.1-1.9-4.1-4.3,12.3-28.9,15.2-28.9,4.5.8,4.5,2.7-2.2,6.4-2.5,7.5h.1c1.2-1.1,8.5-9.7,12.1-9.7s5.5,1.6,5.5,2.8c0,1.7-.8,2.8-1.7,4.6-.8,1.7-8.1,14.9-8.1,17.7s.2,1.4,1.5,1.4c3.4,0,10.4-11.6,11-11.6s.8,1.1.8,2.2c-.2,1.9-9.9,15.8-16.2,15.8h0ZM-156.9-201.9c-3,2-5.6,6.2-7.8,6.2s-2.1-4.5-3.2-6.2c-1.3-2.1-3.8-3.7-3.8-4,0-.7,1-1.2,1.6-1.2,3.2,0,6.1,3,7.5,5.7,2.8-2.3,7.8-5.7,11.6-5.7s.9.2.9.6c-.1,1.3-4.4,3-6.8,4.6h0Z"/>
      </g>
      <circle class="cls-7" cx="828.7" cy="-150.5" r="37.5"/>
      <circle class="cls-8" cx="828.7" cy="-150.5" r="28.5"/>
      <circle class="cls-7" cx="828.7" cy="-150.5" r="20"/>
      <circle class="cls-8" cx="828.7" cy="-150.5" r="10"/>
      <g class="cls-3">
        <path class="cls-7" d="M117.2,16.7c-17,3.5-25.2,17.1-32.5,30.7-7.3,13.7-12.6,29.4-16.6,35.2-3.9,5.8-7,9.1-10.7,9.1s-3.2-.8-3.2-1.8,1.6-1.7,2.1-5.2c.6-3.6.9-26.8,2.1-35.2h-.4c-5.8,9.7-18.2,41.2-34.8,41.2s-14.6-7.1-14.6-15.6,8.8-24.3,21.3-24.3,10,4.3,10,10.8-5.1,15.6-12.7,15.7c-2.1,0-3.2,0-3.2-.6s1.3-.5,2.6-1.4c1.3-.9,7-7.3,7-14.2s-2.1-5.8-4.9-5.8c-6,0-12.7,9-12.7,18.7s3.9,10.8,9.3,10.8c9.1,0,16-14.7,23.1-29.5,7-14.8,12.2-23.3,16-25.6,1.5-.9,3-1.1,4.7-1.1s3.4.7,3.4,1.8-2.6,10-3.5,17.7c-.9,7.7-1.2,16.4-1.6,20.9l.2.2c5.3-10.7,13.7-26.9,18.2-34.1,8.5-13.7,20-21.7,29.9-21.7s3.4,1.1,3.4,2.1-.7.9-1.7,1.1Z"/>
        <path class="cls-7" d="M88.5,90.9c-5.4,0-9.6-5.5-9.6-11.9,0-10,11.8-28,22.4-28s4.3-.9,6-.9c2.5,0,4.9,2.9,4.9,6,0,5.9-8.8,16.2-21.5,16.2s-.5,0-.7,0c-1,2.4-1.7,4.6-1.7,6.5,0,3.5,1.3,5.7,4.2,5.7,10.5,0,19.2-15.6,20.1-15.6s.9,1.4.9,2.6c0,2.8-12.1,19.6-25.2,19.6ZM105,54.6c-2.8,0-9,6.6-13,13.6,6.2-1.3,14.4-7.7,14.4-12.2s-.5-1.3-1.4-1.3Z"/>
        <path class="cls-7" d="M156.8,64.7c-1.1,0-2.7-.5-3.5-1.3-2.5,3.6-19.8,27.6-22.6,27.6s-5.1-3.6-5.1-5.7,3.6-12.7,6.1-20.5c-6.1,8.1-15.2,22.5-17.4,25.3-.3.4-.7.6-1.2.6-2.2,0-5.7-3.6-5.7-5.3s3.9-14.1,6.6-22c3.6-11,4-13.1,7.3-13.1s5,.8,5,3.2-6,18.4-7.9,22.8h.2c5.2-8.5,15.1-20.8,17.6-24,1-1.3,1.5-2,2.1-2,1.9,0,5.7,2.5,5.7,4.2,0,3.2-6.4,19.7-8.3,24.1h.2c1.4-1.9,14.5-18.6,14.5-19,0-.6-.5-.7-.5-2.8,0-2.9,6.6-11.9,9.2-11.9s3.7.3,3.7,1.9c0,2.4-7.4,12.2-7.4,12.4,0,1,1.3,2.2,2.8,2.2,3,0,5.5-2.9,5.8-2.9s.6.2.6.6c0,.9-3.6,5.6-7.9,5.6Z"/>
        <path class="cls-7" d="M225.3,70.7h-.2c-7,11.3-15.6,20.3-27.8,20.3s-20.5-9.6-20.5-19.4,7-21.5,20.5-21.5,5.8.9,7.9,2.4c-.4-.8-.6-1.7-.6-2.6,0-12.7,18.2-21.1,35.4-21.1s2,0,2.9.2c3.3-2.1,6.9-3.5,10.5-3.5s8.4,2.2,8.4,3-.2.4-.7.4c-.7,0-1.9-.2-3.2-.2-2.5,0-4.9.7-7,2,8.1,3,12.5,9.5,12.5,16.4,0,11.3-11.8,23.7-38.2,23.7ZM237.6,32.4c-11.5,0-26.3,6.2-26.3,14.5s1,2.4,2.8,2.4c3.1,0,4.7-3.1,4.7-4.8s.2-1.3.6-1.3.8.4.8,1.3c0,7.8-4.9,11.3-9.2,11.3s-2.2-.2-3.2-.6c1.7,2.4,2.6,5.5,2.6,8.5,0,7.2-4.4,14.5-12.1,14.5s-3.2-.6-3.2-1,1.1-.3,3.2-1.7c1.4-1,5.7-5.9,5.7-13.1s-3-9-8.1-9c-8.1,0-12.7,8.7-12.7,16.7s4.3,13.3,12.2,13.3c13.2,0,20.9-19.1,27.2-30.7,3.6-6.6,9.1-14.7,15.5-20.3h-.6ZM246.6,34.2c-5.4,5.6-10,14.8-14.9,24.7-1.1,2.3-2.3,4.6-3.6,6.8,17.4-.4,25.4-11.6,25.4-20.9s-2.2-8.5-7-10.7Z"/>
        <path class="cls-7" d="M265.7,75.9c-.7,2.4-1.2,4.5-1.2,6.4s1.4,2.8,3.1,2.8c7.5,0,17.1-16.4,18-16.4s1,1.7,1,2.6c0,2.8-12.2,19.3-22.4,19.3s-9.2-5-9.2-8.7c0-12.6,21.5-50.9,36.7-50.9s5.5,1.8,5.5,3.1c0,3.2-17.9,34.5-31.5,41.9ZM290.7,37.5c-1.2,0-14.2,15.9-21.5,30,8.5-7,21.7-28.4,21.7-29.8s-.2-.2-.2-.2Z"/>
        <path class="cls-7" d="M310,90c-5.5,0-6.8-6.6-7-6.6s-6,7.3-12.6,7.3-8.6-3.6-8.6-10.6c0-11.6,13.7-29.9,26.7-29.9s7,5.5,7.2,5.5c.4,0,4.6-5.1,6-5.1s1.3.2,2.3.5c.8.2,2,.3,2,1.4,0,4.3-13.9,23.9-13.9,28.8s.4,1.3,1.2,1.3c5.1,0,13.4-14,14.1-14s1,1.3,1,2.8-11.5,18.6-18.4,18.6ZM307.3,54.6c-6.4,0-15.6,16.5-15.6,24.3s.9,3.9,2.4,3.9,7.6-3.8,7.6-5.3-1.7-.8-2.3-.8v-.6c2.1-.6,11.1-9.9,11.1-17.1s-1.3-4.3-3.2-4.3Z"/>
        <path class="cls-7" d="M335.1,91.5c-5.9,0-11.1-3.9-11.1-12.5s11.1-28.3,22-28.3,3.2-.7,5.8-.7c3.6,0,6.4,1.8,6.4,7.7s-3.2,7.4-5.2,8.5c-2.1,1.1-4.3,1.9-5.5,1.9s-.5-.2-.5-.4.4-.2.9-1c.6-.9,2.8-5.9,2.8-10.3s-.2-1.8-1-1.8c-2.8,0-15.4,15.2-15.4,25s2.6,5.5,5,5.5c11.7,0,20.2-16.4,21.2-16.4s.9,1.8.9,2.8c0,1.4-10.7,20.1-26.2,20.1Z"/>
        <path class="cls-7" d="M366.7,90.9c-5.4,0-9.6-5.5-9.6-11.9,0-10,11.8-28,22.4-28s4.3-.9,6-.9c2.5,0,4.9,2.9,4.9,6,0,5.9-8.8,16.2-21.5,16.2s-.5,0-.7,0c-1,2.4-1.7,4.6-1.7,6.5,0,3.5,1.3,5.7,4.2,5.7,10.5,0,19.2-15.6,20.1-15.6s.9,1.4.9,2.6c0,2.8-12.1,19.6-25.2,19.6ZM383.2,54.6c-2.8,0-9,6.6-13,13.6,6.2-1.3,14.4-7.7,14.4-12.2s-.5-1.3-1.4-1.3Z"/>
      </g>
    </g>
  </g>
</svg>