<?xml version="1.0" encoding="utf-8"?>
<!-- Generator: Adobe Illustrator 27.9.0, SVG Export Plug-In . SVG Version: 6.00 Build 0)  -->
<svg version="1.1" id="Layer_1" xmlns="http://www.w3.org/2000/svg" xmlns:xlink="http://www.w3.org/1999/xlink" x="0px" y="0px"
	 viewBox="0 0 802 95" style="enable-background:new 0 0 802 95;" xml:space="preserve">
<style type="text/css">
	.st0{fill:#FFFFFF;}
	.st1{fill:#016FD0;}
	.st2{fill:#1A1E71;}
	.st3{fill:#F79E1B;}
	.st4{fill:#EB001B;}
	.st5{fill:#FF5F00;}
	.st6{fill:#1A1A1A;}
	.st7{fill:url(#path6338_00000142872217945531266420000010802261304664978852_);}
	.st8{fill:url(#path6349_00000014601070184547589790000017700670050360092825_);}
	.st9{fill:url(#path6360_00000028286543895196311480000005261565511539827605_);}
	.st10{fill:url(#path6371_00000034802740389752525660000017587366318243950978_);}
	.st11{fill:url(#path6384_00000128487069394840230710000017964561686149925034_);}
	.st12{fill:#0060BE;}
</style>
<g>
	<g>
		<path class="st0" d="M146.9,87.7H19.2c-4.5,0-8.2-3.7-8.2-8.2V24.3c0-4.5,3.7-8.2,8.2-8.2h127.8c4.5,0,8.2,3.7,8.2,8.2v55.2
			C155.1,84,151.5,87.7,146.9,87.7z"/>
	</g>
	<g>
		<path class="st0" d="M305.6,87.7H177.8c-4.5,0-8.2-3.7-8.2-8.2V24.3c0-4.5,3.7-8.2,8.2-8.2h127.8c4.5,0,8.2,3.7,8.2,8.2v55.2
			C313.8,84,310.1,87.7,305.6,87.7z"/>
	</g>
	<g>
		<path class="st1" d="M464.3,87.7H336.5c-4.5,0-8.2-3.7-8.2-8.2V24.3c0-4.5,3.7-8.2,8.2-8.2h127.8c4.5,0,8.2,3.7,8.2,8.2v55.2
			C472.5,84,468.8,87.7,464.3,87.7z"/>
	</g>
	<g>
		<path class="st0" d="M623.9,85.9H496.1c-4.5,0-8.2-3.7-8.2-8.2V22.6c0-4.5,3.7-8.2,8.2-8.2h127.8c4.5,0,8.2,3.7,8.2,8.2v55.2
			C632.1,82.3,628.4,85.9,623.9,85.9z"/>
	</g>
	<g>
		<path class="st0" d="M783.5,85.9H655.8c-4.5,0-8.2-3.7-8.2-8.2V22.6c0-4.5,3.7-8.2,8.2-8.2h127.8c4.5,0,8.2,3.7,8.2,8.2v55.2
			C791.8,82.3,788.1,85.9,783.5,85.9z"/>
	</g>
	<g>
		<path class="st2" d="M243,47.5c0,3.4,3,5.3,5.3,6.4c2.4,1.2,3.2,1.9,3.2,2.9c0,2.9-5.4,2.9-9.9,0.8l-1.1,5.2
			c5.8,2.7,17.4,1.6,17.4-6.8c0-6.2-8.6-6.6-8.6-9.4c0.1-2.9,5.9-2.2,8.6-0.9l1.1-5C250.8,37.7,243.1,41.3,243,47.5"/>
		<path class="st2" d="M274.6,40.1h-5.2h0c-1.2,0-2.2,0.7-2.6,1.7l-9.2,21.9h6.4l1.3-3.5h7.8l0.7,3.5h5.7L274.6,40.1z M267.1,55.3
			l3.2-8.9l1.9,8.9H267.1z"/>
		<polyline class="st2" points="235.2,40.1 230.2,63.7 236.3,63.7 241.3,40.1 235.2,40.1 		"/>
		<path class="st2" d="M226.2,40.1l-6.4,16.1l-2.6-13.7c-0.3-1.5-1.5-2.4-2.8-2.4H204l-0.1,0.7c4.5,1,6.9,1.7,7.5,4.1l4.9,18.9h6.5
			l9.9-23.6H226.2"/>
	</g>
	<g>
		<g>
			
				<ellipse transform="matrix(0.9239 -0.3827 0.3827 0.9239 -10.9389 39.4725)" class="st3" cx="93.8" cy="47.2" rx="17.3" ry="17.3"/>
			
				<ellipse transform="matrix(0.9239 -0.3827 0.3827 0.9239 -12.5695 31.2747)" class="st4" cx="72.3" cy="47.2" rx="17.3" ry="17.3"/>
			<path class="st5" d="M76.4,47.2c0,5.5,2.6,10.4,6.6,13.6c4-3.2,6.6-8.1,6.6-13.6c0-5.5-2.6-10.4-6.6-13.6
				C79,36.8,76.4,41.7,76.4,47.2z"/>
		</g>
		<path class="st6" d="M65.1,73.6v-2.9c0.1-0.9-0.6-1.8-1.6-1.8c-0.1,0-0.1,0-0.2,0c-0.6,0-1.3,0.3-1.6,0.8
			c-0.3-0.5-0.9-0.8-1.5-0.8c-0.5,0-1,0.2-1.3,0.7V69h-1v4.6h1v-2.5c-0.1-0.6,0.3-1.1,0.9-1.2c0.1,0,0.1,0,0.2,0c0.7,0,1,0.4,1,1.2
			v2.6h1v-2.5c-0.1-0.6,0.3-1.1,0.9-1.2c0.1,0,0.1,0,0.2,0c0.7,0,1,0.4,1,1.2v2.6L65.1,73.6z M80,69h-1.6v-1.4h-1V69h-0.9v0.9h0.9
			V72c0,1.1,0.4,1.7,1.6,1.7c0.4,0,0.9-0.1,1.2-0.4l-0.3-0.9c-0.3,0.2-0.6,0.2-0.9,0.3c-0.5,0-0.7-0.3-0.7-0.8v-2.1H80L80,69z
			 M88.5,68.9c-0.5,0-1,0.2-1.2,0.7V69h-1v4.6h1V71c0-0.8,0.3-1.2,1-1.2c0.2,0,0.4,0,0.6,0.1l0.3-1C89,68.9,88.7,68.9,88.5,68.9
			L88.5,68.9z M75.6,69.4c-0.6-0.3-1.2-0.5-1.9-0.5c-1.2,0-1.9,0.6-1.9,1.5c0,0.7,0.6,1.2,1.6,1.4l0.5,0.1c0.5,0.1,0.8,0.2,0.8,0.5
			c0,0.4-0.4,0.6-1,0.6c-0.5,0-1.1-0.2-1.5-0.5l-0.5,0.8c0.6,0.4,1.3,0.6,2,0.6c1.3,0,2.1-0.6,2.1-1.5s-0.6-1.2-1.6-1.4l-0.5-0.1
			c-0.4-0.1-0.8-0.1-0.8-0.5c0-0.3,0.3-0.5,0.9-0.5c0.5,0,1,0.1,1.4,0.4L75.6,69.4z M102.3,68.9c-0.5,0-1,0.2-1.2,0.7V69h-1v4.6h1
			V71c0-0.8,0.3-1.2,1-1.2c0.2,0,0.4,0,0.6,0.1l0.3-1C102.8,68.9,102.6,68.9,102.3,68.9L102.3,68.9z M89.5,71.3c0,1.3,1,2.4,2.2,2.4
			c0.1,0,0.1,0,0.2,0c0.6,0,1.2-0.2,1.6-0.5l-0.5-0.8c-0.3,0.3-0.8,0.4-1.2,0.4c-0.8-0.1-1.4-0.8-1.3-1.6c0.1-0.7,0.6-1.3,1.3-1.3
			c0.4,0,0.9,0.1,1.2,0.4l0.5-0.8c-0.5-0.4-1.1-0.6-1.6-0.5c-1.3-0.1-2.4,0.9-2.4,2.2C89.5,71.1,89.5,71.2,89.5,71.3L89.5,71.3z
			 M98.8,71.3V69h-1v0.6c-0.3-0.4-0.9-0.7-1.4-0.7c-1.3,0-2.4,1.1-2.4,2.4s1.1,2.4,2.4,2.4c0.6,0,1.1-0.2,1.4-0.7v0.6h1V71.3z
			 M95.1,71.3c0-0.8,0.7-1.3,1.5-1.3c0.8,0,1.3,0.7,1.3,1.5c0,0.7-0.6,1.3-1.4,1.3c-0.8,0-1.4-0.6-1.4-1.4
			C95.1,71.4,95.1,71.3,95.1,71.3z M83.1,68.9c-1.3,0-2.4,1.1-2.4,2.4c0,1.3,1.1,2.4,2.4,2.4l0,0c0.7,0,1.4-0.2,1.9-0.6l-0.5-0.7
			c-0.4,0.3-0.8,0.5-1.3,0.5c-0.7,0.1-1.3-0.4-1.4-1.1h3.4c0-0.1,0-0.2,0-0.4C85.3,69.9,84.4,68.9,83.1,68.9L83.1,68.9z M83.1,69.8
			c0.6,0,1.1,0.5,1.2,1.1c0,0,0,0,0,0h-2.4C81.9,70.3,82.4,69.8,83.1,69.8L83.1,69.8z M108.1,71.3v-4.1h-1v2.4
			c-0.3-0.4-0.9-0.7-1.4-0.7c-1.3,0-2.4,1.1-2.4,2.4s1.1,2.4,2.4,2.4c0.6,0,1.1-0.2,1.4-0.7v0.6h1V71.3z M109.7,72.9
			c0.1,0,0.1,0,0.2,0c0.1,0,0.1,0.1,0.1,0.1c0,0,0.1,0.1,0.1,0.1c0,0.1,0,0.2,0,0.4c0,0.1-0.1,0.1-0.1,0.1c0,0-0.1,0.1-0.1,0.1
			c-0.1,0-0.1,0-0.2,0c-0.2,0-0.4-0.1-0.4-0.3c0-0.1,0-0.2,0-0.4c0-0.1,0.1-0.1,0.1-0.1c0,0,0.1-0.1,0.1-0.1
			C109.6,72.9,109.7,72.9,109.7,72.9L109.7,72.9z M109.7,73.7c0,0,0.1,0,0.1,0c0,0,0.1,0,0.1-0.1c0.1-0.1,0.1-0.3,0-0.5
			c0,0-0.1-0.1-0.1-0.1c0,0-0.1,0-0.1,0s-0.1,0-0.1,0c0,0-0.1,0-0.1,0.1c-0.1,0.1-0.1,0.3,0,0.5c0,0,0.1,0.1,0.1,0.1
			C109.6,73.7,109.7,73.7,109.7,73.7L109.7,73.7z M109.8,73.2c0,0,0.1,0,0.1,0c0,0,0,0.1,0,0.1c0,0,0,0.1,0,0.1c0,0-0.1,0-0.1,0
			l0.1,0.2h-0.1l-0.1-0.2h0v0.2h-0.1v-0.4L109.8,73.2z M109.7,73.2v0.1h0.1c0,0,0,0,0.1,0c0,0,0,0,0,0c0,0,0,0,0,0c0,0,0,0-0.1,0
			L109.7,73.2z M104.4,71.3c0-0.8,0.7-1.3,1.5-1.3c0.8,0,1.3,0.7,1.3,1.5c0,0.7-0.6,1.3-1.4,1.3c-0.8,0-1.4-0.6-1.4-1.4
			C104.4,71.4,104.4,71.3,104.4,71.3z M70.7,71.3V69h-1v0.6c-0.3-0.4-0.9-0.7-1.4-0.7c-1.3,0-2.4,1.1-2.4,2.4s1.1,2.4,2.4,2.4
			c0.6,0,1.1-0.2,1.4-0.7v0.6h1V71.3z M67,71.3c0-0.8,0.7-1.3,1.5-1.3c0.8,0,1.3,0.7,1.3,1.5c0,0.7-0.6,1.3-1.4,1.3
			c-0.8,0-1.4-0.6-1.4-1.3C67,71.4,67,71.3,67,71.3L67,71.3z"/>
	</g>
	<g>
		<path id="path3076_2_" class="st0" d="M412.5,43.7c0,0-0.1-0.1-0.1-0.2c-0.1-0.1-0.1-0.4-0.1-0.7c0-0.5,0.2-0.8,0.3-0.9
			c0.1-0.1,0.2-0.1,0.4-0.1h1.9l-0.9,2.2h-0.6C412.8,43.9,412.6,43.8,412.5,43.7z M359.3,35.8l-6,13.9h6.8l0.8-2.1h2.4l0.8,2.1
			c13.8,0,19.8,0,33.7,0v-2l1.7,2h7.9l0,0h1v-1.5c0.4,0.4,0.9,0.7,1.4,0.9c0.6,0.3,1.1,0.4,1.8,0.5l0,0.1h6.8l0.8-2.1h2.4l0.8,2.1
			h6.8l0,0h2v-2.5l1.6,2.5h5.9V35.8h-6.1v2.4l-1.5-2.4h-6v4.4l-1.9-4.4c-0.5,0-10.7,0-10.1,0c-1.2,0-2.2,0.2-3.2,0.6
			c-0.6,0.2-1.1,0.6-1.5,1v-1.6c-8.7,0-20.1,0-32.1,0l-1.1,3.3l-1.2-3.2l-7.1,0v4.4l-1.9-4.4H359.3z M373.2,54v13.9
			c5.1,0,9.2,0,14.7,0l1.5-2.1l1.6,2.1c0.9,0-3.3,0,8.9,0v-3.3c0.6,0,2.6,0.2,4.5-0.9v4.2h6.1v-2l1.7,2c1,0,30.9,0,29.3,0
			c3.2,0,5.1-2.2,5.1-5.1c0-1.4-0.5-2.7-1.6-3.6l2.4-5.2c-0.5,0-58.8,0-56.3,0l-1.7,2.2l-1.7-2.2C384.4,54,376.6,54,373.2,54z"/>
		<g>
			<path id="path3046_2_" class="st1" d="M360.4,37.5L356,48h2.9l0.8-2.1h4.8l0.8,2.1h3l-4.5-10.4H360.4L360.4,37.5z M362.1,40
				l1.5,3.6h-2.9L362.1,40z"/>
			<path id="path3048_2_" class="st1" d="M368.6,48V37.5l4.1,0l2.4,6.7l2.4-6.7h4.1V48H379v-7.7l-2.8,7.7H374l-2.8-7.7V48H368.6z"/>
			<path id="path3050_2_" class="st1" d="M383.4,48V37.5h8.5v2.3h-5.9v1.8h5.7v2.2h-5.7v1.9h5.9V48H383.4z"/>
			<path id="path3052_2_" class="st1" d="M393.4,37.5V48h2.6v-3.7h1.1l3.1,3.7h3.2l-3.4-3.8c1.4-0.1,2.9-1.3,2.9-3.2
				c0-2.2-1.7-3.4-3.6-3.4H393.4L393.4,37.5z M396.1,39.9h3c0.7,0,1.2,0.6,1.2,1.1c0,0.7-0.7,1.1-1.2,1.1h-3V39.9L396.1,39.9z"/>
			<path id="path3054_2_" class="st1" d="M406.6,48H404V37.5h2.7V48z"/>
			<path id="path3056_2_" class="st1" d="M412.9,48h-0.6c-2.8,0-4.5-2.2-4.5-5.2c0-3.1,1.7-5.3,5.2-5.3h2.9V40h-3
				c-1.4,0-2.4,1.1-2.4,2.8c0,2,1.2,2.9,2.8,2.9h0.7L412.9,48z"/>
			<path id="path3058_2_" class="st1" d="M418.6,37.5L414.1,48h2.9l0.8-2.1h4.8l0.8,2.1h3L422,37.5H418.6L418.6,37.5z M420.2,40
				l1.5,3.6h-2.9L420.2,40L420.2,40z"/>
			<path id="path3060_2_" class="st1" d="M426.8,48V37.5h3.3l4.2,6.5v-6.5h2.6V48h-3.2l-4.3-6.7V48H426.8z"/>
			<path id="path3062_2_" class="st1" d="M374.9,66.2V55.8h8.5v2.3h-5.9v1.8h5.7v2.2h-5.7v1.9h5.9v2.3H374.9z"/>
			<path id="path3064_2_" class="st1" d="M416.6,66.2V55.8h8.5v2.3h-5.9v1.8h5.7v2.2h-5.7v1.9h5.9v2.3H416.6z"/>
			<path id="path3066_2_" class="st1" d="M383.8,66.2l4.1-5.1l-4.2-5.3h3.3l2.5,3.3l2.5-3.3h3.2L391,61l4.1,5.2h-3.3l-2.5-3.2
				l-2.4,3.2H383.8z"/>
			<path id="path3068_2_" class="st1" d="M395.4,55.8v10.4h2.7v-3.3h2.7c2.3,0,4.1-1.2,4.1-3.6c0-2-1.4-3.5-3.7-3.5H395.4
				L395.4,55.8z M398.1,58.1h2.9c0.7,0,1.3,0.5,1.3,1.2c0,0.7-0.5,1.2-1.3,1.2h-2.9V58.1L398.1,58.1z"/>
			<path id="path3072_2_" class="st1" d="M406.1,55.8v10.4h2.6v-3.7h1.1l3.1,3.7h3.2l-3.4-3.8c1.4-0.1,2.9-1.3,2.9-3.2
				c0-2.2-1.7-3.4-3.6-3.4H406.1L406.1,55.8z M408.7,58.1h3c0.7,0,1.2,0.6,1.2,1.1c0,0.7-0.7,1.1-1.2,1.1h-3V58.1z"/>
			<path id="path3074_2_" class="st1" d="M426.3,66.2v-2.3h5.2c0.8,0,1.1-0.4,1.1-0.9c0-0.4-0.3-0.9-1.1-0.9h-2.4
				c-2,0-3.2-1.2-3.2-3.1c0-1.7,1-3.3,4.1-3.3h5.1l-1.1,2.3h-4.4c-0.8,0-1.1,0.4-1.1,0.9c0,0.4,0.3,0.9,1,0.9h2.5
				c2.3,0,3.3,1.3,3.3,3c0,1.8-1.1,3.3-3.4,3.3H426.3z"/>
			<path class="st1" d="M435.9,66.2v-2.3h5.2c0.8,0,1.1-0.4,1.1-0.9c0-0.4-0.3-0.9-1.1-0.9h-2.4c-2,0-3.2-1.2-3.2-3.1
				c0-1.7,1-3.3,4.1-3.3h5.1l-1.1,2.3h-4.4c-0.8,0-1.1,0.4-1.1,0.9c0,0.4,0.3,0.9,1,0.9h2.5c2.3,0,3.3,1.3,3.3,3
				c0,1.8-1.1,3.3-3.4,3.3H435.9z"/>
		</g>
	</g>
	<g id="g6321" transform="translate(-9.4000001,96.810998)">
		<g id="g6323" transform="matrix(1.8215159,0,0,1.8215159,-8.5437653,-109.83667)">
			<g id="g6327">
				
					<linearGradient id="path6338_00000041268165950188362400000001056697807537949358_" gradientUnits="userSpaceOnUse" x1="236.7472" y1="-48.2725" x2="244.2512" y2="-48.2725" gradientTransform="matrix(2.0492 0 0 -2.0492 -162.1975 -63.285)">
					<stop  offset="0" style="stop-color:#007940"/>
					<stop  offset="0.7433" style="stop-color:#40A737"/>
					<stop  offset="1" style="stop-color:#5CB531"/>
				</linearGradient>
				<path id="path6338" style="fill:url(#path6338_00000041268165950188362400000001056697807537949358_);" d="M324.6,36.5h2
					c0.1,0,0.2,0,0.2,0c0.4-0.1,0.7-0.4,0.7-0.9c0-0.5-0.3-0.8-0.7-0.9c-0.1,0-0.2,0-0.2,0h-2V36.5L324.6,36.5z"/>
				
					<linearGradient id="path6349_00000128477025144450422720000014910415485819682714_" gradientUnits="userSpaceOnUse" x1="236.7471" y1="-47.6354" x2="244.2448" y2="-47.6354" gradientTransform="matrix(2.0492 0 0 -2.0492 -162.1975 -63.285)">
					<stop  offset="0" style="stop-color:#007940"/>
					<stop  offset="0.2064" style="stop-color:#17893D"/>
					<stop  offset="0.5305" style="stop-color:#359F39"/>
					<stop  offset="0.7136" style="stop-color:#40A737"/>
					<stop  offset="1" style="stop-color:#5CB531"/>
				</linearGradient>
				<path id="path6349" style="fill:url(#path6349_00000128477025144450422720000014910415485819682714_);" d="M326.4,24.1
					c-1.9,0-3.4,1.5-3.4,3.4v3.6h4.8c0.1,0,0.2,0,0.3,0c1.1,0.1,1.9,0.6,1.9,1.6c0,0.8-0.5,1.4-1.6,1.6v0c1.1,0.1,2,0.7,2,1.7
					c0,1-0.9,1.7-2.2,1.7h-5.3v7h5c1.9,0,3.4-1.5,3.4-3.4V24.1H326.4L326.4,24.1z"/>
				
					<linearGradient id="path6360_00000083049411080070299600000012555637862628542882_" gradientUnits="userSpaceOnUse" x1="236.7471" y1="-46.9341" x2="244.2514" y2="-46.9341" gradientTransform="matrix(2.0492 0 0 -2.0492 -162.1975 -63.285)">
					<stop  offset="0" style="stop-color:#007940"/>
					<stop  offset="0.7433" style="stop-color:#40A737"/>
					<stop  offset="1" style="stop-color:#5CB531"/>
				</linearGradient>
				<path id="path6360" style="fill:url(#path6360_00000083049411080070299600000012555637862628542882_);" d="M327.3,32.9
					c0-0.5-0.3-0.8-0.7-0.8c0,0-0.1,0-0.2,0h-1.8v1.7h1.8c0.1,0,0.2,0,0.2,0C327,33.6,327.3,33.3,327.3,32.9z"/>
			</g>
			
				<linearGradient id="path6371_00000154407306472267795270000003766083792010951296_" gradientUnits="userSpaceOnUse" x1="227.5243" y1="-47.6308" x2="235.1445" y2="-47.6308" gradientTransform="matrix(2.0492 0 0 -2.0492 -162.1975 -63.285)">
				<stop  offset="0" style="stop-color:#1F286F"/>
				<stop  offset="0.2715" style="stop-color:#134189"/>
				<stop  offset="0.6237" style="stop-color:#055CA6"/>
				<stop  offset="0.8261" style="stop-color:#0066B1"/>
				<stop  offset="1" style="stop-color:#006FBC"/>
			</linearGradient>
			<path id="path6371" style="fill:url(#path6371_00000154407306472267795270000003766083792010951296_);" d="M307.5,24.1
				c-1.9,0-3.4,1.5-3.4,3.4v8.4c1,0.5,2,0.8,2.9,0.8c1.2,0,1.8-0.7,1.8-1.7v-4h2.9v4c0,1.5-1,2.8-4.2,2.8c-2,0-3.5-0.4-3.5-0.4v7.2
				h5c1.9,0,3.4-1.5,3.4-3.4V24.1H307.5z"/>
			
				<linearGradient id="path6384_00000161619289417564881540000003971685811329204655_" gradientUnits="userSpaceOnUse" x1="232.1138" y1="-47.64" x2="239.5147" y2="-47.64" gradientTransform="matrix(2.0492 0 0 -2.0492 -162.1975 -63.285)">
				<stop  offset="0" style="stop-color:#6C2C2F"/>
				<stop  offset="0.1568" style="stop-color:#8C2031"/>
				<stop  offset="0.3564" style="stop-color:#AF1433"/>
				<stop  offset="0.5455" style="stop-color:#C80B35"/>
				<stop  offset="0.718" style="stop-color:#D70636"/>
				<stop  offset="0.8585" style="stop-color:#DC0436"/>
				<stop  offset="1" style="stop-color:#E60039"/>
			</linearGradient>
			<path id="path6384" style="fill:url(#path6384_00000161619289417564881540000003971685811329204655_);" d="M316.9,24.1
				c-1.9,0-3.4,1.5-3.4,3.4V32c0.9-0.7,2.4-1.2,4.8-1.1c1.3,0.1,2.7,0.4,2.7,0.4v1.4c-0.7-0.4-1.5-0.7-2.6-0.8
				c-1.8-0.1-2.9,0.8-2.9,2.3c0,1.6,1.1,2.5,2.9,2.3c1.1-0.1,1.9-0.4,2.6-0.8v1.4c0,0-1.4,0.4-2.7,0.4c-2.4,0.1-3.9-0.4-4.8-1.1v7.9
				h5c1.9,0,3.4-1.5,3.4-3.4V24.1H316.9z"/>
		</g>
		<g id="g6386">
		</g>
	</g>
	<g>
		
			<ellipse transform="matrix(3.564560e-02 -0.9994 0.9994 3.564560e-02 606.9263 729.3506)" class="st0" cx="681.4" cy="50.2" rx="13.5" ry="13.5"/>
		<path class="st6" d="M706.8,50.8c5.2,0,6.1-3.7,6.1-5.1c0-2.6-2.1-5.1-5.9-5.1c-1.1,0-1.9,0-2.5,0c-0.6,0-1.2,0-1.7,0v0.4
			c0.7,0,1.4-0.1,1.4,1.3v7.1c0,1-0.5,1-1.4,1.1v0.4c0.7,0,1.3,0,2,0C705.3,50.8,706,50.8,706.8,50.8z M705.4,41.1
			c0.3,0,0.5-0.1,1.1-0.1c2.8,0,4.6,2,4.6,4.7c0,2.2-1,4.6-4.2,4.6c-0.7,0-1.5-0.1-1.5-1.3V41.1z"/>
		<path class="st6" d="M716.5,50.8v-0.4h-0.2c-0.4,0-0.7,0-0.7-0.5v-5.6c0-0.1,0-0.2-0.1-0.2c-0.1,0-0.2,0-0.3,0.1
			c-0.1,0-0.9,0.3-1.6,0.5v0.2c0.5,0.3,0.8,0.4,0.8,1v4c0,0.5-0.3,0.5-0.7,0.5h-0.3v0.4c0.5,0,1.1,0,1.6,0
			C715.5,50.8,716,50.8,716.5,50.8z"/>
		<path class="st6" d="M714.9,41.8c0.4,0,0.7-0.3,0.7-0.7c0-0.4-0.3-0.7-0.7-0.7c-0.4,0-0.7,0.3-0.7,0.7
			C714.2,41.5,714.5,41.8,714.9,41.8z"/>
		<path class="st6" d="M724.3,50.4H724c-0.4,0-0.7,0-0.7-0.5v-3.8c0-1.1-0.4-2.1-1.7-2.1c-1,0-1.7,0.5-2.5,1.1v-1
			c0-0.1,0-0.1-0.1-0.1c-0.7,0.3-1.3,0.5-1.9,0.7v0.3c0.7,0.3,0.9,0.4,0.9,1v3.9c0,0.5-0.3,0.5-0.7,0.5h-0.3v0.4c0.5,0,1.1,0,1.6,0
			c0.5,0,1,0,1.6,0v-0.4h-0.3c-0.4,0-0.7,0-0.7-0.5v-4.3c0.5-0.3,1.2-0.7,1.7-0.7c0.8,0,1.4,0.4,1.4,1.3v3.8c0,0.5-0.3,0.5-0.7,0.5
			h-0.3v0.4c0.5,0,1.1,0,1.6,0c0.5,0,1,0,1.6,0V50.4z"/>
		<path class="st6" d="M727,51c1.2,0,2-0.8,2.7-1.7l-0.2-0.2c-0.5,0.5-1.2,1-2,1c-1.2,0-2.1-1.1-2.2-2.5c0-0.5,0-0.7,0-0.9h4.1
			l0.1-0.1c0-0.1,0-0.2,0-0.3c0-1.6-1.3-2.3-2.5-2.3c-1,0-3,0.9-3,3.7C724.2,48.8,724.7,51,727,51z M727.1,44.6
			c0.8,0,1.3,0.6,1.3,1.4c0,0.2,0,0.4-0.4,0.4h-2.6C725.6,45.2,726.2,44.6,727.1,44.6z"/>
		<path class="st6" d="M733.8,50.8v-0.4H733c-0.4,0-0.7,0-0.7-0.5v-3.5c0-0.9,0.8-1.2,1.1-1.2c0.5,0,0.5,0.4,1,0.4
			c0.4,0,0.7-0.4,0.7-0.8c0-0.5-0.5-0.8-0.8-0.8c-0.9,0-1.5,0.9-1.9,1.5h0v-1.3c0-0.1,0-0.2-0.1-0.2c-0.1,0-0.7,0.4-1.8,0.8v0.2
			c0.2,0.1,0.8,0.2,0.8,0.7v4.1c0,0.5-0.3,0.5-0.7,0.5H730v0.4c0.5,0,1.1,0,1.8,0C732.4,50.8,733,50.8,733.8,50.8z"/>
		<path class="st6" d="M737.5,50.6c-1.1,0-1.7-0.8-1.9-1.8l-0.3,0.1l0.2,1.7c0.5,0.3,1.2,0.5,1.8,0.5c1.7,0,2.5-1,2.5-2
			c0-2.3-3.4-1.8-3.4-3.5c0-0.6,0.6-1,1.1-1c0.9,0,1.5,0.5,1.6,1.5h0.3l-0.1-1.5c-0.6-0.3-1.2-0.4-1.7-0.4c-1.6,0-2.3,1.1-2.3,1.9
			c0,2.4,3.2,1.8,3.2,3.5C738.7,50,738.4,50.6,737.5,50.6z"/>
		<path class="st6" d="M752.9,50.3l0.3-2.1l-0.3-0.1c-0.3,1.5-1.5,2.5-3,2.5c-2.3,0-4.4-2.1-4.4-5.1c0-3.5,2.5-4.7,4.1-4.7
			c1.6,0,2.9,0.7,3.1,2.4h0.4l-0.1-2.1c-1.1-0.4-2.3-0.8-3.5-0.8c-2.9,0-5.6,2.2-5.6,5.2c0,3.3,2.2,5.5,5.6,5.5
			C750.6,51,752.2,50.6,752.9,50.3z"/>
		<path class="st6" d="M756.9,50.8v-0.4h-0.2c-0.4,0-0.7,0-0.7-0.5V39.8c0-0.1,0-0.2-0.1-0.2c0,0-0.2,0.1-0.3,0.2
			c-0.3,0.2-0.9,0.4-1.5,0.6v0.2c0.6,0.2,0.8,0.2,0.8,1.1v8.2c0,0.5-0.3,0.5-0.7,0.5h-0.3v0.4c0.5,0,1.1,0,1.6,0
			C755.8,50.8,756.4,50.8,756.9,50.8z"/>
		<path class="st6" d="M757.7,45.5v3.8c0,1.2,0.8,1.7,1.6,1.7c1,0,1.7-0.5,2.6-1.2V51l0.1,0c0.3-0.1,1.5-0.4,2.1-0.5v-0.3
			c-0.2,0-0.4,0-0.6,0c-0.3,0-0.4,0-0.4-0.3v-5.4c0-0.2,0-0.3-0.1-0.3c-0.1,0-1,0.1-2.3,0.2v0.3c0.5,0.1,1.2,0.3,1.2,0.6v4
			c-0.6,0.5-1.3,0.9-1.8,0.9c-1.3,0-1.3-1.3-1.3-1.7v-3.8c0-0.3,0-0.4-0.2-0.4c-0.2,0-1.4,0.1-1.9,0.1v0.3
			C757.7,44.8,757.7,45.1,757.7,45.5z"/>
		<path class="st6" d="M764.9,41.8v6.3c0,0.9-0.1,1.8-0.2,2.6l0.3,0.2l0.4-0.3c0.4,0.2,1,0.5,2,0.5c2.1,0,3.5-1.9,3.5-3.9
			c0-1.6-1-3.1-2.7-3.1c-0.8,0-1.6,0.6-2.2,1.1v-5.4c0-0.1,0-0.2-0.1-0.2c0,0-0.2,0.1-0.3,0.2c-0.3,0.2-0.9,0.4-1.5,0.6v0.2
			C764.7,40.8,764.9,40.8,764.9,41.8z M766.1,45.6c0.4-0.3,0.9-0.7,1.4-0.7c1.1,0,2.4,1.3,2.4,2.9c0,1.3-0.7,2.9-2.2,2.9
			c-1,0-1.5-0.9-1.5-1.5V45.6z"/>
		<g>
			<path class="st6" d="M703.8,54c-0.4,0-0.9,0-1.2,0h0v0.3v0h0.1c0.3,0,0.6,0,0.6,0.4v4.2c0,0.4-0.3,0.4-0.6,0.4h-0.1h0v0v0.2v0h0
				c0.3,0,0.8,0,1.2,0c0.4,0,0.9,0,1.3,0h0v-0.3v0H705c-0.3,0-0.6,0-0.6-0.4v-4.2c0-0.4,0.3-0.4,0.6-0.4h0.1h0V54v0h0
				C704.7,54,704.2,54,703.8,54z"/>
			<path class="st6" d="M710.8,54c-0.4,0-0.7,0-1.1,0h0v0.3v0h0.2c0.2,0,0.7,0.1,0.7,0.7V58l-3.5-4c-0.3,0-0.5,0-0.7,0
				c-0.3,0-0.6,0-0.9,0h0v0.3v0h0.1c0.3,0,0.7,0.3,0.7,0.7v3.4c0,0.6-0.2,1-0.7,1h-0.1h0v0.3v0h0c0.4,0,0.7,0,1.1,0c0.3,0,0.7,0,1,0
				h0v-0.3v0h-0.2c-0.6,0-0.7-0.2-0.7-0.9v-3.2l4.1,4.5l0.3,0h0l0,0c0-0.2,0-0.5,0-0.8v-3.6c0-0.9,0.3-1,0.7-1h0.1h0V54v0h0
				C711.5,54,711.2,54,710.8,54z"/>
			<path class="st6" d="M717.4,53.7L717.4,53.7c0,0.2-0.2,0.2-0.4,0.3h-4.1c0,0,0,0,0,0c-0.2,0-0.4,0-0.4-0.2l0,0h-0.2h0v0
				c0,0.2,0,0.5,0,0.7c0,0.2-0.1,0.5-0.1,0.7l0,0h0.3h0l0,0c0.1-0.6,0.1-0.7,0.7-0.7h1.3v4.2c0,0.6-0.2,0.6-0.6,0.6h-0.2h0v0.3v0h0
				c0.3,0,0.9,0,1.4,0c0.4,0,1,0,1.3,0h0v-0.3v0H716c-0.4,0-0.6-0.1-0.6-0.7v-4.2h1.3c0.5,0,0.5,0.4,0.6,0.7l0,0l0.3-0.1l0,0v0
				c0-0.2,0-0.4,0-0.6c0-0.2,0.1-0.4,0.1-0.6l0,0L717.4,53.7L717.4,53.7z"/>
			<path class="st6" d="M722.2,58.2L722.2,58.2c-0.2,0.9-0.6,1-1.6,1c-0.5,0-0.9,0-0.9-0.5v-1.8l0.9,0c0.5,0,0.5,0.3,0.6,0.8l0,0
				l0.3-0.1l0,0v0c0-0.3,0-0.6,0-0.9c0-0.3,0-0.6,0-0.9v0h-0.3h0l0,0c-0.1,0.4-0.1,0.7-0.6,0.7h-0.9v-2h1.1c0.8,0,0.9,0.4,0.9,0.9
				l0,0l0.3-0.1l0,0v0c0-0.2,0-0.5,0-0.8c0-0.2,0-0.3,0-0.4v0h0c-0.5,0-1.4,0-2,0c-0.7,0-1.5,0-2,0h0v0.3v0h0.1c0.3,0,0.6,0,0.6,0.4
				v4.2c0,0.4-0.3,0.4-0.6,0.4h-0.1h0v0v0.2v0h0c0.5,0,1.4,0,2.1,0c0.7,0,1.6,0,2.2,0h0l0,0c0.1-0.4,0.2-0.8,0.3-1.3l0,0L722.2,58.2
				L722.2,58.2z"/>
			<path class="st6" d="M727.5,58.9l-1.3-2c0.6-0.3,1.1-0.7,1.1-1.4c0-1.2-0.9-1.4-1.9-1.4c-0.4,0-0.8,0-1.3,0c-0.5,0-1,0-1.2,0h0
				v0.3v0h0.2c0.2,0,0.5,0,0.5,0.6v4.1c0,0.3-0.2,0.4-0.5,0.4h-0.1h0v0.3v0h0c0.4,0,0.8,0,1.2,0c0.5,0,0.9,0,1.4,0h0v-0.3v0h-0.2
				c-0.4,0-0.6,0-0.6-0.6V57h0.5c0.5,0.9,1,1.8,1.7,2.6c0.3,0,0.5,0,0.8,0c0.3,0,0.5,0,0.8,0h0v-0.3v0l0,0
				C727.9,59.3,727.7,59.2,727.5,58.9z M726.1,55.5c0,0.9-0.4,1.2-1.2,1.2h-0.4v-2.3c0.1,0,0.2,0,0.4,0
				C725.7,54.3,726.1,54.8,726.1,55.5z"/>
			<path class="st6" d="M735,54.3V54v0h0c-0.3,0-0.7,0-1,0c-0.4,0-0.7,0-1.1,0h0v0.3v0h0.2c0.2,0,0.7,0.1,0.7,0.7V58l-3.5-4
				c-0.3,0-0.5,0-0.7,0c-0.3,0-0.6,0-0.9,0h0v0.3v0h0.1c0.3,0,0.7,0.3,0.7,0.7v3.4c0,0.6-0.2,1-0.7,1h-0.1h0v0.3v0h0
				c0.4,0,0.7,0,1.1,0c0.3,0,0.7,0,1,0h0v-0.3v0h-0.2c-0.6,0-0.7-0.2-0.7-0.9v-3.2l4.1,4.5l0.3,0h0l0,0c0-0.2,0-0.5,0-0.8v-3.6
				c0-0.9,0.3-1,0.7-1H735L735,54.3z"/>
			<path class="st6" d="M739.9,59c-0.1-0.2-0.2-0.5-0.3-0.8l-1.5-4.2c0-0.1,0-0.1-0.1-0.2c0,0-0.1,0-0.1,0c0,0-0.1,0-0.1,0
				c-0.2,0.1-0.5,0.3-0.7,0.3c-0.1,0.3-0.2,0.7-0.3,1l-1.3,3.7c-0.1,0.3-0.4,0.5-0.7,0.5h0h0v0.3v0l0,0c0.3,0,0.6,0,0.9,0
				c0.3,0,0.6,0,1,0l0,0v-0.3v0h-0.1c-0.3,0-0.6,0-0.6-0.2c0-0.1,0.1-0.3,0.2-0.6l0.2-0.8h1.8l0.3,0.9c0.1,0.3,0.2,0.5,0.2,0.6
				c0,0.2-0.3,0.2-0.5,0.2h-0.1h0v0.3v0l0,0c0.4,0,0.8,0,1.2,0c0.4,0,0.7,0,1.1,0l0,0v-0.3v0h-0.1C740.2,59.3,740,59.2,739.9,59z
				 M738.1,57.1h-1.4l0.7-2.1L738.1,57.1z"/>
			<path class="st6" d="M745.2,53.7L745.2,53.7c0,0.2-0.2,0.2-0.4,0.3h-4.1c0,0,0,0,0,0c-0.2,0-0.4,0-0.4-0.2l0,0H740h0v0
				c0,0.2,0,0.5,0,0.7c0,0.2-0.1,0.5-0.1,0.7l0,0h0.3h0l0,0c0.1-0.6,0.1-0.7,0.7-0.7h1.3v4.2c0,0.6-0.2,0.6-0.6,0.6h-0.2h0v0.3v0h0
				c0.3,0,0.9,0,1.4,0c0.4,0,1,0,1.3,0h0v-0.3v0h-0.2c-0.4,0-0.6-0.1-0.6-0.7v-4.2h1.3c0.5,0,0.5,0.4,0.6,0.7v0l0.3-0.1l0,0v0
				c0-0.2,0-0.4,0-0.6c0-0.2,0.1-0.4,0.1-0.6l0,0L745.2,53.7L745.2,53.7z"/>
			<path class="st6" d="M746.9,54c-0.4,0-0.9,0-1.2,0h0v0.3v0h0.1c0.3,0,0.6,0,0.6,0.4v4.2c0,0.4-0.3,0.4-0.6,0.4h-0.1h0v0v0.2v0h0
				c0.3,0,0.8,0,1.2,0c0.4,0,0.9,0,1.3,0h0v-0.3v0H748c-0.3,0-0.6,0-0.6-0.4v-4.2c0-0.4,0.3-0.4,0.6-0.4h0.1h0V54v0h0
				C747.8,54,747.3,54,746.9,54z"/>
			<path class="st6" d="M751.3,53.9c-1.7,0-3,1.3-3,3c0,1.7,1.3,2.9,3,2.9c1.7,0,3.1-1.2,3.1-3.1C754.4,54.9,753.1,53.9,751.3,53.9z
				 M751.3,54.3c1.3,0,1.9,1.4,1.9,2.6c0,1.2-0.3,2.5-1.8,2.5c-1.3,0-1.9-1.3-1.9-2.8C749.6,55.5,750,54.3,751.3,54.3z"/>
			<path class="st6" d="M761.1,54.3V54v0h0c-0.3,0-0.7,0-1,0c-0.4,0-0.7,0-1.1,0h0v0.3v0h0.2c0.2,0,0.7,0.1,0.7,0.7V58l-3.5-4
				c-0.3,0-0.5,0-0.7,0c-0.3,0-0.6,0-0.9,0h0v0.3v0h0.1c0.3,0,0.7,0.3,0.7,0.7v3.4c0,0.6-0.2,1-0.7,1h-0.1h0v0.3v0h0
				c0.4,0,0.7,0,1.1,0c0.3,0,0.7,0,1,0h0v-0.3v0h-0.2c-0.6,0-0.7-0.2-0.7-0.9v-3.2l4.1,4.5l0.3,0h0l0,0c0-0.2,0-0.5,0-0.8v-3.6
				c0-0.9,0.3-1,0.7-1H761.1L761.1,54.3z"/>
			<path class="st6" d="M766.1,59c-0.1-0.2-0.2-0.5-0.3-0.8l-1.5-4.2c0-0.1,0-0.1-0.1-0.2c0,0-0.1-0.1-0.1,0c0,0-0.1,0-0.1,0
				c-0.2,0.1-0.5,0.3-0.7,0.3c-0.1,0.3-0.2,0.7-0.3,1l-1.3,3.7c-0.1,0.3-0.4,0.5-0.7,0.5h0h0v0.3v0l0,0c0.3,0,0.6,0,0.9,0
				c0.3,0,0.6,0,1,0l0,0v-0.3v0h-0.1c-0.3,0-0.6-0.1-0.6-0.2c0-0.1,0.1-0.3,0.2-0.6l0.2-0.8h1.8l0.3,0.9c0.1,0.3,0.2,0.5,0.2,0.6
				c0,0.2-0.3,0.2-0.5,0.2h-0.1h0v0.3v0l0,0c0.4,0,0.8,0,1.2,0c0.4,0,0.7,0,1.1,0l0,0v-0.3v0h-0.1C766.3,59.3,766.2,59.2,766.1,59z
				 M764.2,57.1h-1.4l0.7-2.1L764.2,57.1z"/>
			<path class="st6" d="M771.1,58.2L771.1,58.2c-0.1,0.2-0.1,0.4-0.2,0.6c-0.1,0.2-0.4,0.4-0.7,0.4c-0.2,0-0.4,0-0.6,0
				c-0.2,0-0.3,0-0.4,0c-0.3,0-0.4-0.1-0.4-0.4v-4.1c0-0.4,0.2-0.4,0.5-0.4h0.2h0V54v0h0c-0.4,0-0.8,0-1.2,0c-0.4,0-0.8,0-1.3,0h0
				v0.3v0h0.1c0.3,0,0.6,0,0.6,0.4v4.1c0,0.5-0.3,0.5-0.6,0.5h-0.1h0v0.3v0h0c0.7,0,1.4,0,2.1,0c0.7,0,1.4,0,2.1,0h0l0,0
				c0.1-0.5,0.2-0.9,0.3-1.4l0,0H771.1L771.1,58.2z"/>
			<path class="st6" d="M771.3,53.8c-0.5,0-0.8,0.4-0.8,0.8c0,0.5,0.4,0.8,0.8,0.8c0.5,0,0.8-0.4,0.8-0.8
				C772.1,54.2,771.8,53.8,771.3,53.8z M771.3,55.3c-0.4,0-0.7-0.3-0.7-0.7c0-0.4,0.3-0.7,0.7-0.7c0.4,0,0.7,0.3,0.7,0.7
				C772,55,771.7,55.3,771.3,55.3z"/>
			<path class="st6" d="M771.5,54.9l-0.1-0.2c0.1,0,0.2-0.1,0.2-0.3c0-0.2-0.1-0.2-0.3-0.2h-0.4v0c0.1,0,0.1,0,0.1,0.1V55
				c0,0.1,0,0.1-0.1,0.1v0h0.4v0c-0.1,0-0.1,0-0.1-0.1v-0.3h0.1c0.2,0.2,0.2,0.4,0.3,0.4h0.2v0C771.7,55,771.6,54.9,771.5,54.9z
				 M771.3,54.6L771.3,54.6l-0.1-0.4h0.1c0.1,0,0.2,0,0.2,0.2C771.4,54.6,771.4,54.6,771.3,54.6z"/>
		</g>
		<g>
			<path class="st12" d="M681.3,64.1c-7.7,0-14.1-6.2-14.1-13.9c0-8.3,6.4-14.1,14.1-14.1h3.6c7.6,0,14.6,5.8,14.6,14.1
				c0,7.6-7,13.9-14.6,13.9H681.3z M681.3,37.3c-7.1,0-12.8,5.7-12.8,12.8c0,7.1,5.7,12.8,12.8,12.8c7.1,0,12.8-5.7,12.8-12.8
				C694.1,43.1,688.4,37.3,681.3,37.3z M678.4,57.7V42.6c-3,1.2-5.2,4.1-5.2,7.6C673.2,53.6,675.4,56.5,678.4,57.7z M689.4,50.1
				c0-3.5-2.2-6.4-5.2-7.6v15.1C687.3,56.5,689.4,53.6,689.4,50.1z"/>
		</g>
	</g>
</g>
</svg>
