<?xml version="1.0" encoding="utf-8"?>
<!-- Generator: Adobe Illustrator 26.5.1, SVG Export Plug-In . SVG Version: 6.00 Build 0)  -->
<svg version="1.1" id="Layer_1" xmlns="http://www.w3.org/2000/svg" xmlns:xlink="http://www.w3.org/1999/xlink" x="0px" y="0px"
	 viewBox="0 0 524.2 115.4" style="enable-background:new 0 0 524.2 115.4;" xml:space="preserve">
<style type="text/css">
	.st0{fill:#B52828;}
	.st1{fill:#BFB5AC;}
	.st2{fill:#C92F2F;}
	.st3{fill:none;}
	.st4{enable-background:new    ;}
	.st5{fill:#6E7A18;}
	.st6{fill:#36482E;}
</style>
<g>
	<path class="st0" d="M1257.8-204.7c-3,6.8-5.8,14.3-8.3,22.3c-8.3,26.9-21.1,53.3-53.1,53.3c-25.9,0-37.6-19.3-37.6-39.5
		c0-7.3,1.5-14.6,4.5-21.4c-0.8-1.4-1.4-3-1.4-5.1c0-5.7,3.9-9.6,9.8-9.6c0.7,0,1.2,0,1.8,0.1c6.3-6.1,14.6-9.9,24.5-9.9
		c11.9,0,18.2,6.3,19.8,17.5c7.9-1.8,15.2-4.1,21.8-6.8c10.1-18.2,22.3-33.8,43.3-33.8c5.5,0,8,2.6,8,4.7
		C1291-224.6,1276.8-214,1257.8-204.7z M1218.2-189.8c-0.7,14.1-15,32.7-24.5,32.7c-4.5,0-12.3-3.4-12.3-4.3c0-0.7,2.6-0.7,4.5-1.7
		c1.4-0.7,9.5-8.7,12.1-22c-5.6,0.8-11,1.4-15.7,1.4c-4,0-7.6-0.3-10.6-1.1c-1.8,4.4-2.8,9-2.8,13.5c0,15.7,9.2,25.9,21.2,25.9
		c22.5,0,32.8-25.6,45.1-49.7C1229.7-193.3,1223.9-191.4,1218.2-189.8z M1191.9-205.6c-3.6,0-7.7,2.5-11.4,6.5
		c2.3,2.6,5.1,5.1,9.5,5.1c3,0,6.1-0.1,9-0.3C1198.9-202.1,1196.3-205.6,1191.9-205.6z M1297.3-259.8c-7.7,5.1-14.1,15.7-19.7,15.7
		c-4.7,0-5.5-11.3-8.1-15.7c-3.2-5.2-9.5-9.4-9.5-10.2c0-1.8,2.3-2.9,3.9-2.9c8.1,0,15.3,7.7,18.9,14.5c7.2-5.8,19.8-14.5,29.4-14.5
		c1,0,2.2,0.6,2.2,1.7C1314.3-268,1303.5-264,1297.3-259.8z M1276.9-229.9c-3.9,0-8.8,5.5-13.8,14.2c9.5-6.1,14.9-11.6,14.9-13.4
		C1278-229.5,1277.6-229.9,1276.9-229.9z"/>
	<path class="st0" d="M1270.7-129.5c-7,0-11.3-8-11.3-15.8c0-16.8,21.4-51.5,28.5-54.4c0.6-0.1,1.9-0.3,3.4-0.3c3.6,0,8.3,0.7,8.3,3
		c0,0.3,0,0.7-0.3,1.1c-3,5.5-23.6,41.6-23.6,51.1c0,2.1,0.8,2.9,1.8,2.9c8.5,0,24.5-26,25.8-26c1.5,0,1.7,3.2,1.7,5.1
		C1305.1-160.4,1284.9-129.5,1270.7-129.5z M1289.9-207.1c-1.8,0-2.9-1.2-2.9-2.3c0-2.2,8-3.6,13.8-9.9c5-5.4,6.6-16.7,12-16.7
		c3.4,0,8.4,3.2,8.4,7.7C1321.2-219.9,1298.2-207.1,1289.9-207.1z"/>
	<path class="st0" d="M1321.9-129.2c-6.3,0-12.7-5.4-15.3-11.2c-12.5,25.6-22.7,44.5-27.3,44.5c-3,0-8-4.8-8-8.4
		c0-3.7,10.9-23.7,25.2-51c14.5-27.3,24.8-48.8,28-48.8c4.4,0,9.6,2.5,9.6,4.5c0,1.2-0.8,3.7-2.5,7.4c5.8-4.3,12.1-8,18.1-8
		c8.3,0,12.7,5.4,12.7,16C1362.4-163.5,1340.9-129.2,1321.9-129.2z M1342.4-190.7c-3.6,0-10.5,5.2-16.3,10.2
		c-3.2,6.8-7.4,15.3-12.5,25.8c1.4,6.5,4.1,12.7,7.7,12.7c7.6,0,25.2-35.6,25.2-43.8C1346.5-188.6,1345.1-190.7,1342.4-190.7z"/>
	<path class="st0" d="M1397.2-129.1c-8.8,0-14.6-7-14.6-15c0-9.9,4-18.7,6.2-23l-0.4-0.4c-5.4,5.1-13.9,16.8-18.5,25.4
		c-4.4,8.4-4.7,12.8-6.5,12.8c-3,0-10.2-5-10.2-10.6s12.3-28.4,22.5-46.9c10.1-18.3,23.8-43.1,29.6-43.1c2.9,0,8.3,1.8,8.3,5.4
		c0,5.5-4.3,12.3-9.8,20.9c-5.4,8.8-10.7,18.6-11.9,20.8l0.7,0.1c4.3-4,20-17.5,33.8-17.5c5.5,0,9.8,2.9,9.8,8.3c0,9-12.8,26-24,26
		c-3.3,0-4.5-1.4-5.1-1.4c-0.4,0-7.7,19.4-7.7,24.8c0,2.1,1.2,3.9,4.3,3.9c16.3,0,32.7-29.2,34.3-29.2c1.1,0,1.8,3,1.8,4.8
		C1439.8-161.7,1422-129.1,1397.2-129.1z M1423.6-194.7c-2.1,0-20.4,11.4-20.4,13.2c0,0.7,1.8,2.1,4.3,2.1
		c4.1,0,16.9-10.6,16.9-14.5C1424.4-194.4,1424.1-194.7,1423.6-194.7z"/>
	<path class="st0" d="M1480.5-130.5c-9.6,0-11.9-11.4-12.3-11.4s-10.5,12.7-21.9,12.7c-7.6,0-15-6.2-15-18.5
		c0-20.3,24-52.2,46.6-52.2c11.2,0,12.1,9.5,12.5,9.5c0.7,0,8-9,10.5-9s2.3,0.4,4,0.8c1.4,0.3,3.4,0.6,3.4,2.5
		c0,7.6-24.3,41.8-24.3,50.3c0,1.4,0.7,2.3,2.1,2.3c8.8,0,23.3-24.4,24.7-24.4c1.2,0,1.8,2.3,1.8,5S1492.5-130.5,1480.5-130.5z
		 M1475.8-192.3c-11.2,0-27.3,28.8-27.3,42.3c0,4.4,1.5,6.9,4.3,6.9c3.6,0,13.2-6.6,13.2-9.2c0-1.1-2.9-1.4-4-1.4v-1.1
		c3.6-1,19.4-17.2,19.4-29.9C1481.4-189,1479.1-192.3,1475.8-192.3z"/>
	<path class="st1" d="M1532.8-129.8c-8.7,0-15.4-5.1-15.4-15c0-13.5,18.6-38.3,18.6-38.7c0-0.3-4.5-2.2-6.9-2.2
		c-0.6,0-1,0.1-1.1,0.4c-6.8,11-13.5,21.1-18.3,28c-0.4,0.7-1,1.1-1.5,1.1c-1.2,0-2.1-1.7-2.1-4.1c0-1,0.8-2.3,1.2-3
		c1.8-2.6,5.4-8,9.1-15.8c4.1-8.3,5-14.2,7.6-20.4c2.8-6.9,4.8-8.3,9.4-8.3c2.1,0,3.2,1.2,3.2,3.6c0,2.8-1.4,3.9-1.4,4.3
		c0,0.6,0.8,1,3,1c6.5,0,14.2-1.1,16.1-1.1c3.9,0,9,7.6,9,10.7c0,2.5-4.3,4.7-7.3,8.1c-5.2,5.6-19.4,25.6-19.4,36.4
		c0,1,0.6,2.1,1.9,2.1c3.4,0,9.6-5.4,14.3-11.2c5.2-6.3,9.6-13.2,10.3-13.2c1.2,0,1.8,2.5,1.8,5
		C1564.9-159.7,1544.8-129.8,1532.8-129.8z"/>
	<path class="st1" d="M1574.3-128.9c-9.4,0-16.7-9.5-16.7-20.8c0-17.5,20.7-48.9,39.1-48.9c5,0,7.6-1.5,10.5-1.5
		c4.4,0,8.5,5.1,8.5,10.5c0,10.3-15.3,28.2-37.5,28.2c-0.4,0-0.8,0-1.2-0.1c-1.8,4.1-2.9,8-2.9,11.3c0,6.1,2.2,9.9,7.3,9.9
		c18.3,0,33.5-27.3,35.1-27.3c1.5,0,1.7,2.5,1.7,4.5C1618.3-158.1,1597.2-128.9,1574.3-128.9z M1603.1-192.2
		c-4.8,0-15.7,11.6-22.6,23.7c10.9-2.3,25.1-13.5,25.1-21.4C1605.6-191.4,1604.8-192.2,1603.1-192.2z"/>
	<path class="st1" d="M1651.5-129.6c-6.5,0-12.7-5.1-12.7-12.3c0-15.7,14.5-38,18.1-43l-0.6-0.3c-7.6,7.3-22.5,24-30.2,35.7
		c-7.6,11.6-10.3,19.7-13.2,19.7c-2.8,0-8.8-4.1-8.8-9.2c0-6.5,26.3-61.6,32.4-61.6c2.1,0,9.5,1.8,9.5,5.7c0,3.4-4.7,13.6-5.4,16
		l0.1,0.1c2.5-2.5,18.2-20.8,25.8-20.8c5.1,0,11.7,3.4,11.7,5.9c0,3.7-1.7,6.1-3.6,9.8c-1.8,3.7-17.4,31.8-17.4,37.8
		c0,1.7,0.4,2.9,3.2,2.9c7.2,0,22.2-24.7,23.4-24.7s1.8,2.3,1.8,4.7C1685.6-159.3,1665-129.6,1651.5-129.6z M1675.3-218.6
		c-6.5,4.3-11.9,13.2-16.7,13.2c-3.9,0-4.5-9.5-6.8-13.2c-2.8-4.4-8.1-7.9-8.1-8.5c0-1.5,2.1-2.5,3.3-2.5c6.9,0,13,6.5,16,12.1
		c6.1-4.8,16.7-12.1,24.7-12.1c0.8,0,1.9,0.4,1.9,1.4C1689.6-225.5,1680.5-222.1,1675.3-218.6z"/>
</g>
<g>
	<path class="st0" d="M1207.6,171.6c-14.9,0-21.8-10.6-27.4-21.6c-10.9,11.3-23.7,20.4-37.2,20.4c-9.4,0-16.5-7.3-16.5-17.6
		c0-18.9,16.3-38.6,37.5-38.6c8.1,0,13.8,3,18.1,7.6c3.2-4.4,6.2-9,9.1-13.4c9.9-15,22.7-28.9,35.7-38.2c-3.3-0.7-7-1-11.2-1
		c-25.9,0-49.5,17.1-49.5,27.4c0,1.4,1.7,2.6,3.6,2.6c12.8,0,24.3-17.5,26.5-21.5c0.3-0.4,0.6-0.7,0.8-0.7c0.3,0,0.6,0.6,0.6,1.1
		c0,23.3-16.1,33.9-28.4,33.9c-7.6,0-13.6-4-13.6-11.6c0-13.6,27.4-37.5,64.9-37.5c5.4,0,10.5,0.6,15,1.8c6.6-3.6,13.1-5.5,19-5.5
		c3.9,0,6.2,1.2,6.2,1.7c0,0.8-0.7,0.8-3.6,0.8c-4.3,0-8.8,2.2-13.4,6.1c13.1,6.2,21.2,18.9,21.2,38.4
		C1264.9,136.8,1239.7,171.6,1207.6,171.6z M1157.2,124.6c-13.2,0-24.3,10.9-24.3,23.4c0,6.2,4,10.1,9,10.1
		c8.4,0,19.3-10.1,30.3-23.6C1168.5,128.7,1164,124.6,1157.2,124.6z M1236.5,74.7c-11.7,13.1-23.3,32.9-31.7,44.4
		c-3.7,5.1-8.3,11.4-13.5,18.1c4.7,9.9,8.7,19.4,18.3,19.4c22.2,0,35.6-31.3,35.6-55.9C1245.2,89.4,1242.3,79.7,1236.5,74.7z"/>
	<path class="st0" d="M1309.3,170.1c-9.6,0-11.9-11.4-12.3-11.4s-10.5,12.7-21.9,12.7c-7.6,0-15-6.2-15-18.5
		c0-20.3,24-52.2,46.6-52.2c11.2,0,12.1,9.5,12.5,9.5c0.7,0,8-9,10.5-9s2.3,0.4,4,0.8c1.4,0.3,3.4,0.6,3.4,2.5
		c0,7.6-24.3,41.8-24.3,50.3c0,1.4,0.7,2.3,2.1,2.3c8.8,0,23.3-24.4,24.7-24.4c1.2,0,1.8,2.3,1.8,5S1321.3,170.1,1309.3,170.1z
		 M1304.6,108.2c-11.2,0-27.3,28.8-27.3,42.3c0,4.4,1.5,6.9,4.3,6.9c3.6,0,13.2-6.6,13.2-9.2c0-1.1-2.9-1.4-4-1.4v-1.1
		c3.6-1,19.4-17.2,19.4-29.9C1310.2,111.5,1307.9,108.2,1304.6,108.2z"/>
	<path class="st2" d="M1361.6,170.7c-8.7,0-15.4-5.1-15.4-15c0-13.5,18.6-38.3,18.6-38.7c0-0.3-4.5-2.2-6.9-2.2
		c-0.6,0-1,0.1-1.1,0.4c-6.8,11-13.5,21.1-18.3,28c-0.4,0.7-1,1.1-1.5,1.1c-1.2,0-2.1-1.7-2.1-4.1c0-1,0.8-2.3,1.2-3
		c1.8-2.6,5.4-8,9.1-15.8c4.1-8.3,5-14.2,7.6-20.4c2.8-6.9,4.8-8.3,9.4-8.3c2.1,0,3.2,1.2,3.2,3.6c0,2.8-1.4,3.9-1.4,4.3
		c0,0.6,0.8,1,3,1c6.5,0,14.2-1.1,16.1-1.1c3.9,0,9,7.6,9,10.7c0,2.5-4.3,4.7-7.3,8.1c-5.2,5.6-19.4,25.6-19.4,36.4
		c0,1,0.6,2.1,1.9,2.1c3.4,0,9.6-5.4,14.3-11.2c5.2-6.3,9.6-13.2,10.3-13.2c1.2,0,1.8,2.5,1.8,5
		C1393.7,140.8,1373.6,170.7,1361.6,170.7z"/>
	<path class="st2" d="M1430.5,107.2c-1.8,0-1.4,0.1-7.3,0.1c-10.2,19-20.7,37.8-20.7,44.2c0,4.5,3,5.5,5,5.5
		c8.8,0,23.4-24.4,24.7-24.4s1.8,2.3,1.8,5s-20.5,33.2-32.5,33.2c-9,0-19.2-5.1-19.2-13.1c0-9.6,14.7-35.1,21.6-48l1.7-3
		c-2.8-0.3-7-1.1-7-4.5c0-2.3,0-4.7,0.3-5.6c0.1-0.7,0.4-1,1.4-1c0.7,0,2.6,0.1,4.3,0.1c1.9,0,6.1-0.8,7.3-0.8
		c6.1-11.3,12.8-23.2,14.5-23.2c6.3,0,10.2,5.9,10.2,9c0,1.7-2.1,5.8-7,15h7.4c2.6,0,3.9,0.8,3.9,2.1
		C1440.7,102.8,1434.7,107.2,1430.5,107.2z"/>
	<path class="st2" d="M1482.9,123.2c-0.7,3.4-1.5,7.6-2.6,12.1c1.2,0.4,2.3,0.6,3.2,0.6c2.9,0,3.4-1.8,3.7-1.8
		c0.7,0,0.8,0.1,0.8,0.7v0.3c0.1,8-5.2,12.7-10.5,12.7c-0.4,0-0.8,0-1.1,0c-6.8,16.7-20.4,24-32.4,24s-22.2-7.3-22.2-20
		c0-11.6,9.5-24.1,24-24.1c1.9,0,3.9,0.1,5.8,0.4c4-4.5,9-10.7,13.2-17.2c7.6-11.4,18.5-17.9,23.7-17.9c3.4,0,6.1,1.2,6.1,3.2
		C1494.6,99.2,1485.5,111.3,1482.9,123.2z M1445.6,142.4c-9.1,0-13.8,5.9-13.8,11.3c0,4.3,3,8.3,9.2,8.3c6.3,0,14.2-4.7,18.5-17.2
		C1454.5,143.5,1450,142.4,1445.6,142.4z M1466.4,118.9c-1.1,1.5-4.7,6.1-8.3,10.3c1.8,0.6,3.6,1,5.4,1.5c1.4-5.1,2.5-9.1,3.3-11.6
		L1466.4,118.9z"/>
	<path class="st1" d="M1558.5,109.8c-9.1,0-17.6-2.1-24.9-5.8c-13.8,14.5-24.4,31-24.4,44.1c0,7.7,5.5,12.4,13.4,12.4
		c21.2,0,35.4-20,35.4-29.9c0-2.9-1.9-4.5-4.8-4.5c-4.8,0-11.6,5.4-13,12.8c-0.3,1-0.1,1.4-0.7,1.4s-1.8-2.8-1.8-5.6
		c0-8.1,7.2-17.2,18.2-17.2c8.1,0,11.7,4.7,11.7,11.4c0,16.1-20.9,43.5-49.9,43.5c-15.6,0-27.6-10.3-27.6-25.4
		c0-17.8,13-37.2,30.6-52.9c-6.1-6.9-9.6-15.7-9.6-26c0-8,5.8-15,7.6-15c0.3,0,0.3,0,0.3,0.3c0,0.6-0.1,1.5-0.1,3
		c0,11.9,4,22.2,12.3,29.4c18.3-13.6,39.7-22.7,56.2-22.7c12,0,18.9,5.8,18.9,13.5C1606.2,91,1586.4,109.8,1558.5,109.8z
		 M1586.4,69.6c-9.4,0-26,9.9-41.6,23.7c5.1,1.7,11,2.5,17.8,2.5c19,0,33.1-10.6,33.1-18.9C1595.6,71.9,1591.8,69.6,1586.4,69.6z"/>
	<path class="st1" d="M1598.2,145.4c-1.2,4.1-2.1,7.9-2.1,11.2c0,2.6,2.5,4.8,5.4,4.8c13.1,0,29.9-28.7,31.4-28.7s1.8,3,1.8,4.5
		c0,4.8-21.4,33.6-39.1,33.6c-8.1,0-16.1-8.7-16.1-15.2c0-22,37.5-88.7,64.1-88.7c5.4,0,9.6,3.2,9.6,5.4
		C1653.2,78,1621.9,132.6,1598.2,145.4z M1641.9,78.4c-2.1,0-24.8,27.7-37.5,52.4c14.9-12.1,37.9-49.5,37.9-52
		C1642.3,78.6,1642.1,78.4,1641.9,78.4z"/>
	<path class="st1" d="M1669.6,170.9c-6.6,0-12.7-5.1-12.7-12.3c0-1.4,0-1.8,0.1-2.6c-2.2,3.2-12.8,15-19.2,15
		c-6.2,0-12.5-8-12.5-15.8c0-16.8,21.5-51.5,28.5-54.4c0.6-0.1,1.9-0.3,3.6-0.3c3.4,0,8.3,0.7,8.3,3c0,0.3-0.1,0.7-0.4,1.1
		c-2.9,5.5-23.6,41.6-23.6,51.1c0,2.1,0.8,2.9,1.9,2.9c3.2,0,14.5-12.4,22.3-25.8c6.9-11.4,15.8-32,18.9-32c6.8,0,11.9,2.3,11.9,4.8
		c0,3.7-2.2,7.2-4,10.9c-1.9,3.7-17.5,31.8-17.5,37.8c0,1.7,0.4,2.9,3.3,2.9c7,0,22.2-24.7,23.3-24.7c1.4,0,1.8,2.3,1.8,4.7
		C1703.6,141.3,1683.1,170.9,1669.6,170.9z"/>
	<path class="st1" d="M1714.3,170.7c-9.4,0-18.7-4.7-18.7-22.6c0-6.2,10.2-24.4,20.9-42.3c11.7-19.6,22.7-38.6,29.5-38.6
		c3.7,0,9.2,2.6,9.2,4.5c0,1.8-6.3,10.6-9.9,16.5c-3.7,6.1-8.8,15-8.8,15.6l0.3,0.1c3.6-1.9,7.2-2.9,10.2-2.9c7.6,0,13,5.5,13,16.4
		C1759.9,138.1,1741,170.7,1714.3,170.7z M1740.3,108.7c-4.8,0-9,5.2-11,7.4c-2.1,2.3-19.7,35.3-19.7,41.3c0,2.3,1.4,4.3,4.8,4.3
		c10.9,0,31.3-32.7,31.3-46.6C1745.7,112.6,1743.9,108.7,1740.3,108.7z"/>
</g>
<rect x="643.6" y="90.1" class="st3" width="330" height="57.9"/>
<g class="st4">
	<path class="st0" d="M826.6,371c-15.8,0-23-11.2-29.1-22.9C786,360,772.4,369.7,758,369.7c-10,0-17.5-7.8-17.5-18.7
		c0-20,17.2-40.9,39.8-40.9c8.6,0,14.6,3.2,19.1,8c3.3-4.7,6.5-9.4,9.7-14.2c10.5-16,24.1-30.7,37.9-40.5c-3.5-0.7-7.5-1-11.8-1
		c-27.5,0-52.4,18.2-52.4,29.1c0,1.5,1.8,2.8,3.7,2.8c13.6,0,25.7-18.6,28-22.8c0.3-0.4,0.6-0.7,0.8-0.7c0.3,0,0.6,0.6,0.6,1.1
		c0,24.7-17.1,35.9-30.1,35.9c-8,0-14.4-4.3-14.4-12.3c0-14.4,29.1-39.8,68.8-39.8c5.7,0,11.1,0.6,16,1.9c7.1-3.7,13.9-5.8,20.1-5.8
		c4.2,0,6.5,1.2,6.5,1.8c0,0.8-0.7,0.8-3.7,0.8c-4.6,0-9.3,2.4-14.2,6.4c13.9,6.5,22.5,20,22.5,40.8
		C887.5,334.3,860.7,371,826.6,371z M773.1,321.2c-14,0-25.7,11.5-25.7,24.8c0,6.5,4.3,10.7,9.4,10.7c8.9,0,20.5-10.7,32.2-25
		C785.1,325.7,780.4,321.2,773.1,321.2z M857.4,268.4c-12.5,13.9-24.7,35-33.6,47c-3.9,5.4-8.7,12.1-14.3,19.1
		c5,10.5,9.2,20.7,19.4,20.7c23.6,0,37.7-33.2,37.7-59.4C866.5,283.9,863.5,273.5,857.4,268.4z"/>
	<path class="st0" d="M934.5,369.5c-10.3,0-12.6-12.1-13-12.1c-0.4,0-11.1,13.5-23.3,13.5c-8,0-16-6.5-16-19.6
		c0-21.5,25.4-55.4,49.4-55.4c11.8,0,12.9,10.1,13.3,10.1c0.7,0,8.5-9.4,11.1-9.4c2.6,0,2.5,0.4,4.3,0.8c1.5,0.3,3.6,0.6,3.6,2.6
		c0,8-25.7,44.3-25.7,53.4c0,1.5,0.7,2.5,2.2,2.5c9.3,0,24.7-25.9,26.2-25.9c1.2,0,1.9,2.5,1.9,5.3
		C968.6,337.9,947.3,369.5,934.5,369.5z M929.5,303.9c-11.8,0-29,30.5-29,45c0,4.7,1.7,7.4,4.6,7.4c3.7,0,14-7.1,14-9.9
		c0-1.1-3.1-1.5-4.3-1.5v-1.1c3.7-1,20.7-18.3,20.7-31.8C935.5,307.4,933.1,303.9,929.5,303.9z"/>
	<path class="st0" d="M990,370.2c-9.2,0-16.4-5.4-16.4-16c0-14.3,19.7-40.7,19.7-41.1c0-0.3-4.9-2.4-7.4-2.4c-0.6,0-1,0.1-1.1,0.4
		c-7.2,11.7-14.3,22.3-19.4,29.7c-0.4,0.7-1,1.1-1.7,1.1c-1.2,0-2.2-1.8-2.2-4.4c0-1,0.8-2.5,1.2-3.2c1.9-2.8,5.7-8.5,9.7-16.8
		c4.4-8.7,5.3-15.1,8-21.6c2.9-7.4,5.1-8.7,10-8.7c2.2,0,3.3,1.2,3.3,3.7c0,2.9-1.5,4.2-1.5,4.6c0,0.6,0.8,1,3.2,1
		c6.9,0,15.1-1.1,17.1-1.1c4.2,0,9.4,8,9.4,11.4c0,2.6-4.6,5-7.8,8.6c-5.5,6-20.7,27.2-20.7,38.6c0,1,0.6,2.2,2.1,2.2
		c3.6,0,10.3-5.7,15.3-11.8c5.5-6.7,10.3-14,11-14c1.2,0,1.9,2.6,1.9,5.3C1024.1,338.4,1002.8,370.2,990,370.2z"/>
	<path class="st0" d="M1063.1,302.8c-1.9,0-1.5,0.1-7.8,0.1c-10.8,20.1-21.9,40.1-21.9,46.9c0,4.9,3.2,5.8,5.3,5.8
		c9.3,0,24.8-25.9,26.2-25.9c1.2,0,1.9,2.5,1.9,5.3c0,2.8-21.8,35.2-34.5,35.2c-9.4,0-20.3-5.4-20.3-13.9
		c0-10.3,15.7-37.3,22.9-50.9l1.8-3.2c-2.9-0.3-7.5-1.1-7.5-4.9c0-2.5,0-5,0.3-6c0.1-0.7,0.4-1,1.5-1c0.7,0,2.8,0.1,4.6,0.1
		c2.1,0,6.4-0.8,7.8-0.8c6.4-11.9,13.6-24.6,15.4-24.6c6.7,0,10.8,6.2,10.8,9.4c0,1.8-2.2,6.1-7.5,16h7.9c2.8,0,4.2,0.8,4.2,2.2
		C1073.9,298.2,1067.6,302.8,1063.1,302.8z"/>
	<path class="st0" d="M1118.8,319.7c-0.7,3.6-1.7,8-2.8,12.9c1.2,0.4,2.5,0.6,3.3,0.6c3.1,0,3.6-1.9,3.9-1.9c0.7,0,0.8,0.1,0.8,0.7
		v0.3c0.1,8.5-5.5,13.5-11.1,13.5c-0.4,0-0.8,0-1.1,0c-7.2,17.8-21.6,25.4-34.4,25.4c-12.8,0-23.6-7.8-23.6-21.2
		c0-12.3,10.1-25.5,25.4-25.5c2.1,0,4,0.1,6.1,0.4c4.3-4.9,9.4-11.4,14-18.3c8.3-11.9,19.8-18.7,25.4-18.7c3.6,0,6.4,1.2,6.4,3.3
		C1131.1,294.3,1121.5,307.2,1118.8,319.7z M1079.1,340.1c-9.7,0-14.6,6.2-14.6,11.9c0,4.6,3.2,8.7,9.9,8.7s15.1-5,19.6-18.3
		C1088.6,341.2,1083.8,340.1,1079.1,340.1z M1101.1,315.3c-1.1,1.7-5,6.4-8.7,11c1.9,0.6,3.7,1,5.7,1.7c1.5-5.4,2.6-9.7,3.5-12.3
		L1101.1,315.3z"/>
</g>
<g class="st4">
	<path class="st0" d="M73.1,64.3h-0.2c-7.3,11.8-16.3,21.2-29.1,21.2c-14.5,0-21.5-10-21.5-20.3c0-11,7.3-22.5,21.5-22.5
		c3.4,0,6.1,1,8.3,2.5c-0.4-0.8-0.6-1.7-0.6-2.7c0-13.3,19.1-22,37-22c1,0,2.1,0.1,3.1,0.2c3.5-2.2,7.2-3.6,11-3.6
		c5,0,8.8,2.3,8.8,3.1c0,0.3-0.2,0.4-0.7,0.4c-0.7,0-2-0.2-3.3-0.2c-2.6,0-5.1,0.7-7.3,2.1c8.5,3.1,13,9.9,13,17.1
		C113,51.4,100.6,64.3,73.1,64.3z M86,24.4c-12-0.1-27.5,6.4-27.5,15.2c0,1.4,1.1,2.6,3,2.6c3.2,0,5-3.2,5-5c0-1.1,0.2-1.4,0.7-1.4
		c0.5,0,0.8,0.4,0.8,1.4c0,8.2-5.1,11.8-9.6,11.8c-1.2,0-2.3-0.2-3.3-0.7c1.8,2.5,2.7,5.7,2.7,8.9c0,7.5-4.6,15.2-12.6,15.2
		c-1.9,0-3.4-0.6-3.4-1.1c0-0.4,1.2-0.3,3.4-1.7c1.5-1.1,5.9-6.2,5.9-13.7c0-5-3.1-9.4-8.5-9.4c-8.5,0-13.3,9.1-13.3,17.5
		c0,7.2,4.5,13.9,12.7,13.9c13.8,0,21.9-20,28.4-32.1c3.8-6.9,9.5-15.4,16.2-21.2L86,24.4z M95.3,26.2C89.7,32,84.9,41.6,79.7,52
		c-1.2,2.4-2.4,4.8-3.7,7.1c18.2-0.4,26.6-12.1,26.6-21.8C102.6,32.6,100.2,28.5,95.3,26.2z"/>
	<path class="st0" d="M115.3,69.8c-0.7,2.5-1.2,4.7-1.2,6.7c0,1.6,1.5,2.9,3.2,2.9c7.8,0,17.9-17.2,18.8-17.2c0.9,0,1.1,1.8,1.1,2.7
		c0,2.9-12.8,20.1-23.5,20.1c-4.9,0-9.7-5.2-9.7-9.1c0-13.2,22.5-53.2,38.4-53.2c3.2,0,5.8,1.9,5.8,3.2
		C148.2,29.4,129.5,62.1,115.3,69.8z M141.5,29.7c-1.2,0-14.9,16.6-22.5,31.4c8.9-7.3,22.7-29.6,22.7-31.1
		C141.7,29.7,141.5,29.7,141.5,29.7z"/>
	<path class="st0" d="M161.6,84.6c-5.8,0-7.1-6.9-7.3-6.9c-0.2,0-6.3,7.6-13.1,7.6c-4.5,0-9-3.7-9-11.1c0-12.1,14.4-31.3,27.9-31.3
		c6.7,0,7.3,5.7,7.5,5.7c0.4,0,4.8-5.4,6.3-5.4s1.4,0.2,2.4,0.5c0.8,0.2,2.1,0.3,2.1,1.5c0,4.5-14.5,25-14.5,30.1
		c0,0.8,0.4,1.4,1.2,1.4c5.3,0,14-14.6,14.8-14.6c0.7,0,1.1,1.4,1.1,3C180.8,66.7,168.8,84.6,161.6,84.6z M158.8,47.5
		c-6.7,0-16.4,17.3-16.4,25.4c0,2.6,0.9,4.1,2.6,4.1c2.1,0,7.9-4,7.9-5.5c0-0.7-1.7-0.8-2.4-0.8V70c2.1-0.6,11.6-10.3,11.6-17.9
		C162.2,49.5,160.8,47.5,158.8,47.5z"/>
	<path class="st0" d="M205.4,75.3c-6.3,14.1-11.6,30.6-15.9,36.3c-4.2,5.6-11,9-17.2,9c-9.6,0-15.4-7-15.4-14.8
		c0-10.9,7.9-17.3,14.9-17.3c5.4,0,10.1,3.9,10.1,12.3c0,1.4-0.4,2.4-1,2.4c-0.2,0-0.2-0.2-0.2-0.3s0-0.5,0-0.7
		c0-1.9-3.1-4.7-7.1-4.7c-7.3,0-11.6,4.7-11.6,9.4c0,5.4,4.5,8.5,8.8,8.5c11,0,13.5-14,16.3-22.4c2.9-8.3,4.9-12.4,5.9-14.5
		l-0.2-0.2c-3,3.2-7.4,7.1-11.9,7.1c-3.6,0-6.1-3.6-6.1-10.2c0-3.6,3.1-10.2,6.4-16.6c4-7.7,9-15.1,12.3-15.1c2.1,0,5.9,0.2,5.9,2.6
		c0,1.2-4.4,6.3-9.1,15.6c-2.9,5.8-5.2,11.6-5.2,14.8c0,0.9,0.3,1.4,1.2,1.4c2.2,0,10.4-7.8,12.5-11.4c2.1-3.7,4.3-8.8,7.3-14
		c3-5.3,5.6-9.7,8.2-9.7c1.9,0,5.5,0.9,5.5,2.9C219.7,49.5,211.7,61.2,205.4,75.3z"/>
	<path class="st0" d="M247.3,76.6c-7.1,14.8-15.5,35.6-30.1,35.6c-7.4,0-13.6-4.3-13.6-11c0-8.1,7.3-14.2,13.8-14.2
		c3.8,0,5.9,2.4,5.9,4.9c0,2.6-2.1,4.4-2.4,4.4c-0.2,0-0.2-0.1-0.2-0.2c0-0.2,0-0.4,0-0.7c0-1-1.7-1.7-4-1.7c-5,0-8.3,3.6-8.3,6.7
		c0,3.5,2.6,5.4,5.6,5.4c6.9,0,12-9.2,14.5-14.1c2.6-4.9,4.5-10.3,4.6-11.1c-2.6,3.1-5.5,4.3-8.3,4.3c-5.4,0-10-5.3-10-11.9
		c0-16.2,17.4-30.4,28.1-30.4c4,0,6.9,2,7.8,6.5c0.4-0.5,3.3-4.5,4.2-5c0.7-0.4,1.8-0.5,2.9-0.5h1c1.2,0,3.6,0.7,3.6,1.8
		C262.5,47.4,254.3,61.9,247.3,76.6z M243.5,48.5c-7.6,0-18.2,16.7-18.2,23.9c0,2.5,1.2,4.6,3.5,4.6c5.8,0,17.6-19.6,17.6-24.3
		C246.4,50.2,245.7,48.5,243.5,48.5z"/>
	<path class="st0" d="M273.7,85c-5.2,0-9.2-3.1-9.2-9c0-8.1,11.1-23,11.1-23.2c0-0.2-2.7-1.3-4.1-1.3c-0.3,0-0.6,0.1-0.7,0.2
		c-4,6.6-8.1,12.6-11,16.8c-0.2,0.4-0.6,0.7-0.9,0.7c-0.7,0-1.2-1-1.2-2.5c0-0.6,0.5-1.4,0.7-1.8c1.1-1.6,3.2-4.8,5.5-9.5
		c2.5-5,3-8.5,4.5-12.2c1.7-4.1,2.9-5,5.6-5c1.2,0,1.9,0.7,1.9,2.1c0,1.7-0.8,2.3-0.8,2.6c0,0.3,0.5,0.6,1.8,0.6
		c3.9,0,8.5-0.7,9.7-0.7c2.3,0,5.4,4.5,5.4,6.4c0,1.5-2.6,2.8-4.4,4.9c-3.1,3.4-11.6,15.4-11.6,21.8c0,0.6,0.3,1.2,1.2,1.2
		c2.1,0,5.8-3.2,8.6-6.7c3.1-3.8,5.8-7.9,6.2-7.9c0.7,0,1.1,1.5,1.1,3C293,67.1,280.9,85,273.7,85z"/>
	<path class="st0" d="M332,65.6c-4.2,8.3-11.1,11.8-16.3,11.8c-0.2,0-0.4,0-0.7,0c-4.3,4.7-9.3,8-14.7,8c-6.9,0-11.6-3.9-11.6-11.8
		c0-12.1,12.1-30.8,25.4-30.8c2.4,0,4.4,1.1,6.7,1.1c3.9,0,5.4,3.3,5.4,6.6c0,5.9-2.4,13.5-6.3,20.1c0.5,0.2,0.9,0.3,1.4,0.3
		c4.8,0,8.3-8.2,9.5-8.2c0.7,0,1.2,1.1,1.2,2.1C332.1,65.2,332,65.4,332,65.6z M317.7,48.5c-6.5,0-17,14.3-17,24.1
		c0,2.8,1,4.8,3.6,4.8c1.5,0,3-0.7,4.5-1.7c-2.1-1.2-3.3-3.2-3.3-5.3c0-2.9,2-5.5,5.5-5.5c2,0,3.6,1,4.9,2.1c3-5.2,5-11,5-14.3
		C320.7,50.6,320.1,48.5,317.7,48.5z"/>
	<path class="st0" d="M352.9,85.1c-4,0-7.6-3.1-7.6-7.3c0-0.8,0-1.1,0.1-1.6c-1.3,1.9-7.7,9-11.5,9c-3.7,0-7.5-4.8-7.5-9.5
		c0-10.1,12.9-30.9,17.1-32.6c0.3-0.1,1.2-0.2,2.1-0.2c2.1,0,5,0.4,5,1.8c0,0.2-0.1,0.4-0.2,0.7c-1.7,3.3-14.1,24.9-14.1,30.6
		c0,1.2,0.5,1.7,1.2,1.7c1.9,0,8.7-7.4,13.4-15.4c4.1-6.9,9.5-19.2,11.3-19.2c4,0,7.1,1.4,7.1,2.9c0,2.2-1.3,4.3-2.4,6.5
		c-1.2,2.2-10.5,19.1-10.5,22.6c0,1,0.2,1.7,2,1.7c4.2,0,13.3-14.8,14-14.8c0.8,0,1.1,1.4,1.1,2.8C373.3,67.3,361,85.1,352.9,85.1z"
		/>
	<path class="st0" d="M393.1,85.1c-3.9,0-7.6-3.1-7.6-7.3c0-9.4,8.7-22.8,10.8-25.8l-0.3-0.2c-4.5,4.4-13.5,14.4-18.1,21.4
		c-4.5,6.9-6.2,11.8-7.9,11.8c-1.7,0-5.3-2.5-5.3-5.5c0-3.9,15.8-36.9,19.4-36.9c1.2,0,5.7,1.1,5.7,3.4c0,2.1-2.8,8.2-3.2,9.6
		l0.1,0.1c1.5-1.5,10.9-12.5,15.4-12.5c3.1,0,7,2.1,7,3.6c0,2.2-1,3.6-2.1,5.9c-1.1,2.2-10.4,19.1-10.4,22.6c0,1,0.2,1.7,1.9,1.7
		c4.3,0,13.3-14.8,14-14.8s1.1,1.4,1.1,2.8C413.6,67.3,401.2,85.1,393.1,85.1z"/>
	<path class="st0" d="M440.2,75.4c0,0.8,0.4,1.4,1.2,1.4c5.3,0,14-14.6,14.7-14.6c0.8,0,1.2,1.4,1.2,3c0,1.6-12.1,19.4-19.3,19.4
		c-5.3,0-8.2-3.9-8.9-6.9c-1.2,1.8-6,7.6-11.3,7.6c-4.5,0-9-3.7-9-11.1c0-12.1,14.4-31.3,27.9-31.3c4.7,0,5.7,5,5.8,5.7
		c2.2-4,12.6-25.9,14.2-25.9c3.3,0,5.5,3.8,5.5,6.5C462.2,32.5,440.2,68.6,440.2,75.4z M435,47.9c-7,0-15.9,17.4-15.9,25.4
		c0,2.3,0.8,3.7,2.6,3.7c4.7,0,16.7-21.3,16.7-23.4C438.3,49.4,436.7,47.9,435,47.9z"/>
	<path class="st0" d="M486.5,56.5c-0.4,2.1-0.9,4.5-1.6,7.3c0.7,0.2,1.4,0.3,1.9,0.3c1.7,0,2.1-1.1,2.2-1.1c0.4,0,0.5,0.1,0.5,0.4
		v0.2c0.1,4.8-3.1,7.6-6.3,7.6c-0.2,0-0.5,0-0.7,0c-4,10-12.2,14.4-19.4,14.4c-7.2,0-13.3-4.4-13.3-12c0-6.9,5.7-14.5,14.4-14.5
		c1.2,0,2.3,0.1,3.5,0.2c2.4-2.7,5.4-6.4,7.9-10.3c4.5-6.9,11.1-10.7,14.2-10.7c2.1,0,3.6,0.7,3.6,1.9
		C493.6,42.1,488.1,49.4,486.5,56.5z M464.2,68c-5.5,0-8.3,3.6-8.3,6.8c0,2.6,1.8,5,5.5,5c3.8,0,8.5-2.8,11.1-10.3
		C469.5,68.6,466.8,68,464.2,68z M476.6,53.9c-0.7,0.9-2.8,3.6-5,6.2c1.1,0.3,2.1,0.6,3.2,0.9c0.8-3.1,1.5-5.5,2-6.9L476.6,53.9z"/>
</g>
<text transform="matrix(1 0 0 1 64.2015 -167.5999)" class="st0" style="font-family:'CornerStoreJF'; font-size:82.5787px;">Seasons</text>
<rect x="94.6" y="-214.9" class="st3" width="330" height="57.9"/>
<g class="st4">
	<path class="st5" d="M1016.6,421.5c-7.9,0-15.3-1.8-21.7-5c-12,12.6-21.2,26.9-21.2,38.3c0,6.7,4.8,10.8,11.6,10.8
		c18.4,0,30.8-17.4,30.8-26c0-2.5-1.7-3.9-4.2-3.9c-4.2,0-10.1,4.7-11.2,11.1c-0.2,0.8-0.1,1.2-0.6,1.2s-1.6-2.4-1.6-4.9
		c0-7.1,6.2-15,15.8-15c7.1,0,10.2,4.1,10.2,9.9c0,14-18.2,37.8-43.3,37.8c-13.5,0-23.9-9-23.9-22c0-15.4,11.2-32.3,26.6-46
		c-5.3-6-8.4-13.6-8.4-22.6c0-6.9,5-13,6.6-13c0.2,0,0.2,0,0.2,0.2c0,0.5-0.1,1.3-0.1,2.6c0,10.3,3.5,19.3,10.7,25.5
		c15.9-11.8,34.5-19.7,48.8-19.7c10.4,0,16.4,5,16.4,11.7C1058,405.1,1040.8,421.5,1016.6,421.5z M1040.8,386.6
		c-8.1,0-22.6,8.6-36.1,20.6c4.4,1.4,9.6,2.2,15.4,2.2c16.5,0,28.7-9.2,28.7-16.4C1048.8,388.6,1045.4,386.6,1040.8,386.6z"/>
	<path class="st5" d="M1051,452.4c-1.1,3.6-1.8,6.8-1.8,9.7c0,2.3,2.2,4.2,4.7,4.2c11.4,0,26-24.9,27.3-24.9c1.3,0,1.6,2.6,1.6,3.9
		c0,4.2-18.5,29.2-34,29.2c-7.1,0-14-7.5-14-13.2c0-19.1,32.6-77.1,55.6-77.1c4.7,0,8.4,2.8,8.4,4.7
		C1098.8,393.9,1071.6,441.3,1051,452.4z M1089,394.2c-1.8,0-21.5,24.1-32.6,45.5c12.9-10.5,32.9-43,32.9-45.1
		C1089.3,394.4,1089.1,394.2,1089,394.2z"/>
	<path class="st5" d="M1113,474.5c-5.7,0-11-4.4-11-10.7c0-1.2,0-1.6,0.1-2.3c-1.9,2.8-11.1,13-16.6,13c-5.4,0-10.9-6.9-10.9-13.8
		c0-14.6,18.7-44.8,24.8-47.3c0.5-0.1,1.7-0.2,3.1-0.2c3,0,7.2,0.6,7.2,2.6c0,0.2-0.1,0.6-0.4,1c-2.5,4.8-20.5,36.1-20.5,44.4
		c0,1.8,0.7,2.5,1.7,2.5c2.8,0,12.6-10.8,19.4-22.4c6-9.9,13.8-27.8,16.4-27.8c5.9,0,10.3,2,10.3,4.2c0,3.2-1.9,6.2-3.5,9.5
		c-1.7,3.2-15.2,27.6-15.2,32.8c0,1.4,0.4,2.5,2.9,2.5c6.1,0,19.3-21.4,20.2-21.4c1.2,0,1.6,2,1.6,4.1
		C1142.6,448.8,1124.8,474.5,1113,474.5z"/>
	<path class="st5" d="M1151.8,474.4c-8.1,0-16.3-4.1-16.3-19.6c0-5.4,8.9-21.2,18.2-36.7c10.2-17,19.7-33.5,25.6-33.5
		c3.2,0,8,2.3,8,3.9c0,1.6-5.5,9.2-8.6,14.4c-3.2,5.3-7.7,13-7.7,13.5l0.2,0.1c3.1-1.7,6.2-2.5,8.9-2.5c6.6,0,11.2,4.8,11.2,14.2
		C1191.4,446.1,1175,474.4,1151.8,474.4z M1174.4,420.6c-4.2,0-7.8,4.5-9.6,6.5c-1.8,2-17.1,30.6-17.1,35.9c0,2,1.2,3.7,4.2,3.7
		c9.5,0,27.2-28.4,27.2-40.5C1179.1,423.9,1177.5,420.6,1174.4,420.6z"/>
</g>
<g class="st4">
	<path class="st0" d="M-293.9-195.4c-1.4,3.2-2.7,6.7-3.9,10.5c-3.9,12.6-9.9,25-24.9,25c-12.2,0-17.6-9-17.6-18.6
		c0-3.4,0.7-6.9,2.1-10c-0.4-0.6-0.6-1.4-0.6-2.4c0-2.7,1.8-4.5,4.6-4.5c0.3,0,0.6,0,0.8,0.1c3-2.8,6.9-4.7,11.5-4.7
		c5.6,0,8.5,3,9.3,8.2c3.7-0.8,7.1-1.9,10.2-3.2c4.7-8.5,10.5-15.8,20.3-15.8c2.6,0,3.7,1.2,3.7,2.2
		C-278.3-204.7-285-199.7-293.9-195.4z M-312.5-188.4c-0.3,6.6-7,15.3-11.5,15.3c-2.1,0-5.8-1.6-5.8-2c0-0.3,1.2-0.3,2.1-0.8
		c0.6-0.3,4.5-4.1,5.7-10.3c-2.6,0.4-5.2,0.6-7.4,0.6c-1.9,0-3.6-0.1-5-0.5c-0.8,2.1-1.3,4.2-1.3,6.3c0,7.4,4.3,12.2,10,12.2
		c10.5,0,15.4-12,21.1-23.3C-307.1-190-309.8-189.1-312.5-188.4z M-324.8-195.8c-1.7,0-3.6,1.2-5.4,3c1.1,1.2,2.4,2.4,4.5,2.4
		c1.4,0,2.8-0.1,4.2-0.1C-321.5-194.2-322.7-195.8-324.8-195.8z M-275.4-221.3c-3.6,2.4-6.6,7.4-9.2,7.4c-2.2,0-2.6-5.3-3.8-7.4
		c-1.5-2.5-4.5-4.4-4.5-4.8c0-0.8,1.1-1.4,1.8-1.4c3.8,0,7.2,3.6,8.9,6.8c3.4-2.7,9.3-6.8,13.8-6.8c0.5,0,1,0.3,1,0.8
		C-267.4-225.1-272.4-223.2-275.4-221.3z M-284.9-207.2c-1.8,0-4.1,2.6-6.5,6.7c4.5-2.8,7-5.4,7-6.3
		C-284.4-207-284.6-207.2-284.9-207.2z"/>
	<path class="st0" d="M-287.8-160.1c-3.3,0-5.3-3.7-5.3-7.4c0-7.9,10-24.2,13.4-25.5c0.3-0.1,0.9-0.1,1.6-0.1c1.7,0,3.9,0.3,3.9,1.4
		c0,0.1,0,0.3-0.1,0.5c-1.4,2.6-11.1,19.5-11.1,24c0,1,0.4,1.4,0.8,1.4c4,0,11.5-12.2,12.1-12.2c0.7,0,0.8,1.5,0.8,2.4
		C-271.7-174.6-281.2-160.1-287.8-160.1z M-278.8-196.5c-0.8,0-1.4-0.6-1.4-1.1c0-1,3.7-1.7,6.5-4.7c2.3-2.5,3.1-7.8,5.6-7.8
		c1.6,0,3.9,1.5,3.9,3.6C-264.2-202.5-275-196.5-278.8-196.5z"/>
	<path class="st0" d="M-263.8-160c-3,0-5.9-2.5-7.2-5.2c-5.9,12-10.7,20.9-12.8,20.9c-1.4,0-3.7-2.3-3.7-3.9
		c0-1.7,5.1-11.1,11.8-23.9c6.8-12.8,11.6-22.9,13.1-22.9c2.1,0,4.5,1.2,4.5,2.1c0,0.6-0.4,1.7-1.2,3.5c2.7-2,5.7-3.7,8.5-3.7
		c3.9,0,5.9,2.5,5.9,7.5C-244.8-176.1-254.9-160-263.8-160z M-254.2-188.8c-1.7,0-4.9,2.5-7.6,4.8c-1.5,3.2-3.5,7.2-5.9,12.1
		c0.6,3,1.9,5.9,3.6,5.9c3.6,0,11.8-16.7,11.8-20.6C-252.3-187.8-252.9-188.8-254.2-188.8z"/>
	<path class="st0" d="M-228.5-159.9c-4.1,0-6.9-3.3-6.9-7c0-4.7,1.9-8.8,2.9-10.8l-0.2-0.2c-2.5,2.4-6.5,7.9-8.7,11.9
		c-2.1,3.9-2.2,6-3,6c-1.4,0-4.8-2.3-4.8-5s5.8-13.3,10.5-22c4.7-8.6,11.2-20.2,13.9-20.2c1.4,0,3.9,0.8,3.9,2.5
		c0,2.6-2,5.8-4.6,9.8c-2.5,4.1-5,8.7-5.6,9.8l0.3,0.1c2-1.9,9.4-8.2,15.8-8.2c2.6,0,4.6,1.4,4.6,3.9c0,4.2-6,12.2-11.2,12.2
		c-1.6,0-2.1-0.6-2.4-0.6c-0.2,0-3.6,9.1-3.6,11.6c0,1,0.6,1.8,2,1.8c7.6,0,15.3-13.7,16.1-13.7c0.5,0,0.8,1.4,0.8,2.3
		C-208.5-175.2-216.8-159.9-228.5-159.9z M-216.1-190.7c-1,0-9.6,5.4-9.6,6.2c0,0.3,0.8,1,2,1c1.9,0,8-5,8-6.8
		C-215.7-190.6-215.9-190.7-216.1-190.7z"/>
	<path class="st0" d="M-189.4-160.6c-4.5,0-5.6-5.4-5.8-5.4s-4.9,5.9-10.3,5.9c-3.6,0-7-2.9-7-8.7c0-9.5,11.2-24.5,21.8-24.5
		c5.2,0,5.7,4.5,5.9,4.5c0.3,0,3.7-4.2,4.9-4.2s1.1,0.2,1.9,0.4c0.6,0.1,1.6,0.3,1.6,1.2c0,3.6-11.4,19.6-11.4,23.6
		c0,0.6,0.3,1.1,1,1.1c4.1,0,10.9-11.4,11.6-11.4c0.6,0,0.8,1.1,0.8,2.3C-174.4-174.5-183.8-160.6-189.4-160.6z M-191.6-189.6
		c-5.2,0-12.8,13.5-12.8,19.8c0,2.1,0.7,3.2,2,3.2c1.7,0,6.2-3.1,6.2-4.3c0-0.5-1.4-0.6-1.9-0.6v-0.5c1.7-0.5,9.1-8.1,9.1-14
		C-189-188-190.1-189.6-191.6-189.6z"/>
	<path class="st6" d="M-164.9-160.2c-4.1,0-7.2-2.4-7.2-7c0-6.3,8.7-18,8.7-18.2c0-0.1-2.1-1-3.2-1c-0.3,0-0.5,0.1-0.5,0.2
		c-3.2,5.2-6.3,9.9-8.6,13.1c-0.2,0.3-0.5,0.5-0.7,0.5c-0.6,0-1-0.8-1-1.9c0-0.5,0.4-1.1,0.6-1.4c0.8-1.2,2.5-3.7,4.3-7.4
		c1.9-3.9,2.3-6.7,3.6-9.6c1.3-3.2,2.3-3.9,4.4-3.9c1,0,1.5,0.6,1.5,1.7c0,1.3-0.6,1.8-0.6,2c0,0.3,0.4,0.5,1.4,0.5
		c3,0,6.7-0.5,7.6-0.5c1.8,0,4.2,3.6,4.2,5c0,1.2-2,2.2-3.4,3.8c-2.5,2.6-9.1,12-9.1,17.1c0,0.5,0.3,1,0.9,1c1.6,0,4.5-2.5,6.7-5.2
		c2.5-3,4.5-6.2,4.8-6.2c0.6,0,0.8,1.2,0.8,2.3C-149.8-174.3-159.3-160.2-164.9-160.2z"/>
	<path class="st6" d="M-145.4-159.9c-4.4,0-7.8-4.5-7.8-9.8c0-8.2,9.7-22.9,18.4-22.9c2.3,0,3.6-0.7,4.9-0.7c2.1,0,4,2.4,4,4.9
		c0,4.8-7.2,13.3-17.6,13.3c-0.2,0-0.4,0-0.6-0.1c-0.8,1.9-1.4,3.7-1.4,5.3c0,2.8,1,4.7,3.4,4.7c8.6,0,15.7-12.8,16.5-12.8
		c0.7,0,0.8,1.2,0.8,2.1C-124.8-173.6-134.7-159.9-145.4-159.9z M-131.9-189.5c-2.3,0-7.4,5.4-10.6,11.1c5.1-1.1,11.8-6.3,11.8-10
		C-130.7-189.1-131.1-189.5-131.9-189.5z"/>
	<path class="st6" d="M-109.2-160.2c-3,0-5.9-2.4-5.9-5.8c0-7.4,6.8-17.8,8.5-20.2l-0.3-0.1c-3.6,3.4-10.5,11.2-14.2,16.7
		c-3.6,5.4-4.8,9.2-6.2,9.2c-1.3,0-4.1-1.9-4.1-4.3c0-3,12.3-28.9,15.2-28.9c1,0,4.5,0.8,4.5,2.7c0,1.6-2.2,6.4-2.5,7.5l0.1,0.1
		c1.2-1.2,8.5-9.8,12.1-9.8c2.4,0,5.5,1.6,5.5,2.8c0,1.7-0.8,2.8-1.7,4.6c-0.8,1.7-8.1,14.9-8.1,17.7c0,0.8,0.2,1.4,1.5,1.4
		c3.4,0,10.4-11.6,11-11.6s0.8,1.1,0.8,2.2C-93.2-174.1-102.9-160.2-109.2-160.2z M-98-201.9c-3,2-5.6,6.2-7.8,6.2
		c-1.8,0-2.1-4.5-3.2-6.2c-1.3-2.1-3.8-3.7-3.8-4c0-0.7,1-1.2,1.6-1.2c3.2,0,6.1,3,7.5,5.7c2.8-2.3,7.8-5.7,11.6-5.7
		c0.4,0,0.9,0.2,0.9,0.6C-91.3-205.2-95.6-203.5-98-201.9z"/>
</g>
<circle class="st0" cx="887.6" cy="-150.5" r="37.5"/>
<circle class="st1" cx="887.6" cy="-150.5" r="28.5"/>
<circle class="st0" cx="887.6" cy="-150.5" r="20"/>
<circle class="st1" cx="887.6" cy="-150.5" r="10"/>
</svg>
