<?xml version="1.0" encoding="utf-8"?>
<!-- Generator: Adobe Illustrator 27.9.0, SVG Export Plug-In . SVG Version: 6.00 Build 0)  -->
<svg version="1.1" id="Layer_1" xmlns="http://www.w3.org/2000/svg" xmlns:xlink="http://www.w3.org/1999/xlink" x="0px" y="0px"
	 viewBox="0 0 432 194.3" style="enable-background:new 0 0 432 194.3;" xml:space="preserve">
<style type="text/css">
	.st0{fill:#B52828;}
	.st1{fill:#BFB5AC;}
	.st2{fill:#C92F2F;}
	.st3{fill:none;}
	.st4{enable-background:new    ;}
	.st5{fill:#6E7A18;}
	.st6{fill:#36482E;}
</style>
<g>
	<path class="st0" d="M1179.4-204.7c-3,6.8-5.8,14.3-8.3,22.3c-8.3,26.9-21.1,53.3-53.1,53.3c-25.9,0-37.6-19.3-37.6-39.5
		c0-7.3,1.5-14.6,4.5-21.4c-0.8-1.4-1.4-3-1.4-5.1c0-5.7,3.9-9.6,9.8-9.6c0.7,0,1.2,0,1.8,0.1c6.3-6.1,14.6-9.9,24.5-9.9
		c11.9,0,18.2,6.3,19.8,17.5c7.9-1.8,15.2-4.1,21.8-6.8c10.1-18.2,22.3-33.8,43.3-33.8c5.5,0,8,2.6,8,4.7
		C1212.6-224.6,1198.4-214,1179.4-204.7z M1139.8-189.8c-0.7,14.1-15,32.7-24.5,32.7c-4.5,0-12.3-3.4-12.3-4.3
		c0-0.7,2.6-0.7,4.5-1.7c1.4-0.7,9.5-8.7,12.1-22c-5.6,0.8-11,1.4-15.7,1.4c-4,0-7.6-0.3-10.6-1.1c-1.8,4.4-2.8,9-2.8,13.5
		c0,15.7,9.2,25.9,21.2,25.9c22.5,0,32.8-25.6,45.1-49.7C1151.3-193.3,1145.5-191.4,1139.8-189.8z M1113.5-205.6
		c-3.6,0-7.7,2.5-11.4,6.5c2.3,2.6,5.1,5.1,9.5,5.1c3,0,6.1-0.1,9-0.3C1120.5-202.1,1117.9-205.6,1113.5-205.6z M1218.9-259.8
		c-7.7,5.1-14.1,15.7-19.7,15.7c-4.7,0-5.5-11.3-8.1-15.7c-3.2-5.2-9.5-9.4-9.5-10.2c0-1.8,2.3-2.9,3.9-2.9
		c8.1,0,15.3,7.7,18.9,14.5c7.2-5.8,19.8-14.5,29.4-14.5c1,0,2.2,0.6,2.2,1.7C1235.9-268,1225.1-264,1218.9-259.8z M1198.5-229.9
		c-3.9,0-8.8,5.5-13.8,14.2c9.5-6.1,14.9-11.6,14.9-13.4C1199.6-229.5,1199.2-229.9,1198.5-229.9z"/>
	<path class="st0" d="M1192.3-129.5c-7,0-11.3-8-11.3-15.8c0-16.8,21.4-51.5,28.5-54.4c0.6-0.1,1.9-0.3,3.4-0.3c3.6,0,8.3,0.7,8.3,3
		c0,0.3,0,0.7-0.3,1.1c-3,5.5-23.6,41.6-23.6,51.1c0,2.1,0.8,2.9,1.8,2.9c8.5,0,24.5-26,25.8-26c1.5,0,1.7,3.2,1.7,5.1
		C1226.7-160.4,1206.5-129.5,1192.3-129.5z M1211.5-207.1c-1.8,0-2.9-1.2-2.9-2.3c0-2.2,8-3.6,13.8-9.9c5-5.4,6.6-16.7,12-16.7
		c3.4,0,8.4,3.2,8.4,7.7C1242.8-219.9,1219.8-207.1,1211.5-207.1z"/>
	<path class="st0" d="M1243.5-129.2c-6.3,0-12.7-5.4-15.3-11.2c-12.5,25.6-22.7,44.5-27.3,44.5c-3,0-8-4.8-8-8.4
		c0-3.7,10.9-23.7,25.2-51c14.5-27.3,24.8-48.8,28-48.8c4.4,0,9.6,2.5,9.6,4.5c0,1.2-0.8,3.7-2.5,7.4c5.8-4.3,12.1-8,18.1-8
		c8.3,0,12.7,5.4,12.7,16C1284-163.5,1262.5-129.2,1243.5-129.2z M1264-190.7c-3.6,0-10.5,5.2-16.3,10.2
		c-3.2,6.8-7.4,15.3-12.5,25.8c1.4,6.5,4.1,12.7,7.7,12.7c7.6,0,25.2-35.6,25.2-43.8C1268.1-188.6,1266.7-190.7,1264-190.7z"/>
	<path class="st0" d="M1318.8-129.1c-8.8,0-14.6-7-14.6-15c0-9.9,4-18.7,6.2-23l-0.4-0.4c-5.4,5.1-13.9,16.8-18.5,25.4
		c-4.4,8.4-4.7,12.8-6.5,12.8c-3,0-10.2-5-10.2-10.6s12.3-28.4,22.5-46.9c10.1-18.3,23.8-43.1,29.6-43.1c2.9,0,8.3,1.8,8.3,5.4
		c0,5.5-4.3,12.3-9.8,20.9c-5.4,8.8-10.7,18.6-11.9,20.8l0.7,0.1c4.3-4,20-17.5,33.8-17.5c5.5,0,9.8,2.9,9.8,8.3c0,9-12.8,26-24,26
		c-3.3,0-4.5-1.4-5.1-1.4c-0.4,0-7.7,19.4-7.7,24.8c0,2.1,1.2,3.9,4.3,3.9c16.3,0,32.7-29.2,34.3-29.2c1.1,0,1.8,3,1.8,4.8
		C1361.4-161.7,1343.6-129.1,1318.8-129.1z M1345.2-194.7c-2.1,0-20.4,11.4-20.4,13.2c0,0.7,1.8,2.1,4.3,2.1
		c4.1,0,16.9-10.6,16.9-14.5C1346-194.4,1345.7-194.7,1345.2-194.7z"/>
	<path class="st0" d="M1402.1-130.5c-9.6,0-11.9-11.4-12.3-11.4s-10.5,12.7-21.9,12.7c-7.6,0-15-6.2-15-18.5
		c0-20.3,24-52.2,46.6-52.2c11.2,0,12.1,9.5,12.5,9.5c0.7,0,8-9,10.5-9s2.3,0.4,4,0.8c1.4,0.3,3.4,0.6,3.4,2.5
		c0,7.6-24.3,41.8-24.3,50.3c0,1.4,0.7,2.3,2.1,2.3c8.8,0,23.3-24.4,24.7-24.4c1.2,0,1.8,2.3,1.8,5S1414.1-130.5,1402.1-130.5z
		 M1397.4-192.3c-11.2,0-27.3,28.8-27.3,42.3c0,4.4,1.5,6.9,4.3,6.9c3.6,0,13.2-6.6,13.2-9.2c0-1.1-2.9-1.4-4-1.4v-1.1
		c3.6-1,19.4-17.2,19.4-29.9C1403-189,1400.7-192.3,1397.4-192.3z"/>
	<path class="st1" d="M1454.4-129.8c-8.7,0-15.4-5.1-15.4-15c0-13.5,18.6-38.3,18.6-38.7c0-0.3-4.5-2.2-6.9-2.2
		c-0.6,0-1,0.1-1.1,0.4c-6.8,11-13.5,21.1-18.3,28c-0.4,0.7-1,1.1-1.5,1.1c-1.2,0-2.1-1.7-2.1-4.1c0-1,0.8-2.3,1.2-3
		c1.8-2.6,5.4-8,9.1-15.8c4.1-8.3,5-14.2,7.6-20.4c2.8-6.9,4.8-8.3,9.4-8.3c2.1,0,3.2,1.2,3.2,3.6c0,2.8-1.4,3.9-1.4,4.3
		c0,0.6,0.8,1,3,1c6.5,0,14.2-1.1,16.1-1.1c3.9,0,9,7.6,9,10.7c0,2.5-4.3,4.7-7.3,8.1c-5.2,5.6-19.4,25.6-19.4,36.4
		c0,1,0.6,2.1,1.9,2.1c3.4,0,9.6-5.4,14.3-11.2c5.2-6.3,9.6-13.2,10.3-13.2c1.2,0,1.8,2.5,1.8,5
		C1486.5-159.7,1466.4-129.8,1454.4-129.8z"/>
	<path class="st1" d="M1495.9-128.9c-9.4,0-16.7-9.5-16.7-20.8c0-17.5,20.7-48.9,39.1-48.9c5,0,7.6-1.5,10.5-1.5
		c4.4,0,8.5,5.1,8.5,10.5c0,10.3-15.3,28.2-37.5,28.2c-0.4,0-0.8,0-1.2-0.1c-1.8,4.1-2.9,8-2.9,11.3c0,6.1,2.2,9.9,7.3,9.9
		c18.3,0,33.5-27.3,35.1-27.3c1.5,0,1.7,2.5,1.7,4.5C1539.9-158.1,1518.8-128.9,1495.9-128.9z M1524.7-192.2
		c-4.8,0-15.7,11.6-22.6,23.7c10.9-2.3,25.1-13.5,25.1-21.4C1527.2-191.4,1526.4-192.2,1524.7-192.2z"/>
	<path class="st1" d="M1573.1-129.6c-6.5,0-12.7-5.1-12.7-12.3c0-15.7,14.5-38,18.1-43l-0.6-0.3c-7.6,7.3-22.5,24-30.2,35.7
		c-7.6,11.6-10.3,19.7-13.2,19.7c-2.8,0-8.8-4.1-8.8-9.2c0-6.5,26.3-61.6,32.4-61.6c2.1,0,9.5,1.8,9.5,5.7c0,3.4-4.7,13.6-5.4,16
		l0.1,0.1c2.5-2.5,18.2-20.8,25.8-20.8c5.1,0,11.7,3.4,11.7,5.9c0,3.7-1.7,6.1-3.6,9.8c-1.8,3.7-17.4,31.8-17.4,37.8
		c0,1.7,0.4,2.9,3.2,2.9c7.2,0,22.2-24.7,23.4-24.7s1.8,2.3,1.8,4.7C1607.2-159.3,1586.6-129.6,1573.1-129.6z M1596.9-218.6
		c-6.5,4.3-11.9,13.2-16.7,13.2c-3.9,0-4.5-9.5-6.8-13.2c-2.8-4.4-8.1-7.9-8.1-8.5c0-1.5,2.1-2.5,3.3-2.5c6.9,0,13,6.5,16,12.1
		c6.1-4.8,16.7-12.1,24.7-12.1c0.8,0,1.9,0.4,1.9,1.4C1611.2-225.5,1602.1-222.1,1596.9-218.6z"/>
</g>
<g>
	<path class="st0" d="M1129.2,171.6c-14.9,0-21.8-10.6-27.4-21.6c-10.9,11.3-23.7,20.4-37.2,20.4c-9.4,0-16.5-7.3-16.5-17.6
		c0-18.9,16.3-38.6,37.5-38.6c8.1,0,13.8,3,18.1,7.6c3.2-4.4,6.2-9,9.1-13.4c9.9-15,22.7-28.9,35.7-38.2c-3.3-0.7-7-1-11.2-1
		c-25.9,0-49.5,17.1-49.5,27.4c0,1.4,1.7,2.6,3.6,2.6c12.8,0,24.3-17.5,26.5-21.5c0.3-0.4,0.6-0.7,0.8-0.7c0.3,0,0.6,0.6,0.6,1.1
		c0,23.3-16.1,33.9-28.4,33.9c-7.6,0-13.6-4-13.6-11.6c0-13.6,27.4-37.5,64.9-37.5c5.4,0,10.5,0.6,15,1.8c6.6-3.6,13.1-5.5,19-5.5
		c3.9,0,6.2,1.2,6.2,1.7c0,0.8-0.7,0.8-3.6,0.8c-4.3,0-8.8,2.2-13.4,6.1c13.1,6.2,21.2,18.9,21.2,38.4
		C1186.5,136.8,1161.3,171.6,1129.2,171.6z M1078.8,124.6c-13.2,0-24.3,10.9-24.3,23.4c0,6.2,4,10.1,9,10.1
		c8.4,0,19.3-10.1,30.3-23.6C1090.1,128.7,1085.6,124.6,1078.8,124.6z M1158.1,74.7c-11.7,13.1-23.3,32.9-31.7,44.4
		c-3.7,5.1-8.3,11.4-13.5,18.1c4.7,9.9,8.7,19.4,18.3,19.4c22.2,0,35.6-31.3,35.6-55.9C1166.8,89.4,1163.9,79.7,1158.1,74.7z"/>
	<path class="st0" d="M1230.9,170.1c-9.6,0-11.9-11.4-12.3-11.4s-10.5,12.7-21.9,12.7c-7.6,0-15-6.2-15-18.5
		c0-20.3,24-52.2,46.6-52.2c11.2,0,12.1,9.5,12.5,9.5c0.7,0,8-9,10.5-9s2.3,0.4,4,0.8c1.4,0.3,3.4,0.6,3.4,2.5
		c0,7.6-24.3,41.8-24.3,50.3c0,1.4,0.7,2.3,2.1,2.3c8.8,0,23.3-24.4,24.7-24.4c1.2,0,1.8,2.3,1.8,5S1242.9,170.1,1230.9,170.1z
		 M1226.2,108.2c-11.2,0-27.3,28.8-27.3,42.3c0,4.4,1.5,6.9,4.3,6.9c3.6,0,13.2-6.6,13.2-9.2c0-1.1-2.9-1.4-4-1.4v-1.1
		c3.6-1,19.4-17.2,19.4-29.9C1231.8,111.5,1229.5,108.2,1226.2,108.2z"/>
	<path class="st2" d="M1283.2,170.7c-8.7,0-15.4-5.1-15.4-15c0-13.5,18.6-38.3,18.6-38.7c0-0.3-4.5-2.2-6.9-2.2
		c-0.6,0-1,0.1-1.1,0.4c-6.8,11-13.5,21.1-18.3,28c-0.4,0.7-1,1.1-1.5,1.1c-1.2,0-2.1-1.7-2.1-4.1c0-1,0.8-2.3,1.2-3
		c1.8-2.6,5.4-8,9.1-15.8c4.1-8.3,5-14.2,7.6-20.4c2.8-6.9,4.8-8.3,9.4-8.3c2.1,0,3.2,1.2,3.2,3.6c0,2.8-1.4,3.9-1.4,4.3
		c0,0.6,0.8,1,3,1c6.5,0,14.2-1.1,16.1-1.1c3.9,0,9,7.6,9,10.7c0,2.5-4.3,4.7-7.3,8.1c-5.2,5.6-19.4,25.6-19.4,36.4
		c0,1,0.6,2.1,1.9,2.1c3.4,0,9.6-5.4,14.3-11.2c5.2-6.3,9.6-13.2,10.3-13.2c1.2,0,1.8,2.5,1.8,5
		C1315.3,140.8,1295.2,170.7,1283.2,170.7z"/>
	<path class="st2" d="M1352.1,107.2c-1.8,0-1.4,0.1-7.3,0.1c-10.2,19-20.7,37.8-20.7,44.2c0,4.5,3,5.5,5,5.5
		c8.8,0,23.4-24.4,24.7-24.4s1.8,2.3,1.8,5s-20.5,33.2-32.5,33.2c-9,0-19.2-5.1-19.2-13.1c0-9.6,14.7-35.1,21.6-48l1.7-3
		c-2.8-0.3-7-1.1-7-4.5c0-2.3,0-4.7,0.3-5.6c0.1-0.7,0.4-1,1.4-1c0.7,0,2.6,0.1,4.3,0.1c1.9,0,6.1-0.8,7.3-0.8
		c6.1-11.3,12.8-23.2,14.5-23.2c6.3,0,10.2,5.9,10.2,9c0,1.7-2.1,5.8-7,15h7.4c2.6,0,3.9,0.8,3.9,2.1
		C1362.3,102.8,1356.3,107.2,1352.1,107.2z"/>
	<path class="st2" d="M1404.5,123.2c-0.7,3.4-1.5,7.6-2.6,12.1c1.2,0.4,2.3,0.6,3.2,0.6c2.9,0,3.4-1.8,3.7-1.8
		c0.7,0,0.8,0.1,0.8,0.7v0.3c0.1,8-5.2,12.7-10.5,12.7c-0.4,0-0.8,0-1.1,0c-6.8,16.7-20.4,24-32.4,24s-22.2-7.3-22.2-20
		c0-11.6,9.5-24.1,24-24.1c1.9,0,3.9,0.1,5.8,0.4c4-4.5,9-10.7,13.2-17.2c7.6-11.4,18.5-17.9,23.7-17.9c3.4,0,6.1,1.2,6.1,3.2
		C1416.2,99.2,1407.1,111.3,1404.5,123.2z M1367.2,142.4c-9.1,0-13.8,5.9-13.8,11.3c0,4.3,3,8.3,9.2,8.3c6.3,0,14.2-4.7,18.5-17.2
		C1376.1,143.5,1371.6,142.4,1367.2,142.4z M1388,118.9c-1.1,1.5-4.7,6.1-8.3,10.3c1.8,0.6,3.6,1,5.4,1.5c1.4-5.1,2.5-9.1,3.3-11.6
		L1388,118.9z"/>
	<path class="st1" d="M1480.1,109.8c-9.1,0-17.6-2.1-24.9-5.8c-13.8,14.5-24.4,31-24.4,44.1c0,7.7,5.5,12.4,13.4,12.4
		c21.2,0,35.4-20,35.4-29.9c0-2.9-1.9-4.5-4.8-4.5c-4.8,0-11.6,5.4-13,12.8c-0.3,1-0.1,1.4-0.7,1.4s-1.8-2.8-1.8-5.6
		c0-8.1,7.2-17.2,18.2-17.2c8.1,0,11.7,4.7,11.7,11.4c0,16.1-20.9,43.5-49.9,43.5c-15.6,0-27.6-10.3-27.6-25.4
		c0-17.8,13-37.2,30.6-52.9c-6.1-6.9-9.6-15.7-9.6-26c0-8,5.8-15,7.6-15c0.3,0,0.3,0,0.3,0.3c0,0.6-0.1,1.5-0.1,3
		c0,11.9,4,22.2,12.3,29.4c18.3-13.6,39.7-22.7,56.2-22.7c12,0,18.9,5.8,18.9,13.5C1527.8,91,1508,109.8,1480.1,109.8z M1508,69.6
		c-9.4,0-26,9.9-41.6,23.7c5.1,1.7,11,2.5,17.8,2.5c19,0,33.1-10.6,33.1-18.9C1517.2,71.9,1513.4,69.6,1508,69.6z"/>
	<path class="st1" d="M1519.8,145.4c-1.2,4.1-2.1,7.9-2.1,11.2c0,2.6,2.5,4.8,5.4,4.8c13.1,0,29.9-28.7,31.4-28.7s1.8,3,1.8,4.5
		c0,4.8-21.4,33.6-39.1,33.6c-8.1,0-16.1-8.7-16.1-15.2c0-22,37.5-88.7,64.1-88.7c5.4,0,9.6,3.2,9.6,5.4
		C1574.8,78,1543.5,132.6,1519.8,145.4z M1563.5,78.4c-2.1,0-24.8,27.7-37.5,52.4c14.9-12.1,37.9-49.5,37.9-52
		C1563.9,78.6,1563.7,78.4,1563.5,78.4z"/>
	<path class="st1" d="M1591.2,170.9c-6.6,0-12.7-5.1-12.7-12.3c0-1.4,0-1.8,0.1-2.6c-2.2,3.2-12.8,15-19.2,15
		c-6.2,0-12.5-8-12.5-15.8c0-16.8,21.5-51.5,28.5-54.4c0.6-0.1,1.9-0.3,3.6-0.3c3.4,0,8.3,0.7,8.3,3c0,0.3-0.1,0.7-0.4,1.1
		c-2.9,5.5-23.6,41.6-23.6,51.1c0,2.1,0.8,2.9,1.9,2.9c3.2,0,14.5-12.4,22.3-25.8c6.9-11.4,15.8-32,18.9-32c6.8,0,11.9,2.3,11.9,4.8
		c0,3.7-2.2,7.2-4,10.9c-1.9,3.7-17.5,31.8-17.5,37.8c0,1.7,0.4,2.9,3.3,2.9c7,0,22.2-24.7,23.3-24.7c1.4,0,1.8,2.3,1.8,4.7
		C1625.2,141.3,1604.7,170.9,1591.2,170.9z"/>
	<path class="st1" d="M1635.9,170.7c-9.4,0-18.7-4.7-18.7-22.6c0-6.2,10.2-24.4,20.9-42.3c11.7-19.6,22.7-38.6,29.5-38.6
		c3.7,0,9.2,2.6,9.2,4.5c0,1.8-6.3,10.6-9.9,16.5c-3.7,6.1-8.8,15-8.8,15.6l0.3,0.1c3.6-1.9,7.2-2.9,10.2-2.9c7.6,0,13,5.5,13,16.4
		C1681.5,138.1,1662.6,170.7,1635.9,170.7z M1661.9,108.7c-4.8,0-9,5.2-11,7.4c-2.1,2.3-19.7,35.3-19.7,41.3c0,2.3,1.4,4.3,4.8,4.3
		c10.9,0,31.3-32.7,31.3-46.6C1667.3,112.6,1665.5,108.7,1661.9,108.7z"/>
</g>
<rect x="565.2" y="90.1" class="st3" width="330" height="57.9"/>
<g class="st4">
	<path class="st0" d="M748.2,371c-15.8,0-23-11.2-29.1-22.9c-11.5,11.9-25.1,21.6-39.5,21.6c-10,0-17.5-7.8-17.5-18.7
		c0-20,17.2-40.9,39.8-40.9c8.6,0,14.6,3.2,19.1,8c3.3-4.7,6.5-9.4,9.7-14.2c10.5-16,24.1-30.7,37.9-40.5c-3.5-0.7-7.5-1-11.8-1
		c-27.5,0-52.4,18.2-52.4,29.1c0,1.5,1.8,2.8,3.7,2.8c13.6,0,25.7-18.6,28-22.8c0.3-0.4,0.6-0.7,0.8-0.7c0.3,0,0.6,0.6,0.6,1.1
		c0,24.7-17.1,35.9-30.1,35.9c-8,0-14.4-4.3-14.4-12.3c0-14.4,29.1-39.8,68.8-39.8c5.7,0,11.1,0.6,16,1.9c7.1-3.7,13.9-5.8,20.1-5.8
		c4.2,0,6.5,1.2,6.5,1.8c0,0.8-0.7,0.8-3.7,0.8c-4.6,0-9.3,2.4-14.2,6.4c13.9,6.5,22.5,20,22.5,40.8
		C809.1,334.3,782.3,371,748.2,371z M694.7,321.2c-14,0-25.7,11.5-25.7,24.8c0,6.5,4.3,10.7,9.4,10.7c8.9,0,20.5-10.7,32.2-25
		C706.7,325.7,702,321.2,694.7,321.2z M779,268.4c-12.5,13.9-24.7,35-33.6,47c-3.9,5.4-8.7,12.1-14.3,19.1
		c5,10.5,9.2,20.7,19.4,20.7c23.6,0,37.7-33.2,37.7-59.4C788.1,283.9,785.1,273.5,779,268.4z"/>
	<path class="st0" d="M856.1,369.5c-10.3,0-12.6-12.1-13-12.1s-11.1,13.5-23.3,13.5c-8,0-16-6.5-16-19.6c0-21.5,25.4-55.4,49.4-55.4
		c11.8,0,12.9,10.1,13.3,10.1c0.7,0,8.5-9.4,11.1-9.4s2.5,0.4,4.3,0.8c1.5,0.3,3.6,0.6,3.6,2.6c0,8-25.7,44.3-25.7,53.4
		c0,1.5,0.7,2.5,2.2,2.5c9.3,0,24.7-25.9,26.2-25.9c1.2,0,1.9,2.5,1.9,5.3C890.2,337.9,868.9,369.5,856.1,369.5z M851.1,303.9
		c-11.8,0-29,30.5-29,45c0,4.7,1.7,7.4,4.6,7.4c3.7,0,14-7.1,14-9.9c0-1.1-3.1-1.5-4.3-1.5v-1.1c3.7-1,20.7-18.3,20.7-31.8
		C857.1,307.4,854.7,303.9,851.1,303.9z"/>
	<path class="st0" d="M911.6,370.2c-9.2,0-16.4-5.4-16.4-16c0-14.3,19.7-40.7,19.7-41.1c0-0.3-4.9-2.4-7.4-2.4c-0.6,0-1,0.1-1.1,0.4
		c-7.2,11.7-14.3,22.3-19.4,29.7c-0.4,0.7-1,1.1-1.7,1.1c-1.2,0-2.2-1.8-2.2-4.4c0-1,0.8-2.5,1.2-3.2c1.9-2.8,5.7-8.5,9.7-16.8
		c4.4-8.7,5.3-15.1,8-21.6c2.9-7.4,5.1-8.7,10-8.7c2.2,0,3.3,1.2,3.3,3.7c0,2.9-1.5,4.2-1.5,4.6c0,0.6,0.8,1,3.2,1
		c6.9,0,15.1-1.1,17.1-1.1c4.2,0,9.4,8,9.4,11.4c0,2.6-4.6,5-7.8,8.6c-5.5,6-20.7,27.2-20.7,38.6c0,1,0.6,2.2,2.1,2.2
		c3.6,0,10.3-5.7,15.3-11.8c5.5-6.7,10.3-14,11-14c1.2,0,1.9,2.6,1.9,5.3C945.7,338.4,924.4,370.2,911.6,370.2z"/>
	<path class="st0" d="M984.7,302.8c-1.9,0-1.5,0.1-7.8,0.1C966.1,323,955,343,955,349.8c0,4.9,3.2,5.8,5.3,5.8
		c9.3,0,24.8-25.9,26.2-25.9c1.2,0,1.9,2.5,1.9,5.3s-21.8,35.2-34.5,35.2c-9.4,0-20.3-5.4-20.3-13.9c0-10.3,15.7-37.3,22.9-50.9
		l1.8-3.2c-2.9-0.3-7.5-1.1-7.5-4.9c0-2.5,0-5,0.3-6c0.1-0.7,0.4-1,1.5-1c0.7,0,2.8,0.1,4.6,0.1c2.1,0,6.4-0.8,7.8-0.8
		c6.4-11.9,13.6-24.6,15.4-24.6c6.7,0,10.8,6.2,10.8,9.4c0,1.8-2.2,6.1-7.5,16h7.9c2.8,0,4.2,0.8,4.2,2.2
		C995.5,298.2,989.2,302.8,984.7,302.8z"/>
	<path class="st0" d="M1040.4,319.7c-0.7,3.6-1.7,8-2.8,12.9c1.2,0.4,2.5,0.6,3.3,0.6c3.1,0,3.6-1.9,3.9-1.9c0.7,0,0.8,0.1,0.8,0.7
		v0.3c0.1,8.5-5.5,13.5-11.1,13.5c-0.4,0-0.8,0-1.1,0c-7.2,17.8-21.6,25.4-34.4,25.4s-23.6-7.8-23.6-21.2
		c0-12.3,10.1-25.5,25.4-25.5c2.1,0,4,0.1,6.1,0.4c4.3-4.9,9.4-11.4,14-18.3c8.3-11.9,19.8-18.7,25.4-18.7c3.6,0,6.4,1.2,6.4,3.3
		C1052.7,294.3,1043.1,307.2,1040.4,319.7z M1000.7,340.1c-9.7,0-14.6,6.2-14.6,11.9c0,4.6,3.2,8.7,9.9,8.7s15.1-5,19.6-18.3
		C1010.2,341.2,1005.4,340.1,1000.7,340.1z M1022.7,315.3c-1.1,1.7-5,6.4-8.7,11c1.9,0.6,3.7,1,5.7,1.7c1.5-5.4,2.6-9.7,3.5-12.3
		L1022.7,315.3z"/>
</g>
<g class="st4">
	<path class="st0" d="M-484.4,624.3c-16.2,0-23.6-11.6-29.8-23.6c-11.8,12.3-25.8,22.1-40.5,22.1c-10.2,0-18-8-18-19.2
		c0-20.5,17.6-41.9,40.8-41.9c8.9,0,15.1,3.3,19.6,8.2c3.4-4.7,6.7-9.8,10-14.5c10.7-16.3,24.7-31.4,38.8-41.6
		c-3.6-0.7-7.6-1.1-12.2-1.1c-28.1,0-53.7,18.5-53.7,29.8c0,1.5,1.8,2.9,3.8,2.9c14,0,26.3-19.1,28.9-23.4c0.4-0.4,0.5-0.7,0.9-0.7
		s0.5,0.5,0.5,1.3c0,25.4-17.6,36.9-30.9,36.9c-8.2,0-14.9-4.4-14.9-12.5c0-14.9,29.8-40.8,70.6-40.8c5.8,0,11.4,0.5,16.3,2
		c7.3-3.8,14.2-6,20.7-6c4.2,0,6.7,1.3,6.7,1.8c0,0.9-0.7,0.9-3.8,0.9c-4.7,0-9.6,2.4-14.5,6.5c14.2,6.7,23.1,20.5,23.1,41.8
		C-422,586.5-449.6,624.3-484.4,624.3z M-539.3,573.1c-14.3,0-26.3,11.8-26.3,25.4c0,6.7,4.4,10.9,9.8,10.9c9.1,0,21.1-10.9,33-25.6
		C-527.1,577.6-531.8,573.1-539.3,573.1z M-453,518.8c-12.7,14.2-25.4,35.8-34.5,48.3c-4,5.6-9.1,12.5-14.7,19.6
		c5.1,10.7,9.4,21.1,20,21.1c24.1,0,38.7-33.9,38.7-60.8C-443.6,535-446.7,524.3-453,518.8z"/>
	<path class="st0" d="M-377.9,623.6c-7.3,0-13.8-5.6-13.8-13.3c0-1.5,0-2,0.2-2.9c-2.4,3.4-14,16.3-20.9,16.3
		c-6.7,0-13.6-8.7-13.6-17.2c0-18.3,23.4-56.1,31-59.2c0.5-0.2,2.2-0.4,3.8-0.4c3.8,0,9.1,0.7,9.1,3.3c0,0.4-0.2,0.7-0.4,1.3
		c-3.1,6-25.6,45.2-25.6,55.5c0,2.2,0.9,3.1,2.2,3.1c3.4,0,15.8-13.4,24.3-28c7.4-12.5,17.2-34.9,20.5-34.9c7.3,0,12.9,2.5,12.9,5.3
		c0,4-2.4,7.8-4.4,11.8c-2.2,4-19.1,34.7-19.1,41c0,1.8,0.4,3.1,3.6,3.1c7.6,0,24.1-26.9,25.4-26.9c1.5,0,2,2.5,2,5.1
		C-340.8,591.2-363.2,623.6-377.9,623.6z"/>
	<path class="st0" d="M-330.9,624.3c-10.2,0-18.2-10.3-18.2-22.7c0-19.1,22.5-53.2,42.7-53.2c5.4,0,8.2-1.6,11.4-1.6
		c4.7,0,9.3,5.6,9.3,11.4c0,11.3-16.7,30.7-40.8,30.7c-0.4,0-0.9,0-1.3-0.2c-2,4.5-3.1,8.7-3.1,12.3c0,6.5,2.4,10.7,8,10.7
		c20,0,36.5-29.8,38.3-29.8c1.6,0,1.8,2.7,1.8,4.9C-283.1,592.5-306,624.3-330.9,624.3z M-299.6,555.5c-5.3,0-17.1,12.5-24.5,25.8
		c11.8-2.5,27.2-14.7,27.2-23.2C-296.9,556.4-297.8,555.5-299.6,555.5z"/>
	<path class="st0" d="M-272.4,595.8c-1.3,4.5-2.2,8.5-2.2,12.2c0,2.9,2.7,5.3,5.8,5.3c14.2,0,32.5-31.2,34.1-31.2s2,3.3,2,4.9
		c0,5.3-23.2,36.5-42.7,36.5c-8.9,0-17.6-9.4-17.6-16.5c0-24,40.8-96.6,69.7-96.6c5.8,0,10.5,3.4,10.5,5.8
		C-212.7,522.4-246.6,581.8-272.4,595.8z M-225,523c-2.2,0-27,30.1-40.8,57c16.2-13.3,41.2-53.7,41.2-56.5
		C-224.5,523-224.9,523-225,523z"/>
	<path class="st0" d="M-179.5,571.6c-0.7,3.8-1.6,8.2-2.9,13.3c1.3,0.4,2.5,0.5,3.4,0.5c3.1,0,3.8-2,4-2c0.7,0,0.9,0.2,0.9,0.7v0.4
		c0.2,8.7-5.6,13.8-11.4,13.8c-0.4,0-0.9,0-1.3,0c-7.3,18.2-22.1,26.1-35.2,26.1c-13.1,0-24.1-8-24.1-21.8
		c0-12.5,10.3-26.3,26.1-26.3c2.2,0,4.2,0.2,6.4,0.4c4.4-4.9,9.8-11.6,14.3-18.7c8.2-12.5,20.1-19.4,25.8-19.4
		c3.8,0,6.5,1.3,6.5,3.4C-166.8,545.5-176.7,558.7-179.5,571.6z M-220.1,592.5c-10,0-15.1,6.5-15.1,12.3c0,4.7,3.3,9.1,10,9.1
		c6.9,0,15.4-5.1,20.1-18.7C-210.5,593.6-215.4,592.5-220.1,592.5z M-197.4,566.9c-1.3,1.6-5.1,6.5-9.1,11.3c2,0.5,3.8,1.1,5.8,1.6
		c1.5-5.6,2.7-10,3.6-12.5L-197.4,566.9z"/>
</g>
<g class="st4">
	<path class="st0" d="M30.7,243.3c-2.5,0-4.9-0.5-7.2-1.4c-1.9,2.4-3.1,4.7-3.1,6.5c0,2.5,1.9,4.3,4.4,4.3s3.9-1.3,6.2-1.3
		c1.3,0,2.5,0.9,2.5,2.2c0,3.6-6.5,3.5-14,6s-14,9.8-14,16.5c0,4.8,3.1,7.2,7.1,7.2c7.3,0,14.5-6.7,14.5-11.7c0-1.7-1-2.8-2.6-2.8
		c-5.1,0-7.4,5.3-7.7,6.6c-0.1,0.5-0.1,1.1-0.3,1.1c-0.3,0-0.6-0.5-0.6-2c0-6.6,4.8-11.7,10.4-11.7c3.7,0,6.1,3,6.1,6.1
		c0,8.8-10.9,19-24.2,19c-8.6,0-14.1-6.3-14.1-12.2c0-11.7,14.2-18.5,19.5-19.1v-0.4c-2-0.9-4.7-3-4.7-6.7c0-4.9,2.7-9.1,6.7-12.4
		c-3.9-3.6-6.5-7.9-6.5-11c0-2.2,1.3-3.7,1.5-3.7c0.4,0,3.4,6.6,10.2,11.2c6.5-3.5,14.3-5.4,20.1-5.4c4.9,0,8.4,1.8,8.4,4.7
		C49.4,237,41.9,243.3,30.7,243.3z M42.6,231.4c-4.7,0-9.9,2.5-14.1,5.6c2.1,0.6,4.4,0.9,6.9,0.9c6.5,0,9.8-2.8,9.8-4.8
		C45.2,232.2,44.3,231.4,42.6,231.4z"/>
	<path class="st0" d="M62.1,275c0,0.7,0.4,1.2,1.1,1.2c4.5,0,11.9-12.4,12.5-12.4c0.7,0,1,1.2,1,2.5s-10.3,16.5-16.4,16.5
		c-4.5,0-7-3.3-7.6-5.8c-1,1.5-5.1,6.5-9.6,6.5c-3.9,0-7.7-3.2-7.7-9.4c0-10.3,12.2-26.6,23.8-26.6c4,0,4.8,4.2,4.9,4.8
		c1.9-3.4,10.7-22.1,12.1-22.1c2.8,0,4.7,3.2,4.7,5.6C80.8,238.5,62.1,269.3,62.1,275z M57.7,251.6c-6,0-13.6,14.8-13.6,21.6
		c0,2,0.7,3.2,2.2,3.2c4,0,14.2-18.1,14.2-19.9C60.5,252.9,59.1,251.6,57.7,251.6z"/>
	<path class="st0" d="M77.7,283.3c-3.5,0-5.8-4.1-5.8-8.1c0-8.6,11-26.3,14.5-27.8c0.3-0.1,1-0.1,1.8-0.1c1.8,0,4.2,0.4,4.2,1.5
		c0,0.1-0.1,0.4-0.2,0.6c-1.5,2.8-12,21.2-12,26.1c0,1.1,0.4,1.5,1,1.5c4.4,0,12.4-13.3,13.1-13.3c0.8,0,0.8,1.6,0.8,2.6
		C95.2,267.6,85,283.3,77.7,283.3z M94.9,243.2c-3.3,0-6.2-2.4-6.2-5.8c0-3.7,3.3-6.5,6.8-6.5c3.3,0,6.2,2.4,6.2,5.8
		C101.7,240.4,98.4,243.2,94.9,243.2z"/>
	<path class="st0" d="M113.8,250.8c-0.9,0-0.7,0.1-3.7,0.1c-5.2,9.7-10.5,19.3-10.5,22.6c0,2.3,1.5,2.8,2.5,2.8
		c4.5,0,11.9-12.4,12.6-12.4s0.9,1.2,0.9,2.5s-10.5,16.9-16.6,16.9c-4.6,0-9.8-2.6-9.8-6.7c0-4.9,7.5-17.9,11-24.5l0.8-1.5
		c-1.4-0.1-3.6-0.6-3.6-2.3c0-1.2,0-2.4,0.1-2.9c0.1-0.4,0.2-0.5,0.7-0.5c0.4,0,1.3,0.1,2.2,0.1c1,0,3.1-0.4,3.7-0.4
		c3.1-5.8,6.5-11.8,7.4-11.8c3.2,0,5.2,3,5.2,4.6c0,0.8-1.1,3-3.6,7.7h3.8c1.3,0,2,0.4,2,1.1C119,248.5,115.9,250.8,113.8,250.8z"/>
	<path class="st0" d="M182.5,245c-1.5,3.4-3,7.3-4.2,11.4c-4.2,13.7-10.8,27.2-27.1,27.2c-13.2,0-19.2-9.8-19.2-20.2
		c0-3.7,0.8-7.4,2.3-10.9c-0.4-0.7-0.7-1.5-0.7-2.6c0-2.9,2-4.9,5-4.9c0.4,0,0.6,0,0.9,0.1c3.2-3.1,7.4-5.1,12.5-5.1
		c6,0,9.3,3.2,10.1,8.9c4-0.9,7.7-2.1,11.1-3.4c5.1-9.3,11.4-17.2,22.1-17.2c2.8,0,4.1,1.3,4.1,2.4
		C199.4,234.8,192.2,240.3,182.5,245z M162.3,252.6c-0.4,7.2-7.7,16.7-12.5,16.7c-2.3,0-6.3-1.8-6.3-2.2c0-0.4,1.3-0.4,2.3-0.8
		c0.7-0.4,4.8-4.4,6.2-11.2c-2.9,0.4-5.6,0.7-8,0.7c-2,0-3.9-0.1-5.4-0.6c-0.9,2.2-1.4,4.6-1.4,6.9c0,8,4.7,13.2,10.8,13.2
		c11.5,0,16.7-13.1,23-25.4C168.1,250.8,165.2,251.8,162.3,252.6z M148.9,244.5c-1.8,0-3.9,1.3-5.8,3.3c1.2,1.3,2.6,2.6,4.8,2.6
		c1.5,0,3.1-0.1,4.6-0.1C152.5,246.3,151.1,244.5,148.9,244.5z M192.2,232.1c-2,0-4.5,2.8-7,7.2c4.8-3.1,7.6-5.9,7.6-6.8
		C192.8,232.3,192.6,232.1,192.2,232.1z"/>
	<path class="st0" d="M187.5,283.6c-4.8,0-8.5-4.8-8.5-10.6c0-8.9,10.5-24.9,20-24.9c2.5,0,3.9-0.8,5.3-0.8c2.2,0,4.4,2.6,4.4,5.3
		c0,5.3-7.8,14.4-19.1,14.4c-0.2,0-0.4,0-0.6-0.1c-0.9,2.1-1.5,4.1-1.5,5.8c0,3.1,1.1,5.1,3.7,5.1c9.3,0,17.1-13.9,17.9-13.9
		c0.8,0,0.8,1.3,0.8,2.3C209.9,268.7,199.2,283.6,187.5,283.6z M202.2,251.4c-2.5,0-8,5.9-11.5,12.1c5.6-1.2,12.8-6.9,12.8-10.9
		C203.5,251.8,203.1,251.4,202.2,251.4z"/>
	<path class="st0" d="M230.8,282.8c-4.9,0-6-5.8-6.3-5.8c-0.2,0-5.3,6.5-11.2,6.5c-3.9,0-7.7-3.2-7.7-9.4
		c0-10.3,12.2-26.6,23.8-26.6c5.7,0,6.2,4.8,6.4,4.8c0.4,0,4.1-4.6,5.3-4.6s1.2,0.2,2,0.4c0.7,0.1,1.8,0.3,1.8,1.3
		c0,3.9-12.4,21.3-12.4,25.6c0,0.7,0.4,1.2,1.1,1.2c4.5,0,11.9-12.4,12.6-12.4c0.6,0,0.9,1.2,0.9,2.5
		C247.2,267.7,236.9,282.8,230.8,282.8z M228.4,251.3c-5.7,0-13.9,14.7-13.9,21.6c0,2.2,0.8,3.5,2.2,3.5c1.8,0,6.7-3.4,6.7-4.7
		c0-0.6-1.5-0.7-2-0.7v-0.6c1.8-0.5,9.9-8.8,9.9-15.2C231.3,253,230.1,251.3,228.4,251.3z"/>
	<path class="st0" d="M272.1,258.9c-0.4,1.8-0.8,3.9-1.3,6.2c0.6,0.2,1.2,0.3,1.6,0.3c1.5,0,1.8-0.9,1.9-0.9c0.4,0,0.4,0.1,0.4,0.4
		v0.1c0.1,4.1-2.7,6.5-5.3,6.5c-0.2,0-0.4,0-0.6,0c-3.4,8.5-10.4,12.2-16.5,12.2S241,280,241,273.5c0-5.9,4.8-12.3,12.2-12.3
		c1,0,2,0.1,3,0.2c2-2.3,4.6-5.5,6.7-8.8c3.9-5.8,9.4-9.1,12.1-9.1c1.8,0,3.1,0.6,3.1,1.6C278.1,246.7,273.5,252.9,272.1,258.9z
		 M253.1,268.7c-4.6,0-7,3-7,5.8c0,2.2,1.5,4.2,4.7,4.2s7.2-2.4,9.4-8.8C257.7,269.3,255.3,268.7,253.1,268.7z M263.7,256.8
		c-0.6,0.8-2.4,3.1-4.2,5.3c0.9,0.3,1.8,0.5,2.7,0.8c0.7-2.6,1.3-4.6,1.7-5.9L263.7,256.8z"/>
	<path class="st0" d="M311.8,266.7c-3.6,7.1-9.4,10-13.8,10c-0.2,0-0.4,0-0.6,0c-3.7,4-7.9,6.8-12.5,6.8c-5.9,0-9.8-3.3-9.8-10
		c0-10.3,10.3-26.2,21.6-26.2c2,0,3.7,0.9,5.7,0.9c3.3,0,4.6,2.8,4.6,5.6c0,5.1-2,11.5-5.3,17.1c0.4,0.1,0.8,0.3,1.2,0.3
		c4.1,0,7.1-7,8.1-7c0.6,0,1.1,0.9,1.1,1.8C312,266.3,311.9,266.5,311.8,266.7z M299.7,252.1c-5.6,0-14.5,12.2-14.5,20.5
		c0,2.4,0.8,4.1,3,4.1c1.3,0,2.5-0.6,3.8-1.5c-1.8-1.1-2.8-2.7-2.8-4.5c0-2.5,1.7-4.7,4.7-4.7c1.7,0,3,0.8,4.1,1.8
		c2.5-4.4,4.2-9.3,4.2-12.2C302.3,254,301.7,252.1,299.7,252.1z"/>
	<path class="st0" d="M328.8,283.3c-3.3,0-6.5-2.6-6.5-6.3c0-8,7.4-19.4,9.2-21.9l-0.3-0.1c-3.9,3.7-11.5,12.2-15.4,18.2
		c-3.9,5.9-5.3,10-6.7,10c-1.4,0-4.5-2.1-4.5-4.7c0-3.3,13.4-31.4,16.5-31.4c1.1,0,4.8,0.9,4.8,2.9c0,1.8-2.4,7-2.7,8.2l0.1,0.1
		c1.3-1.3,9.3-10.6,13.1-10.6c2.6,0,6,1.8,6,3c0,1.9-0.8,3.1-1.8,5c-0.9,1.9-8.9,16.2-8.9,19.3c0,0.8,0.2,1.5,1.6,1.5
		c3.7,0,11.3-12.6,11.9-12.6s0.9,1.2,0.9,2.4C346.2,268.2,335.7,283.3,328.8,283.3z"/>
</g>
<text transform="matrix(1 0 0 1 -19.2508 -227.5)" class="st0" style="font-family:'CornerStoreJF'; font-size:82.5787px;">Seasons</text>
<g class="st4">
	<path class="st0" d="M117.4,97.2h-0.2c-8.7,14.2-19.5,25.4-34.8,25.4c-17.3,0-25.7-12-25.7-24.4c0-13.2,8.7-26.9,25.7-26.9
		c4.1,0,7.3,1.2,9.9,3c-0.5-1-0.7-2.1-0.7-3.3c0-15.9,22.9-26.4,44.4-26.4c1.2,0,2.5,0.1,3.7,0.2c4.2-2.7,8.6-4.4,13.2-4.4
		c6,0,10.5,2.8,10.5,3.8c0,0.4-0.3,0.5-0.9,0.5c-0.9,0-2.4-0.2-4-0.2c-3.2,0-6.1,0.9-8.8,2.5c10.2,3.8,15.6,11.9,15.6,20.5
		C165.2,81.7,150.4,97.2,117.4,97.2z M132.9,49.3c-14.4-0.1-33,7.7-33,18.2c0,1.7,1.3,3.1,3.6,3.1c3.9,0,5.9-3.9,5.9-6
		c0-1.3,0.3-1.7,0.8-1.7c0.6,0,1,0.5,1,1.7c0,9.8-6.1,14.2-11.5,14.2c-1.4,0-2.8-0.3-4-0.8c2.2,3,3.3,6.8,3.3,10.7
		c0,9-5.5,18.2-15.1,18.2c-2.3,0-4.1-0.7-4.1-1.3c0-0.5,1.4-0.4,4.1-2.1c1.8-1.3,7.1-7.4,7.1-16.4c0-5.9-3.8-11.3-10.2-11.3
		c-10.2,0-15.9,10.9-15.9,21c0,8.6,5.4,16.6,15.2,16.6c16.5,0,26.2-24,34.1-38.5c4.6-8.3,11.4-18.4,19.4-25.4L132.9,49.3z
		 M144.1,51.5c-6.7,7-12.5,18.5-18.7,31c-1.4,2.9-2.9,5.7-4.5,8.5c21.8-0.5,31.9-14.6,31.9-26.1C152.8,59.2,150,54.3,144.1,51.5z"/>
	<path class="st0" d="M168,103.8c-0.9,3-1.5,5.6-1.5,8c0,1.9,1.8,3.5,3.9,3.5c9.4,0,21.5-20.6,22.6-20.6c1.1,0,1.3,2.2,1.3,3.3
		c0,3.5-15.3,24.2-28.1,24.2c-5.8,0-11.6-6.2-11.6-10.9c0-15.8,26.9-63.8,46-63.8c3.9,0,6.9,2.3,6.9,3.9
		C207.5,55.4,185,94.6,168,103.8z M199.4,55.7c-1.5,0-17.8,19.9-26.9,37.6c10.7-8.7,27.2-35.5,27.2-37.3
		C199.7,55.8,199.5,55.7,199.4,55.7z"/>
	<path class="st0" d="M223.5,121.5c-6.9,0-8.5-8.2-8.8-8.2c-0.3,0-7.5,9.1-15.7,9.1c-5.4,0-10.8-4.5-10.8-13.3
		c0-14.6,17.2-37.5,33.5-37.5c8,0,8.7,6.8,9,6.8c0.5,0,5.7-6.4,7.5-6.4c1.8,0,1.7,0.3,2.9,0.6c1,0.2,2.5,0.4,2.5,1.8
		c0,5.4-17.4,30-17.4,36.1c0,1,0.5,1.7,1.5,1.7c6.3,0,16.7-17.5,17.7-17.5c0.9,0,1.3,1.7,1.3,3.6
		C246.6,100.1,232.2,121.5,223.5,121.5z M220.2,77.1c-8,0-19.6,20.7-19.6,30.4c0,3.2,1.1,5,3.1,5c2.6,0,9.5-4.8,9.5-6.6
		c0-0.8-2.1-1-2.9-1V104c2.6-0.7,14-12.4,14-21.5C224.2,79.4,222.6,77.1,220.2,77.1z"/>
	<path class="st0" d="M276.1,110.4c-7.5,16.9-14,36.6-19.1,43.5c-5,6.7-13.2,10.8-20.6,10.8c-11.5,0-18.4-8.4-18.4-17.7
		c0-13.1,9.5-20.7,17.8-20.7c6.4,0,12.1,4.7,12.1,14.8c0,1.7-0.5,2.9-1.2,2.9c-0.3,0-0.3-0.2-0.3-0.4s0-0.6,0-0.9
		c0-2.3-3.7-5.6-8.5-5.6c-8.8,0-13.9,5.6-13.9,11.3c0,6.4,5.3,10.2,10.6,10.2c13.2,0,16.1-16.8,19.5-26.8c3.5-10,5.8-14.8,7.1-17.4
		L261,114c-3.6,3.9-8.8,8.5-14.3,8.5c-4.3,0-7.3-4.3-7.3-12.2c0-4.4,3.7-12.2,7.7-19.9c4.9-9.2,10.8-18.1,14.8-18.1
		c2.6,0,7.1,0.2,7.1,3.1c0,1.4-5.2,7.5-10.9,18.7c-3.5,6.9-6.2,13.9-6.2,17.7c0,1.1,0.4,1.7,1.4,1.7c2.7,0,12.5-9.3,14.9-13.7
		c2.5-4.5,5.1-10.6,8.7-16.8c3.6-6.3,6.7-11.7,9.8-11.7c2.3,0,6.5,1.1,6.5,3.5C293.2,79.4,283.6,93.5,276.1,110.4z"/>
	<path class="st0" d="M299.4,122.6c-6.7,0-12-6.8-12-14.9c0-12.6,14.8-35.1,28.1-35.1c3.6,0,5.4-1.1,7.5-1.1c3.2,0,6.1,3.7,6.1,7.5
		c0,7.4-11,20.3-26.9,20.3c-0.3,0-0.6,0-0.9-0.1c-1.3,3-2.1,5.7-2.1,8.1c0,4.4,1.6,7.1,5.2,7.1c13.2,0,24.1-19.6,25.2-19.6
		c1.1,0,1.2,1.8,1.2,3.3C331,101.6,315.8,122.6,299.4,122.6z M320.1,77.2c-3.5,0-11.3,8.3-16.2,17c7.8-1.7,18-9.7,18-15.3
		C321.9,77.7,321.3,77.2,320.1,77.2z"/>
	<path class="st0" d="M345.6,122c-6.2,0-11.1-3.7-11.1-10.8c0-9.7,13.4-27.5,13.4-27.8c0-0.2-3.3-1.6-5-1.6c-0.4,0-0.7,0.1-0.8,0.3
		c-4.9,7.9-9.7,15.1-13.2,20.1c-0.3,0.5-0.7,0.8-1.1,0.8c-0.9,0-1.5-1.2-1.5-3c0-0.7,0.6-1.7,0.9-2.2c1.3-1.9,3.9-5.7,6.5-11.4
		c3-5.9,3.6-10.2,5.4-14.7c2-4.9,3.5-5.9,6.7-5.9c1.5,0,2.3,0.9,2.3,2.6c0,2-1,2.8-1,3.1c0,0.4,0.6,0.7,2.2,0.7
		c4.7,0,10.2-0.8,11.6-0.8c2.8,0,6.4,5.4,6.4,7.7c0,1.8-3.1,3.4-5.2,5.8c-3.8,4.1-14,18.4-14,26.1c0,0.7,0.4,1.5,1.4,1.5
		c2.5,0,6.9-3.9,10.3-8c3.8-4.6,6.9-9.5,7.4-9.5c0.9,0,1.3,1.8,1.3,3.6C368.7,100.5,354.2,122,345.6,122z"/>
</g>
<g class="st4">
	<path class="st0" d="M-391.2,69.1c-2.5,5.6-4.8,11.8-6.8,18.4c-6.8,22.2-17.4,44-43.8,44c-21.4,0-31-15.9-31-32.6
		c0-6,1.2-12,3.7-17.6c-0.7-1.1-1.1-2.5-1.1-4.2c0-4.7,3.2-8,8.1-8c0.6,0,1,0,1.5,0.1c5.2-5,12-8.2,20.2-8.2c9.8,0,15,5.2,16.4,14.4
		c6.5-1.5,12.5-3.4,18-5.6c8.3-15,18.4-27.8,35.7-27.8c4.5,0,6.6,2.2,6.6,3.9C-363.9,52.7-375.5,61.5-391.2,69.1z M-423.9,81.4
		c-0.6,11.6-12.4,26.9-20.2,26.9c-3.7,0-10.1-2.8-10.1-3.5c0-0.6,2.2-0.6,3.7-1.4c1.1-0.6,7.8-7.2,10-18.2c-4.7,0.7-9.1,1.1-13,1.1
		c-3.3,0-6.2-0.2-8.7-0.9c-1.5,3.6-2.3,7.4-2.3,11.1c0,13,7.6,21.4,17.5,21.4c18.5,0,27-21.1,37.2-41
		C-414.5,78.5-419.2,80.1-423.9,81.4z M-445.6,68.4c-3,0-6.4,2-9.4,5.3c1.9,2.2,4.2,4.2,7.8,4.2c2.5,0,5-0.1,7.4-0.2
		C-439.8,71.3-442,68.4-445.6,68.4z M-375.5,48.3c-3.2,0-7.3,4.5-11.4,11.7c7.8-5,12.3-9.5,12.3-11
		C-374.5,48.7-374.9,48.3-375.5,48.3z"/>
	<path class="st0" d="M-375.7,131.4c-5.2,0-10.5-4.4-12.6-9.2c-10.3,21.1-18.7,36.7-22.5,36.7c-2.5,0-6.6-4-6.6-6.9
		c0-3.1,9-19.5,20.8-42c11.9-22.6,20.4-40.3,23-40.3c3.6,0,8,2,8,3.8c0,1-0.7,3.1-2,6.1c4.8-3.5,10-6.6,14.9-6.6
		c6.8,0,10.5,4.4,10.5,13.2C-342.2,103.1-360,131.4-375.7,131.4z M-358.8,80.7c-3,0-8.6,4.3-13.4,8.4c-2.6,5.6-6.2,12.6-10.4,21.3
		c1.1,5.3,3.4,10.5,6.4,10.5c6.2,0,20.8-29.3,20.8-36.1C-355.4,82.4-356.5,80.7-358.8,80.7z"/>
	<path class="st0" d="M-304,130.3c-8,0-9.8-9.4-10.1-9.4s-8.6,10.5-18.1,10.5c-6.2,0-12.4-5.1-12.4-15.2c0-16.7,19.8-43.1,38.4-43.1
		c9.2,0,10,7.8,10.3,7.8c0.6,0,6.6-7.4,8.6-7.4s1.9,0.3,3.3,0.7c1.1,0.2,2.8,0.5,2.8,2c0,6.2-20,34.4-20,41.5c0,1.1,0.6,1.9,1.7,1.9
		c7.3,0,19.2-20.1,20.3-20.1c1,0,1.5,1.9,1.5,4.1C-277.5,105.8-294.2,130.3-304,130.3z M-307.9,79.3c-9.2,0-22.5,23.7-22.5,34.9
		c0,3.6,1.2,5.7,3.5,5.7c3,0,10.9-5.5,10.9-7.6c0-0.9-2.4-1.1-3.3-1.1v-0.9c3-0.8,16-14.2,16-24.7
		C-303.2,82.1-305.2,79.3-307.9,79.3z"/>
	<path class="st0" d="M-260.9,130.9c-7.2,0-12.7-4.2-12.7-12.4c0-11.1,15.3-31.6,15.3-31.9c0-0.2-3.8-1.8-5.7-1.8
		c-0.5,0-0.8,0.1-0.9,0.3c-5.6,9.1-11.1,17.4-15.1,23.1c-0.3,0.6-0.8,0.9-1.2,0.9c-1,0-1.7-1.4-1.7-3.4c0-0.8,0.7-1.9,1-2.5
		c1.5-2.2,4.4-6.6,7.5-13.1c3.4-6.8,4.1-11.7,6.2-16.8c2.3-5.7,4-6.8,7.7-6.8c1.7,0,2.6,1,2.6,3c0,2.3-1.1,3.2-1.1,3.5
		c0,0.5,0.7,0.8,2.5,0.8c5.3,0,11.7-0.9,13.3-0.9c3.2,0,7.4,6.2,7.4,8.9c0,2-3.5,3.9-6,6.7c-4.3,4.7-16,21.1-16,30
		c0,0.8,0.5,1.7,1.6,1.7c2.8,0,8-4.4,11.8-9.2c4.3-5.2,8-10.9,8.5-10.9c1,0,1.5,2,1.5,4.1C-234.4,106.3-251,130.9-260.9,130.9z"/>
	<path class="st0" d="M-217.5,130.9c-7.2,0-12.7-4.2-12.7-12.4c0-11.1,15.3-31.6,15.3-31.9c0-0.2-3.8-1.8-5.7-1.8
		c-0.5,0-0.8,0.1-0.9,0.3c-5.6,9.1-11.1,17.4-15.1,23.1c-0.3,0.6-0.8,0.9-1.2,0.9c-1,0-1.7-1.4-1.7-3.4c0-0.8,0.7-1.9,1-2.5
		c1.5-2.2,4.4-6.6,7.5-13.1c3.4-6.8,4.1-11.7,6.2-16.8c2.3-5.7,4-6.8,7.7-6.8c1.7,0,2.6,1,2.6,3c0,2.3-1.1,3.2-1.1,3.5
		c0,0.5,0.7,0.8,2.5,0.8c5.3,0,11.7-0.9,13.3-0.9c3.2,0,7.4,6.2,7.4,8.9c0,2-3.5,3.9-6,6.7c-4.3,4.7-16,21.1-16,30
		c0,0.8,0.5,1.7,1.6,1.7c2.8,0,8-4.4,11.8-9.2c4.3-5.2,8-10.9,8.5-10.9c1,0,1.5,2,1.5,4.1C-191,106.3-207.6,130.9-217.5,130.9z"/>
	<path class="st0" d="M-188.9,131.1c-5.7,0-9.3-6.6-9.3-13.1c0-13.9,17.7-42.5,23.5-44.9c0.5-0.1,1.6-0.2,3-0.2
		c2.8,0,6.8,0.6,6.8,2.5c0,0.2-0.1,0.6-0.3,0.9c-2.4,4.5-19.4,34.3-19.4,42.2c0,1.7,0.7,2.4,1.6,2.4c7,0,20.1-21.5,21.1-21.5
		c1.2,0,1.4,2.6,1.4,4.2C-160.6,105.7-177.1,131.1-188.9,131.1z M-161.1,66.3c-5.3,0-10-3.9-10-9.3c0-5.9,5.3-10.5,11-10.5
		c5.3,0,10,3.9,10,9.3C-150.1,61.7-155.4,66.3-161.1,66.3z"/>
	<path class="st0" d="M-133.4,131c-5.3,0-10.5-4.2-10.5-10.1c0-13,11.9-31.4,14.9-35.5l-0.5-0.2c-6.2,6-18.5,19.8-24.9,29.4
		c-6.2,9.5-8.5,16.2-10.9,16.2c-2.3,0-7.3-3.4-7.3-7.6c0-5.3,21.7-50.8,26.7-50.8c1.7,0,7.8,1.5,7.8,4.7c0,2.8-3.9,11.2-4.4,13.2
		l0.1,0.1c2-2,15-17.2,21.2-17.2c4.2,0,9.7,2.8,9.7,4.9c0,3.1-1.4,5-3,8.1c-1.5,3.1-14.3,26.2-14.3,31.1c0,1.4,0.3,2.4,2.6,2.4
		c5.9,0,18.3-20.3,19.3-20.3s1.5,1.9,1.5,3.9C-105.1,106.6-122.1,131-133.4,131z"/>
	<path class="st0" d="M-66.8,119.4c-9.8,20.3-21.4,49-41.4,49c-10.2,0-18.7-5.9-18.7-15.1c0-11.1,10.1-19.5,19-19.5
		c5.2,0,8.2,3.3,8.2,6.7c0,3.6-2.8,6-3.3,6c-0.2,0-0.2-0.1-0.2-0.2c0-0.2,0-0.6,0-0.9c0-1.4-2.4-2.3-5.5-2.3
		c-6.9,0-11.4,4.9-11.4,9.2c0,4.8,3.6,7.4,7.7,7.4c9.5,0,16.5-12.6,19.9-19.4c3.5-6.7,6.1-14.2,6.4-15.3c-3.6,4.2-7.6,5.9-11.4,5.9
		c-7.4,0-13.8-7.3-13.8-16.4c0-22.3,24-41.8,38.6-41.8c5.5,0,9.5,2.7,10.7,9c0.6-0.7,4.5-6.1,5.8-6.8c0.9-0.6,2.5-0.7,4-0.7h1.4
		c1.6,0,4.9,0.9,4.9,2.5C-45.9,79.2-57.1,99.1-66.8,119.4z M-72,80.7c-10.5,0-25,23-25,33c0,3.4,1.6,6.4,4.8,6.4
		c8,0,24.2-26.9,24.2-33.4C-68,83.1-69,80.7-72,80.7z"/>
</g>
<rect x="16.2" y="-214.9" class="st3" width="330" height="57.9"/>
<g class="st4">
	<path class="st5" d="M938.2,421.5c-7.9,0-15.3-1.8-21.7-5c-12,12.6-21.2,26.9-21.2,38.3c0,6.7,4.8,10.8,11.6,10.8
		c18.4,0,30.8-17.4,30.8-26c0-2.5-1.7-3.9-4.2-3.9c-4.2,0-10.1,4.7-11.2,11.1c-0.2,0.8-0.1,1.2-0.6,1.2s-1.6-2.4-1.6-4.9
		c0-7.1,6.2-15,15.8-15c7.1,0,10.2,4.1,10.2,9.9c0,14-18.2,37.8-43.3,37.8c-13.5,0-23.9-9-23.9-22c0-15.4,11.2-32.3,26.6-46
		c-5.3-6-8.4-13.6-8.4-22.6c0-6.9,5-13,6.6-13c0.2,0,0.2,0,0.2,0.2c0,0.5-0.1,1.3-0.1,2.6c0,10.3,3.5,19.3,10.7,25.5
		c15.9-11.8,34.5-19.7,48.8-19.7c10.4,0,16.4,5,16.4,11.7C979.6,405.1,962.4,421.5,938.2,421.5z M962.4,386.6
		c-8.1,0-22.6,8.6-36.1,20.6c4.4,1.4,9.6,2.2,15.4,2.2c16.5,0,28.7-9.2,28.7-16.4C970.4,388.6,967,386.6,962.4,386.6z"/>
	<path class="st5" d="M972.6,452.4c-1.1,3.6-1.8,6.8-1.8,9.7c0,2.3,2.2,4.2,4.7,4.2c11.4,0,26-24.9,27.3-24.9s1.6,2.6,1.6,3.9
		c0,4.2-18.5,29.2-34,29.2c-7.1,0-14-7.5-14-13.2c0-19.1,32.6-77.1,55.6-77.1c4.7,0,8.4,2.8,8.4,4.7
		C1020.4,393.9,993.2,441.3,972.6,452.4z M1010.6,394.2c-1.8,0-21.5,24.1-32.6,45.5c12.9-10.5,32.9-43,32.9-45.1
		C1010.9,394.4,1010.7,394.2,1010.6,394.2z"/>
	<path class="st5" d="M1034.6,474.5c-5.7,0-11-4.4-11-10.7c0-1.2,0-1.6,0.1-2.3c-1.9,2.8-11.1,13-16.6,13c-5.4,0-10.9-6.9-10.9-13.8
		c0-14.6,18.7-44.8,24.8-47.3c0.5-0.1,1.7-0.2,3.1-0.2c3,0,7.2,0.6,7.2,2.6c0,0.2-0.1,0.6-0.4,1c-2.5,4.8-20.5,36.1-20.5,44.4
		c0,1.8,0.7,2.5,1.7,2.5c2.8,0,12.6-10.8,19.4-22.4c6-9.9,13.8-27.8,16.4-27.8c5.9,0,10.3,2,10.3,4.2c0,3.2-1.9,6.2-3.5,9.5
		c-1.7,3.2-15.2,27.6-15.2,32.8c0,1.4,0.4,2.5,2.9,2.5c6.1,0,19.3-21.4,20.2-21.4c1.2,0,1.6,2,1.6,4.1
		C1064.2,448.8,1046.4,474.5,1034.6,474.5z"/>
	<path class="st5" d="M1073.4,474.4c-8.1,0-16.3-4.1-16.3-19.6c0-5.4,8.9-21.2,18.2-36.7c10.2-17,19.7-33.5,25.6-33.5
		c3.2,0,8,2.3,8,3.9s-5.5,9.2-8.6,14.4c-3.2,5.3-7.7,13-7.7,13.5l0.2,0.1c3.1-1.7,6.2-2.5,8.9-2.5c6.6,0,11.2,4.8,11.2,14.2
		C1113,446.1,1096.6,474.4,1073.4,474.4z M1096,420.6c-4.2,0-7.8,4.5-9.6,6.5c-1.8,2-17.1,30.6-17.1,35.9c0,2,1.2,3.7,4.2,3.7
		c9.5,0,27.2-28.4,27.2-40.5C1100.7,423.9,1099.1,420.6,1096,420.6z"/>
</g>
<g class="st4">
	<path class="st5" d="M-291.9,176.4c-6.9,0-13.3-1.6-18.9-4.4c-10.4,11-18.4,23.4-18.4,33.3c0,5.8,4.2,9.4,10.1,9.4
		c16,0,26.8-15.1,26.8-22.6c0-2.2-1.5-3.4-3.7-3.4c-3.7,0-8.8,4.1-9.7,9.7c-0.2,0.7-0.1,1-0.5,1c-0.4,0-1.4-2.1-1.4-4.3
		c0-6.2,5.4-13.1,13.8-13.1c6.2,0,8.9,3.6,8.9,8.6c0,12.2-15.8,32.9-37.7,32.9c-11.7,0-20.8-7.8-20.8-19.1c0-13.4,9.7-28.1,23.1-40
		c-4.6-5.2-7.3-11.8-7.3-19.7c0-6,4.4-11.3,5.7-11.3c0.2,0,0.2,0,0.2,0.2c0,0.4-0.1,1.1-0.1,2.3c0,9,3,16.8,9.3,22.2
		c13.8-10.3,30-17.1,42.5-17.1c9.1,0,14.3,4.4,14.3,10.2C-255.9,162.1-270.9,176.4-291.9,176.4z M-270.9,146
		c-7,0-19.7,7.5-31.4,17.9c3.8,1.2,8.4,1.9,13.4,1.9c14.4,0,25-8,25-14.3C-263.9,147.7-266.9,146-270.9,146z"/>
	<path class="st5" d="M-262,203.3c-1,3.1-1.6,5.9-1.6,8.4c0,2,1.9,3.7,4.1,3.7c9.9,0,22.6-21.7,23.8-21.7s1.4,2.3,1.4,3.4
		c0,3.7-16.1,25.4-29.6,25.4c-6.2,0-12.2-6.5-12.2-11.5c0-16.6,28.4-67.1,48.4-67.1c4.1,0,7.3,2.4,7.3,4.1
		C-220.4,152.3-244.1,193.6-262,203.3z M-228.9,152.6c-1.6,0-18.7,21-28.4,39.6c11.2-9.1,28.6-37.4,28.6-39.2
		C-228.7,152.8-228.8,152.6-228.9,152.6z"/>
	<path class="st5" d="M-208,222.5c-5,0-9.6-3.8-9.6-9.3c0-1,0-1.4,0.1-2c-1.7,2.4-9.7,11.3-14.4,11.3s-9.5-6-9.5-12
		c0-12.7,16.3-39,21.6-41.2c0.4-0.1,1.5-0.2,2.7-0.2c2.6,0,6.3,0.5,6.3,2.3c0,0.2-0.1,0.5-0.3,0.9c-2.2,4.2-17.8,31.4-17.8,38.6
		c0,1.6,0.6,2.2,1.5,2.2c2.4,0,11-9.4,16.9-19.5c5.2-8.6,12-24.2,14.3-24.2c5.1,0,9,1.7,9,3.7c0,2.8-1.7,5.4-3,8.3
		c-1.5,2.8-13.2,24-13.2,28.5c0,1.2,0.3,2.2,2.5,2.2c5.3,0,16.8-18.6,17.6-18.6c1,0,1.4,1.7,1.4,3.6
		C-182.2,200.1-197.8,222.5-208,222.5z"/>
	<path class="st5" d="M-174.2,222.4c-7,0-14.2-3.6-14.2-17.1c0-4.7,7.7-18.4,15.8-31.9c8.9-14.8,17.1-29.2,22.3-29.2
		c2.8,0,7,2,7,3.4c0,1.4-4.8,8-7.5,12.5c-2.8,4.6-6.7,11.3-6.7,11.7l0.2,0.1c2.7-1.5,5.4-2.2,7.7-2.2c5.7,0,9.7,4.2,9.7,12.4
		C-139.8,197.8-154.1,222.4-174.2,222.4z M-154.6,175.6c-3.7,0-6.8,3.9-8.4,5.7c-1.6,1.7-14.9,26.6-14.9,31.2c0,1.7,1,3.2,3.7,3.2
		c8.3,0,23.7-24.7,23.7-35.2C-150.5,178.4-151.9,175.6-154.6,175.6z"/>
</g>
<g class="st4">
	<path class="st0" d="M-372.3-195.4c-1.4,3.2-2.7,6.7-3.9,10.5c-3.9,12.6-9.9,25-24.9,25c-12.2,0-17.6-9-17.6-18.6
		c0-3.4,0.7-6.9,2.1-10c-0.4-0.6-0.6-1.4-0.6-2.4c0-2.7,1.8-4.5,4.6-4.5c0.3,0,0.6,0,0.8,0.1c3-2.8,6.9-4.7,11.5-4.7
		c5.6,0,8.5,3,9.3,8.2c3.7-0.8,7.1-1.9,10.2-3.2c4.7-8.5,10.5-15.8,20.3-15.8c2.6,0,3.7,1.2,3.7,2.2
		C-356.7-204.7-363.4-199.7-372.3-195.4z M-390.9-188.4c-0.3,6.6-7,15.3-11.5,15.3c-2.1,0-5.8-1.6-5.8-2c0-0.3,1.2-0.3,2.1-0.8
		c0.6-0.3,4.5-4.1,5.7-10.3c-2.6,0.4-5.2,0.6-7.4,0.6c-1.9,0-3.6-0.1-5-0.5c-0.8,2.1-1.3,4.2-1.3,6.3c0,7.4,4.3,12.2,10,12.2
		c10.5,0,15.4-12,21.1-23.3C-385.5-190-388.2-189.1-390.9-188.4z M-403.2-195.8c-1.7,0-3.6,1.2-5.4,3c1.1,1.2,2.4,2.4,4.5,2.4
		c1.4,0,2.8-0.1,4.2-0.1C-399.9-194.2-401.1-195.8-403.2-195.8z M-353.8-221.3c-3.6,2.4-6.6,7.4-9.2,7.4c-2.2,0-2.6-5.3-3.8-7.4
		c-1.5-2.5-4.5-4.4-4.5-4.8c0-0.8,1.1-1.4,1.8-1.4c3.8,0,7.2,3.6,8.9,6.8c3.4-2.7,9.3-6.8,13.8-6.8c0.5,0,1,0.3,1,0.8
		C-345.8-225.1-350.8-223.2-353.8-221.3z M-363.3-207.2c-1.8,0-4.1,2.6-6.5,6.7c4.5-2.8,7-5.4,7-6.3
		C-362.8-207-363-207.2-363.3-207.2z"/>
	<path class="st0" d="M-366.2-160.1c-3.3,0-5.3-3.7-5.3-7.4c0-7.9,10-24.2,13.4-25.5c0.3-0.1,0.9-0.1,1.6-0.1c1.7,0,3.9,0.3,3.9,1.4
		c0,0.1,0,0.3-0.1,0.5c-1.4,2.6-11.1,19.5-11.1,24c0,1,0.4,1.4,0.8,1.4c4,0,11.5-12.2,12.1-12.2c0.7,0,0.8,1.5,0.8,2.4
		C-350.1-174.6-359.6-160.1-366.2-160.1z M-357.2-196.5c-0.8,0-1.4-0.6-1.4-1.1c0-1,3.7-1.7,6.5-4.7c2.3-2.5,3.1-7.8,5.6-7.8
		c1.6,0,3.9,1.5,3.9,3.6C-342.6-202.5-353.4-196.5-357.2-196.5z"/>
	<path class="st0" d="M-342.2-160c-3,0-5.9-2.5-7.2-5.2c-5.9,12-10.7,20.9-12.8,20.9c-1.4,0-3.7-2.3-3.7-3.9
		c0-1.7,5.1-11.1,11.8-23.9c6.8-12.8,11.6-22.9,13.1-22.9c2.1,0,4.5,1.2,4.5,2.1c0,0.6-0.4,1.7-1.2,3.5c2.7-2,5.7-3.7,8.5-3.7
		c3.9,0,5.9,2.5,5.9,7.5C-323.2-176.1-333.3-160-342.2-160z M-332.6-188.8c-1.7,0-4.9,2.5-7.6,4.8c-1.5,3.2-3.5,7.2-5.9,12.1
		c0.6,3,1.9,5.9,3.6,5.9c3.6,0,11.8-16.7,11.8-20.6C-330.7-187.8-331.3-188.8-332.6-188.8z"/>
	<path class="st0" d="M-306.9-159.9c-4.1,0-6.9-3.3-6.9-7c0-4.7,1.9-8.8,2.9-10.8l-0.2-0.2c-2.5,2.4-6.5,7.9-8.7,11.9
		c-2.1,3.9-2.2,6-3,6c-1.4,0-4.8-2.3-4.8-5s5.8-13.3,10.5-22c4.7-8.6,11.2-20.2,13.9-20.2c1.4,0,3.9,0.8,3.9,2.5
		c0,2.6-2,5.8-4.6,9.8c-2.5,4.1-5,8.7-5.6,9.8l0.3,0.1c2-1.9,9.4-8.2,15.8-8.2c2.6,0,4.6,1.4,4.6,3.9c0,4.2-6,12.2-11.2,12.2
		c-1.6,0-2.1-0.6-2.4-0.6c-0.2,0-3.6,9.1-3.6,11.6c0,1,0.6,1.8,2,1.8c7.6,0,15.3-13.7,16.1-13.7c0.5,0,0.8,1.4,0.8,2.3
		C-286.9-175.2-295.2-159.9-306.9-159.9z M-294.5-190.7c-1,0-9.6,5.4-9.6,6.2c0,0.3,0.8,1,2,1c1.9,0,8-5,8-6.8
		C-294.1-190.6-294.3-190.7-294.5-190.7z"/>
	<path class="st0" d="M-267.8-160.6c-4.5,0-5.6-5.4-5.8-5.4s-4.9,5.9-10.3,5.9c-3.6,0-7-2.9-7-8.7c0-9.5,11.2-24.5,21.8-24.5
		c5.2,0,5.7,4.5,5.9,4.5c0.3,0,3.7-4.2,4.9-4.2s1.1,0.2,1.9,0.4c0.6,0.1,1.6,0.3,1.6,1.2c0,3.6-11.4,19.6-11.4,23.6
		c0,0.6,0.3,1.1,1,1.1c4.1,0,10.9-11.4,11.6-11.4c0.6,0,0.8,1.1,0.8,2.3C-252.8-174.5-262.2-160.6-267.8-160.6z M-270-189.6
		c-5.2,0-12.8,13.5-12.8,19.8c0,2.1,0.7,3.2,2,3.2c1.7,0,6.2-3.1,6.2-4.3c0-0.5-1.4-0.6-1.9-0.6v-0.5c1.7-0.5,9.1-8.1,9.1-14
		C-267.4-188-268.5-189.6-270-189.6z"/>
	<path class="st6" d="M-243.3-160.2c-4.1,0-7.2-2.4-7.2-7c0-6.3,8.7-18,8.7-18.2c0-0.1-2.1-1-3.2-1c-0.3,0-0.5,0.1-0.5,0.2
		c-3.2,5.2-6.3,9.9-8.6,13.1c-0.2,0.3-0.5,0.5-0.7,0.5c-0.6,0-1-0.8-1-1.9c0-0.5,0.4-1.1,0.6-1.4c0.8-1.2,2.5-3.7,4.3-7.4
		c1.9-3.9,2.3-6.7,3.6-9.6c1.3-3.2,2.3-3.9,4.4-3.9c1,0,1.5,0.6,1.5,1.7c0,1.3-0.6,1.8-0.6,2c0,0.3,0.4,0.5,1.4,0.5
		c3,0,6.7-0.5,7.6-0.5c1.8,0,4.2,3.6,4.2,5c0,1.2-2,2.2-3.4,3.8c-2.5,2.6-9.1,12-9.1,17.1c0,0.5,0.3,1,0.9,1c1.6,0,4.5-2.5,6.7-5.2
		c2.5-3,4.5-6.2,4.8-6.2c0.6,0,0.8,1.2,0.8,2.3C-228.2-174.3-237.7-160.2-243.3-160.2z"/>
	<path class="st6" d="M-223.8-159.9c-4.4,0-7.8-4.5-7.8-9.8c0-8.2,9.7-22.9,18.4-22.9c2.3,0,3.6-0.7,4.9-0.7c2.1,0,4,2.4,4,4.9
		c0,4.8-7.2,13.3-17.6,13.3c-0.2,0-0.4,0-0.6-0.1c-0.8,1.9-1.4,3.7-1.4,5.3c0,2.8,1,4.7,3.4,4.7c8.6,0,15.7-12.8,16.5-12.8
		c0.7,0,0.8,1.2,0.8,2.1C-203.2-173.6-213.1-159.9-223.8-159.9z M-210.3-189.5c-2.3,0-7.4,5.4-10.6,11.1c5.1-1.1,11.8-6.3,11.8-10
		C-209.1-189.1-209.5-189.5-210.3-189.5z"/>
	<path class="st6" d="M-187.6-160.2c-3,0-5.9-2.4-5.9-5.8c0-7.4,6.8-17.8,8.5-20.2l-0.3-0.1c-3.6,3.4-10.5,11.2-14.2,16.7
		c-3.6,5.4-4.8,9.2-6.2,9.2c-1.3,0-4.1-1.9-4.1-4.3c0-3,12.3-28.9,15.2-28.9c1,0,4.5,0.8,4.5,2.7c0,1.6-2.2,6.4-2.5,7.5l0.1,0.1
		c1.2-1.2,8.5-9.8,12.1-9.8c2.4,0,5.5,1.6,5.5,2.8c0,1.7-0.8,2.8-1.7,4.6c-0.8,1.7-8.1,14.9-8.1,17.7c0,0.8,0.2,1.4,1.5,1.4
		c3.4,0,10.4-11.6,11-11.6s0.8,1.1,0.8,2.2C-171.6-174.1-181.3-160.2-187.6-160.2z M-176.4-201.9c-3,2-5.6,6.2-7.8,6.2
		c-1.8,0-2.1-4.5-3.2-6.2c-1.3-2.1-3.8-3.7-3.8-4c0-0.7,1-1.2,1.6-1.2c3.2,0,6.1,3,7.5,5.7c2.8-2.3,7.8-5.7,11.6-5.7
		c0.4,0,0.9,0.2,0.9,0.6C-169.7-205.2-174-203.5-176.4-201.9z"/>
</g>
<circle class="st0" cx="809.2" cy="-150.5" r="37.5"/>
<circle class="st1" cx="809.2" cy="-150.5" r="28.5"/>
<circle class="st0" cx="809.2" cy="-150.5" r="20"/>
<circle class="st1" cx="809.2" cy="-150.5" r="10"/>
</svg>
