<?xml version="1.0" encoding="utf-8"?>
<!-- Generator: Adobe Illustrator 26.5.3, SVG Export Plug-In . SVG Version: 6.00 Build 0)  -->
<svg version="1.1" id="Layer_1" xmlns="http://www.w3.org/2000/svg" xmlns:xlink="http://www.w3.org/1999/xlink" x="0px" y="0px"
	 viewBox="0 0 612 115.4" style="enable-background:new 0 0 612 115.4;" xml:space="preserve">
<style type="text/css">
	.st0{fill:#B52828;}
	.st1{fill:#BFB5AC;}
	.st2{fill:#C92F2F;}
	.st3{fill:none;}
	.st4{enable-background:new    ;}
	.st5{fill:#6E7A18;}
	.st6{fill:#36482E;}
</style>
<g>
	<path class="st0" d="M1299.4-204.7c-3,6.8-5.8,14.3-8.3,22.3c-8.3,26.9-21.1,53.3-53.1,53.3c-25.9,0-37.6-19.3-37.6-39.5
		c0-7.3,1.5-14.6,4.5-21.4c-0.8-1.4-1.4-3-1.4-5.1c0-5.7,3.9-9.6,9.8-9.6c0.7,0,1.2,0,1.8,0.1c6.3-6.1,14.6-9.9,24.5-9.9
		c11.9,0,18.2,6.3,19.8,17.5c7.9-1.8,15.2-4.1,21.8-6.8c10.1-18.2,22.3-33.8,43.3-33.8c5.5,0,8,2.6,8,4.7
		C1332.6-224.6,1318.4-214,1299.4-204.7z M1259.8-189.8c-0.7,14.1-15,32.7-24.5,32.7c-4.5,0-12.3-3.4-12.3-4.3
		c0-0.7,2.6-0.7,4.5-1.7c1.4-0.7,9.5-8.7,12.1-22c-5.6,0.8-11,1.4-15.7,1.4c-4,0-7.6-0.3-10.6-1.1c-1.8,4.4-2.8,9-2.8,13.5
		c0,15.7,9.2,25.9,21.2,25.9c22.5,0,32.8-25.6,45.1-49.7C1271.3-193.3,1265.5-191.4,1259.8-189.8z M1233.5-205.6
		c-3.6,0-7.7,2.5-11.4,6.5c2.3,2.6,5.1,5.1,9.5,5.1c3,0,6.1-0.1,9-0.3C1240.5-202.1,1237.9-205.6,1233.5-205.6z M1338.9-259.8
		c-7.7,5.1-14.1,15.7-19.7,15.7c-4.7,0-5.5-11.3-8.1-15.7c-3.2-5.2-9.5-9.4-9.5-10.2c0-1.8,2.3-2.9,3.9-2.9
		c8.1,0,15.3,7.7,18.9,14.5c7.2-5.8,19.8-14.5,29.4-14.5c1,0,2.2,0.6,2.2,1.7C1355.9-268,1345.1-264,1338.9-259.8z M1318.5-229.9
		c-3.9,0-8.8,5.5-13.8,14.2c9.5-6.1,14.9-11.6,14.9-13.4C1319.6-229.5,1319.2-229.9,1318.5-229.9z"/>
	<path class="st0" d="M1312.3-129.5c-7,0-11.3-8-11.3-15.8c0-16.8,21.4-51.5,28.5-54.4c0.6-0.1,1.9-0.3,3.4-0.3c3.6,0,8.3,0.7,8.3,3
		c0,0.3,0,0.7-0.3,1.1c-3,5.5-23.6,41.6-23.6,51.1c0,2.1,0.8,2.9,1.8,2.9c8.5,0,24.5-26,25.8-26c1.5,0,1.7,3.2,1.7,5.1
		C1346.7-160.4,1326.5-129.5,1312.3-129.5z M1331.5-207.1c-1.8,0-2.9-1.2-2.9-2.3c0-2.2,8-3.6,13.8-9.9c5-5.4,6.6-16.7,12-16.7
		c3.4,0,8.4,3.2,8.4,7.7C1362.8-219.9,1339.8-207.1,1331.5-207.1z"/>
	<path class="st0" d="M1363.5-129.2c-6.3,0-12.7-5.4-15.3-11.2c-12.5,25.6-22.7,44.5-27.3,44.5c-3,0-8-4.8-8-8.4
		c0-3.7,10.9-23.7,25.2-51c14.5-27.3,24.8-48.8,28-48.8c4.4,0,9.6,2.5,9.6,4.5c0,1.2-0.8,3.7-2.5,7.4c5.8-4.3,12.1-8,18.1-8
		c8.3,0,12.7,5.4,12.7,16C1404-163.5,1382.5-129.2,1363.5-129.2z M1384-190.7c-3.6,0-10.5,5.2-16.3,10.2
		c-3.2,6.8-7.4,15.3-12.5,25.8c1.4,6.5,4.1,12.7,7.7,12.7c7.6,0,25.2-35.6,25.2-43.8C1388.1-188.6,1386.7-190.7,1384-190.7z"/>
	<path class="st0" d="M1438.8-129.1c-8.8,0-14.6-7-14.6-15c0-9.9,4-18.7,6.2-23l-0.4-0.4c-5.4,5.1-13.9,16.8-18.5,25.4
		c-4.4,8.4-4.7,12.8-6.5,12.8c-3,0-10.2-5-10.2-10.6s12.3-28.4,22.5-46.9c10.1-18.3,23.8-43.1,29.6-43.1c2.9,0,8.3,1.8,8.3,5.4
		c0,5.5-4.3,12.3-9.8,20.9c-5.4,8.8-10.7,18.6-11.9,20.8l0.7,0.1c4.3-4,20-17.5,33.8-17.5c5.5,0,9.8,2.9,9.8,8.3c0,9-12.8,26-24,26
		c-3.3,0-4.5-1.4-5.1-1.4c-0.4,0-7.7,19.4-7.7,24.8c0,2.1,1.2,3.9,4.3,3.9c16.3,0,32.7-29.2,34.3-29.2c1.1,0,1.8,3,1.8,4.8
		C1481.4-161.7,1463.6-129.1,1438.8-129.1z M1465.2-194.7c-2.1,0-20.4,11.4-20.4,13.2c0,0.7,1.8,2.1,4.3,2.1
		c4.1,0,16.9-10.6,16.9-14.5C1466-194.4,1465.7-194.7,1465.2-194.7z"/>
	<path class="st0" d="M1522.1-130.5c-9.6,0-11.9-11.4-12.3-11.4s-10.5,12.7-21.9,12.7c-7.6,0-15-6.2-15-18.5
		c0-20.3,24-52.2,46.6-52.2c11.2,0,12.1,9.5,12.5,9.5c0.7,0,8-9,10.5-9s2.3,0.4,4,0.8c1.4,0.3,3.4,0.6,3.4,2.5
		c0,7.6-24.3,41.8-24.3,50.3c0,1.4,0.7,2.3,2.1,2.3c8.8,0,23.3-24.4,24.7-24.4c1.2,0,1.8,2.3,1.8,5S1534.1-130.5,1522.1-130.5z
		 M1517.4-192.3c-11.2,0-27.3,28.8-27.3,42.3c0,4.4,1.5,6.9,4.3,6.9c3.6,0,13.2-6.6,13.2-9.2c0-1.1-2.9-1.4-4-1.4v-1.1
		c3.6-1,19.4-17.2,19.4-29.9C1523-189,1520.7-192.3,1517.4-192.3z"/>
	<path class="st1" d="M1574.4-129.8c-8.7,0-15.4-5.1-15.4-15c0-13.5,18.6-38.3,18.6-38.7c0-0.3-4.5-2.2-6.9-2.2
		c-0.6,0-1,0.1-1.1,0.4c-6.8,11-13.5,21.1-18.3,28c-0.4,0.7-1,1.1-1.5,1.1c-1.2,0-2.1-1.7-2.1-4.1c0-1,0.8-2.3,1.2-3
		c1.8-2.6,5.4-8,9.1-15.8c4.1-8.3,5-14.2,7.6-20.4c2.8-6.9,4.8-8.3,9.4-8.3c2.1,0,3.2,1.2,3.2,3.6c0,2.8-1.4,3.9-1.4,4.3
		c0,0.6,0.8,1,3,1c6.5,0,14.2-1.1,16.1-1.1c3.9,0,9,7.6,9,10.7c0,2.5-4.3,4.7-7.3,8.1c-5.2,5.6-19.4,25.6-19.4,36.4
		c0,1,0.6,2.1,1.9,2.1c3.4,0,9.6-5.4,14.3-11.2c5.2-6.3,9.6-13.2,10.3-13.2c1.2,0,1.8,2.5,1.8,5
		C1606.5-159.7,1586.4-129.8,1574.4-129.8z"/>
	<path class="st1" d="M1615.9-128.9c-9.4,0-16.7-9.5-16.7-20.8c0-17.5,20.7-48.9,39.1-48.9c5,0,7.6-1.5,10.5-1.5
		c4.4,0,8.5,5.1,8.5,10.5c0,10.3-15.3,28.2-37.5,28.2c-0.4,0-0.8,0-1.2-0.1c-1.8,4.1-2.9,8-2.9,11.3c0,6.1,2.2,9.9,7.3,9.9
		c18.3,0,33.5-27.3,35.1-27.3c1.5,0,1.7,2.5,1.7,4.5C1659.9-158.1,1638.8-128.9,1615.9-128.9z M1644.7-192.2
		c-4.8,0-15.7,11.6-22.6,23.7c10.9-2.3,25.1-13.5,25.1-21.4C1647.2-191.4,1646.4-192.2,1644.7-192.2z"/>
	<path class="st1" d="M1693.1-129.6c-6.5,0-12.7-5.1-12.7-12.3c0-15.7,14.5-38,18.1-43l-0.6-0.3c-7.6,7.3-22.5,24-30.2,35.7
		c-7.6,11.6-10.3,19.7-13.2,19.7c-2.8,0-8.8-4.1-8.8-9.2c0-6.5,26.3-61.6,32.4-61.6c2.1,0,9.5,1.8,9.5,5.7c0,3.4-4.7,13.6-5.4,16
		l0.1,0.1c2.5-2.5,18.2-20.8,25.8-20.8c5.1,0,11.7,3.4,11.7,5.9c0,3.7-1.7,6.1-3.6,9.8c-1.8,3.7-17.4,31.8-17.4,37.8
		c0,1.7,0.4,2.9,3.2,2.9c7.2,0,22.2-24.7,23.4-24.7s1.8,2.3,1.8,4.7C1727.2-159.3,1706.6-129.6,1693.1-129.6z M1716.9-218.6
		c-6.5,4.3-11.9,13.2-16.7,13.2c-3.9,0-4.5-9.5-6.8-13.2c-2.8-4.4-8.1-7.9-8.1-8.5c0-1.5,2.1-2.5,3.3-2.5c6.9,0,13,6.5,16,12.1
		c6.1-4.8,16.7-12.1,24.7-12.1c0.8,0,1.9,0.4,1.9,1.4C1731.2-225.5,1722.1-222.1,1716.9-218.6z"/>
</g>
<g>
	<path class="st0" d="M1249.2,171.6c-14.9,0-21.8-10.6-27.4-21.6c-10.9,11.3-23.7,20.4-37.2,20.4c-9.4,0-16.5-7.3-16.5-17.6
		c0-18.9,16.3-38.6,37.5-38.6c8.1,0,13.8,3,18.1,7.6c3.2-4.4,6.2-9,9.1-13.4c9.9-15,22.7-28.9,35.7-38.2c-3.3-0.7-7-1-11.2-1
		c-25.9,0-49.5,17.1-49.5,27.4c0,1.4,1.7,2.6,3.6,2.6c12.8,0,24.3-17.5,26.5-21.5c0.3-0.4,0.6-0.7,0.8-0.7c0.3,0,0.6,0.6,0.6,1.1
		c0,23.3-16.1,33.9-28.4,33.9c-7.6,0-13.6-4-13.6-11.6c0-13.6,27.4-37.5,64.9-37.5c5.4,0,10.5,0.6,15,1.8c6.6-3.6,13.1-5.5,19-5.5
		c3.9,0,6.2,1.2,6.2,1.7c0,0.8-0.7,0.8-3.6,0.8c-4.3,0-8.8,2.2-13.4,6.1c13.1,6.2,21.2,18.9,21.2,38.4
		C1306.5,136.8,1281.3,171.6,1249.2,171.6z M1198.8,124.6c-13.2,0-24.3,10.9-24.3,23.4c0,6.2,4,10.1,9,10.1
		c8.4,0,19.3-10.1,30.3-23.6C1210.1,128.7,1205.6,124.6,1198.8,124.6z M1278.1,74.7c-11.7,13.1-23.3,32.9-31.7,44.4
		c-3.7,5.1-8.3,11.4-13.5,18.1c4.7,9.9,8.7,19.4,18.3,19.4c22.2,0,35.6-31.3,35.6-55.9C1286.8,89.4,1283.9,79.7,1278.1,74.7z"/>
	<path class="st0" d="M1350.9,170.1c-9.6,0-11.9-11.4-12.3-11.4s-10.5,12.7-21.9,12.7c-7.6,0-15-6.2-15-18.5
		c0-20.3,24-52.2,46.6-52.2c11.2,0,12.1,9.5,12.5,9.5c0.7,0,8-9,10.5-9s2.3,0.4,4,0.8c1.4,0.3,3.4,0.6,3.4,2.5
		c0,7.6-24.3,41.8-24.3,50.3c0,1.4,0.7,2.3,2.1,2.3c8.8,0,23.3-24.4,24.7-24.4c1.2,0,1.8,2.3,1.8,5S1362.9,170.1,1350.9,170.1z
		 M1346.2,108.2c-11.2,0-27.3,28.8-27.3,42.3c0,4.4,1.5,6.9,4.3,6.9c3.6,0,13.2-6.6,13.2-9.2c0-1.1-2.9-1.4-4-1.4v-1.1
		c3.6-1,19.4-17.2,19.4-29.9C1351.8,111.5,1349.5,108.2,1346.2,108.2z"/>
	<path class="st2" d="M1403.2,170.7c-8.7,0-15.4-5.1-15.4-15c0-13.5,18.6-38.3,18.6-38.7c0-0.3-4.5-2.2-6.9-2.2
		c-0.6,0-1,0.1-1.1,0.4c-6.8,11-13.5,21.1-18.3,28c-0.4,0.7-1,1.1-1.5,1.1c-1.2,0-2.1-1.7-2.1-4.1c0-1,0.8-2.3,1.2-3
		c1.8-2.6,5.4-8,9.1-15.8c4.1-8.3,5-14.2,7.6-20.4c2.8-6.9,4.8-8.3,9.4-8.3c2.1,0,3.2,1.2,3.2,3.6c0,2.8-1.4,3.9-1.4,4.3
		c0,0.6,0.8,1,3,1c6.5,0,14.2-1.1,16.1-1.1c3.9,0,9,7.6,9,10.7c0,2.5-4.3,4.7-7.3,8.1c-5.2,5.6-19.4,25.6-19.4,36.4
		c0,1,0.6,2.1,1.9,2.1c3.4,0,9.6-5.4,14.3-11.2c5.2-6.3,9.6-13.2,10.3-13.2c1.2,0,1.8,2.5,1.8,5
		C1435.3,140.8,1415.2,170.7,1403.2,170.7z"/>
	<path class="st2" d="M1472.1,107.2c-1.8,0-1.4,0.1-7.3,0.1c-10.2,19-20.7,37.8-20.7,44.2c0,4.5,3,5.5,5,5.5
		c8.8,0,23.4-24.4,24.7-24.4s1.8,2.3,1.8,5s-20.5,33.2-32.5,33.2c-9,0-19.2-5.1-19.2-13.1c0-9.6,14.7-35.1,21.6-48l1.7-3
		c-2.8-0.3-7-1.1-7-4.5c0-2.3,0-4.7,0.3-5.6c0.1-0.7,0.4-1,1.4-1c0.7,0,2.6,0.1,4.3,0.1c1.9,0,6.1-0.8,7.3-0.8
		c6.1-11.3,12.8-23.2,14.5-23.2c6.3,0,10.2,5.9,10.2,9c0,1.7-2.1,5.8-7,15h7.4c2.6,0,3.9,0.8,3.9,2.1
		C1482.3,102.8,1476.3,107.2,1472.1,107.2z"/>
	<path class="st2" d="M1524.5,123.2c-0.7,3.4-1.5,7.6-2.6,12.1c1.2,0.4,2.3,0.6,3.2,0.6c2.9,0,3.4-1.8,3.7-1.8
		c0.7,0,0.8,0.1,0.8,0.7v0.3c0.1,8-5.2,12.7-10.5,12.7c-0.4,0-0.8,0-1.1,0c-6.8,16.7-20.4,24-32.4,24s-22.2-7.3-22.2-20
		c0-11.6,9.5-24.1,24-24.1c1.9,0,3.9,0.1,5.8,0.4c4-4.5,9-10.7,13.2-17.2c7.6-11.4,18.5-17.9,23.7-17.9c3.4,0,6.1,1.2,6.1,3.2
		C1536.2,99.2,1527.1,111.3,1524.5,123.2z M1487.2,142.4c-9.1,0-13.8,5.9-13.8,11.3c0,4.3,3,8.3,9.2,8.3c6.3,0,14.2-4.7,18.5-17.2
		C1496.1,143.5,1491.6,142.4,1487.2,142.4z M1508,118.9c-1.1,1.5-4.7,6.1-8.3,10.3c1.8,0.6,3.6,1,5.4,1.5c1.4-5.1,2.5-9.1,3.3-11.6
		L1508,118.9z"/>
	<path class="st1" d="M1600.1,109.8c-9.1,0-17.6-2.1-24.9-5.8c-13.8,14.5-24.4,31-24.4,44.1c0,7.7,5.5,12.4,13.4,12.4
		c21.2,0,35.4-20,35.4-29.9c0-2.9-1.9-4.5-4.8-4.5c-4.8,0-11.6,5.4-13,12.8c-0.3,1-0.1,1.4-0.7,1.4s-1.8-2.8-1.8-5.6
		c0-8.1,7.2-17.2,18.2-17.2c8.1,0,11.7,4.7,11.7,11.4c0,16.1-20.9,43.5-49.9,43.5c-15.6,0-27.6-10.3-27.6-25.4
		c0-17.8,13-37.2,30.6-52.9c-6.1-6.9-9.6-15.7-9.6-26c0-8,5.8-15,7.6-15c0.3,0,0.3,0,0.3,0.3c0,0.6-0.1,1.5-0.1,3
		c0,11.9,4,22.2,12.3,29.4c18.3-13.6,39.7-22.7,56.2-22.7c12,0,18.9,5.8,18.9,13.5C1647.8,91,1628,109.8,1600.1,109.8z M1628,69.6
		c-9.4,0-26,9.9-41.6,23.7c5.1,1.7,11,2.5,17.8,2.5c19,0,33.1-10.6,33.1-18.9C1637.2,71.9,1633.4,69.6,1628,69.6z"/>
	<path class="st1" d="M1639.8,145.4c-1.2,4.1-2.1,7.9-2.1,11.2c0,2.6,2.5,4.8,5.4,4.8c13.1,0,29.9-28.7,31.4-28.7s1.8,3,1.8,4.5
		c0,4.8-21.4,33.6-39.1,33.6c-8.1,0-16.1-8.7-16.1-15.2c0-22,37.5-88.7,64.1-88.7c5.4,0,9.6,3.2,9.6,5.4
		C1694.8,78,1663.5,132.6,1639.8,145.4z M1683.5,78.4c-2.1,0-24.8,27.7-37.5,52.4c14.9-12.1,37.9-49.5,37.9-52
		C1683.9,78.6,1683.7,78.4,1683.5,78.4z"/>
	<path class="st1" d="M1711.2,170.9c-6.6,0-12.7-5.1-12.7-12.3c0-1.4,0-1.8,0.1-2.6c-2.2,3.2-12.8,15-19.2,15
		c-6.2,0-12.5-8-12.5-15.8c0-16.8,21.5-51.5,28.5-54.4c0.6-0.1,1.9-0.3,3.6-0.3c3.4,0,8.3,0.7,8.3,3c0,0.3-0.1,0.7-0.4,1.1
		c-2.9,5.5-23.6,41.6-23.6,51.1c0,2.1,0.8,2.9,1.9,2.9c3.2,0,14.5-12.4,22.3-25.8c6.9-11.4,15.8-32,18.9-32c6.8,0,11.9,2.3,11.9,4.8
		c0,3.7-2.2,7.2-4,10.9c-1.9,3.7-17.5,31.8-17.5,37.8c0,1.7,0.4,2.9,3.3,2.9c7,0,22.2-24.7,23.3-24.7c1.4,0,1.8,2.3,1.8,4.7
		C1745.2,141.3,1724.7,170.9,1711.2,170.9z"/>
	<path class="st1" d="M1755.9,170.7c-9.4,0-18.7-4.7-18.7-22.6c0-6.2,10.2-24.4,20.9-42.3c11.7-19.6,22.7-38.6,29.5-38.6
		c3.7,0,9.2,2.6,9.2,4.5c0,1.8-6.3,10.6-9.9,16.5c-3.7,6.1-8.8,15-8.8,15.6l0.3,0.1c3.6-1.9,7.2-2.9,10.2-2.9c7.6,0,13,5.5,13,16.4
		C1801.5,138.1,1782.6,170.7,1755.9,170.7z M1781.9,108.7c-4.8,0-9,5.2-11,7.4c-2.1,2.3-19.7,35.3-19.7,41.3c0,2.3,1.4,4.3,4.8,4.3
		c10.9,0,31.3-32.7,31.3-46.6C1787.3,112.6,1785.5,108.7,1781.9,108.7z"/>
</g>
<rect x="685.2" y="90.1" class="st3" width="330" height="57.9"/>
<g class="st4">
	<path class="st0" d="M868.2,371c-15.8,0-23-11.2-29.1-22.9c-11.5,11.9-25.1,21.6-39.5,21.6c-10,0-17.5-7.8-17.5-18.7
		c0-20,17.2-40.9,39.8-40.9c8.6,0,14.6,3.2,19.1,8c3.3-4.7,6.5-9.4,9.7-14.2c10.5-16,24.1-30.7,37.9-40.5c-3.5-0.7-7.5-1-11.8-1
		c-27.5,0-52.4,18.2-52.4,29.1c0,1.5,1.8,2.8,3.7,2.8c13.6,0,25.7-18.6,28-22.8c0.3-0.4,0.6-0.7,0.8-0.7c0.3,0,0.6,0.6,0.6,1.1
		c0,24.7-17.1,35.9-30.1,35.9c-8,0-14.4-4.3-14.4-12.3c0-14.4,29.1-39.8,68.8-39.8c5.7,0,11.1,0.6,16,1.9c7.1-3.7,13.9-5.8,20.1-5.8
		c4.2,0,6.5,1.2,6.5,1.8c0,0.8-0.7,0.8-3.7,0.8c-4.6,0-9.3,2.4-14.2,6.4c13.9,6.5,22.5,20,22.5,40.8
		C929.1,334.3,902.3,371,868.2,371z M814.7,321.2c-14,0-25.7,11.5-25.7,24.8c0,6.5,4.3,10.7,9.4,10.7c8.9,0,20.5-10.7,32.2-25
		C826.7,325.7,822,321.2,814.7,321.2z M899,268.4c-12.5,13.9-24.7,35-33.6,47c-3.9,5.4-8.7,12.1-14.3,19.1
		c5,10.5,9.2,20.7,19.4,20.7c23.6,0,37.7-33.2,37.7-59.4C908.1,283.9,905.1,273.5,899,268.4z"/>
	<path class="st0" d="M976.1,369.5c-10.3,0-12.6-12.1-13-12.1s-11.1,13.5-23.3,13.5c-8,0-16-6.5-16-19.6c0-21.5,25.4-55.4,49.4-55.4
		c11.8,0,12.9,10.1,13.3,10.1c0.7,0,8.5-9.4,11.1-9.4s2.5,0.4,4.3,0.8c1.5,0.3,3.6,0.6,3.6,2.6c0,8-25.7,44.3-25.7,53.4
		c0,1.5,0.7,2.5,2.2,2.5c9.3,0,24.7-25.9,26.2-25.9c1.2,0,1.9,2.5,1.9,5.3C1010.2,337.9,988.9,369.5,976.1,369.5z M971.1,303.9
		c-11.8,0-29,30.5-29,45c0,4.7,1.7,7.4,4.6,7.4c3.7,0,14-7.1,14-9.9c0-1.1-3.1-1.5-4.3-1.5v-1.1c3.7-1,20.7-18.3,20.7-31.8
		C977.1,307.4,974.7,303.9,971.1,303.9z"/>
	<path class="st0" d="M1031.6,370.2c-9.2,0-16.4-5.4-16.4-16c0-14.3,19.7-40.7,19.7-41.1c0-0.3-4.9-2.4-7.4-2.4
		c-0.6,0-1,0.1-1.1,0.4c-7.2,11.7-14.3,22.3-19.4,29.7c-0.4,0.7-1,1.1-1.7,1.1c-1.2,0-2.2-1.8-2.2-4.4c0-1,0.8-2.5,1.2-3.2
		c1.9-2.8,5.7-8.5,9.7-16.8c4.4-8.7,5.3-15.1,8-21.6c2.9-7.4,5.1-8.7,10-8.7c2.2,0,3.3,1.2,3.3,3.7c0,2.9-1.5,4.2-1.5,4.6
		c0,0.6,0.8,1,3.2,1c6.9,0,15.1-1.1,17.1-1.1c4.2,0,9.4,8,9.4,11.4c0,2.6-4.6,5-7.8,8.6c-5.5,6-20.7,27.2-20.7,38.6
		c0,1,0.6,2.2,2.1,2.2c3.6,0,10.3-5.7,15.3-11.8c5.5-6.7,10.3-14,11-14c1.2,0,1.9,2.6,1.9,5.3
		C1065.7,338.4,1044.4,370.2,1031.6,370.2z"/>
	<path class="st0" d="M1104.7,302.8c-1.9,0-1.5,0.1-7.8,0.1c-10.8,20.1-21.9,40.1-21.9,46.9c0,4.9,3.2,5.8,5.3,5.8
		c9.3,0,24.8-25.9,26.2-25.9c1.2,0,1.9,2.5,1.9,5.3s-21.8,35.2-34.5,35.2c-9.4,0-20.3-5.4-20.3-13.9c0-10.3,15.7-37.3,22.9-50.9
		l1.8-3.2c-2.9-0.3-7.5-1.1-7.5-4.9c0-2.5,0-5,0.3-6c0.1-0.7,0.4-1,1.5-1c0.7,0,2.8,0.1,4.6,0.1c2.1,0,6.4-0.8,7.8-0.8
		c6.4-11.9,13.6-24.6,15.4-24.6c6.7,0,10.8,6.2,10.8,9.4c0,1.8-2.2,6.1-7.5,16h7.9c2.8,0,4.2,0.8,4.2,2.2
		C1115.5,298.2,1109.2,302.8,1104.7,302.8z"/>
	<path class="st0" d="M1160.4,319.7c-0.7,3.6-1.7,8-2.8,12.9c1.2,0.4,2.5,0.6,3.3,0.6c3.1,0,3.6-1.9,3.9-1.9c0.7,0,0.8,0.1,0.8,0.7
		v0.3c0.1,8.5-5.5,13.5-11.1,13.5c-0.4,0-0.8,0-1.1,0c-7.2,17.8-21.6,25.4-34.4,25.4s-23.6-7.8-23.6-21.2
		c0-12.3,10.1-25.5,25.4-25.5c2.1,0,4,0.1,6.1,0.4c4.3-4.9,9.4-11.4,14-18.3c8.3-11.9,19.8-18.7,25.4-18.7c3.6,0,6.4,1.2,6.4,3.3
		C1172.7,294.3,1163.1,307.2,1160.4,319.7z M1120.7,340.1c-9.7,0-14.6,6.2-14.6,11.9c0,4.6,3.2,8.7,9.9,8.7c6.7,0,15.1-5,19.6-18.3
		C1130.2,341.2,1125.4,340.1,1120.7,340.1z M1142.7,315.3c-1.1,1.7-5,6.4-8.7,11c1.9,0.6,3.7,1,5.7,1.7c1.5-5.4,2.6-9.7,3.5-12.3
		L1142.7,315.3z"/>
</g>
<g class="st4">
	<path class="st0" d="M-173.8-60.6c-1.8,4-3.5,8.6-5,13.4c-5,16.1-12.6,32-31.8,32c-15.5,0-22.5-11.6-22.5-23.7
		c0-4.4,0.9-8.8,2.7-12.8c-0.5-0.8-0.8-1.8-0.8-3.1c0-3.4,2.3-5.8,5.9-5.8c0.4,0,0.7,0,1.1,0.1c3.8-3.6,8.8-5.9,14.7-5.9
		c7.1,0,10.9,3.8,11.9,10.5c4.7-1.1,9.1-2.5,13-4c6-10.9,13.4-20.2,25.9-20.2c3.3,0,4.8,1.6,4.8,2.8
		C-153.9-72.5-162.4-66.2-173.8-60.6z M-197.5-51.7c-0.4,8.4-9,19.6-14.7,19.6c-2.7,0-7.3-2.1-7.3-2.6c0-0.4,1.6-0.4,2.7-1
		c0.8-0.4,5.7-5.2,7.3-13.2c-3.4,0.5-6.6,0.8-9.4,0.8c-2.4,0-4.5-0.2-6.4-0.7c-1.1,2.6-1.7,5.4-1.7,8.1c0,9.4,5.5,15.5,12.7,15.5
		c13.5,0,19.7-15.4,27-29.8C-190.6-53.8-194.1-52.6-197.5-51.7z M-213.3-61.1c-2.1,0-4.6,1.5-6.9,3.9c1.4,1.6,3.1,3.1,5.7,3.1
		c1.8,0,3.6-0.1,5.4-0.2C-209.1-59.1-210.6-61.1-213.3-61.1z M-162.3-75.8c-2.3,0-5.3,3.3-8.3,8.5c5.7-3.6,8.9-6.9,8.9-8
		C-161.7-75.5-161.9-75.8-162.3-75.8z"/>
	<path class="st0" d="M-167.9-15.2c-5.6,0-10-5.7-10-12.5c0-10.5,12.4-29.3,23.5-29.3c3,0,4.5-0.9,6.3-0.9c2.6,0,5.1,3.1,5.1,6.3
		c0,6.2-9.2,16.9-22.5,16.9c-0.2,0-0.5,0-0.7-0.1c-1.1,2.5-1.7,4.8-1.7,6.8c0,3.6,1.3,5.9,4.4,5.9c11,0,20.1-16.4,21.1-16.4
		c0.9,0,1,1.5,1,2.7C-141.5-32.7-154.1-15.2-167.9-15.2z M-150.6-53.1c-2.9,0-9.4,6.9-13.5,14.2c6.5-1.4,15-8.1,15-12.8
		C-149.1-52.6-149.6-53.1-150.6-53.1z"/>
	<path class="st0" d="M-117-16.1c-5.8,0-7.1-6.9-7.4-6.9c-0.2,0-6.3,7.6-13.1,7.6c-4.5,0-9-3.7-9-11.1c0-12.1,14.4-31.3,27.9-31.3
		c6.7,0,7.3,5.7,7.5,5.7c0.4,0,4.8-5.4,6.3-5.4s1.4,0.2,2.4,0.5c0.8,0.2,2.1,0.3,2.1,1.5c0,4.5-14.5,25-14.5,30.1
		c0,0.8,0.4,1.4,1.2,1.4c5.3,0,14-14.6,14.8-14.6c0.7,0,1.1,1.4,1.1,3S-109.8-16.1-117-16.1z M-119.8-53.2
		c-6.7,0-16.4,17.3-16.4,25.4c0,2.6,0.9,4.1,2.6,4.1c2.1,0,7.9-4,7.9-5.5c0-0.7-1.7-0.8-2.4-0.8v-0.7c2.2-0.6,11.7-10.4,11.7-18
		C-116.4-51.2-117.8-53.2-119.8-53.2z"/>
	<path class="st0" d="M-68.4-44.2c-0.4,2.1-0.9,4.5-1.6,7.3c0.7,0.2,1.4,0.3,1.9,0.3c1.7,0,2.1-1.1,2.2-1.1c0.4,0,0.5,0.1,0.5,0.4
		v0.2c0.1,4.8-3.1,7.6-6.3,7.6c-0.2,0-0.5,0-0.7,0c-4,10-12.2,14.4-19.4,14.4s-13.3-4.4-13.3-12c0-6.9,5.7-14.5,14.4-14.5
		c1.2,0,2.3,0.1,3.5,0.2c2.4-2.7,5.4-6.4,7.9-10.3c4.5-6.9,11.1-10.7,14.2-10.7c2.1,0,3.6,0.7,3.6,1.9
		C-61.4-58.6-66.9-51.3-68.4-44.2z M-90.8-32.7c-5.5,0-8.3,3.6-8.3,6.8c0,2.6,1.8,5,5.5,5c3.8,0,8.5-2.8,11.1-10.3
		C-85.4-32.1-88.2-32.7-90.8-32.7z M-78.3-46.8c-0.7,0.9-2.8,3.6-5,6.2c1.1,0.3,2.1,0.6,3.2,0.9c0.8-3.1,1.5-5.5,2-6.9L-78.3-46.8z"
		/>
	<path class="st0" d="M-21.8-35.1c-4.2,8.3-11.1,11.8-16.3,11.8c-0.2,0-0.4,0-0.7,0c-4.3,4.7-9.3,8-14.7,8
		c-6.9,0-11.6-3.9-11.6-11.8c0-12.1,12.1-30.8,25.4-30.8c2.4,0,4.4,1.1,6.7,1.1c3.9,0,5.4,3.3,5.4,6.6c0,5.9-2.4,13.5-6.3,20.1
		c0.5,0.2,0.9,0.3,1.4,0.3c4.8,0,8.3-8.2,9.5-8.2c0.7,0,1.2,1.1,1.2,2.1C-21.6-35.5-21.7-35.3-21.8-35.1z M-36.1-52.2
		c-6.5,0-17,14.3-17,24.1c0,2.8,1,4.8,3.6,4.8c1.5,0,3-0.7,4.5-1.7c-2.1-1.2-3.3-3.2-3.3-5.3c0-2.9,2-5.5,5.5-5.5c2,0,3.6,1,4.9,2.1
		c3-5.2,5-11,5-14.3C-33-50.1-33.7-52.2-36.1-52.2z"/>
	<path class="st0" d="M-1.9-15.6c-3.9,0-7.6-3.1-7.6-7.3c0-9.4,8.7-22.8,10.8-25.8L1-48.9c-4.5,4.4-13.5,14.4-18.1,21.4
		c-4.5,6.9-6.2,11.8-7.9,11.8s-5.3-2.5-5.3-5.5c0-3.9,15.8-36.9,19.4-36.9c1.2,0,5.7,1.1,5.7,3.4c0,2.1-2.8,8.2-3.2,9.6l0.1,0.1
		c1.5-1.5,10.9-12.5,15.4-12.5c3.1,0,7,2.1,7,3.6c0,2.2-1,3.6-2.1,5.9C10.9-45.8,1.6-28.9,1.6-25.4c0,1,0.2,1.7,1.9,1.7
		c4.3,0,13.3-14.8,14-14.8s1.1,1.4,1.1,2.8C18.6-33.4,6.2-15.6-1.9-15.6z"/>
	<path class="st0" d="M47.9-44.2c-0.4,2.1-0.9,4.5-1.6,7.3c0.7,0.2,1.4,0.3,1.9,0.3c1.7,0,2.1-1.1,2.2-1.1c0.4,0,0.5,0.1,0.5,0.4
		v0.2c0.1,4.8-3.1,7.6-6.3,7.6c-0.2,0-0.5,0-0.7,0c-4,10-12.2,14.4-19.4,14.4c-7.2,0-13.3-4.4-13.3-12c0-6.9,5.7-14.5,14.4-14.5
		c1.2,0,2.3,0.1,3.5,0.2c2.4-2.7,5.4-6.4,7.9-10.3c4.5-6.9,11.1-10.7,14.2-10.7c2.1,0,3.6,0.7,3.6,1.9
		C54.9-58.6,49.5-51.3,47.9-44.2z M25.5-32.7c-5.5,0-8.3,3.6-8.3,6.8c0,2.6,1.8,5,5.5,5c3.8,0,8.5-2.8,11.1-10.3
		C30.9-32.1,28.2-32.7,25.5-32.7z M38-46.8c-0.7,0.9-2.8,3.6-5,6.2c1.1,0.3,2.1,0.6,3.2,0.9c0.8-3.1,1.5-5.5,2-6.9L38-46.8z"/>
</g>
<g class="st4">
	<path class="st0" d="M90.8,61.1c4.4,7.8,3,23.1,16.8,23.1c4,0,6.2-2.7,6.7-2.7c0.5,0,0.6,0,0.6,0.6c0,3.2-5.6,10.2-13,10.2
		c-22,0-13.2-24.4-19.6-30.7C74.4,76.9,64.9,91,46.7,91c-12.7,0-22-9.3-22-22.5c0-14.1,10.7-24.9,24.4-24.9c3.2,0,5.9,0.7,8.1,2
		c0-0.4-0.1-0.7-0.1-1.2c0-10.2,20.1-18.4,38.3-18.4c0.3,0,0.7,0,1.1,0c3.5-2.1,7.1-3.5,10.8-3.5c5,0,8.8,2.3,8.8,3.1
		c0,0.3-0.2,0.4-0.7,0.4c-0.7,0-2-0.2-3.3-0.2c-2.2,0-4.3,0.5-6.3,1.5c8.2,2.4,12.5,7.8,12.5,14C118.3,49.9,109.5,59,90.8,61.1z
		 M64.2,41.4c0,1.4,0.7,1.8,2,1.8c3.9,0,9.4-6.4,10.1-7.3c0.7-0.9,1.1-1.8,1.5-1.8c0.5,0,0.6,0.2,0.6,1.2c0,4-6.6,15.5-14,15.5
		c-0.6,0-1.2-0.1-1.7-0.2c1.7,2.7,2.5,5.9,2.5,9.2c0,8.6-5.3,17.3-14.5,17.3c-2.1,0-3.9-0.6-3.9-1.2c0-0.5,1.4-0.4,3.9-2.1
		c1.7-1.2,6.9-7,6.9-15.6c0-5.6-3.6-10.7-9.7-10.7c-7.3,0-15.1,7.7-15.1,19.3c0,10.5,5.9,16.4,12.7,16.4c16.1,0,23.4-20,29.9-32.1
		c3.8-6.9,9.5-15.4,16.2-21.2C75.5,30.7,64.2,36.7,64.2,41.4z M101.2,30.6c-5.9,5.5-10.8,15.2-16.1,25.8
		c10.4-0.2,21.7-9.2,21.7-18.7C106.8,34.5,105.4,31.8,101.2,30.6z"/>
	<path class="st0" d="M127.9,90.9c-5.6,0-10-5.7-10-12.5c0-10.5,12.4-29.3,23.5-29.3c3,0,4.5-0.9,6.3-0.9c2.6,0,5.1,3.1,5.1,6.3
		c0,6.2-9.2,16.9-22.5,16.9c-0.2,0-0.5,0-0.7-0.1c-1.1,2.5-1.7,4.8-1.7,6.8c0,3.6,1.3,5.9,4.4,5.9c11,0,20.1-16.4,21.1-16.4
		c0.9,0,1,1.5,1,2.7C154.3,73.4,141.6,90.9,127.9,90.9z M145.2,53c-2.9,0-9.4,6.9-13.5,14.2c6.5-1.4,15-8.1,15-12.8
		C146.7,53.5,146.2,53,145.2,53z"/>
	<path class="st0" d="M183.7,61.9c-0.4,2.1-0.9,4.5-1.6,7.3c0.7,0.2,1.4,0.3,1.9,0.3c1.7,0,2.1-1.1,2.2-1.1c0.4,0,0.5,0.1,0.5,0.4
		V69c0.1,4.8-3.1,7.6-6.3,7.6c-0.2,0-0.5,0-0.7,0c-4,10-12.2,14.4-19.4,14.4c-7.2,0-13.3-4.4-13.3-12c0-6.9,5.7-14.5,14.4-14.5
		c1.2,0,2.3,0.1,3.5,0.2c2.4-2.7,5.4-6.4,7.9-10.3c4.5-6.9,11.1-10.7,14.2-10.7c2.1,0,3.6,0.7,3.6,1.9
		C190.7,47.6,185.2,54.8,183.7,61.9z M161.3,73.4c-5.5,0-8.3,3.6-8.3,6.8c0,2.6,1.8,5,5.5,5c3.8,0,8.5-2.8,11.1-10.3
		C166.6,74.1,163.9,73.4,161.3,73.4z M173.7,59.4c-0.7,0.9-2.8,3.6-5,6.2c1.1,0.3,2.1,0.6,3.2,0.9c0.8-3.1,1.5-5.5,2-6.9L173.7,59.4
		z"/>
	<path class="st0" d="M197.3,90.9c-5.6,0-10-5.7-10-12.5c0-10.5,12.4-29.3,23.5-29.3c3,0,4.5-0.9,6.3-0.9c2.6,0,5.1,3.1,5.1,6.3
		c0,6.2-9.2,16.9-22.5,16.9c-0.2,0-0.5,0-0.7-0.1c-1.1,2.5-1.7,4.8-1.7,6.8c0,3.6,1.3,5.9,4.4,5.9c11,0,20.1-16.4,21.1-16.4
		c0.9,0,1,1.5,1,2.7C223.6,73.4,211,90.9,197.3,90.9z M214.5,53c-2.9,0-9.4,6.9-13.5,14.2c6.5-1.4,15-8.1,15-12.8
		C216,53.5,215.5,53,214.5,53z"/>
	<path class="st0" d="M245.6,52.4c-1.1,0-0.8,0.1-4.4,0.1c-6.1,11.4-12.4,22.6-12.4,26.5c0,2.7,1.8,3.3,3,3.3
		c5.3,0,14-14.6,14.8-14.6s1.1,1.4,1.1,3c0,1.6-12.3,19.9-19.5,19.9c-5.4,0-11.5-3.1-11.5-7.8c0-5.8,8.8-21.1,13-28.7l1-1.8
		c-1.7-0.2-4.2-0.7-4.2-2.7c0-1.4,0-2.8,0.2-3.4c0.1-0.4,0.2-0.6,0.8-0.6c0.4,0,1.6,0.1,2.6,0.1c1.2,0,3.6-0.5,4.4-0.5
		c3.6-6.8,7.7-13.9,8.7-13.9c3.8,0,6.1,3.6,6.1,5.4c0,1-1.2,3.5-4.2,9h4.5c1.6,0,2.3,0.5,2.3,1.2C251.7,49.7,248.1,52.4,245.6,52.4z
		"/>
	<path class="st0" d="M281.2,90.8c-3.8,0-7.6-3.2-9.2-6.7c-7.5,15.4-13.6,26.7-16.4,26.7c-1.8,0-4.8-2.9-4.8-5
		c0-2.2,6.5-14.2,15.1-30.6c8.7-16.4,14.9-29.2,16.8-29.2c2.6,0,5.8,1.5,5.8,2.7c0,0.7-0.5,2.2-1.5,4.5c3.5-2.6,7.3-4.8,10.8-4.8
		c5,0,7.6,3.2,7.6,9.6C305.5,70.2,292.6,90.8,281.2,90.8z M293.5,53.9c-2.1,0-6.3,3.1-9.7,6.1c-1.9,4-4.5,9.2-7.5,15.4
		c0.8,3.9,2.5,7.6,4.6,7.6c4.5,0,15.1-21.3,15.1-26.3C296,55.2,295.1,53.9,293.5,53.9z"/>
	<path class="st0" d="M333.3,90c-5.8,0-7.1-6.9-7.4-6.9c-0.2,0-6.3,7.6-13.1,7.6c-4.5,0-9-3.7-9-11.1c0-12.1,14.4-31.3,27.9-31.3
		c6.7,0,7.3,5.7,7.5,5.7c0.4,0,4.8-5.4,6.3-5.4s1.4,0.2,2.4,0.5c0.8,0.2,2.1,0.3,2.1,1.5c0,4.5-14.5,25-14.5,30.1
		c0,0.8,0.4,1.4,1.2,1.4c5.3,0,14-14.6,14.8-14.6c0.7,0,1.1,1.4,1.1,3C352.5,72.2,340.5,90,333.3,90z M330.5,52.9
		c-6.7,0-16.4,17.3-16.4,25.4c0,2.6,0.9,4.1,2.6,4.1c2.1,0,7.9-4,7.9-5.5c0-0.7-1.7-0.8-2.4-0.8v-0.7c2.1-0.6,11.6-10.3,11.6-17.9
		C333.9,54.9,332.5,52.9,330.5,52.9z"/>
	<path class="st0" d="M381.8,61.9c-0.4,2.1-0.9,4.5-1.6,7.3c0.7,0.2,1.4,0.3,1.9,0.3c1.7,0,2.1-1.1,2.2-1.1c0.4,0,0.5,0.1,0.5,0.4
		V69c0.1,4.8-3.1,7.6-6.3,7.6c-0.2,0-0.5,0-0.7,0c-4,10-12.2,14.4-19.4,14.4s-13.3-4.4-13.3-12c0-6.9,5.7-14.5,14.4-14.5
		c1.2,0,2.3,0.1,3.5,0.2c2.4-2.7,5.4-6.4,7.9-10.3c4.5-6.9,11.1-10.7,14.2-10.7c2.1,0,3.6,0.7,3.6,1.9
		C388.9,47.6,383.4,54.8,381.8,61.9z M359.5,73.4c-5.5,0-8.3,3.6-8.3,6.8c0,2.6,1.8,5,5.5,5c3.8,0,8.5-2.8,11.1-10.3
		C364.8,74.1,362.1,73.4,359.5,73.4z M371.9,59.4c-0.7,0.9-2.8,3.6-5,6.2c1.1,0.3,2.1,0.6,3.2,0.9c0.8-3.1,1.5-5.5,2-6.9L371.9,59.4
		z"/>
	<path class="st0" d="M415.9,61.9c-0.4,2.1-0.9,4.5-1.6,7.3c0.7,0.2,1.4,0.3,1.9,0.3c1.7,0,2.1-1.1,2.2-1.1c0.4,0,0.5,0.1,0.5,0.4
		V69c0.1,4.8-3.1,7.6-6.3,7.6c-0.2,0-0.5,0-0.7,0c-4,10-12.2,14.4-19.4,14.4s-13.3-4.4-13.3-12c0-6.9,5.7-14.5,14.4-14.5
		c1.2,0,2.3,0.1,3.5,0.2c2.4-2.7,5.4-6.4,7.9-10.3c4.5-6.9,11.1-10.7,14.2-10.7c2.1,0,3.6,0.7,3.6,1.9
		C422.9,47.6,417.4,54.8,415.9,61.9z M393.5,73.4c-5.5,0-8.3,3.6-8.3,6.8c0,2.6,1.8,5,5.5,5c3.8,0,8.5-2.8,11.1-10.3
		C398.8,74.1,396.1,73.4,393.5,73.4z M406,59.4c-0.7,0.9-2.8,3.6-5,6.2c1.1,0.3,2.1,0.6,3.2,0.9c0.8-3.1,1.5-5.5,2-6.9L406,59.4z"/>
	<path class="st0" d="M469,63.6c-1.2,0-2.8-0.5-3.6-1.4c-2.6,3.8-20.7,28.9-23.6,28.9s-5.4-3.7-5.4-5.9c0-2.3,3.7-13.3,6.4-21.5
		c-6.4,8.5-15.9,23.5-18.2,26.4c-0.3,0.4-0.7,0.6-1.2,0.6c-2.3,0-5.9-3.7-5.9-5.5c0-2.5,4.1-14.7,6.9-23c3.7-11.5,4.2-13.7,7.6-13.7
		c2,0,5.2,0.8,5.2,3.3c0,3.3-6.3,19.2-8.3,23.9l0.2,0.1c5.5-8.9,15.8-21.8,18.4-25.2c1.1-1.4,1.6-2.1,2.2-2.1c2,0,5.9,2.6,5.9,4.4
		c0,3.4-6.7,20.6-8.7,25.2l0.2,0.1c1.5-2.1,15.2-19.6,15.2-19.9c0-0.7-0.5-0.7-0.5-2.9c0-3.1,6.9-12.5,9.7-12.5c1.2,0,3.9,0.3,3.9,2
		c0,2.5-7.8,12.7-7.8,13c0,1.1,1.3,2.3,3,2.3c3.1,0,5.7-3.1,6-3.1c0.4,0,0.6,0.2,0.6,0.7C477.3,58.6,473.5,63.6,469,63.6z"/>
	<path class="st0" d="M509.3,71c-4.2,8.3-11.1,11.8-16.3,11.8c-0.2,0-0.4,0-0.7,0c-4.3,4.7-9.3,8-14.7,8c-6.9,0-11.6-3.9-11.6-11.8
		c0-12.1,12.1-30.8,25.4-30.8c2.4,0,4.4,1.1,6.7,1.1c3.9,0,5.4,3.3,5.4,6.6c0,5.9-2.4,13.5-6.3,20.1c0.5,0.2,0.9,0.3,1.4,0.3
		c4.8,0,8.3-8.2,9.5-8.2c0.7,0,1.2,1.1,1.2,2.1C509.5,70.6,509.4,70.9,509.3,71z M495.1,53.9c-6.5,0-17,14.3-17,24.1
		c0,2.8,1,4.8,3.6,4.8c1.5,0,3-0.7,4.5-1.7c-2.1-1.2-3.3-3.2-3.3-5.3c0-2.9,2-5.5,5.5-5.5c2,0,3.6,1,4.9,2.1c3-5.2,5-11,5-14.3
		C498.1,56.1,497.4,53.9,495.1,53.9z"/>
	<path class="st0" d="M521.6,90.4c-5.2,0-9.2-3.1-9.2-9c0-8.1,11.1-23,11.1-23.2c0-0.2-2.7-1.3-4.1-1.3c-0.3,0-0.6,0.1-0.7,0.2
		c-4,6.6-8.1,12.6-11,16.8c-0.2,0.4-0.6,0.7-0.9,0.7c-0.7,0-1.2-1-1.2-2.5c0-0.6,0.5-1.4,0.7-1.8c1.1-1.6,3.2-4.8,5.5-9.5
		c2.5-5,3-8.5,4.5-12.2c1.7-4.1,2.9-5,5.6-5c1.2,0,1.9,0.7,1.9,2.1c0,1.7-0.8,2.3-0.8,2.6c0,0.3,0.5,0.6,1.8,0.6
		c3.9,0,8.5-0.7,9.7-0.7c2.3,0,5.4,4.5,5.4,6.4c0,1.5-2.6,2.8-4.4,4.9c-3.1,3.4-11.6,15.4-11.6,21.8c0,0.6,0.3,1.2,1.2,1.2
		c2.1,0,5.8-3.2,8.6-6.7c3.1-3.8,5.8-7.9,6.2-7.9c0.7,0,1.1,1.5,1.1,3C540.8,72.5,528.7,90.4,521.6,90.4z"/>
	<path class="st0" d="M567.6,80.9c0,0.8,0.4,1.4,1.2,1.4c5.3,0,14-14.6,14.7-14.6c0.8,0,1.2,1.4,1.2,3c0,1.6-12.1,19.4-19.3,19.4
		c-5.3,0-8.2-3.9-8.9-6.9c-1.2,1.8-6,7.6-11.3,7.6c-4.5,0-9-3.7-9-11.1c0-12.1,14.4-31.3,27.9-31.3c4.7,0,5.7,5,5.8,5.7
		c2.2-4,12.6-25.9,14.2-25.9c3.3,0,5.5,3.8,5.5,6.5C589.5,37.9,567.6,74.1,567.6,80.9z M562.4,53.4c-7,0-15.9,17.4-15.9,25.4
		c0,2.3,0.8,3.7,2.6,3.7c4.7,0,16.7-21.3,16.7-23.4C565.7,54.8,564,53.4,562.4,53.4z"/>
</g>
<text transform="matrix(1 0 0 1 136.1998 -213.8995)" class="st0" style="font-family:'CornerStoreJF'; font-size:82.5787px;">Seasons</text>
<rect x="136.2" y="-214.9" class="st3" width="330" height="57.9"/>
<g class="st4">
	<path class="st5" d="M1058.2,421.5c-7.9,0-15.3-1.8-21.7-5c-12,12.6-21.2,26.9-21.2,38.3c0,6.7,4.8,10.8,11.6,10.8
		c18.4,0,30.8-17.4,30.8-26c0-2.5-1.7-3.9-4.2-3.9c-4.2,0-10.1,4.7-11.2,11.1c-0.2,0.8-0.1,1.2-0.6,1.2s-1.6-2.4-1.6-4.9
		c0-7.1,6.2-15,15.8-15c7.1,0,10.2,4.1,10.2,9.9c0,14-18.2,37.8-43.3,37.8c-13.5,0-23.9-9-23.9-22c0-15.4,11.2-32.3,26.6-46
		c-5.3-6-8.4-13.6-8.4-22.6c0-6.9,5-13,6.6-13c0.2,0,0.2,0,0.2,0.2c0,0.5-0.1,1.3-0.1,2.6c0,10.3,3.5,19.3,10.7,25.5
		c15.9-11.8,34.5-19.7,48.8-19.7c10.4,0,16.4,5,16.4,11.7C1099.6,405.1,1082.4,421.5,1058.2,421.5z M1082.4,386.6
		c-8.1,0-22.6,8.6-36.1,20.6c4.4,1.4,9.6,2.2,15.4,2.2c16.5,0,28.7-9.2,28.7-16.4C1090.4,388.6,1087,386.6,1082.4,386.6z"/>
	<path class="st5" d="M1092.6,452.4c-1.1,3.6-1.8,6.8-1.8,9.7c0,2.3,2.2,4.2,4.7,4.2c11.4,0,26-24.9,27.3-24.9
		c1.3,0,1.6,2.6,1.6,3.9c0,4.2-18.5,29.2-34,29.2c-7.1,0-14-7.5-14-13.2c0-19.1,32.6-77.1,55.6-77.1c4.7,0,8.4,2.8,8.4,4.7
		C1140.4,393.9,1113.2,441.3,1092.6,452.4z M1130.6,394.2c-1.8,0-21.5,24.1-32.6,45.5c12.9-10.5,32.9-43,32.9-45.1
		C1130.9,394.4,1130.7,394.2,1130.6,394.2z"/>
	<path class="st5" d="M1154.6,474.5c-5.7,0-11-4.4-11-10.7c0-1.2,0-1.6,0.1-2.3c-1.9,2.8-11.1,13-16.6,13c-5.4,0-10.9-6.9-10.9-13.8
		c0-14.6,18.7-44.8,24.8-47.3c0.5-0.1,1.7-0.2,3.1-0.2c3,0,7.2,0.6,7.2,2.6c0,0.2-0.1,0.6-0.4,1c-2.5,4.8-20.5,36.1-20.5,44.4
		c0,1.8,0.7,2.5,1.7,2.5c2.8,0,12.6-10.8,19.4-22.4c6-9.9,13.8-27.8,16.4-27.8c5.9,0,10.3,2,10.3,4.2c0,3.2-1.9,6.2-3.5,9.5
		c-1.7,3.2-15.2,27.6-15.2,32.8c0,1.4,0.4,2.5,2.9,2.5c6.1,0,19.3-21.4,20.2-21.4c1.2,0,1.6,2,1.6,4.1
		C1184.2,448.8,1166.4,474.5,1154.6,474.5z"/>
	<path class="st5" d="M1193.4,474.4c-8.1,0-16.3-4.1-16.3-19.6c0-5.4,8.9-21.2,18.2-36.7c10.2-17,19.7-33.5,25.6-33.5
		c3.2,0,8,2.3,8,3.9s-5.5,9.2-8.6,14.4c-3.2,5.3-7.7,13-7.7,13.5l0.2,0.1c3.1-1.7,6.2-2.5,8.9-2.5c6.6,0,11.2,4.8,11.2,14.2
		C1233,446.1,1216.6,474.4,1193.4,474.4z M1216,420.6c-4.2,0-7.8,4.5-9.6,6.5c-1.8,2-17.1,30.6-17.1,35.9c0,2,1.2,3.7,4.2,3.7
		c9.5,0,27.2-28.4,27.2-40.5C1220.7,423.9,1219.1,420.6,1216,420.6z"/>
</g>
<g class="st4">
	<path class="st0" d="M-252.3-195.4c-1.4,3.2-2.7,6.7-3.9,10.5c-3.9,12.6-9.9,25-24.9,25c-12.2,0-17.6-9-17.6-18.6
		c0-3.4,0.7-6.9,2.1-10c-0.4-0.6-0.6-1.4-0.6-2.4c0-2.7,1.8-4.5,4.6-4.5c0.3,0,0.6,0,0.8,0.1c3-2.8,6.9-4.7,11.5-4.7
		c5.6,0,8.5,3,9.3,8.2c3.7-0.8,7.1-1.9,10.2-3.2c4.7-8.5,10.5-15.8,20.3-15.8c2.6,0,3.7,1.2,3.7,2.2
		C-236.7-204.7-243.4-199.7-252.3-195.4z M-270.9-188.4c-0.3,6.6-7,15.3-11.5,15.3c-2.1,0-5.8-1.6-5.8-2c0-0.3,1.2-0.3,2.1-0.8
		c0.6-0.3,4.5-4.1,5.7-10.3c-2.6,0.4-5.2,0.6-7.4,0.6c-1.9,0-3.6-0.1-5-0.5c-0.8,2.1-1.3,4.2-1.3,6.3c0,7.4,4.3,12.2,10,12.2
		c10.5,0,15.4-12,21.1-23.3C-265.5-190-268.2-189.1-270.9-188.4z M-283.2-195.8c-1.7,0-3.6,1.2-5.4,3c1.1,1.2,2.4,2.4,4.5,2.4
		c1.4,0,2.8-0.1,4.2-0.1C-279.9-194.2-281.1-195.8-283.2-195.8z M-233.8-221.3c-3.6,2.4-6.6,7.4-9.2,7.4c-2.2,0-2.6-5.3-3.8-7.4
		c-1.5-2.5-4.5-4.4-4.5-4.8c0-0.8,1.1-1.4,1.8-1.4c3.8,0,7.2,3.6,8.9,6.8c3.4-2.7,9.3-6.8,13.8-6.8c0.5,0,1,0.3,1,0.8
		C-225.8-225.1-230.8-223.2-233.8-221.3z M-243.3-207.2c-1.8,0-4.1,2.6-6.5,6.7c4.5-2.8,7-5.4,7-6.3
		C-242.8-207-243-207.2-243.3-207.2z"/>
	<path class="st0" d="M-246.2-160.1c-3.3,0-5.3-3.7-5.3-7.4c0-7.9,10-24.2,13.4-25.5c0.3-0.1,0.9-0.1,1.6-0.1c1.7,0,3.9,0.3,3.9,1.4
		c0,0.1,0,0.3-0.1,0.5c-1.4,2.6-11.1,19.5-11.1,24c0,1,0.4,1.4,0.8,1.4c4,0,11.5-12.2,12.1-12.2c0.7,0,0.8,1.5,0.8,2.4
		C-230.1-174.6-239.6-160.1-246.2-160.1z M-237.2-196.5c-0.8,0-1.4-0.6-1.4-1.1c0-1,3.7-1.7,6.5-4.7c2.3-2.5,3.1-7.8,5.6-7.8
		c1.6,0,3.9,1.5,3.9,3.6C-222.6-202.5-233.4-196.5-237.2-196.5z"/>
	<path class="st0" d="M-222.2-160c-3,0-5.9-2.5-7.2-5.2c-5.9,12-10.7,20.9-12.8,20.9c-1.4,0-3.7-2.3-3.7-3.9
		c0-1.7,5.1-11.1,11.8-23.9c6.8-12.8,11.6-22.9,13.1-22.9c2.1,0,4.5,1.2,4.5,2.1c0,0.6-0.4,1.7-1.2,3.5c2.7-2,5.7-3.7,8.5-3.7
		c3.9,0,5.9,2.5,5.9,7.5C-203.2-176.1-213.3-160-222.2-160z M-212.6-188.8c-1.7,0-4.9,2.5-7.6,4.8c-1.5,3.2-3.5,7.2-5.9,12.1
		c0.6,3,1.9,5.9,3.6,5.9c3.6,0,11.8-16.7,11.8-20.6C-210.7-187.8-211.3-188.8-212.6-188.8z"/>
	<path class="st0" d="M-186.9-159.9c-4.1,0-6.9-3.3-6.9-7c0-4.7,1.9-8.8,2.9-10.8l-0.2-0.2c-2.5,2.4-6.5,7.9-8.7,11.9
		c-2.1,3.9-2.2,6-3,6c-1.4,0-4.8-2.3-4.8-5s5.8-13.3,10.5-22c4.7-8.6,11.2-20.2,13.9-20.2c1.4,0,3.9,0.8,3.9,2.5
		c0,2.6-2,5.8-4.6,9.8c-2.5,4.1-5,8.7-5.6,9.8l0.3,0.1c2-1.9,9.4-8.2,15.8-8.2c2.6,0,4.6,1.4,4.6,3.9c0,4.2-6,12.2-11.2,12.2
		c-1.6,0-2.1-0.6-2.4-0.6c-0.2,0-3.6,9.1-3.6,11.6c0,1,0.6,1.8,2,1.8c7.6,0,15.3-13.7,16.1-13.7c0.5,0,0.8,1.4,0.8,2.3
		C-166.9-175.2-175.2-159.9-186.9-159.9z M-174.5-190.7c-1,0-9.6,5.4-9.6,6.2c0,0.3,0.8,1,2,1c1.9,0,8-5,8-6.8
		C-174.1-190.6-174.3-190.7-174.5-190.7z"/>
	<path class="st0" d="M-147.8-160.6c-4.5,0-5.6-5.4-5.8-5.4s-4.9,5.9-10.3,5.9c-3.6,0-7-2.9-7-8.7c0-9.5,11.2-24.5,21.8-24.5
		c5.2,0,5.7,4.5,5.9,4.5c0.3,0,3.7-4.2,4.9-4.2s1.1,0.2,1.9,0.4c0.6,0.1,1.6,0.3,1.6,1.2c0,3.6-11.4,19.6-11.4,23.6
		c0,0.6,0.3,1.1,1,1.1c4.1,0,10.9-11.4,11.6-11.4c0.6,0,0.8,1.1,0.8,2.3C-132.8-174.5-142.2-160.6-147.8-160.6z M-150-189.6
		c-5.2,0-12.8,13.5-12.8,19.8c0,2.1,0.7,3.2,2,3.2c1.7,0,6.2-3.1,6.2-4.3c0-0.5-1.4-0.6-1.9-0.6v-0.5c1.7-0.5,9.1-8.1,9.1-14
		C-147.4-188-148.5-189.6-150-189.6z"/>
	<path class="st6" d="M-123.3-160.2c-4.1,0-7.2-2.4-7.2-7c0-6.3,8.7-18,8.7-18.2c0-0.1-2.1-1-3.2-1c-0.3,0-0.5,0.1-0.5,0.2
		c-3.2,5.2-6.3,9.9-8.6,13.1c-0.2,0.3-0.5,0.5-0.7,0.5c-0.6,0-1-0.8-1-1.9c0-0.5,0.4-1.1,0.6-1.4c0.8-1.2,2.5-3.7,4.3-7.4
		c1.9-3.9,2.3-6.7,3.6-9.6c1.3-3.2,2.3-3.9,4.4-3.9c1,0,1.5,0.6,1.5,1.7c0,1.3-0.6,1.8-0.6,2c0,0.3,0.4,0.5,1.4,0.5
		c3,0,6.7-0.5,7.6-0.5c1.8,0,4.2,3.6,4.2,5c0,1.2-2,2.2-3.4,3.8c-2.5,2.6-9.1,12-9.1,17.1c0,0.5,0.3,1,0.9,1c1.6,0,4.5-2.5,6.7-5.2
		c2.5-3,4.5-6.2,4.8-6.2c0.6,0,0.8,1.2,0.8,2.3C-108.2-174.3-117.7-160.2-123.3-160.2z"/>
	<path class="st6" d="M-103.8-159.9c-4.4,0-7.8-4.5-7.8-9.8c0-8.2,9.7-22.9,18.4-22.9c2.3,0,3.6-0.7,4.9-0.7c2.1,0,4,2.4,4,4.9
		c0,4.8-7.2,13.3-17.6,13.3c-0.2,0-0.4,0-0.6-0.1c-0.8,1.9-1.4,3.7-1.4,5.3c0,2.8,1,4.7,3.4,4.7c8.6,0,15.7-12.8,16.5-12.8
		c0.7,0,0.8,1.2,0.8,2.1C-83.2-173.6-93.1-159.9-103.8-159.9z M-90.3-189.5c-2.3,0-7.4,5.4-10.6,11.1c5.1-1.1,11.8-6.3,11.8-10
		C-89.1-189.1-89.5-189.5-90.3-189.5z"/>
	<path class="st6" d="M-67.6-160.2c-3,0-5.9-2.4-5.9-5.8c0-7.4,6.8-17.8,8.5-20.2l-0.3-0.1c-3.6,3.4-10.5,11.2-14.2,16.7
		c-3.6,5.4-4.8,9.2-6.2,9.2c-1.3,0-4.1-1.9-4.1-4.3c0-3,12.3-28.9,15.2-28.9c1,0,4.5,0.8,4.5,2.7c0,1.6-2.2,6.4-2.5,7.5l0.1,0.1
		c1.2-1.2,8.5-9.8,12.1-9.8c2.4,0,5.5,1.6,5.5,2.8c0,1.7-0.8,2.8-1.7,4.6c-0.8,1.7-8.1,14.9-8.1,17.7c0,0.8,0.2,1.4,1.5,1.4
		c3.4,0,10.4-11.6,11-11.6s0.8,1.1,0.8,2.2C-51.6-174.1-61.3-160.2-67.6-160.2z M-56.4-201.9c-3,2-5.6,6.2-7.8,6.2
		c-1.8,0-2.1-4.5-3.2-6.2c-1.3-2.1-3.8-3.7-3.8-4c0-0.7,1-1.2,1.6-1.2c3.2,0,6.1,3,7.5,5.7c2.8-2.3,7.8-5.7,11.6-5.7
		c0.4,0,0.9,0.2,0.9,0.6C-49.7-205.2-54-203.5-56.4-201.9z"/>
</g>
<circle class="st0" cx="929.2" cy="-150.5" r="37.5"/>
<circle class="st1" cx="929.2" cy="-150.5" r="28.5"/>
<circle class="st0" cx="929.2" cy="-150.5" r="20"/>
<circle class="st1" cx="929.2" cy="-150.5" r="10"/>
</svg>
