<?xml version="1.0" encoding="utf-8"?>
<!-- Generator: Adobe Illustrator 26.5.3, SVG Export Plug-In . SVG Version: 6.00 Build 0)  -->
<svg version="1.1" id="Layer_1" xmlns="http://www.w3.org/2000/svg" xmlns:xlink="http://www.w3.org/1999/xlink" x="0px" y="0px"
	 viewBox="0 0 181.1 57.2" style="enable-background:new 0 0 181.1 57.2;" xml:space="preserve">
<style type="text/css">
	.st0{fill:#B52828;}
	.st1{fill:#BFB5AC;}
	.st2{fill:#C92F2F;}
	.st3{fill:none;}
	.st4{enable-background:new    ;}
	.st5{fill:#6E7A18;}
	.st6{fill:#36482E;}
</style>
<g>
	<path class="st0" d="M1179.4-216.3c-3,6.8-5.8,14.3-8.3,22.3c-8.3,26.9-21.1,53.3-53.1,53.3c-25.9,0-37.6-19.3-37.6-39.5
		c0-7.3,1.5-14.6,4.5-21.4c-0.8-1.4-1.4-3-1.4-5.1c0-5.7,3.9-9.6,9.8-9.6c0.7,0,1.2,0,1.8,0.1c6.3-6.1,14.6-9.9,24.5-9.9
		c11.9,0,18.2,6.3,19.8,17.5c7.9-1.8,15.2-4.1,21.8-6.8c10.1-18.2,22.3-33.8,43.3-33.8c5.5,0,8,2.6,8,4.7
		C1212.6-236.2,1198.4-225.6,1179.4-216.3z M1139.8-201.4c-0.7,14.1-15,32.7-24.5,32.7c-4.5,0-12.3-3.4-12.3-4.3
		c0-0.7,2.6-0.7,4.5-1.7c1.4-0.7,9.5-8.7,12.1-22c-5.6,0.8-11,1.4-15.7,1.4c-4,0-7.6-0.3-10.6-1.1c-1.8,4.4-2.8,9-2.8,13.5
		c0,15.7,9.2,25.9,21.2,25.9c22.5,0,32.8-25.6,45.1-49.7C1151.3-204.9,1145.5-203,1139.8-201.4z M1113.5-217.2
		c-3.6,0-7.7,2.5-11.4,6.5c2.3,2.6,5.1,5.1,9.5,5.1c3,0,6.1-0.1,9-0.3C1120.5-213.7,1117.9-217.2,1113.5-217.2z M1218.9-271.4
		c-7.7,5.1-14.1,15.7-19.7,15.7c-4.7,0-5.5-11.3-8.1-15.7c-3.2-5.2-9.5-9.4-9.5-10.2c0-1.8,2.3-2.9,3.9-2.9
		c8.1,0,15.3,7.7,18.9,14.5c7.2-5.8,19.8-14.5,29.4-14.5c1,0,2.2,0.6,2.2,1.7C1235.9-279.6,1225.1-275.6,1218.9-271.4z
		 M1198.5-241.5c-3.9,0-8.8,5.5-13.8,14.2c9.5-6.1,14.9-11.6,14.9-13.4C1199.6-241.1,1199.2-241.5,1198.5-241.5z"/>
	<path class="st0" d="M1192.3-141.1c-7,0-11.3-8-11.3-15.8c0-16.8,21.4-51.5,28.5-54.4c0.6-0.1,1.9-0.3,3.4-0.3c3.6,0,8.3,0.7,8.3,3
		c0,0.3,0,0.7-0.3,1.1c-3,5.5-23.6,41.6-23.6,51.1c0,2.1,0.8,2.9,1.8,2.9c8.5,0,24.5-26,25.8-26c1.5,0,1.7,3.2,1.7,5.1
		C1226.7-172,1206.5-141.1,1192.3-141.1z M1211.5-218.7c-1.8,0-2.9-1.2-2.9-2.3c0-2.2,8-3.6,13.8-9.9c5-5.4,6.6-16.7,12-16.7
		c3.4,0,8.4,3.2,8.4,7.7C1242.8-231.5,1219.8-218.7,1211.5-218.7z"/>
	<path class="st0" d="M1243.5-140.8c-6.3,0-12.7-5.4-15.3-11.2c-12.5,25.6-22.7,44.5-27.3,44.5c-3,0-8-4.8-8-8.4
		c0-3.7,10.9-23.7,25.2-51c14.5-27.3,24.8-48.8,28-48.8c4.4,0,9.6,2.5,9.6,4.5c0,1.2-0.8,3.7-2.5,7.4c5.8-4.3,12.1-8,18.1-8
		c8.3,0,12.7,5.4,12.7,16C1284-175.1,1262.5-140.8,1243.5-140.8z M1264-202.3c-3.6,0-10.5,5.2-16.3,10.2
		c-3.2,6.8-7.4,15.3-12.5,25.8c1.4,6.5,4.1,12.7,7.7,12.7c7.6,0,25.2-35.6,25.2-43.8C1268.1-200.2,1266.7-202.3,1264-202.3z"/>
	<path class="st0" d="M1318.8-140.7c-8.8,0-14.6-7-14.6-15c0-9.9,4-18.7,6.2-23l-0.4-0.4c-5.4,5.1-13.9,16.8-18.5,25.4
		c-4.4,8.4-4.7,12.8-6.5,12.8c-3,0-10.2-5-10.2-10.6s12.3-28.4,22.5-46.9c10.1-18.3,23.8-43.1,29.6-43.1c2.9,0,8.3,1.8,8.3,5.4
		c0,5.5-4.3,12.3-9.8,20.9c-5.4,8.8-10.7,18.6-11.9,20.8l0.7,0.1c4.3-4,20-17.5,33.8-17.5c5.5,0,9.8,2.9,9.8,8.3c0,9-12.8,26-24,26
		c-3.3,0-4.5-1.4-5.1-1.4c-0.4,0-7.7,19.4-7.7,24.8c0,2.1,1.2,3.9,4.3,3.9c16.3,0,32.7-29.2,34.3-29.2c1.1,0,1.8,3,1.8,4.8
		C1361.4-173.3,1343.6-140.7,1318.8-140.7z M1345.2-206.3c-2.1,0-20.4,11.4-20.4,13.2c0,0.7,1.8,2.1,4.3,2.1
		c4.1,0,16.9-10.6,16.9-14.5C1346-206,1345.7-206.3,1345.2-206.3z"/>
	<path class="st0" d="M1402.1-142.1c-9.6,0-11.9-11.4-12.3-11.4s-10.5,12.7-21.9,12.7c-7.6,0-15-6.2-15-18.5
		c0-20.3,24-52.2,46.6-52.2c11.2,0,12.1,9.5,12.5,9.5c0.7,0,8-9,10.5-9s2.3,0.4,4,0.8c1.4,0.3,3.4,0.6,3.4,2.5
		c0,7.6-24.3,41.8-24.3,50.3c0,1.4,0.7,2.3,2.1,2.3c8.8,0,23.3-24.4,24.7-24.4c1.2,0,1.8,2.3,1.8,5S1414.1-142.1,1402.1-142.1z
		 M1397.4-203.9c-11.2,0-27.3,28.8-27.3,42.3c0,4.4,1.5,6.9,4.3,6.9c3.6,0,13.2-6.6,13.2-9.2c0-1.1-2.9-1.4-4-1.4v-1.1
		c3.6-1,19.4-17.2,19.4-29.9C1403-200.6,1400.7-203.9,1397.4-203.9z"/>
	<path class="st1" d="M1454.4-141.4c-8.7,0-15.4-5.1-15.4-15c0-13.5,18.6-38.3,18.6-38.7c0-0.3-4.5-2.2-6.9-2.2
		c-0.6,0-1,0.1-1.1,0.4c-6.8,11-13.5,21.1-18.3,28c-0.4,0.7-1,1.1-1.5,1.1c-1.2,0-2.1-1.7-2.1-4.1c0-1,0.8-2.3,1.2-3
		c1.8-2.6,5.4-8,9.1-15.8c4.1-8.3,5-14.2,7.6-20.4c2.8-6.9,4.8-8.3,9.4-8.3c2.1,0,3.2,1.2,3.2,3.6c0,2.8-1.4,3.9-1.4,4.3
		c0,0.6,0.8,1,3,1c6.5,0,14.2-1.1,16.1-1.1c3.9,0,9,7.6,9,10.7c0,2.5-4.3,4.7-7.3,8.1c-5.2,5.6-19.4,25.6-19.4,36.4
		c0,1,0.6,2.1,1.9,2.1c3.4,0,9.6-5.4,14.3-11.2c5.2-6.3,9.6-13.2,10.3-13.2c1.2,0,1.8,2.5,1.8,5
		C1486.5-171.3,1466.4-141.4,1454.4-141.4z"/>
	<path class="st1" d="M1495.9-140.5c-9.4,0-16.7-9.5-16.7-20.8c0-17.5,20.7-48.9,39.1-48.9c5,0,7.6-1.5,10.5-1.5
		c4.4,0,8.5,5.1,8.5,10.5c0,10.3-15.3,28.2-37.5,28.2c-0.4,0-0.8,0-1.2-0.1c-1.8,4.1-2.9,8-2.9,11.3c0,6.1,2.2,9.9,7.3,9.9
		c18.3,0,33.5-27.3,35.1-27.3c1.5,0,1.7,2.5,1.7,4.5C1539.9-169.7,1518.8-140.5,1495.9-140.5z M1524.7-203.8
		c-4.8,0-15.7,11.6-22.6,23.7c10.9-2.3,25.1-13.5,25.1-21.4C1527.2-203,1526.4-203.8,1524.7-203.8z"/>
	<path class="st1" d="M1573.1-141.2c-6.5,0-12.7-5.1-12.7-12.3c0-15.7,14.5-38,18.1-43l-0.6-0.3c-7.6,7.3-22.5,24-30.2,35.7
		c-7.6,11.6-10.3,19.7-13.2,19.7c-2.8,0-8.8-4.1-8.8-9.2c0-6.5,26.3-61.6,32.4-61.6c2.1,0,9.5,1.8,9.5,5.7c0,3.4-4.7,13.6-5.4,16
		l0.1,0.1c2.5-2.5,18.2-20.8,25.8-20.8c5.1,0,11.7,3.4,11.7,5.9c0,3.7-1.7,6.1-3.6,9.8c-1.8,3.7-17.4,31.8-17.4,37.8
		c0,1.7,0.4,2.9,3.2,2.9c7.2,0,22.2-24.7,23.4-24.7s1.8,2.3,1.8,4.7C1607.2-170.9,1586.6-141.2,1573.1-141.2z M1596.9-230.2
		c-6.5,4.3-11.9,13.2-16.7,13.2c-3.9,0-4.5-9.5-6.8-13.2c-2.8-4.4-8.1-7.9-8.1-8.5c0-1.5,2.1-2.5,3.3-2.5c6.9,0,13,6.5,16,12.1
		c6.1-4.8,16.7-12.1,24.7-12.1c0.8,0,1.9,0.4,1.9,1.4C1611.2-237.1,1602.1-233.7,1596.9-230.2z"/>
</g>
<g>
	<path class="st0" d="M-231.6,150.7c-6.7,0-9.8-4.8-12.3-9.7c-4.9,5.1-10.7,9.2-16.7,9.2c-4.2,0-7.4-3.3-7.4-7.9
		c0-8.5,7.3-17.4,16.9-17.4c3.6,0,6.2,1.4,8.1,3.4c1.4-2,2.8-4.1,4.1-6c4.5-6.8,10.2-13,16.1-17.2c-1.5-0.3-3.2-0.5-5-0.5
		c-11.7,0-22.3,7.7-22.3,12.3c0,0.6,0.8,1.2,1.6,1.2c5.8,0,10.9-7.9,11.9-9.7c0.1-0.2,0.3-0.3,0.4-0.3c0.1,0,0.3,0.3,0.3,0.5
		c0,10.5-7.2,15.3-12.8,15.3c-3.4,0-6.1-1.8-6.1-5.2c0-6.1,12.3-16.9,29.2-16.9c2.4,0,4.7,0.3,6.8,0.8c3-1.6,5.9-2.5,8.6-2.5
		c1.8,0,2.8,0.5,2.8,0.8c0,0.4-0.3,0.4-1.6,0.4c-1.9,0-4,1-6,2.7c5.9,2.8,9.5,8.5,9.5,17.3C-205.8,135-217.1,150.7-231.6,150.7z
		 M-254.2,129.5c-5.9,0-10.9,4.9-10.9,10.5c0,2.8,1.8,4.5,4.1,4.5c3.8,0,8.7-4.5,13.6-10.6C-249.2,131.3-251.2,129.5-254.2,129.5z
		 M-218.5,107c-5.3,5.9-10.5,14.8-14.3,20c-1.7,2.3-3.7,5.1-6.1,8.1c2.1,4.5,3.9,8.7,8.2,8.7c10,0,16-14.1,16-25.2
		C-214.6,113.6-215.9,109.3-218.5,107z"/>
	<path class="st0" d="M-185.8,150c-4.3,0-5.4-5.1-5.5-5.1c-0.2,0-4.7,5.7-9.9,5.7c-3.4,0-6.8-2.8-6.8-8.3c0-9.1,10.8-23.5,21-23.5
		c5,0,5.4,4.3,5.6,4.3c0.3,0,3.6-4.1,4.7-4.1s1,0.2,1.8,0.4c0.6,0.1,1.5,0.3,1.5,1.1c0,3.4-10.9,18.8-10.9,22.6c0,0.6,0.3,1,0.9,1
		c4,0,10.5-11,11.1-11c0.5,0,0.8,1,0.8,2.3C-171.3,136.6-180.4,150-185.8,150z M-187.9,122.1c-5,0-12.3,13-12.3,19
		c0,2,0.7,3.1,1.9,3.1c1.6,0,5.9-3,5.9-4.1c0-0.5-1.3-0.6-1.8-0.6V139c1.6-0.5,8.7-7.7,8.7-13.5
		C-185.4,123.6-186.4,122.1-187.9,122.1z"/>
	<path class="st2" d="M-162.2,150.3c-3.9,0-6.9-2.3-6.9-6.8c0-6.1,8.4-17.2,8.4-17.4c0-0.1-2-1-3.1-1c-0.3,0-0.5,0-0.5,0.2
		c-3.1,5-6.1,9.5-8.2,12.6c-0.2,0.3-0.5,0.5-0.7,0.5c-0.5,0-0.9-0.8-0.9-1.8c0-0.5,0.4-1,0.5-1.4c0.8-1.2,2.4-3.6,4.1-7.1
		c1.8-3.7,2.3-6.4,3.4-9.2c1.3-3.1,2.2-3.7,4.2-3.7c0.9,0,1.4,0.5,1.4,1.6c0,1.3-0.6,1.8-0.6,1.9c0,0.3,0.4,0.5,1.4,0.5
		c2.9,0,6.4-0.5,7.2-0.5c1.8,0,4.1,3.4,4.1,4.8c0,1.1-1.9,2.1-3.3,3.6c-2.3,2.5-8.7,11.5-8.7,16.4c0,0.5,0.3,0.9,0.9,0.9
		c1.5,0,4.3-2.4,6.4-5c2.3-2.8,4.3-5.9,4.6-5.9c0.5,0,0.8,1.1,0.8,2.3C-147.8,136.8-156.8,150.3-162.2,150.3z"/>
	<path class="st2" d="M-131.2,121.7c-0.8,0-0.6,0-3.3,0c-4.6,8.6-9.3,17-9.3,19.9c0,2,1.4,2.5,2.3,2.5c4,0,10.5-11,11.1-11
		s0.8,1,0.8,2.3c0,1.2-9.2,14.9-14.6,14.9c-4.1,0-8.6-2.3-8.6-5.9c0-4.3,6.6-15.8,9.7-21.6l0.8-1.4c-1.3-0.1-3.2-0.5-3.2-2
		c0-1,0-2.1,0.1-2.5c0-0.3,0.2-0.5,0.6-0.5c0.3,0,1.2,0,1.9,0c0.9,0,2.7-0.4,3.3-0.4c2.7-5.1,5.8-10.4,6.5-10.4
		c2.8,0,4.6,2.7,4.6,4.1c0,0.8-0.9,2.6-3.2,6.8h3.3c1.2,0,1.8,0.4,1.8,0.9C-126.6,119.7-129.3,121.7-131.2,121.7z"/>
	<path class="st2" d="M-107.6,128.9c-0.3,1.5-0.7,3.4-1.2,5.4c0.5,0.2,1,0.3,1.4,0.3c1.3,0,1.5-0.8,1.7-0.8c0.3,0,0.4,0,0.4,0.3v0.1
		c0,3.6-2.3,5.7-4.7,5.7c-0.2,0-0.4,0-0.5,0c-3.1,7.5-9.2,10.8-14.6,10.8c-5.4,0-10-3.3-10-9c0-5.2,4.3-10.9,10.8-10.9
		c0.9,0,1.8,0,2.6,0.2c1.8-2,4.1-4.8,5.9-7.7c3.4-5.1,8.3-8.1,10.7-8.1c1.5,0,2.7,0.5,2.7,1.4C-102.3,118.1-106.4,123.5-107.6,128.9
		z M-124.4,137.5c-4.1,0-6.2,2.7-6.2,5.1c0,1.9,1.4,3.7,4.1,3.7c2.8,0,6.4-2.1,8.3-7.7C-120.4,138-122.4,137.5-124.4,137.5z
		 M-115,126.9c-0.5,0.7-2.1,2.7-3.7,4.6c0.8,0.3,1.6,0.5,2.4,0.7c0.6-2.3,1.1-4.1,1.5-5.2L-115,126.9z"/>
	<path class="st1" d="M-161.9,166.5c-2.7,0-5.2-0.6-7.4-1.7c-4.1,4.3-7.2,9.2-7.2,13.1c0,2.3,1.6,3.7,4,3.7c6.3,0,10.5-5.9,10.5-8.9
		c0-0.9-0.6-1.3-1.4-1.3c-1.4,0-3.4,1.6-3.9,3.8c-0.1,0.3,0,0.4-0.2,0.4c-0.2,0-0.5-0.8-0.5-1.7c0-2.4,2.1-5.1,5.4-5.1
		c2.4,0,3.5,1.4,3.5,3.4c0,4.8-6.2,12.9-14.8,12.9c-4.6,0-8.2-3.1-8.2-7.5c0-5.3,3.9-11.1,9.1-15.7c-1.8-2-2.9-4.7-2.9-7.7
		c0-2.4,1.7-4.5,2.3-4.5c0.1,0,0.1,0,0.1,0.1c0,0.2,0,0.4,0,0.9c0,3.5,1.2,6.6,3.7,8.7c5.4-4,11.8-6.7,16.7-6.7c3.6,0,5.6,1.7,5.6,4
		C-147.7,160.9-153.6,166.5-161.9,166.5z M-153.6,154.5c-2.8,0-7.7,2.9-12.4,7c1.5,0.5,3.3,0.7,5.3,0.7c5.6,0,9.8-3.1,9.8-5.6
		C-150.9,155.2-152,154.5-153.6,154.5z"/>
	<path class="st1" d="M-150.1,177.1c-0.4,1.2-0.6,2.3-0.6,3.3c0,0.8,0.7,1.4,1.6,1.4c3.9,0,8.9-8.5,9.3-8.5s0.5,0.9,0.5,1.3
		c0,1.4-6.4,10-11.6,10c-2.4,0-4.8-2.6-4.8-4.5c0-6.5,11.1-26.4,19-26.4c1.6,0,2.9,1,2.9,1.6C-133.8,157-143.1,173.3-150.1,177.1z
		 M-137.1,157.2c-0.6,0-7.4,8.2-11.1,15.6c4.4-3.6,11.3-14.7,11.3-15.4C-137,157.2-137.1,157.2-137.1,157.2z"/>
	<path class="st1" d="M-128.9,184.6c-2,0-3.8-1.5-3.8-3.7c0-0.4,0-0.5,0-0.8c-0.7,1-3.8,4.5-5.7,4.5c-1.8,0-3.7-2.4-3.7-4.7
		c0-5,6.4-15.3,8.5-16.2c0.2,0,0.6-0.1,1.1-0.1c1,0,2.5,0.2,2.5,0.9c0,0.1,0,0.2-0.1,0.3c-0.9,1.6-7,12.4-7,15.2
		c0,0.6,0.2,0.9,0.6,0.9c1,0,4.3-3.7,6.6-7.7c2-3.4,4.7-9.5,5.6-9.5c2,0,3.5,0.7,3.5,1.4c0,1.1-0.7,2.1-1.2,3.2
		c-0.6,1.1-5.2,9.4-5.2,11.2c0,0.5,0.1,0.9,1,0.9c2.1,0,6.6-7.3,6.9-7.3c0.4,0,0.5,0.7,0.5,1.4
		C-118.8,175.8-124.9,184.6-128.9,184.6z"/>
	<path class="st1" d="M-115.6,184.6c-2.8,0-5.6-1.4-5.6-6.7c0-1.8,3-7.2,6.2-12.6c3.5-5.8,6.7-11.5,8.8-11.5c1.1,0,2.7,0.8,2.7,1.3
		c0,0.5-1.9,3.1-2.9,4.9c-1.1,1.8-2.6,4.5-2.6,4.6l0.1,0c1.1-0.6,2.1-0.9,3-0.9c2.3,0,3.9,1.6,3.9,4.9
		C-102.1,174.9-107.7,184.6-115.6,184.6z M-107.9,166.2c-1.4,0-2.7,1.5-3.3,2.2c-0.6,0.7-5.9,10.5-5.9,12.3c0,0.7,0.4,1.3,1.4,1.3
		c3.2,0,9.3-9.7,9.3-13.8C-106.3,167.3-106.8,166.2-107.9,166.2z"/>
</g>
<rect x="565.2" y="78.5" class="st3" width="330" height="57.9"/>
<g class="st4">
	<path class="st0" d="M748.2,359.4c-15.8,0-23-11.2-29.1-22.9c-11.5,11.9-25.1,21.6-39.5,21.6c-10,0-17.5-7.8-17.5-18.7
		c0-20,17.2-40.9,39.8-40.9c8.6,0,14.6,3.2,19.1,8c3.3-4.7,6.5-9.4,9.7-14.2c10.5-16,24.1-30.7,37.9-40.5c-3.5-0.7-7.5-1-11.8-1
		c-27.5,0-52.4,18.2-52.4,29.1c0,1.5,1.8,2.8,3.7,2.8c13.6,0,25.7-18.6,28-22.8c0.3-0.4,0.6-0.7,0.8-0.7c0.3,0,0.6,0.6,0.6,1.1
		c0,24.7-17.1,35.9-30.1,35.9c-8,0-14.4-4.3-14.4-12.3c0-14.4,29.1-39.8,68.8-39.8c5.7,0,11.1,0.6,16,1.9c7.1-3.7,13.9-5.8,20.1-5.8
		c4.2,0,6.5,1.2,6.5,1.8c0,0.8-0.7,0.8-3.7,0.8c-4.6,0-9.3,2.4-14.2,6.4c13.9,6.5,22.5,20,22.5,40.8
		C809.1,322.7,782.3,359.4,748.2,359.4z M694.7,309.6c-14,0-25.7,11.5-25.7,24.8c0,6.5,4.3,10.7,9.4,10.7c8.9,0,20.5-10.7,32.2-25
		C706.7,314.1,702,309.6,694.7,309.6z M779,256.8c-12.5,13.9-24.7,35-33.6,47c-3.9,5.4-8.7,12.1-14.3,19.1
		c5,10.5,9.2,20.7,19.4,20.7c23.6,0,37.7-33.2,37.7-59.4C788.1,272.3,785.1,261.9,779,256.8z"/>
	<path class="st0" d="M856.1,357.9c-10.3,0-12.6-12.1-13-12.1s-11.1,13.5-23.3,13.5c-8,0-16-6.5-16-19.6c0-21.5,25.4-55.4,49.4-55.4
		c11.8,0,12.9,10.1,13.3,10.1c0.7,0,8.5-9.4,11.1-9.4s2.5,0.4,4.3,0.8c1.5,0.3,3.6,0.6,3.6,2.6c0,8-25.7,44.3-25.7,53.4
		c0,1.5,0.7,2.5,2.2,2.5c9.3,0,24.7-25.9,26.2-25.9c1.2,0,1.9,2.5,1.9,5.3C890.2,326.3,868.9,357.9,856.1,357.9z M851.1,292.3
		c-11.8,0-29,30.5-29,45c0,4.7,1.7,7.4,4.6,7.4c3.7,0,14-7.1,14-9.9c0-1.1-3.1-1.5-4.3-1.5v-1.1c3.7-1,20.7-18.3,20.7-31.8
		C857.1,295.8,854.7,292.3,851.1,292.3z"/>
	<path class="st0" d="M911.6,358.6c-9.2,0-16.4-5.4-16.4-16c0-14.3,19.7-40.7,19.7-41.1c0-0.3-4.9-2.4-7.4-2.4c-0.6,0-1,0.1-1.1,0.4
		c-7.2,11.7-14.3,22.3-19.4,29.7c-0.4,0.7-1,1.1-1.7,1.1c-1.2,0-2.2-1.8-2.2-4.4c0-1,0.8-2.5,1.2-3.2c1.9-2.8,5.7-8.5,9.7-16.8
		c4.4-8.7,5.3-15.1,8-21.6c2.9-7.4,5.1-8.7,10-8.7c2.2,0,3.3,1.2,3.3,3.7c0,2.9-1.5,4.2-1.5,4.6c0,0.6,0.8,1,3.2,1
		c6.9,0,15.1-1.1,17.1-1.1c4.2,0,9.4,8,9.4,11.4c0,2.6-4.6,5-7.8,8.6c-5.5,6-20.7,27.2-20.7,38.6c0,1,0.6,2.2,2.1,2.2
		c3.6,0,10.3-5.7,15.3-11.8c5.5-6.7,10.3-14,11-14c1.2,0,1.9,2.6,1.9,5.3C945.7,326.8,924.4,358.6,911.6,358.6z"/>
	<path class="st0" d="M984.7,291.2c-1.9,0-1.5,0.1-7.8,0.1c-10.8,20.1-21.9,40.1-21.9,46.9c0,4.9,3.2,5.8,5.3,5.8
		c9.3,0,24.8-25.9,26.2-25.9c1.2,0,1.9,2.5,1.9,5.3s-21.8,35.2-34.5,35.2c-9.4,0-20.3-5.4-20.3-13.9c0-10.3,15.7-37.3,22.9-50.9
		l1.8-3.2c-2.9-0.3-7.5-1.1-7.5-4.9c0-2.5,0-5,0.3-6c0.1-0.7,0.4-1,1.5-1c0.7,0,2.8,0.1,4.6,0.1c2.1,0,6.4-0.8,7.8-0.8
		c6.4-11.9,13.6-24.6,15.4-24.6c6.7,0,10.8,6.2,10.8,9.4c0,1.8-2.2,6.1-7.5,16h7.9c2.8,0,4.2,0.8,4.2,2.2
		C995.5,286.6,989.2,291.2,984.7,291.2z"/>
	<path class="st0" d="M1040.4,308.1c-0.7,3.6-1.7,8-2.8,12.9c1.2,0.4,2.5,0.6,3.3,0.6c3.1,0,3.6-1.9,3.9-1.9c0.7,0,0.8,0.1,0.8,0.7
		v0.3c0.1,8.5-5.5,13.5-11.1,13.5c-0.4,0-0.8,0-1.1,0c-7.2,17.8-21.6,25.4-34.4,25.4s-23.6-7.8-23.6-21.2
		c0-12.3,10.1-25.5,25.4-25.5c2.1,0,4,0.1,6.1,0.4c4.3-4.9,9.4-11.4,14-18.3c8.3-11.9,19.8-18.7,25.4-18.7c3.6,0,6.4,1.2,6.4,3.3
		C1052.7,282.7,1043.1,295.6,1040.4,308.1z M1000.7,328.5c-9.7,0-14.6,6.2-14.6,11.9c0,4.6,3.2,8.7,9.9,8.7s15.1-5,19.6-18.3
		C1010.2,329.6,1005.4,328.5,1000.7,328.5z M1022.7,303.7c-1.1,1.7-5,6.4-8.7,11c1.9,0.6,3.7,1,5.7,1.7c1.5-5.4,2.6-9.7,3.5-12.3
		L1022.7,303.7z"/>
</g>
<g class="st4">
	<path class="st0" d="M-293.8-72.2c-1.8,4-3.5,8.6-5,13.4c-5,16.1-12.6,32-31.8,32c-15.5,0-22.5-11.6-22.5-23.7
		c0-4.4,0.9-8.8,2.7-12.8c-0.5-0.8-0.8-1.8-0.8-3.1c0-3.4,2.3-5.8,5.9-5.8c0.4,0,0.7,0,1.1,0.1c3.8-3.6,8.8-5.9,14.7-5.9
		c7.1,0,10.9,3.8,11.9,10.5c4.7-1.1,9.1-2.5,13-4c6-10.9,13.4-20.2,25.9-20.2c3.3,0,4.8,1.6,4.8,2.8
		C-273.9-84.1-282.4-77.8-293.8-72.2z M-317.5-63.3c-0.4,8.4-9,19.6-14.7,19.6c-2.7,0-7.3-2.1-7.3-2.6c0-0.4,1.6-0.4,2.7-1
		c0.8-0.4,5.7-5.2,7.3-13.2c-3.4,0.5-6.6,0.8-9.4,0.8c-2.4,0-4.5-0.2-6.4-0.7c-1.1,2.6-1.7,5.4-1.7,8.1c0,9.4,5.5,15.5,12.7,15.5
		c13.5,0,19.7-15.4,27-29.8C-310.6-65.4-314.1-64.2-317.5-63.3z M-333.3-72.7c-2.1,0-4.6,1.5-6.9,3.9c1.4,1.6,3.1,3.1,5.7,3.1
		c1.8,0,3.6-0.1,5.4-0.2C-329.1-70.7-330.6-72.7-333.3-72.7z M-282.3-87.4c-2.3,0-5.3,3.3-8.3,8.5c5.7-3.6,8.9-6.9,8.9-8
		C-281.7-87.1-281.9-87.4-282.3-87.4z"/>
	<path class="st0" d="M-287.9-26.8c-5.6,0-10-5.7-10-12.5c0-10.5,12.4-29.3,23.5-29.3c3,0,4.5-0.9,6.3-0.9c2.6,0,5.1,3.1,5.1,6.3
		c0,6.2-9.2,16.9-22.5,16.9c-0.2,0-0.5,0-0.7-0.1c-1.1,2.5-1.7,4.8-1.7,6.8c0,3.6,1.3,5.9,4.4,5.9c11,0,20.1-16.4,21.1-16.4
		c0.9,0,1,1.5,1,2.7C-261.5-44.3-274.1-26.8-287.9-26.8z M-270.6-64.7c-2.9,0-9.4,6.9-13.5,14.2c6.5-1.4,15-8.1,15-12.8
		C-269.1-64.2-269.6-64.7-270.6-64.7z"/>
	<path class="st0" d="M-237-27.7c-5.8,0-7.1-6.9-7.4-6.9c-0.2,0-6.3,7.6-13.1,7.6c-4.5,0-9-3.7-9-11.1c0-12.1,14.4-31.3,27.9-31.3
		c6.7,0,7.3,5.7,7.5,5.7c0.4,0,4.8-5.4,6.3-5.4s1.4,0.2,2.4,0.5c0.8,0.2,2.1,0.3,2.1,1.5c0,4.5-14.5,25-14.5,30.1
		c0,0.8,0.4,1.4,1.2,1.4c5.3,0,14-14.6,14.8-14.6c0.7,0,1.1,1.4,1.1,3S-229.8-27.7-237-27.7z M-239.8-64.8
		c-6.7,0-16.4,17.3-16.4,25.4c0,2.6,0.9,4.1,2.6,4.1c2.1,0,7.9-4,7.9-5.5c0-0.7-1.7-0.8-2.4-0.8v-0.7c2.2-0.6,11.7-10.4,11.7-18
		C-236.4-62.8-237.8-64.8-239.8-64.8z"/>
	<path class="st0" d="M-188.4-55.8c-0.4,2.1-0.9,4.5-1.6,7.3c0.7,0.2,1.4,0.3,1.9,0.3c1.7,0,2.1-1.1,2.2-1.1c0.4,0,0.5,0.1,0.5,0.4
		v0.2c0.1,4.8-3.1,7.6-6.3,7.6c-0.2,0-0.5,0-0.7,0c-4,10-12.2,14.4-19.4,14.4s-13.3-4.4-13.3-12c0-6.9,5.7-14.5,14.4-14.5
		c1.2,0,2.3,0.1,3.5,0.2c2.4-2.7,5.4-6.4,7.9-10.3c4.5-6.9,11.1-10.7,14.2-10.7c2.1,0,3.6,0.7,3.6,1.9
		C-181.4-70.2-186.9-62.9-188.4-55.8z M-210.8-44.3c-5.5,0-8.3,3.6-8.3,6.8c0,2.6,1.8,5,5.5,5c3.8,0,8.5-2.8,11.1-10.3
		C-205.4-43.7-208.2-44.3-210.8-44.3z M-198.3-58.4c-0.7,0.9-2.8,3.6-5,6.2c1.1,0.3,2.1,0.6,3.2,0.9c0.8-3.1,1.5-5.5,2-6.9
		L-198.3-58.4z"/>
	<path class="st0" d="M-141.8-46.7c-4.2,8.3-11.1,11.8-16.3,11.8c-0.2,0-0.4,0-0.7,0c-4.3,4.7-9.3,8-14.7,8
		c-6.9,0-11.6-3.9-11.6-11.8c0-12.1,12.1-30.8,25.4-30.8c2.4,0,4.4,1.1,6.7,1.1c3.9,0,5.4,3.3,5.4,6.6c0,5.9-2.4,13.5-6.3,20.1
		c0.5,0.2,0.9,0.3,1.4,0.3c4.8,0,8.3-8.2,9.5-8.2c0.7,0,1.2,1.1,1.2,2.1C-141.6-47.1-141.7-46.9-141.8-46.7z M-156.1-63.8
		c-6.5,0-17,14.3-17,24.1c0,2.8,1,4.8,3.6,4.8c1.5,0,3-0.7,4.5-1.7c-2.1-1.2-3.3-3.2-3.3-5.3c0-2.9,2-5.5,5.5-5.5c2,0,3.6,1,4.9,2.1
		c3-5.2,5-11,5-14.3C-153-61.7-153.7-63.8-156.1-63.8z"/>
	<path class="st0" d="M-121.9-27.2c-3.9,0-7.6-3.1-7.6-7.3c0-9.4,8.7-22.8,10.8-25.8l-0.3-0.2c-4.5,4.4-13.5,14.4-18.1,21.4
		c-4.5,6.9-6.2,11.8-7.9,11.8s-5.3-2.5-5.3-5.5c0-3.9,15.8-36.9,19.4-36.9c1.2,0,5.7,1.1,5.7,3.4c0,2.1-2.8,8.2-3.2,9.6l0.1,0.1
		c1.5-1.5,10.9-12.5,15.4-12.5c3.1,0,7,2.1,7,3.6c0,2.2-1,3.6-2.1,5.9c-1.1,2.2-10.4,19.1-10.4,22.6c0,1,0.2,1.7,1.9,1.7
		c4.3,0,13.3-14.8,14-14.8s1.1,1.4,1.1,2.8C-101.4-45-113.8-27.2-121.9-27.2z"/>
	<path class="st0" d="M-72.1-55.8c-0.4,2.1-0.9,4.5-1.6,7.3c0.7,0.2,1.4,0.3,1.9,0.3c1.7,0,2.1-1.1,2.2-1.1c0.4,0,0.5,0.1,0.5,0.4
		v0.2c0.1,4.8-3.1,7.6-6.3,7.6c-0.2,0-0.5,0-0.7,0c-4,10-12.2,14.4-19.4,14.4c-7.2,0-13.3-4.4-13.3-12c0-6.9,5.7-14.5,14.4-14.5
		c1.2,0,2.3,0.1,3.5,0.2c2.4-2.7,5.4-6.4,7.9-10.3C-78.5-70.2-71.9-74-68.8-74c2.1,0,3.6,0.7,3.6,1.9
		C-65.1-70.2-70.5-62.9-72.1-55.8z M-94.5-44.3c-5.5,0-8.3,3.6-8.3,6.8c0,2.6,1.8,5,5.5,5c3.8,0,8.5-2.8,11.1-10.3
		C-89.1-43.7-91.8-44.3-94.5-44.3z M-82-58.4c-0.7,0.9-2.8,3.6-5,6.2c1.1,0.3,2.1,0.6,3.2,0.9c0.8-3.1,1.5-5.5,2-6.9L-82-58.4z"/>
</g>
<g class="st4">
	<path class="st0" d="M212.3-182.9c-0.9,0-1.7,0-2.6-0.1c-4.1,7-8.7,14.8-13.9,21.6c6.2,5.7,11.8,11,17.8,11c3.1,0,5.1-2.4,5.5-2.4
		c0.4,0,0.7,0.2,0.7,0.6c0,0.5-7.9,12-15.2,12c-5.5,0-10.8-5.9-16.4-12.4c-6.1,5.8-13.1,9.7-21.2,9.7c-10.8,0-15.9-6.9-15.9-14.2
		c0-8.6,6.9-18,19.9-18c6.3,0,11.7,2.9,16.7,6.7c4-5.5,8.1-11.6,12.2-17.4c-7.4-3.6-12.7-10-12.7-15.1c0-3.2,2.7-5.5,3.9-5.5
		c1,0,1.3,1.9,2.1,3.4c2.5,5,6.8,8.6,11.6,10.8c7.3-9,15-15.8,24.2-15.8c6.4,0,9.6,3.5,9.6,7.8C238.5-192.8,229.5-182.9,212.3-182.9
		z M166.4-168.2c-6.1,0-10.2,4.4-10.2,9.2c0,4.5,3.2,8,9,8c5.6,0,10.8-3.8,15.9-9.4C176.6-164.8,171.8-168.2,166.4-168.2z
		 M228.4-204c-4.8,0-9.4,5.9-14.5,14.2c1.2,0.2,2.4,0.2,3.6,0.2c10.3,0,15.4-5.7,15.4-9.9C232.8-202,231.2-204,228.4-204z"/>
	<path class="st0" d="M232.6-142.9c-5.6,0-10-5.7-10-12.5c0-10.5,12.4-29.3,23.5-29.3c3,0,4.5-0.9,6.3-0.9c2.6,0,5.1,3.1,5.1,6.3
		c0,6.2-9.2,16.9-22.5,16.9c-0.2,0-0.5,0-0.7-0.1c-1.1,2.5-1.7,4.8-1.7,6.8c0,3.6,1.3,5.9,4.4,5.9c11,0,20.1-16.4,21.1-16.4
		c0.9,0,1,1.5,1,2.7C258.9-160.4,246.3-142.9,232.6-142.9z M249.8-180.8c-2.9,0-9.4,6.9-13.5,14.2c6.5-1.4,15-8.1,15-12.8
		C251.3-180.3,250.8-180.8,249.8-180.8z"/>
	<path class="st0" d="M283.5-143.8c-5.8,0-7.1-6.9-7.4-6.9c-0.2,0-6.3,7.6-13.1,7.6c-4.5,0-9-3.7-9-11.1c0-12.1,14.4-31.3,27.9-31.3
		c6.7,0,7.3,5.7,7.5,5.7c0.4,0,4.8-5.4,6.3-5.4s1.4,0.2,2.4,0.5c0.8,0.2,2.1,0.3,2.1,1.5c0,4.5-14.5,25-14.5,30.1
		c0,0.8,0.4,1.4,1.2,1.4c5.3,0,14-14.6,14.8-14.6c0.7,0,1.1,1.4,1.1,3C302.7-161.6,290.6-143.8,283.5-143.8z M280.6-180.9
		c-6.7,0-16.4,17.3-16.4,25.4c0,2.6,0.9,4.1,2.6,4.1c2.1,0,7.9-4,7.9-5.5c0-0.7-1.7-0.8-2.4-0.8v-0.7c2.1-0.6,11.6-10.3,11.6-17.9
		C284-178.9,282.6-180.9,280.6-180.9z"/>
	<path class="st0" d="M330.6-151.7c-7.1,14.8-15.5,35.6-30.1,35.6c-7.4,0-13.6-4.3-13.6-11c0-8.1,7.3-14.2,13.8-14.2
		c3.8,0,5.9,2.4,5.9,4.9c0,2.6-2.1,4.4-2.4,4.4c-0.2,0-0.2-0.1-0.2-0.2c0-0.2,0-0.4,0-0.7c0-1-1.7-1.7-4-1.7c-5,0-8.3,3.6-8.3,6.7
		c0,3.5,2.6,5.4,5.6,5.4c6.9,0,12-9.2,14.5-14.1c2.6-4.9,4.5-10.3,4.6-11.1c-2.6,3.1-5.5,4.3-8.3,4.3c-5.4,0-10-5.3-10-11.9
		c0-16.2,17.4-30.4,28.1-30.4c4,0,6.9,2,7.8,6.5c0.4-0.5,3.3-4.5,4.2-5c0.7-0.4,1.8-0.5,2.9-0.5h1c1.2,0,3.6,0.7,3.6,1.8
		C345.8-180.9,337.6-166.5,330.6-151.7z M326.8-179.9c-7.6,0-18.2,16.7-18.2,23.9c0,2.5,1.2,4.6,3.5,4.6c5.8,0,17.6-19.6,17.6-24.3
		C329.7-178.1,329-179.9,326.8-179.9z"/>
	<path class="st0" d="M365.8-143.3c-4,0-7.6-3.1-7.6-7.3c0-0.8,0-1.1,0.1-1.6c-1.3,1.9-7.7,9-11.5,9c-3.7,0-7.5-4.8-7.5-9.5
		c0-10.1,12.9-30.9,17.1-32.6c0.3-0.1,1.2-0.2,2.1-0.2c2.1,0,5,0.4,5,1.8c0,0.2-0.1,0.4-0.2,0.7c-1.7,3.3-14.1,24.9-14.1,30.6
		c0,1.2,0.5,1.7,1.2,1.7c1.9,0,8.7-7.4,13.4-15.4c4.1-6.9,9.5-19.2,11.3-19.2c4,0,7.1,1.4,7.1,2.9c0,2.2-1.3,4.3-2.4,6.5
		c-1.2,2.2-10.5,19.1-10.5,22.6c0,1,0.2,1.7,2,1.7c4.2,0,13.3-14.8,14-14.8c0.8,0,1.1,1.4,1.1,2.8
		C386.2-161,373.9-143.3,365.8-143.3z"/>
	<path class="st0" d="M391.6-142.9c-5.6,0-10-5.7-10-12.5c0-10.5,12.4-29.3,23.5-29.3c3,0,4.5-0.9,6.3-0.9c2.6,0,5.1,3.1,5.1,6.3
		c0,6.2-9.2,16.9-22.5,16.9c-0.2,0-0.5,0-0.7-0.1c-1.1,2.5-1.7,4.8-1.7,6.8c0,3.6,1.3,5.9,4.4,5.9c11,0,20.1-16.4,21.1-16.4
		c0.9,0,1,1.5,1,2.7C418-160.4,405.3-142.9,391.6-142.9z M408.9-180.8c-2.9,0-9.4,6.9-13.5,14.2c6.5-1.4,15-8.1,15-12.8
		C410.4-180.3,409.9-180.8,408.9-180.8z"/>
</g>
<text transform="matrix(1 0 0 1 16.1998 -225.4702)" class="st0" style="font-family:'CornerStoreJF'; font-size:82.5787px;">Seasons</text>
<g class="st4">
	<path class="st0" d="M45.8,29.7c2.4,4.3,1.6,12.6,9.2,12.6c2.2,0,3.4-1.5,3.6-1.5s0.3,0,0.3,0.3c0,1.8-3.1,5.5-7.1,5.5
		c-12,0-7.2-13.3-10.7-16.7C36.9,38.3,31.7,46,21.8,46c-6.9,0-12-5.1-12-12.3c0-7.7,5.8-13.6,13.3-13.6c1.8,0,3.2,0.4,4.4,1.1
		c0-0.2,0-0.4,0-0.6c0-5.5,10.9-10,20.9-10c0.2,0,0.4,0,0.6,0c1.9-1.2,3.9-1.9,5.9-1.9c2.7,0,4.8,1.3,4.8,1.7c0,0.2-0.1,0.2-0.4,0.2
		c-0.4,0-1.1-0.1-1.8-0.1c-1.2,0-2.3,0.3-3.4,0.8c4.5,1.3,6.8,4.3,6.8,7.6C60.8,23.6,56,28.6,45.8,29.7z M31.3,18.9
		c0,0.8,0.4,1,1.1,1c2.1,0,5.1-3.5,5.5-4c0.4-0.5,0.6-1,0.8-1c0.3,0,0.3,0.1,0.3,0.6c0,2.2-3.6,8.5-7.6,8.5c-0.3,0-0.6,0-0.9-0.1
		c0.9,1.5,1.4,3.2,1.4,5c0,4.7-2.9,9.4-7.9,9.4c-1.2,0-2.1-0.3-2.1-0.6c0-0.3,0.8-0.2,2.1-1.1c0.9-0.6,3.7-3.8,3.7-8.5
		c0-3.1-2-5.8-5.3-5.8c-4,0-8.2,4.2-8.2,10.5c0,5.7,3.2,8.9,6.9,8.9c8.8,0,12.7-10.9,16.3-17.5c2.1-3.8,5.2-8.4,8.8-11.6
		C37.5,13.1,31.3,16.4,31.3,18.9z M51.5,13.1c-3.2,3-5.9,8.3-8.8,14.1c5.7-0.1,11.8-5,11.8-10.2C54.5,15.2,53.8,13.7,51.5,13.1z"/>
	<path class="st0" d="M84.2,35.1c-2.3,4.5-6,6.4-8.9,6.4c-0.1,0-0.2,0-0.4,0c-2.3,2.6-5.1,4.4-8,4.4c-3.8,0-6.3-2.1-6.3-6.4
		c0-6.6,6.6-16.8,13.9-16.8c1.3,0,2.4,0.6,3.6,0.6c2.1,0,2.9,1.8,2.9,3.6c0,3.2-1.3,7.3-3.4,10.9c0.3,0.1,0.5,0.2,0.8,0.2
		c2.6,0,4.5-4.5,5.2-4.5c0.4,0,0.7,0.6,0.7,1.2C84.3,34.9,84.3,35,84.2,35.1z M76.4,25.8c-3.6,0-9.3,7.8-9.3,13.1
		c0,1.5,0.5,2.6,1.9,2.6c0.8,0,1.6-0.4,2.4-0.9c-1.2-0.7-1.8-1.8-1.8-2.9c0-1.6,1.1-3,3-3c1.1,0,1.9,0.5,2.7,1.2
		c1.6-2.8,2.7-6,2.7-7.8C78.1,27,77.7,25.8,76.4,25.8z"/>
	<path class="st0" d="M95.7,45.7c-2.2,0-4.1-1.7-4.1-4c0-0.4,0-0.6,0-0.9c-0.7,1-4.2,4.9-6.3,4.9c-2,0-4.1-2.6-4.1-5.2
		c0-5.5,7-16.8,9.3-17.8c0.2,0,0.6-0.1,1.2-0.1c1.1,0,2.7,0.2,2.7,1c0,0.1,0,0.2-0.1,0.4c-0.9,1.8-7.7,13.6-7.7,16.7
		c0,0.7,0.3,0.9,0.6,0.9c1,0,4.7-4,7.3-8.4c2.2-3.7,5.2-10.4,6.2-10.4c2.2,0,3.9,0.8,3.9,1.6c0,1.2-0.7,2.3-1.3,3.6
		c-0.6,1.2-5.7,10.4-5.7,12.3c0,0.5,0.1,0.9,1.1,0.9c2.3,0,7.2-8.1,7.6-8.1c0.4,0,0.6,0.8,0.6,1.5C106.8,36,100.1,45.7,95.7,45.7z"
		/>
	<path class="st0" d="M117.6,45.7c-2.1,0-4.1-1.7-4.1-4c0-5.1,4.7-12.4,5.9-14l-0.2-0.1c-2.5,2.4-7.3,7.8-9.9,11.7
		c-2.5,3.8-3.4,6.4-4.3,6.4c-0.9,0-2.9-1.3-2.9-3c0-2.1,8.6-20.1,10.6-20.1c0.7,0,3.1,0.6,3.1,1.8c0,1.1-1.5,4.5-1.8,5.2l0,0
		c0.8-0.8,5.9-6.8,8.4-6.8c1.7,0,3.8,1.1,3.8,1.9c0,1.2-0.5,2-1.2,3.2c-0.6,1.2-5.7,10.4-5.7,12.3c0,0.5,0.1,0.9,1,0.9
		c2.3,0,7.2-8.1,7.6-8.1c0.4,0,0.6,0.8,0.6,1.5C128.7,36,122,45.7,117.6,45.7z"/>
	<path class="st0" d="M143.2,40.5c0,0.5,0.2,0.8,0.7,0.8c2.9,0,7.6-8,8-8c0.5,0,0.6,0.8,0.6,1.6c0,0.9-6.6,10.6-10.5,10.6
		c-2.9,0-4.5-2.1-4.9-3.7c-0.6,1-3.3,4.1-6.2,4.1c-2.5,0-4.9-2-4.9-6c0-6.6,7.8-17.1,15.2-17.1c2.6,0,3.1,2.7,3.1,3.1
		c1.2-2.2,6.8-14.1,7.7-14.1c1.8,0,3,2.1,3,3.6C155.2,17.1,143.2,36.8,143.2,40.5z M140.4,25.5c-3.8,0-8.7,9.5-8.7,13.8
		c0,1.3,0.5,2,1.4,2c2.6,0,9.1-11.6,9.1-12.7C142.2,26.3,141.3,25.5,140.4,25.5z"/>
	<path class="st0" d="M168.5,30.1c-0.2,1.1-0.5,2.5-0.9,4c0.4,0.1,0.8,0.2,1,0.2c0.9,0,1.1-0.6,1.2-0.6c0.2,0,0.3,0,0.3,0.2V34
		c0,2.6-1.7,4.1-3.4,4.1c-0.1,0-0.3,0-0.4,0c-2.2,5.4-6.7,7.8-10.6,7.8s-7.2-2.4-7.2-6.5c0-3.8,3.1-7.9,7.8-7.9c0.6,0,1.3,0,1.9,0.1
		c1.3-1.5,2.9-3.5,4.3-5.6c2.5-3.7,6-5.8,7.7-5.8c1.1,0,2,0.4,2,1C172.3,22.3,169.3,26.3,168.5,30.1z M156.3,36.4
		c-3,0-4.5,1.9-4.5,3.7c0,1.4,1,2.7,3,2.7c2.1,0,4.6-1.5,6-5.6C159.2,36.8,157.7,36.4,156.3,36.4z M163.1,28.8
		c-0.4,0.5-1.5,2-2.7,3.4c0.6,0.2,1.2,0.3,1.8,0.5c0.5-1.7,0.8-3,1.1-3.8L163.1,28.8z"/>
</g>
<rect x="16.2" y="-226.5" class="st3" width="330" height="57.9"/>
<g class="st4">
	<path class="st5" d="M938.2,409.9c-7.9,0-15.3-1.8-21.7-5c-12,12.6-21.2,26.9-21.2,38.3c0,6.7,4.8,10.8,11.6,10.8
		c18.4,0,30.8-17.4,30.8-26c0-2.5-1.7-3.9-4.2-3.9c-4.2,0-10.1,4.7-11.2,11.1c-0.2,0.8-0.1,1.2-0.6,1.2s-1.6-2.4-1.6-4.9
		c0-7.1,6.2-15,15.8-15c7.1,0,10.2,4.1,10.2,9.9c0,14-18.2,37.8-43.3,37.8c-13.5,0-23.9-9-23.9-22c0-15.4,11.2-32.3,26.6-46
		c-5.3-6-8.4-13.6-8.4-22.6c0-6.9,5-13,6.6-13c0.2,0,0.2,0,0.2,0.2c0,0.5-0.1,1.3-0.1,2.6c0,10.3,3.5,19.3,10.7,25.5
		c15.9-11.8,34.5-19.7,48.8-19.7c10.4,0,16.4,5,16.4,11.7C979.6,393.5,962.4,409.9,938.2,409.9z M962.4,375
		c-8.1,0-22.6,8.6-36.1,20.6c4.4,1.4,9.6,2.2,15.4,2.2c16.5,0,28.7-9.2,28.7-16.4C970.4,377,967,375,962.4,375z"/>
	<path class="st5" d="M972.6,440.8c-1.1,3.6-1.8,6.8-1.8,9.7c0,2.3,2.2,4.2,4.7,4.2c11.4,0,26-24.9,27.3-24.9s1.6,2.6,1.6,3.9
		c0,4.2-18.5,29.2-34,29.2c-7.1,0-14-7.5-14-13.2c0-19.1,32.6-77.1,55.6-77.1c4.7,0,8.4,2.8,8.4,4.7
		C1020.4,382.3,993.2,429.7,972.6,440.8z M1010.6,382.6c-1.8,0-21.5,24.1-32.6,45.5c12.9-10.5,32.9-43,32.9-45.1
		C1010.9,382.8,1010.7,382.6,1010.6,382.6z"/>
	<path class="st5" d="M1034.6,462.9c-5.7,0-11-4.4-11-10.7c0-1.2,0-1.6,0.1-2.3c-1.9,2.8-11.1,13-16.6,13c-5.4,0-10.9-6.9-10.9-13.8
		c0-14.6,18.7-44.8,24.8-47.3c0.5-0.1,1.7-0.2,3.1-0.2c3,0,7.2,0.6,7.2,2.6c0,0.2-0.1,0.6-0.4,1c-2.5,4.8-20.5,36.1-20.5,44.4
		c0,1.8,0.7,2.5,1.7,2.5c2.8,0,12.6-10.8,19.4-22.4c6-9.9,13.8-27.8,16.4-27.8c5.9,0,10.3,2,10.3,4.2c0,3.2-1.9,6.2-3.5,9.5
		c-1.7,3.2-15.2,27.6-15.2,32.8c0,1.4,0.4,2.5,2.9,2.5c6.1,0,19.3-21.4,20.2-21.4c1.2,0,1.6,2,1.6,4.1
		C1064.2,437.2,1046.4,462.9,1034.6,462.9z"/>
	<path class="st5" d="M1073.4,462.8c-8.1,0-16.3-4.1-16.3-19.6c0-5.4,8.9-21.2,18.2-36.7c10.2-17,19.7-33.5,25.6-33.5
		c3.2,0,8,2.3,8,3.9s-5.5,9.2-8.6,14.4c-3.2,5.3-7.7,13-7.7,13.5l0.2,0.1c3.1-1.7,6.2-2.5,8.9-2.5c6.6,0,11.2,4.8,11.2,14.2
		C1113,434.5,1096.6,462.8,1073.4,462.8z M1096,409c-4.2,0-7.8,4.5-9.6,6.5c-1.8,2-17.1,30.6-17.1,35.9c0,2,1.2,3.7,4.2,3.7
		c9.5,0,27.2-28.4,27.2-40.5C1100.7,412.3,1099.1,409,1096,409z"/>
</g>
<g class="st4">
	<path class="st0" d="M-372.3-207c-1.4,3.2-2.7,6.7-3.9,10.5c-3.9,12.6-9.9,25-24.9,25c-12.2,0-17.6-9-17.6-18.6
		c0-3.4,0.7-6.9,2.1-10c-0.4-0.6-0.6-1.4-0.6-2.4c0-2.7,1.8-4.5,4.6-4.5c0.3,0,0.6,0,0.8,0.1c3-2.8,6.9-4.7,11.5-4.7
		c5.6,0,8.5,3,9.3,8.2c3.7-0.8,7.1-1.9,10.2-3.2c4.7-8.5,10.5-15.8,20.3-15.8c2.6,0,3.7,1.2,3.7,2.2
		C-356.7-216.3-363.4-211.3-372.3-207z M-390.9-200c-0.3,6.6-7,15.3-11.5,15.3c-2.1,0-5.8-1.6-5.8-2c0-0.3,1.2-0.3,2.1-0.8
		c0.6-0.3,4.5-4.1,5.7-10.3c-2.6,0.4-5.2,0.6-7.4,0.6c-1.9,0-3.6-0.1-5-0.5c-0.8,2.1-1.3,4.2-1.3,6.3c0,7.4,4.3,12.2,10,12.2
		c10.5,0,15.4-12,21.1-23.3C-385.5-201.6-388.2-200.7-390.9-200z M-403.2-207.4c-1.7,0-3.6,1.2-5.4,3c1.1,1.2,2.4,2.4,4.5,2.4
		c1.4,0,2.8-0.1,4.2-0.1C-399.9-205.8-401.1-207.4-403.2-207.4z M-353.8-232.9c-3.6,2.4-6.6,7.4-9.2,7.4c-2.2,0-2.6-5.3-3.8-7.4
		c-1.5-2.5-4.5-4.4-4.5-4.8c0-0.8,1.1-1.4,1.8-1.4c3.8,0,7.2,3.6,8.9,6.8c3.4-2.7,9.3-6.8,13.8-6.8c0.5,0,1,0.3,1,0.8
		C-345.8-236.7-350.8-234.8-353.8-232.9z M-363.3-218.8c-1.8,0-4.1,2.6-6.5,6.7c4.5-2.8,7-5.4,7-6.3
		C-362.8-218.6-363-218.8-363.3-218.8z"/>
	<path class="st0" d="M-366.2-171.7c-3.3,0-5.3-3.7-5.3-7.4c0-7.9,10-24.2,13.4-25.5c0.3-0.1,0.9-0.1,1.6-0.1c1.7,0,3.9,0.3,3.9,1.4
		c0,0.1,0,0.3-0.1,0.5c-1.4,2.6-11.1,19.5-11.1,24c0,1,0.4,1.4,0.8,1.4c4,0,11.5-12.2,12.1-12.2c0.7,0,0.8,1.5,0.8,2.4
		C-350.1-186.2-359.6-171.7-366.2-171.7z M-357.2-208.1c-0.8,0-1.4-0.6-1.4-1.1c0-1,3.7-1.7,6.5-4.7c2.3-2.5,3.1-7.8,5.6-7.8
		c1.6,0,3.9,1.5,3.9,3.6C-342.6-214.1-353.4-208.1-357.2-208.1z"/>
	<path class="st0" d="M-342.2-171.6c-3,0-5.9-2.5-7.2-5.2c-5.9,12-10.7,20.9-12.8,20.9c-1.4,0-3.7-2.3-3.7-3.9
		c0-1.7,5.1-11.1,11.8-23.9c6.8-12.8,11.6-22.9,13.1-22.9c2.1,0,4.5,1.2,4.5,2.1c0,0.6-0.4,1.7-1.2,3.5c2.7-2,5.7-3.7,8.5-3.7
		c3.9,0,5.9,2.5,5.9,7.5C-323.2-187.7-333.3-171.6-342.2-171.6z M-332.6-200.4c-1.7,0-4.9,2.5-7.6,4.8c-1.5,3.2-3.5,7.2-5.9,12.1
		c0.6,3,1.9,5.9,3.6,5.9c3.6,0,11.8-16.7,11.8-20.6C-330.7-199.4-331.3-200.4-332.6-200.4z"/>
	<path class="st0" d="M-306.9-171.5c-4.1,0-6.9-3.3-6.9-7c0-4.7,1.9-8.8,2.9-10.8l-0.2-0.2c-2.5,2.4-6.5,7.9-8.7,11.9
		c-2.1,3.9-2.2,6-3,6c-1.4,0-4.8-2.3-4.8-5s5.8-13.3,10.5-22c4.7-8.6,11.2-20.2,13.9-20.2c1.4,0,3.9,0.8,3.9,2.5
		c0,2.6-2,5.8-4.6,9.8c-2.5,4.1-5,8.7-5.6,9.8l0.3,0.1c2-1.9,9.4-8.2,15.8-8.2c2.6,0,4.6,1.4,4.6,3.9c0,4.2-6,12.2-11.2,12.2
		c-1.6,0-2.1-0.6-2.4-0.6c-0.2,0-3.6,9.1-3.6,11.6c0,1,0.6,1.8,2,1.8c7.6,0,15.3-13.7,16.1-13.7c0.5,0,0.8,1.4,0.8,2.3
		C-286.9-186.8-295.2-171.5-306.9-171.5z M-294.5-202.3c-1,0-9.6,5.4-9.6,6.2c0,0.3,0.8,1,2,1c1.9,0,8-5,8-6.8
		C-294.1-202.2-294.3-202.3-294.5-202.3z"/>
	<path class="st0" d="M-267.8-172.2c-4.5,0-5.6-5.4-5.8-5.4s-4.9,5.9-10.3,5.9c-3.6,0-7-2.9-7-8.7c0-9.5,11.2-24.5,21.8-24.5
		c5.2,0,5.7,4.5,5.9,4.5c0.3,0,3.7-4.2,4.9-4.2s1.1,0.2,1.9,0.4c0.6,0.1,1.6,0.3,1.6,1.2c0,3.6-11.4,19.6-11.4,23.6
		c0,0.6,0.3,1.1,1,1.1c4.1,0,10.9-11.4,11.6-11.4c0.6,0,0.8,1.1,0.8,2.3C-252.8-186.1-262.2-172.2-267.8-172.2z M-270-201.2
		c-5.2,0-12.8,13.5-12.8,19.8c0,2.1,0.7,3.2,2,3.2c1.7,0,6.2-3.1,6.2-4.3c0-0.5-1.4-0.6-1.9-0.6v-0.5c1.7-0.5,9.1-8.1,9.1-14
		C-267.4-199.6-268.5-201.2-270-201.2z"/>
	<path class="st6" d="M-243.3-171.8c-4.1,0-7.2-2.4-7.2-7c0-6.3,8.7-18,8.7-18.2c0-0.1-2.1-1-3.2-1c-0.3,0-0.5,0.1-0.5,0.2
		c-3.2,5.2-6.3,9.9-8.6,13.1c-0.2,0.3-0.5,0.5-0.7,0.5c-0.6,0-1-0.8-1-1.9c0-0.5,0.4-1.1,0.6-1.4c0.8-1.2,2.5-3.7,4.3-7.4
		c1.9-3.9,2.3-6.7,3.6-9.6c1.3-3.2,2.3-3.9,4.4-3.9c1,0,1.5,0.6,1.5,1.7c0,1.3-0.6,1.8-0.6,2c0,0.3,0.4,0.5,1.4,0.5
		c3,0,6.7-0.5,7.6-0.5c1.8,0,4.2,3.6,4.2,5c0,1.2-2,2.2-3.4,3.8c-2.5,2.6-9.1,12-9.1,17.1c0,0.5,0.3,1,0.9,1c1.6,0,4.5-2.5,6.7-5.2
		c2.5-3,4.5-6.2,4.8-6.2c0.6,0,0.8,1.2,0.8,2.3C-228.2-185.9-237.7-171.8-243.3-171.8z"/>
	<path class="st6" d="M-223.8-171.5c-4.4,0-7.8-4.5-7.8-9.8c0-8.2,9.7-22.9,18.4-22.9c2.3,0,3.6-0.7,4.9-0.7c2.1,0,4,2.4,4,4.9
		c0,4.8-7.2,13.3-17.6,13.3c-0.2,0-0.4,0-0.6-0.1c-0.8,1.9-1.4,3.7-1.4,5.3c0,2.8,1,4.7,3.4,4.7c8.6,0,15.7-12.8,16.5-12.8
		c0.7,0,0.8,1.2,0.8,2.1C-203.2-185.2-213.1-171.5-223.8-171.5z M-210.3-201.1c-2.3,0-7.4,5.4-10.6,11.1c5.1-1.1,11.8-6.3,11.8-10
		C-209.1-200.7-209.5-201.1-210.3-201.1z"/>
	<path class="st6" d="M-187.6-171.8c-3,0-5.9-2.4-5.9-5.8c0-7.4,6.8-17.8,8.5-20.2l-0.3-0.1c-3.6,3.4-10.5,11.2-14.2,16.7
		c-3.6,5.4-4.8,9.2-6.2,9.2c-1.3,0-4.1-1.9-4.1-4.3c0-3,12.3-28.9,15.2-28.9c1,0,4.5,0.8,4.5,2.7c0,1.6-2.2,6.4-2.5,7.5l0.1,0.1
		c1.2-1.2,8.5-9.8,12.1-9.8c2.4,0,5.5,1.6,5.5,2.8c0,1.7-0.8,2.8-1.7,4.6c-0.8,1.7-8.1,14.9-8.1,17.7c0,0.8,0.2,1.4,1.5,1.4
		c3.4,0,10.4-11.6,11-11.6s0.8,1.1,0.8,2.2C-171.6-185.7-181.3-171.8-187.6-171.8z M-176.4-213.5c-3,2-5.6,6.2-7.8,6.2
		c-1.8,0-2.1-4.5-3.2-6.2c-1.3-2.1-3.8-3.7-3.8-4c0-0.7,1-1.2,1.6-1.2c3.2,0,6.1,3,7.5,5.7c2.8-2.3,7.8-5.7,11.6-5.7
		c0.4,0,0.9,0.2,0.9,0.6C-169.7-216.8-174-215.1-176.4-213.5z"/>
</g>
<circle class="st0" cx="809.2" cy="-162.1" r="37.5"/>
<circle class="st1" cx="809.2" cy="-162.1" r="28.5"/>
<circle class="st0" cx="809.2" cy="-162.1" r="20"/>
<circle class="st1" cx="809.2" cy="-162.1" r="10"/>
</svg>
