<?xml version="1.0" encoding="utf-8"?>
<!-- Generator: Adobe Illustrator 26.5.1, SVG Export Plug-In . SVG Version: 6.00 Build 0)  -->
<svg version="1.1" id="Layer_1" xmlns="http://www.w3.org/2000/svg" xmlns:xlink="http://www.w3.org/1999/xlink" x="0px" y="0px"
	 viewBox="0 0 469.3 83" style="enable-background:new 0 0 469.3 83;" xml:space="preserve">
<style type="text/css">
	.st0{fill-rule:evenodd;clip-rule:evenodd;fill:#5DBA47;}
	.st1{fill:#5DBA47;}
</style>
<g>
	<path class="st0" d="M30,41.9c10.7,0,27.8,0,33.8,0.6c-6,0.6-23.3,0.6-33.8,0.6C19.5,43.1,19.4,41.9,30,41.9L30,41.9z M131.2,38.3
		h6.1c0.6,0.1,1.1,0.6,1.5,1.1c0.4,0.5,0.6,1.2,0.8,2c-2.1,0-4.3,0-6.7,0C132.7,39.9,132.2,38.6,131.2,38.3L131.2,38.3z M139.6,43.7
		c-0.1,0.8-0.4,1.4-0.8,2c-0.4,0.6-0.9,1-1.5,1.1h-6.1c1-0.3,1.5-1.6,1.7-3.1C135.3,43.7,137.6,43.7,139.6,43.7L139.6,43.7z
		 M29,43.9c-17,11.2-13.7,21.4-4.1,22.3c11.3,1.1,31.5-8.7,40.2-20.7c12.9,0.5,51.2,0.9,64.3,1.3c1.1,0,1.8-1.4,2-3.2
		c-13.7-0.1-55.5-0.3-62.1-1.1c6.6-0.9,48.3-1.1,62.1-1.1c-0.2-1.7-0.9-3.2-2-3.2c-13,0.4-51.3,0.8-64.3,1.3
		c-8.7-12-28.9-21.8-40.2-20.7c-9.5,0.9-12.8,11.1,4.1,22.3c-3.1,0.2-6.2,0.3-9.3,0.5c-2,0.1-1.9,1.7,0,1.8
		C22.8,43.6,25.9,43.8,29,43.9L29,43.9z M155.8,41.6l12.8,0l5.9,0.9l-5.9,0.9h-12.8C155.9,42.8,155.9,42.2,155.8,41.6L155.8,41.6z
		 M139.2,38.3c0.2,0.2,0.3,0.4,0.5,0.6c0.5,0.7,0.8,1.6,1,2.5c0.4,0,0.8,0,1.1,0c-0.1-0.8-0.4-1.4-0.8-2c-0.4-0.6-0.9-1-1.5-1.1
		H139.2L139.2,38.3z M141.8,43.7c-0.4,0-0.7,0-1.1,0c-0.2,1-0.5,1.8-1,2.5c-0.1,0.2-0.3,0.4-0.5,0.6h0.3c0.6-0.1,1.1-0.6,1.5-1.1
		C141.4,45.1,141.7,44.4,141.8,43.7L141.8,43.7z M141.4,38.3h8.2c0.6,0.2,1.2,0.6,1.6,1.1c0.7,0.8,1.2,1.9,1.2,3.2
		c0,1.2-0.5,2.4-1.2,3.2c-0.4,0.5-1,0.8-1.6,1.1h-8.2c0.2-0.2,0.3-0.4,0.4-0.6c0.5-0.7,0.8-1.6,1-2.6c11.3-0.2,11.4-2.1,0-2.3
		c-0.2-1-0.5-1.9-1-2.5C141.7,38.6,141.6,38.4,141.4,38.3L141.4,38.3z M151,38.3c0.2,0.2,0.5,0.4,0.7,0.6c0.9,0.9,1.4,2.2,1.4,3.6
		c0,1.4-0.5,2.7-1.4,3.6c-0.2,0.2-0.4,0.4-0.7,0.6h0.1C156.5,46.8,156.5,38.3,151,38.3L151,38.3z"/>
</g>
<g>
	<path class="st1" d="M220.8,67c-6.7,0-9.7-4.7-12.3-9.7c-4.9,5-10.6,9.1-16.7,9.1c-4.2,0-7.4-3.3-7.4-7.9c0-8.5,7.3-17.3,16.8-17.3
		c3.6,0,6.2,1.4,8.1,3.4c1.4-2,2.7-4,4.1-6c4.4-6.8,10.2-13,16-17.1c-1.5-0.3-3.2-0.4-5-0.4c-11.6,0-22.2,7.7-22.2,12.3
		c0,0.6,0.8,1.2,1.6,1.2c5.8,0,10.9-7.9,11.8-9.6c0.1-0.2,0.3-0.3,0.3-0.3c0.1,0,0.3,0.3,0.3,0.5c0,10.4-7.2,15.2-12.7,15.2
		c-3.4,0-6.1-1.8-6.1-5.2c0-6.1,12.3-16.8,29.1-16.8c2.4,0,4.7,0.3,6.8,0.8c3-1.6,5.9-2.5,8.5-2.5c1.8,0,2.7,0.5,2.7,0.8
		c0,0.3-0.3,0.3-1.6,0.3c-1.9,0-3.9,1-6,2.7c5.9,2.7,9.5,8.5,9.5,17.3C246.6,51.5,235.3,67,220.8,67z M198.2,46
		c-5.9,0-10.9,4.9-10.9,10.5c0,2.7,1.8,4.5,4,4.5c3.8,0,8.7-4.5,13.6-10.6C203.3,47.9,201.3,46,198.2,46z M233.9,23.6
		c-5.3,5.9-10.4,14.8-14.2,19.9c-1.6,2.3-3.7,5.1-6,8.1c2.1,4.4,3.9,8.8,8.2,8.8c10,0,15.9-14,15.9-25.1
		C237.7,30.2,236.4,25.8,233.9,23.6z"/>
	<path class="st1" d="M266.5,66.4c-4.4,0-5.3-5.1-5.5-5.1c-0.2,0-4.7,5.7-9.9,5.7c-3.4,0-6.8-2.7-6.8-8.3c0-9.1,10.7-23.4,20.9-23.4
		c5,0,5.5,4.3,5.6,4.3c0.3,0,3.6-4,4.7-4s1.1,0.2,1.8,0.3c0.6,0.1,1.5,0.3,1.5,1.1c0,3.4-10.9,18.7-10.9,22.6c0,0.6,0.3,1.1,0.9,1.1
		c3.9,0,10.4-11,11.1-11c0.5,0,0.8,1.1,0.8,2.2C280.9,53,271.9,66.4,266.5,66.4z M264.4,38.7c-5,0-12.3,12.9-12.3,19
		c0,2,0.7,3.1,1.9,3.1c1.6,0,5.9-3,5.9-4.2c0-0.5-1.3-0.6-1.8-0.6v-0.5c1.6-0.4,8.8-7.7,8.8-13.5C266.9,40.1,265.9,38.7,264.4,38.7z
		"/>
	<path class="st1" d="M290,66.7c-3.9,0-6.9-2.3-6.9-6.8c0-6,8.3-17.2,8.3-17.4c0-0.1-2.1-1-3.1-1c-0.3,0-0.4,0-0.5,0.2
		c-3,4.9-6,9.4-8.2,12.6c-0.2,0.3-0.4,0.5-0.7,0.5c-0.5,0-0.9-0.8-0.9-1.9c0-0.4,0.3-1.1,0.5-1.4c0.8-1.2,2.4-3.6,4.1-7.1
		c1.9-3.7,2.2-6.4,3.4-9.1c1.2-3.1,2.2-3.7,4.2-3.7c0.9,0,1.4,0.5,1.4,1.6c0,1.2-0.6,1.8-0.6,1.9c0,0.3,0.3,0.4,1.4,0.4
		c2.9,0,6.4-0.5,7.2-0.5c1.8,0,4,3.4,4,4.8c0,1.1-1.9,2.1-3.3,3.6c-2.3,2.5-8.8,11.5-8.8,16.3c0,0.4,0.3,0.9,0.9,0.9
		c1.5,0,4.4-2.4,6.5-5c2.3-2.8,4.4-5.9,4.7-5.9c0.5,0,0.8,1.1,0.8,2.2C304.4,53.2,295.4,66.7,290,66.7z"/>
	<path class="st1" d="M320.9,38.2c-0.8,0-0.6,0-3.3,0c-4.6,8.5-9.3,17-9.3,19.8c0,2.1,1.4,2.5,2.2,2.5c3.9,0,10.5-11,11.1-11
		c0.5,0,0.8,1.1,0.8,2.2s-9.2,14.9-14.6,14.9c-4,0-8.6-2.3-8.6-5.9c0-4.4,6.6-15.8,9.7-21.5l0.8-1.4c-1.2-0.1-3.2-0.5-3.2-2.1
		c0-1.1,0-2.1,0.1-2.5c0-0.3,0.2-0.4,0.6-0.4c0.3,0,1.2,0,1.9,0c0.9,0,2.7-0.3,3.3-0.3c2.7-5,5.8-10.4,6.5-10.4c2.8,0,4.6,2.6,4.6,4
		c0,0.8-0.9,2.6-3.2,6.8h3.3c1.2,0,1.8,0.3,1.8,0.9C325.4,36.2,322.8,38.2,320.9,38.2z"/>
	<path class="st1" d="M344.4,45.3c-0.3,1.5-0.7,3.4-1.2,5.5c0.5,0.2,1.1,0.3,1.4,0.3c1.3,0,1.5-0.8,1.6-0.8c0.3,0,0.3,0,0.3,0.3v0.1
		c0,3.6-2.3,5.7-4.7,5.7c-0.2,0-0.3,0-0.5,0c-3,7.5-9.1,10.7-14.6,10.7s-10-3.3-10-9c0-5.2,4.3-10.8,10.7-10.8c0.9,0,1.7,0,2.6,0.2
		c1.8-2.1,4-4.8,5.9-7.7c3.5-5,8.4-7.9,10.7-7.9c1.5,0,2.7,0.5,2.7,1.4C349.6,34.6,345.6,40,344.4,45.3z M327.6,54
		c-4.1,0-6.2,2.6-6.2,5c0,1.9,1.4,3.7,4.2,3.7c2.8,0,6.4-2.1,8.3-7.7C331.7,54.4,329.6,54,327.6,54z M336.9,43.5
		c-0.5,0.7-2.1,2.7-3.7,4.7c0.8,0.3,1.6,0.4,2.4,0.7c0.6-2.3,1.1-4.1,1.5-5.2L336.9,43.5z"/>
</g>
<g>
	<path class="st1" d="M383.2,43.4c-3.3,0-6.5-0.8-9.2-2.1c-5.1,5.3-9,11.4-9,16.2c0,2.8,2,4.6,4.9,4.6c7.8,0,13-7.4,13-11
		c0-1.1-0.7-1.6-1.8-1.6c-1.8,0-4.3,2-4.7,4.7c-0.1,0.3,0,0.5-0.3,0.5c-0.2,0-0.7-1-0.7-2.1c0-3,2.6-6.3,6.7-6.3
		c3,0,4.3,1.7,4.3,4.2c0,5.9-7.7,16-18.3,16c-5.7,0-10.1-3.8-10.1-9.3c0-6.5,4.7-13.7,11.3-19.5c-2.2-2.5-3.6-5.8-3.6-9.6
		c0-2.9,2.1-5.5,2.8-5.5c0.1,0,0.1,0,0.1,0.1c0,0.2,0,0.5,0,1.1c0,4.4,1.5,8.2,4.5,10.8c6.7-5,14.6-8.3,20.6-8.3
		c4.4,0,6.9,2.1,6.9,4.9C400.7,36.5,393.4,43.4,383.2,43.4z M393.4,28.6c-3.4,0-9.6,3.6-15.3,8.7c1.9,0.6,4.1,0.9,6.5,0.9
		c7,0,12.1-3.9,12.1-6.9C396.8,29.5,395.4,28.6,393.4,28.6z"/>
	<path class="st1" d="M397.7,56.5c-0.5,1.5-0.8,2.9-0.8,4.1c0,1,0.9,1.8,2,1.8c4.8,0,11-10.5,11.5-10.5s0.7,1.1,0.7,1.6
		c0,1.8-7.8,12.4-14.4,12.4c-3,0-5.9-3.2-5.9-5.6c0-8.1,13.8-32.6,23.5-32.6c2,0,3.6,1.2,3.6,2C418,31.7,406.4,51.8,397.7,56.5z
		 M413.8,31.8c-0.8,0-9.1,10.2-13.8,19.2c5.5-4.4,13.9-18.2,13.9-19.1C413.9,31.9,413.9,31.8,413.8,31.8z"/>
	<path class="st1" d="M424,65.8c-2.4,0-4.7-1.9-4.7-4.5c0-0.5,0-0.7,0-1c-0.8,1.2-4.7,5.5-7,5.5c-2.3,0-4.6-2.9-4.6-5.8
		c0-6.2,7.9-19,10.5-20c0.2,0,0.7-0.1,1.3-0.1c1.3,0,3,0.3,3,1.1c0,0.1,0,0.3-0.2,0.4c-1.1,2-8.7,15.3-8.7,18.8
		c0,0.8,0.3,1.1,0.7,1.1c1.2,0,5.3-4.6,8.2-9.5c2.5-4.2,5.8-11.8,6.9-11.8c2.5,0,4.4,0.8,4.4,1.8c0,1.4-0.8,2.6-1.5,4
		c-0.7,1.4-6.4,11.7-6.4,13.9c0,0.6,0.2,1.1,1.2,1.1c2.6,0,8.2-9.1,8.5-9.1c0.5,0,0.7,0.8,0.7,1.7C436.5,54.9,429,65.8,424,65.8z"/>
	<path class="st1" d="M440.4,65.8c-3.4,0-6.9-1.7-6.9-8.3c0-2.3,3.8-9,7.7-15.5c4.3-7.2,8.3-14.2,10.8-14.2c1.4,0,3.4,1,3.4,1.6
		c0,0.7-2.3,3.9-3.6,6.1c-1.4,2.2-3.3,5.5-3.3,5.7l0.1,0c1.3-0.7,2.6-1.1,3.8-1.1c2.8,0,4.7,2,4.7,6
		C457.1,53.8,450.2,65.8,440.4,65.8z M449.9,43c-1.8,0-3.3,1.9-4.1,2.7c-0.8,0.8-7.2,12.9-7.2,15.2c0,0.8,0.5,1.6,1.8,1.6
		c4,0,11.5-12,11.5-17.1C451.9,44.4,451.2,43,449.9,43z"/>
</g>
</svg>
