<?xml version="1.0" encoding="utf-8"?>
<!-- Generator: Adobe Illustrator 26.5.2, SVG Export Plug-In . SVG Version: 6.00 Build 0)  -->
<svg version="1.1" id="Layer_1" xmlns="http://www.w3.org/2000/svg" xmlns:xlink="http://www.w3.org/1999/xlink" x="0px" y="0px"
	 viewBox="0 0 246 246" style="enable-background:new 0 0 246 246;" xml:space="preserve">
<style type="text/css">
	.st0{fill-rule:evenodd;clip-rule:evenodd;fill:#00EE00;}
	.st1{fill:#00EE00;}
</style>
<g>
	
		<image style="overflow:visible;" width="1330" height="1330" xlink:href="FC7231CF.png"  transform="matrix(0.24 0 0 0.24 -37.2 -36)">
	</image>
</g>
<g>
	<path class="st0" d="M67.6,200.4c9.9,0,25.7,0,31.2,0.6c-5.5,0.5-21.5,0.6-31.2,0.6C57.8,201.5,57.7,200.4,67.6,200.4L67.6,200.4z
		 M161.2,197.1h5.7c0.5,0.1,1,0.5,1.4,1c0.3,0.5,0.6,1.1,0.7,1.8c-1.9,0-4,0-6.2,0C162.6,198.5,162,197.3,161.2,197.1L161.2,197.1z
		 M168.9,202c-0.1,0.7-0.4,1.3-0.7,1.8c-0.4,0.5-0.8,0.9-1.4,1h-5.7c0.9-0.3,1.4-1.5,1.6-2.9C164.9,202,167,202,168.9,202L168.9,202
		z M66.7,202.3C51,212.6,54,222,62.8,222.9c10.4,1,29.2-8,37.2-19.2c12,0.5,47.4,0.9,59.5,1.2c1.1,0,1.7-1.3,1.8-2.9
		c-12.6,0-51.4-0.3-57.4-1c6.1-0.8,44.7-1,57.4-1.1c-0.2-1.6-0.8-3-1.8-2.9c-12,0.3-47.5,0.7-59.5,1.2C92,187.1,73.2,178,62.8,179
		c-8.8,0.9-11.8,10.3,3.8,20.7c-2.9,0.1-5.8,0.3-8.6,0.4c-1.8,0.1-1.7,1.6,0,1.7C60.9,202,63.8,202.1,66.7,202.3L66.7,202.3z
		 M183.8,200.1h11.8l5.5,0.8l-5.5,0.9h-11.8C184,201.3,184,200.7,183.8,200.1L183.8,200.1z M168.6,197.1c0.1,0.2,0.3,0.3,0.4,0.5
		c0.4,0.6,0.8,1.4,0.9,2.3c0.4,0,0.7,0,1.1,0c-0.1-0.7-0.4-1.3-0.7-1.8c-0.4-0.5-0.8-0.9-1.4-1H168.6L168.6,197.1z M170.9,202
		c-0.3,0-0.7,0-1.1,0c-0.1,0.9-0.5,1.7-0.9,2.3c-0.1,0.2-0.3,0.4-0.4,0.5h0.3c0.5-0.1,1-0.5,1.4-1
		C170.6,203.4,170.8,202.7,170.9,202L170.9,202z M170.6,197.1h7.6c0.6,0.2,1.1,0.5,1.5,1c0.7,0.7,1.1,1.8,1.1,2.9
		c0,1.1-0.4,2.2-1.1,2.9c-0.4,0.4-0.9,0.8-1.5,1h-7.6c0.2-0.2,0.3-0.3,0.4-0.5c0.4-0.6,0.8-1.5,0.9-2.4c10.4-0.2,10.6-1.9,0-2.1
		c-0.1-0.9-0.5-1.7-0.9-2.4C170.9,197.4,170.7,197.2,170.6,197.1L170.6,197.1z M179.4,197.1c0.2,0.2,0.4,0.4,0.6,0.6
		c0.8,0.9,1.3,2,1.3,3.4c0,1.3-0.5,2.5-1.3,3.3c-0.2,0.2-0.4,0.4-0.6,0.6h0.1C184.6,204.9,184.6,197.1,179.4,197.1L179.4,197.1z"/>
</g>
<path class="st1" d="M65.4,87.6c-8.3,0-12.1-5.9-15.3-12.1C44,81.8,36.8,86.9,29.2,86.9c-5.3,0-9.2-4.1-9.2-9.9
	c0-10.5,9.1-21.6,21-21.6c4.5,0,7.7,1.7,10.1,4.2c1.7-2.5,3.4-5,5.1-7.5c5.5-8.4,12.7-16.2,20-21.4c-1.8-0.4-4-0.5-6.2-0.5
	c-14.5,0-27.6,9.6-27.6,15.3c0,0.8,0.9,1.5,2,1.5c7.2,0,13.6-9.8,14.8-12c0.2-0.2,0.3-0.4,0.4-0.4c0.2,0,0.3,0.3,0.3,0.6
	c0,13-9,18.9-15.9,18.9c-4.2,0-7.6-2.3-7.6-6.5c0-7.6,15.3-21,36.3-21c3,0,5.9,0.3,8.4,1c3.7-2,7.3-3.1,10.6-3.1
	c2.2,0,3.4,0.6,3.4,0.9c0,0.4-0.4,0.4-2,0.4c-2.4,0-4.9,1.3-7.5,3.4C92.9,32.9,97.4,40,97.4,51C97.5,68.2,83.4,87.6,65.4,87.6z
	 M37.2,61.3c-7.4,0-13.6,6.1-13.6,13.1c0,3.4,2.3,5.6,5,5.6c4.7,0,10.8-5.6,17-13.2C43.5,63.7,41,61.3,37.2,61.3z M81.6,33.4
	c-6.6,7.3-13,18.5-17.7,24.8c-2.1,2.8-4.6,6.4-7.5,10.1c2.6,5.5,4.9,10.9,10.2,10.9c12.4,0,19.9-17.5,19.9-31.3
	C86.4,41.6,84.8,36.1,81.6,33.4z"/>
<path class="st1" d="M122.3,86.8c-5.4,0-6.6-6.4-6.9-6.4c-0.2,0-5.9,7.1-12.3,7.1c-4.2,0-8.4-3.4-8.4-10.3
	c0-11.3,13.4-29.2,26.1-29.2c6.2,0,6.8,5.3,7,5.3c0.4,0,4.5-5,5.9-5c1.4,0,1.3,0.2,2.3,0.4c0.8,0.2,1.9,0.3,1.9,1.4
	c0,4.2-13.6,23.4-13.6,28.2c0,0.8,0.4,1.3,1.2,1.3c4.9,0,13-13.7,13.8-13.7c0.6,0,1,1.3,1,2.8C140.3,70.1,129,86.8,122.3,86.8z
	 M119.6,52.2c-6.2,0-15.3,16.1-15.3,23.7c0,2.5,0.9,3.9,2.4,3.9c2,0,7.4-3.7,7.4-5.2c0-0.6-1.6-0.8-2.3-0.8v-0.6
	c2-0.5,10.9-9.7,10.9-16.8C122.8,54,121.5,52.2,119.6,52.2z"/>
<path class="st1" d="M151.6,87.1c-4.9,0-8.6-2.8-8.6-8.4c0-7.5,10.4-21.5,10.4-21.7s-2.6-1.3-3.9-1.3c-0.3,0-0.5,0.1-0.6,0.2
	c-3.8,6.2-7.5,11.8-10.2,15.7c-0.2,0.4-0.5,0.6-0.9,0.6c-0.6,0-1.2-0.9-1.2-2.3c0-0.5,0.4-1.3,0.6-1.7c1-1.5,3-4.5,5.1-8.9
	c2.3-4.6,2.8-8,4.2-11.4c1.5-3.9,2.7-4.6,5.3-4.6c1.2,0,1.7,0.6,1.7,2c0,1.5-0.8,2.2-0.8,2.4c0,0.3,0.4,0.5,1.7,0.5
	c3.6,0,8-0.6,9-0.6c2.2,0,5,4.2,5,6c0,1.4-2.4,2.6-4.1,4.5c-2.9,3.2-10.9,14.3-10.9,20.4c0,0.5,0.3,1.2,1.1,1.2c1.9,0,5.4-3,8.1-6.2
	c2.9-3.5,5.4-7.4,5.8-7.4c0.6,0,1,1.4,1,2.8C169.5,70.4,158.3,87.1,151.6,87.1z"/>
<path class="st1" d="M190.1,51.6c-1,0-0.8,0.1-4.1,0.1c-5.7,10.6-11.5,21.1-11.5,24.7c0,2.6,1.7,3.1,2.8,3.1
	c4.9,0,13.1-13.7,13.8-13.7c0.6,0,1,1.3,1,2.8s-11.5,18.6-18.2,18.6c-5,0-10.7-2.8-10.7-7.3c0-5.4,8.3-19.7,12.1-26.8l0.9-1.7
	c-1.5-0.2-4-0.6-4-2.6c0-1.3,0-2.6,0.2-3.2c0.1-0.4,0.2-0.5,0.8-0.5c0.4,0,1.5,0.1,2.4,0.1c1.1,0,3.4-0.4,4.1-0.4
	c3.4-6.3,7.2-13,8.1-13c3.5,0,5.7,3.3,5.7,5c0,0.9-1.2,3.2-4,8.4h4.2c1.5,0,2.2,0.4,2.2,1.2C195.8,49.2,192.5,51.6,190.1,51.6z"/>
<path class="st1" d="M219.5,60.5c-0.4,1.9-0.9,4.2-1.5,6.8c0.6,0.2,1.3,0.3,1.7,0.3c1.6,0,1.9-1,2.1-1c0.4,0,0.4,0.1,0.4,0.4v0.2
	c0.1,4.5-2.9,7.1-5.9,7.1c-0.2,0-0.4,0-0.6,0c-3.8,9.4-11.4,13.4-18.1,13.4c-6.8,0-12.4-4.1-12.4-11.2c0-6.5,5.3-13.4,13.4-13.4
	c1.1,0,2.1,0.1,3.2,0.2c2.3-2.6,5-6,7.4-9.7c4.4-6.3,10.4-9.9,13.4-9.9c1.9,0,3.4,0.6,3.4,1.7C226,47.1,220.9,53.9,219.5,60.5z
	 M198.5,71.3c-5.1,0-7.7,3.3-7.7,6.3c0,2.4,1.7,4.6,5.2,4.6s8-2.6,10.3-9.7C203.6,71.8,201,71.3,198.5,71.3z M210.1,58.2
	c-0.6,0.9-2.6,3.4-4.6,5.8c1,0.3,2,0.5,3,0.9c0.8-2.8,1.4-5.1,1.8-6.5L210.1,58.2z"/>
<path class="st1" d="M80.5,129.5c-5.8,0-11.3-1.3-16-3.7c-8.9,9.3-15.7,19.9-15.7,28.3c0,5,3.5,8,8.6,8c13.6,0,22.8-12.9,22.8-19.2
	c0-1.8-1.3-2.9-3.1-2.9c-3.1,0-7.5,3.5-8.3,8.2c-0.1,0.6-0.1,0.9-0.4,0.9c-0.4,0-1.2-1.8-1.2-3.6c0-5.2,4.6-11.1,11.7-11.1
	c5.2,0,7.5,3,7.5,7.3c0,10.4-13.5,27.9-32,27.9c-10,0-17.7-6.7-17.7-16.3c0-11.4,8.3-23.9,19.7-34c-3.9-4.4-6.2-10.1-6.2-16.7
	c0-5.1,3.7-9.6,4.9-9.6c0.1,0,0.1,0,0.1,0.1c0,0.4-0.1,1-0.1,1.9c0,7.6,2.6,14.3,7.9,18.9c11.8-8.7,25.5-14.6,36.1-14.6
	c7.7,0,12.1,3.7,12.1,8.6C111.1,117.4,98.4,129.5,80.5,129.5z M98.4,103.7c-6,0-16.7,6.4-26.7,15.2c3.3,1,7.1,1.6,11.4,1.6
	c12.2,0,21.2-6.8,21.2-12.1C104.3,105.2,101.8,103.7,98.4,103.7z"/>
<path class="st1" d="M105.9,152.4c-0.8,2.7-1.3,5-1.3,7.2c0,1.7,1.6,3.1,3.5,3.1c8.4,0,19.2-18.4,20.2-18.4s1.2,1.9,1.2,2.9
	c0,3.1-13.7,21.6-25.1,21.6c-5.2,0-10.4-5.5-10.4-9.8c0-14.1,24.1-57,41.1-57c3.5,0,6.2,2.1,6.2,3.5
	C141.2,109.1,121.1,144.2,105.9,152.4z M134,109.4c-1.3,0-15.9,17.8-24.1,33.6c9.5-7.8,24.3-31.8,24.3-33.3
	C134.2,109.5,134.1,109.4,134,109.4z"/>
<path class="st1" d="M151.7,168.7c-4.2,0-8.1-3.3-8.1-7.9c0-0.9,0-1.2,0.1-1.7c-1.4,2.1-8.2,9.6-12.3,9.6c-4,0-8.1-5.1-8.1-10.2
	c0-10.8,13.8-33.1,18.3-35c0.4-0.1,1.3-0.1,2.3-0.1c2.2,0,5.3,0.4,5.3,1.9c0,0.1-0.1,0.4-0.3,0.7c-1.8,3.5-15.2,26.7-15.2,32.8
	c0,1.3,0.5,1.8,1.3,1.8c2.1,0,9.3-8,14.3-16.6c4.4-7.3,10.2-20.6,12.1-20.6c4.4,0,7.6,1.5,7.6,3.1c0,2.4-1.4,4.6-2.6,7
	c-1.3,2.4-11.2,20.4-11.2,24.2c0,1,0.3,1.8,2.1,1.8c4.5,0,14.3-15.8,14.9-15.8c0.9,0,1.2,1.5,1.2,3
	C173.6,149.7,160.5,168.7,151.7,168.7z"/>
<path class="st1" d="M180.4,168.7c-6,0-12.1-3-12.1-14.5c0-4,6.6-15.7,13.5-27.1c7.5-12.6,14.6-24.8,18.9-24.8
	c2.4,0,5.9,1.7,5.9,2.9c0,1.2-4.1,6.8-6.4,10.6c-2.4,3.9-5.7,9.6-5.7,10l0.1,0.1c2.3-1.3,4.6-1.8,6.6-1.8c4.9,0,8.3,3.5,8.3,10.5
	C209.7,147.7,197.6,168.7,180.4,168.7z M197.1,128.9c-3.1,0-5.8,3.3-7.1,4.8s-12.6,22.6-12.6,26.5c0,1.5,0.9,2.7,3.1,2.7
	c7,0,20.1-21,20.1-29.9C200.6,131.3,199.4,128.9,197.1,128.9z"/>
</svg>
