<?xml version="1.0" encoding="utf-8"?>
<!-- Generator: Adobe Illustrator 26.5.1, SVG Export Plug-In . SVG Version: 6.00 Build 0)  -->
<svg version="1.1" id="Layer_1" xmlns="http://www.w3.org/2000/svg" xmlns:xlink="http://www.w3.org/1999/xlink" x="0px" y="0px"
	 viewBox="0 0 103 94" style="enable-background:new 0 0 103 94;" xml:space="preserve">
<style type="text/css">
	.st0{fill:#B52828;}
	.st1{fill:#BFB5AC;}
	.st2{fill:#C92F2F;}
</style>
<g>
	<path class="st0" d="M1047.4,31c-3,6.8-5.8,14.3-8.3,22.3c-8.3,26.9-21.1,53.3-53.1,53.3c-25.9,0-37.6-19.3-37.6-39.5
		c0-7.3,1.5-14.6,4.5-21.4c-0.8-1.4-1.4-3-1.4-5.1c0-5.7,3.9-9.6,9.8-9.6c0.7,0,1.2,0,1.8,0.1c6.3-6.1,14.6-9.9,24.5-9.9
		c11.9,0,18.2,6.3,19.8,17.5c7.9-1.8,15.2-4.1,21.8-6.8c10.1-18.2,22.3-33.8,43.3-33.8c5.5,0,8,2.6,8,4.7
		C1080.6,11.1,1066.4,21.7,1047.4,31z M1007.8,45.9c-0.7,14.1-15,32.7-24.5,32.7c-4.5,0-12.3-3.4-12.3-4.3c0-0.7,2.6-0.7,4.5-1.7
		c1.4-0.7,9.5-8.7,12.1-22c-5.6,0.8-11,1.4-15.7,1.4c-4,0-7.6-0.3-10.6-1.1c-1.8,4.4-2.8,9-2.8,13.5c0,15.7,9.2,25.9,21.2,25.9
		c22.5,0,32.8-25.6,45.1-49.7C1019.3,42.4,1013.5,44.3,1007.8,45.9z M981.5,30.1c-3.6,0-7.7,2.5-11.4,6.5c2.3,2.6,5.1,5.1,9.5,5.1
		c3,0,6.1-0.1,9-0.3C988.5,33.6,985.9,30.1,981.5,30.1z M1086.9-24.1c-7.7,5.1-14.1,15.7-19.7,15.7c-4.7,0-5.5-11.3-8.1-15.7
		c-3.2-5.2-9.5-9.4-9.5-10.2c0-1.8,2.3-2.9,3.9-2.9c8.1,0,15.3,7.7,18.9,14.5c7.2-5.8,19.8-14.5,29.4-14.5c1,0,2.2,0.6,2.2,1.7
		C1103.9-32.3,1093.1-28.3,1086.9-24.1z M1066.5,5.8c-3.9,0-8.8,5.5-13.8,14.2c9.5-6.1,14.9-11.6,14.9-13.4
		C1067.6,6.2,1067.2,5.8,1066.5,5.8z"/>
	<path class="st0" d="M1060.3,106.2c-7,0-11.3-8-11.3-15.8c0-16.8,21.4-51.5,28.5-54.4c0.6-0.1,1.9-0.3,3.4-0.3c3.6,0,8.3,0.7,8.3,3
		c0,0.3,0,0.7-0.3,1.1c-3,5.5-23.6,41.6-23.6,51.1c0,2.1,0.8,2.9,1.8,2.9c8.5,0,24.5-26,25.8-26c1.5,0,1.7,3.2,1.7,5.1
		C1094.7,75.3,1074.5,106.2,1060.3,106.2z M1079.5,28.6c-1.8,0-2.9-1.2-2.9-2.3c0-2.2,8-3.6,13.8-9.9c5-5.4,6.6-16.7,12-16.7
		c3.4,0,8.4,3.2,8.4,7.7C1110.8,15.8,1087.8,28.6,1079.5,28.6z"/>
	<path class="st0" d="M1111.5,106.5c-6.3,0-12.7-5.4-15.3-11.2c-12.5,25.6-22.7,44.5-27.3,44.5c-3,0-8-4.8-8-8.4
		c0-3.7,10.9-23.7,25.2-51c14.5-27.3,24.8-48.8,28-48.8c4.4,0,9.6,2.5,9.6,4.5c0,1.2-0.8,3.7-2.5,7.4c5.8-4.3,12.1-8,18.1-8
		c8.3,0,12.7,5.4,12.7,16C1152,72.2,1130.5,106.5,1111.5,106.5z M1132,45c-3.6,0-10.5,5.2-16.3,10.2c-3.2,6.8-7.4,15.3-12.5,25.8
		c1.4,6.5,4.1,12.7,7.7,12.7c7.6,0,25.2-35.6,25.2-43.8C1136.1,47.1,1134.7,45,1132,45z"/>
	<path class="st0" d="M1186.8,106.6c-8.8,0-14.6-7-14.6-15c0-9.9,4-18.7,6.2-23l-0.4-0.4c-5.4,5.1-13.9,16.8-18.5,25.4
		c-4.4,8.4-4.7,12.8-6.5,12.8c-3,0-10.2-5-10.2-10.6c0-5.6,12.3-28.4,22.5-46.9c10.1-18.3,23.8-43.1,29.6-43.1
		c2.9,0,8.3,1.8,8.3,5.4c0,5.5-4.3,12.3-9.8,20.9c-5.4,8.8-10.7,18.6-11.9,20.8l0.7,0.1c4.3-4,20-17.5,33.8-17.5
		c5.5,0,9.8,2.9,9.8,8.3c0,9-12.8,26-24,26c-3.3,0-4.5-1.4-5.1-1.4c-0.4,0-7.7,19.4-7.7,24.8c0,2.1,1.2,3.9,4.3,3.9
		c16.3,0,32.7-29.2,34.3-29.2c1.1,0,1.8,3,1.8,4.8C1229.4,74,1211.6,106.6,1186.8,106.6z M1213.2,41c-2.1,0-20.4,11.4-20.4,13.2
		c0,0.7,1.8,2.1,4.3,2.1c4.1,0,16.9-10.6,16.9-14.5C1214,41.3,1213.7,41,1213.2,41z"/>
	<path class="st0" d="M1270.1,105.2c-9.6,0-11.9-11.4-12.3-11.4s-10.5,12.7-21.9,12.7c-7.6,0-15-6.2-15-18.5
		c0-20.3,24-52.2,46.6-52.2c11.2,0,12.1,9.5,12.5,9.5c0.7,0,8-9,10.5-9s2.3,0.4,4,0.8c1.4,0.3,3.4,0.6,3.4,2.5
		c0,7.6-24.3,41.8-24.3,50.3c0,1.4,0.7,2.3,2.1,2.3c8.8,0,23.3-24.4,24.7-24.4c1.2,0,1.8,2.3,1.8,5S1282.1,105.2,1270.1,105.2z
		 M1265.4,43.4c-11.2,0-27.3,28.8-27.3,42.3c0,4.4,1.5,6.9,4.3,6.9c3.6,0,13.2-6.6,13.2-9.2c0-1.1-2.9-1.4-4-1.4v-1.1
		c3.6-1,19.4-17.2,19.4-29.9C1271,46.7,1268.7,43.4,1265.4,43.4z"/>
	<path class="st1" d="M1322.4,105.9c-8.7,0-15.4-5.1-15.4-15c0-13.5,18.6-38.3,18.6-38.7c0-0.3-4.5-2.2-6.9-2.2
		c-0.6,0-1,0.1-1.1,0.4c-6.8,11-13.5,21.1-18.3,28c-0.4,0.7-1,1.1-1.5,1.1c-1.2,0-2.1-1.7-2.1-4.1c0-1,0.8-2.3,1.2-3
		c1.8-2.6,5.4-8,9.1-15.8c4.1-8.3,5-14.2,7.6-20.4c2.8-6.9,4.8-8.3,9.4-8.3c2.1,0,3.2,1.2,3.2,3.6c0,2.8-1.4,3.9-1.4,4.3
		c0,0.6,0.8,1,3,1c6.5,0,14.2-1.1,16.1-1.1c3.9,0,9,7.6,9,10.7c0,2.5-4.3,4.7-7.3,8.1c-5.2,5.6-19.4,25.6-19.4,36.4
		c0,1,0.6,2.1,1.9,2.1c3.4,0,9.6-5.4,14.3-11.2c5.2-6.3,9.6-13.2,10.3-13.2c1.2,0,1.8,2.5,1.8,5
		C1354.5,76,1334.4,105.9,1322.4,105.9z"/>
	<path class="st1" d="M1363.9,106.8c-9.4,0-16.7-9.5-16.7-20.8c0-17.5,20.7-48.9,39.1-48.9c5,0,7.6-1.5,10.5-1.5
		c4.4,0,8.5,5.1,8.5,10.5c0,10.3-15.3,28.2-37.5,28.2c-0.4,0-0.8,0-1.2-0.1c-1.8,4.1-2.9,8-2.9,11.3c0,6.1,2.2,9.9,7.3,9.9
		c18.3,0,33.5-27.3,35.1-27.3c1.5,0,1.7,2.5,1.7,4.5C1407.9,77.6,1386.8,106.8,1363.9,106.8z M1392.7,43.5
		c-4.8,0-15.7,11.6-22.6,23.7c10.9-2.3,25.1-13.5,25.1-21.4C1395.2,44.3,1394.4,43.5,1392.7,43.5z"/>
	<path class="st1" d="M1441.1,106.1c-6.5,0-12.7-5.1-12.7-12.3c0-15.7,14.5-38,18.1-43l-0.6-0.3c-7.6,7.3-22.5,24-30.2,35.7
		c-7.6,11.6-10.3,19.7-13.2,19.7c-2.8,0-8.8-4.1-8.8-9.2c0-6.5,26.3-61.6,32.4-61.6c2.1,0,9.5,1.8,9.5,5.7c0,3.4-4.7,13.6-5.4,16
		l0.1,0.1c2.5-2.5,18.2-20.8,25.8-20.8c5.1,0,11.7,3.4,11.7,5.9c0,3.7-1.7,6.1-3.6,9.8c-1.8,3.7-17.4,31.8-17.4,37.8
		c0,1.7,0.4,2.9,3.2,2.9c7.2,0,22.2-24.7,23.4-24.7s1.8,2.3,1.8,4.7C1475.2,76.4,1454.6,106.1,1441.1,106.1z M1464.9,17.1
		c-6.5,4.3-11.9,13.2-16.7,13.2c-3.9,0-4.5-9.5-6.8-13.2c-2.8-4.4-8.1-7.9-8.1-8.5c0-1.5,2.1-2.5,3.3-2.5c6.9,0,13,6.5,16,12.1
		c6.1-4.8,16.7-12.1,24.7-12.1c0.8,0,1.9,0.4,1.9,1.4C1479.2,10.2,1470.1,13.6,1464.9,17.1z"/>
</g>
<g>
	<path class="st0" d="M997.2,407.3c-14.9,0-21.8-10.6-27.4-21.6c-10.9,11.3-23.7,20.4-37.2,20.4c-9.4,0-16.5-7.3-16.5-17.6
		c0-18.9,16.3-38.6,37.5-38.6c8.1,0,13.8,3,18.1,7.6c3.2-4.4,6.2-9,9.1-13.4c9.9-15,22.7-28.9,35.7-38.2c-3.3-0.7-7-1-11.2-1
		c-25.9,0-49.5,17.1-49.5,27.4c0,1.4,1.7,2.6,3.6,2.6c12.8,0,24.3-17.5,26.5-21.5c0.3-0.4,0.6-0.7,0.8-0.7c0.3,0,0.6,0.6,0.6,1.1
		c0,23.3-16.1,33.9-28.4,33.9c-7.6,0-13.6-4-13.6-11.6c0-13.6,27.4-37.5,64.9-37.5c5.4,0,10.5,0.6,15,1.8c6.6-3.6,13.1-5.5,19-5.5
		c3.9,0,6.2,1.2,6.2,1.7c0,0.8-0.7,0.8-3.6,0.8c-4.3,0-8.8,2.2-13.4,6.1c13.1,6.2,21.2,18.9,21.2,38.4
		C1054.5,372.5,1029.3,407.3,997.2,407.3z M946.8,360.3c-13.2,0-24.3,10.9-24.3,23.4c0,6.2,4,10.1,9,10.1c8.4,0,19.3-10.1,30.3-23.6
		C958.1,364.4,953.6,360.3,946.8,360.3z M1026.1,310.4c-11.7,13.1-23.3,32.9-31.7,44.4c-3.7,5.1-8.3,11.4-13.5,18.1
		c4.7,9.9,8.7,19.4,18.3,19.4c22.2,0,35.6-31.3,35.6-55.9C1034.8,325.1,1031.9,315.4,1026.1,310.4z"/>
	<path class="st0" d="M1098.9,405.8c-9.6,0-11.9-11.4-12.3-11.4s-10.5,12.7-21.9,12.7c-7.6,0-15-6.2-15-18.5
		c0-20.3,24-52.2,46.6-52.2c11.2,0,12.1,9.5,12.5,9.5c0.7,0,8-9,10.5-9s2.3,0.4,4,0.8c1.4,0.3,3.4,0.6,3.4,2.5
		c0,7.6-24.3,41.8-24.3,50.3c0,1.4,0.7,2.3,2.1,2.3c8.8,0,23.3-24.4,24.7-24.4c1.2,0,1.8,2.3,1.8,5S1110.9,405.8,1098.9,405.8z
		 M1094.2,343.9c-11.2,0-27.3,28.8-27.3,42.3c0,4.4,1.5,6.9,4.3,6.9c3.6,0,13.2-6.6,13.2-9.2c0-1.1-2.9-1.4-4-1.4v-1.1
		c3.6-1,19.4-17.2,19.4-29.9C1099.8,347.2,1097.5,343.9,1094.2,343.9z"/>
	<path class="st2" d="M1151.2,406.4c-8.7,0-15.4-5.1-15.4-15c0-13.5,18.6-38.3,18.6-38.7c0-0.3-4.5-2.2-6.9-2.2
		c-0.6,0-1,0.1-1.1,0.4c-6.8,11-13.5,21.1-18.3,28c-0.4,0.7-1,1.1-1.5,1.1c-1.2,0-2.1-1.7-2.1-4.1c0-1,0.8-2.3,1.2-3
		c1.8-2.6,5.4-8,9.1-15.8c4.1-8.3,5-14.2,7.6-20.4c2.8-6.9,4.8-8.3,9.4-8.3c2.1,0,3.2,1.2,3.2,3.6c0,2.8-1.4,3.9-1.4,4.3
		c0,0.6,0.8,1,3,1c6.5,0,14.2-1.1,16.1-1.1c3.9,0,9,7.6,9,10.7c0,2.5-4.3,4.7-7.3,8.1c-5.2,5.6-19.4,25.6-19.4,36.4
		c0,1,0.6,2.1,1.9,2.1c3.4,0,9.6-5.4,14.3-11.2c5.2-6.3,9.6-13.2,10.3-13.2c1.2,0,1.8,2.5,1.8,5
		C1183.3,376.5,1163.2,406.4,1151.2,406.4z"/>
	<path class="st2" d="M1220.1,342.9c-1.8,0-1.4,0.1-7.3,0.1c-10.2,19-20.7,37.8-20.7,44.2c0,4.5,3,5.5,5,5.5
		c8.8,0,23.4-24.4,24.7-24.4s1.8,2.3,1.8,5s-20.5,33.2-32.5,33.2c-9,0-19.2-5.1-19.2-13.1c0-9.6,14.7-35.1,21.6-48l1.7-3
		c-2.8-0.3-7-1.1-7-4.5c0-2.3,0-4.7,0.3-5.6c0.1-0.7,0.4-1,1.4-1c0.7,0,2.6,0.1,4.3,0.1c1.9,0,6.1-0.8,7.3-0.8
		c6.1-11.3,12.8-23.2,14.5-23.2c6.3,0,10.2,5.9,10.2,9c0,1.7-2.1,5.8-7,15h7.4c2.6,0,3.9,0.8,3.9,2.1
		C1230.3,338.5,1224.3,342.9,1220.1,342.9z"/>
	<path class="st2" d="M1272.5,358.9c-0.7,3.4-1.5,7.6-2.6,12.1c1.2,0.4,2.3,0.6,3.2,0.6c2.9,0,3.4-1.8,3.7-1.8
		c0.7,0,0.8,0.1,0.8,0.7v0.3c0.1,8-5.2,12.7-10.5,12.7c-0.4,0-0.8,0-1.1,0c-6.8,16.7-20.4,24-32.4,24c-12,0-22.2-7.3-22.2-20
		c0-11.6,9.5-24.1,24-24.1c1.9,0,3.9,0.1,5.8,0.4c4-4.5,9-10.7,13.2-17.2c7.6-11.4,18.5-17.9,23.7-17.9c3.4,0,6.1,1.2,6.1,3.2
		C1284.2,334.9,1275.1,347,1272.5,358.9z M1235.2,378.1c-9.1,0-13.8,5.9-13.8,11.3c0,4.3,3,8.3,9.2,8.3c6.3,0,14.2-4.7,18.5-17.2
		C1244.1,379.2,1239.6,378.1,1235.2,378.1z M1256,354.6c-1.1,1.5-4.7,6.1-8.3,10.3c1.8,0.6,3.6,1,5.4,1.5c1.4-5.1,2.5-9.1,3.3-11.6
		L1256,354.6z"/>
	<path class="st1" d="M1348.1,345.5c-9.1,0-17.6-2.1-24.9-5.8c-13.8,14.5-24.4,31-24.4,44.1c0,7.7,5.5,12.4,13.4,12.4
		c21.2,0,35.4-20,35.4-29.9c0-2.9-1.9-4.5-4.8-4.5c-4.8,0-11.6,5.4-13,12.8c-0.3,1-0.1,1.4-0.7,1.4c-0.6,0-1.8-2.8-1.8-5.6
		c0-8.1,7.2-17.2,18.2-17.2c8.1,0,11.7,4.7,11.7,11.4c0,16.1-20.9,43.5-49.9,43.5c-15.6,0-27.6-10.3-27.6-25.4
		c0-17.8,13-37.2,30.6-52.9c-6.1-6.9-9.6-15.7-9.6-26c0-8,5.8-15,7.6-15c0.3,0,0.3,0,0.3,0.3c0,0.6-0.1,1.5-0.1,3
		c0,11.9,4,22.2,12.3,29.4c18.3-13.6,39.7-22.7,56.2-22.7c12,0,18.9,5.8,18.9,13.5C1395.8,326.7,1376,345.5,1348.1,345.5z
		 M1376,305.3c-9.4,0-26,9.9-41.6,23.7c5.1,1.7,11,2.5,17.8,2.5c19,0,33.1-10.6,33.1-18.9C1385.2,307.6,1381.4,305.3,1376,305.3z"/>
	<path class="st1" d="M1387.8,381.1c-1.2,4.1-2.1,7.9-2.1,11.2c0,2.6,2.5,4.8,5.4,4.8c13.1,0,29.9-28.7,31.4-28.7
		c1.5,0,1.8,3,1.8,4.5c0,4.8-21.4,33.6-39.1,33.6c-8.1,0-16.1-8.7-16.1-15.2c0-22,37.5-88.7,64.1-88.7c5.4,0,9.6,3.2,9.6,5.4
		C1442.8,313.7,1411.5,368.3,1387.8,381.1z M1431.5,314.1c-2.1,0-24.8,27.7-37.5,52.4c14.9-12.1,37.9-49.5,37.9-52
		C1431.9,314.3,1431.7,314.1,1431.5,314.1z"/>
	<path class="st1" d="M1459.2,406.6c-6.6,0-12.7-5.1-12.7-12.3c0-1.4,0-1.8,0.1-2.6c-2.2,3.2-12.8,15-19.2,15
		c-6.2,0-12.5-8-12.5-15.8c0-16.8,21.5-51.5,28.5-54.4c0.6-0.1,1.9-0.3,3.6-0.3c3.4,0,8.3,0.7,8.3,3c0,0.3-0.1,0.7-0.4,1.1
		c-2.9,5.5-23.6,41.6-23.6,51.1c0,2.1,0.8,2.9,1.9,2.9c3.2,0,14.5-12.4,22.3-25.8c6.9-11.4,15.8-32,18.9-32c6.8,0,11.9,2.3,11.9,4.8
		c0,3.7-2.2,7.2-4,10.9c-1.9,3.7-17.5,31.8-17.5,37.8c0,1.7,0.4,2.9,3.3,2.9c7,0,22.2-24.7,23.3-24.7c1.4,0,1.8,2.3,1.8,4.7
		C1493.2,377,1472.7,406.6,1459.2,406.6z"/>
	<path class="st1" d="M1503.9,406.4c-9.4,0-18.7-4.7-18.7-22.6c0-6.2,10.2-24.4,20.9-42.3c11.7-19.6,22.7-38.6,29.5-38.6
		c3.7,0,9.2,2.6,9.2,4.5c0,1.8-6.3,10.6-9.9,16.5c-3.7,6.1-8.8,15-8.8,15.6l0.3,0.1c3.6-1.9,7.2-2.9,10.2-2.9c7.6,0,13,5.5,13,16.4
		C1549.5,373.8,1530.6,406.4,1503.9,406.4z M1529.9,344.4c-4.8,0-9,5.2-11,7.4c-2.1,2.3-19.7,35.3-19.7,41.3c0,2.3,1.4,4.3,4.8,4.3
		c10.9,0,31.3-32.7,31.3-46.6C1535.3,348.3,1533.5,344.4,1529.9,344.4z"/>
</g>
<rect x="433.2" y="325.8" style="fill-rule:evenodd;clip-rule:evenodd;fill:none;" width="330" height="57.9"/>
<text transform="matrix(1 0 0 1 486.0469 374.2568)" class="st0" style="font-family:'CornerStoreJF'; font-size:64.6426px;">4nolimit</text>
<rect x="-116.8" y="-223.2" style="fill-rule:evenodd;clip-rule:evenodd;fill:none;" width="330" height="57.9"/>
<text transform="matrix(1 0 0 1 -50.249 -174.7432)" class="st1" style="font-family:'CornerStoreJF'; font-size:64.6426px;">Sign in</text>
<circle class="st0" cx="51.2" cy="47.2" r="37.5"/>
<circle class="st1" cx="51.2" cy="47.2" r="28.5"/>
<circle class="st0" cx="51.2" cy="47.2" r="20"/>
<circle class="st1" cx="51.2" cy="47.2" r="10"/>
</svg>
