<?xml version="1.0" encoding="utf-8"?>
<!-- Generator: Adobe Illustrator 28.2.0, SVG Export Plug-In . SVG Version: 6.00 Build 0)  -->
<svg version="1.1" id="Layer_1" xmlns="http://www.w3.org/2000/svg" xmlns:xlink="http://www.w3.org/1999/xlink" x="0px" y="0px"
	 viewBox="0 0 508.6 117.5" style="enable-background:new 0 0 508.6 117.5;" xml:space="preserve">
<style type="text/css">
	.st0{fill:#B52828;}
	.st1{fill:#BFB5AC;}
	.st2{fill:#C92F2F;}
	.st3{fill:none;}
	.st4{enable-background:new    ;}
	.st5{fill:#6E7A18;}
	.st6{fill:#36482E;}
</style>
<g>
	<path class="st0" d="M1107.5-239.7c-3,6.8-5.8,14.3-8.3,22.3c-8.3,26.9-21.1,53.3-53.1,53.3c-25.9,0-37.6-19.3-37.6-39.5
		c0-7.3,1.5-14.6,4.5-21.4c-0.8-1.4-1.4-3-1.4-5.1c0-5.7,3.9-9.6,9.8-9.6c0.7,0,1.2,0,1.8,0.1c6.3-6.1,14.6-9.9,24.5-9.9
		c11.9,0,18.2,6.3,19.8,17.5c7.9-1.8,15.2-4.1,21.8-6.8c10.1-18.2,22.3-33.8,43.3-33.8c5.5,0,8,2.6,8,4.7
		C1140.7-259.6,1126.5-249,1107.5-239.7z M1067.9-224.8c-0.7,14.1-15,32.7-24.5,32.7c-4.5,0-12.3-3.4-12.3-4.3
		c0-0.7,2.6-0.7,4.5-1.7c1.4-0.7,9.5-8.7,12.1-22c-5.6,0.8-11,1.4-15.7,1.4c-4,0-7.6-0.3-10.6-1.1c-1.8,4.4-2.8,9-2.8,13.5
		c0,15.7,9.2,25.9,21.2,25.9c22.5,0,32.8-25.6,45.1-49.7C1079.4-228.3,1073.6-226.4,1067.9-224.8z M1041.6-240.6
		c-3.6,0-7.7,2.5-11.4,6.5c2.3,2.6,5.1,5.1,9.5,5.1c3,0,6.1-0.1,9-0.3C1048.6-237.1,1046-240.6,1041.6-240.6z M1147-294.8
		c-7.7,5.1-14.1,15.7-19.7,15.7c-4.7,0-5.5-11.3-8.1-15.7c-3.2-5.2-9.5-9.4-9.5-10.2c0-1.8,2.3-2.9,3.9-2.9
		c8.1,0,15.3,7.7,18.9,14.5c7.2-5.8,19.8-14.5,29.4-14.5c1,0,2.2,0.6,2.2,1.7C1164-303,1153.2-299,1147-294.8z M1126.6-264.9
		c-3.9,0-8.8,5.5-13.8,14.2c9.5-6.1,14.9-11.6,14.9-13.4C1127.7-264.5,1127.3-264.9,1126.6-264.9z"/>
	<path class="st0" d="M1120.4-164.5c-7,0-11.3-8-11.3-15.8c0-16.8,21.4-51.5,28.5-54.4c0.6-0.1,1.9-0.3,3.4-0.3c3.6,0,8.3,0.7,8.3,3
		c0,0.3,0,0.7-0.3,1.1c-3,5.5-23.6,41.6-23.6,51.1c0,2.1,0.8,2.9,1.8,2.9c8.5,0,24.5-26,25.8-26c1.5,0,1.7,3.2,1.7,5.1
		C1154.8-195.4,1134.6-164.5,1120.4-164.5z M1139.6-242.1c-1.8,0-2.9-1.2-2.9-2.3c0-2.2,8-3.6,13.8-9.9c5-5.4,6.6-16.7,12-16.7
		c3.4,0,8.4,3.2,8.4,7.7C1170.9-254.9,1147.9-242.1,1139.6-242.1z"/>
	<path class="st0" d="M1171.6-164.2c-6.3,0-12.7-5.4-15.3-11.2c-12.5,25.6-22.7,44.5-27.3,44.5c-3,0-8-4.8-8-8.4
		c0-3.7,10.9-23.7,25.2-51c14.5-27.3,24.8-48.8,28-48.8c4.4,0,9.6,2.5,9.6,4.5c0,1.2-0.8,3.7-2.5,7.4c5.8-4.3,12.1-8,18.1-8
		c8.3,0,12.7,5.4,12.7,16C1212.1-198.5,1190.6-164.2,1171.6-164.2z M1192.1-225.7c-3.6,0-10.5,5.2-16.3,10.2
		c-3.2,6.8-7.4,15.3-12.5,25.8c1.4,6.5,4.1,12.7,7.7,12.7c7.6,0,25.2-35.6,25.2-43.8C1196.2-223.6,1194.8-225.7,1192.1-225.7z"/>
	<path class="st0" d="M1246.9-164.1c-8.8,0-14.6-7-14.6-15c0-9.9,4-18.7,6.2-23l-0.4-0.4c-5.4,5.1-13.9,16.8-18.5,25.4
		c-4.4,8.4-4.7,12.8-6.5,12.8c-3,0-10.2-5-10.2-10.6s12.3-28.4,22.5-46.9c10.1-18.3,23.8-43.1,29.6-43.1c2.9,0,8.3,1.8,8.3,5.4
		c0,5.5-4.3,12.3-9.8,20.9c-5.4,8.8-10.7,18.6-11.9,20.8l0.7,0.1c4.3-4,20-17.5,33.8-17.5c5.5,0,9.8,2.9,9.8,8.3c0,9-12.8,26-24,26
		c-3.3,0-4.5-1.4-5.1-1.4c-0.4,0-7.7,19.4-7.7,24.8c0,2.1,1.2,3.9,4.3,3.9c16.3,0,32.7-29.2,34.3-29.2c1.1,0,1.8,3,1.8,4.8
		C1289.5-196.7,1271.7-164.1,1246.9-164.1z M1273.3-229.7c-2.1,0-20.4,11.4-20.4,13.2c0,0.7,1.8,2.1,4.3,2.1
		c4.1,0,16.9-10.6,16.9-14.5C1274.1-229.4,1273.8-229.7,1273.3-229.7z"/>
	<path class="st0" d="M1330.2-165.5c-9.6,0-11.9-11.4-12.3-11.4s-10.5,12.7-21.9,12.7c-7.6,0-15-6.2-15-18.5
		c0-20.3,24-52.2,46.6-52.2c11.2,0,12.1,9.5,12.5,9.5c0.7,0,8-9,10.5-9s2.3,0.4,4,0.8c1.4,0.3,3.4,0.6,3.4,2.5
		c0,7.6-24.3,41.8-24.3,50.3c0,1.4,0.7,2.3,2.1,2.3c8.8,0,23.3-24.4,24.7-24.4c1.2,0,1.8,2.3,1.8,5S1342.2-165.5,1330.2-165.5z
		 M1325.5-227.3c-11.2,0-27.3,28.8-27.3,42.3c0,4.4,1.5,6.9,4.3,6.9c3.6,0,13.2-6.6,13.2-9.2c0-1.1-2.9-1.4-4-1.4v-1.1
		c3.6-1,19.4-17.2,19.4-29.9C1331.1-224,1328.8-227.3,1325.5-227.3z"/>
	<path class="st1" d="M1382.5-164.8c-8.7,0-15.4-5.1-15.4-15c0-13.5,18.6-38.3,18.6-38.7c0-0.3-4.5-2.2-6.9-2.2
		c-0.6,0-1,0.1-1.1,0.4c-6.8,11-13.5,21.1-18.3,28c-0.4,0.7-1,1.1-1.5,1.1c-1.2,0-2.1-1.7-2.1-4.1c0-1,0.8-2.3,1.2-3
		c1.8-2.6,5.4-8,9.1-15.8c4.1-8.3,5-14.2,7.6-20.4c2.8-6.9,4.8-8.3,9.4-8.3c2.1,0,3.2,1.2,3.2,3.6c0,2.8-1.4,3.9-1.4,4.3
		c0,0.6,0.8,1,3,1c6.5,0,14.2-1.1,16.1-1.1c3.9,0,9,7.6,9,10.7c0,2.5-4.3,4.7-7.3,8.1c-5.2,5.6-19.4,25.6-19.4,36.4
		c0,1,0.6,2.1,1.9,2.1c3.4,0,9.6-5.4,14.3-11.2c5.2-6.3,9.6-13.2,10.3-13.2c1.2,0,1.8,2.5,1.8,5
		C1414.6-194.7,1394.5-164.8,1382.5-164.8z"/>
	<path class="st1" d="M1424-163.9c-9.4,0-16.7-9.5-16.7-20.8c0-17.5,20.7-48.9,39.1-48.9c5,0,7.6-1.5,10.5-1.5
		c4.4,0,8.5,5.1,8.5,10.5c0,10.3-15.3,28.2-37.5,28.2c-0.4,0-0.8,0-1.2-0.1c-1.8,4.1-2.9,8-2.9,11.3c0,6.1,2.2,9.9,7.3,9.9
		c18.3,0,33.5-27.3,35.1-27.3c1.5,0,1.7,2.5,1.7,4.5C1468-193.1,1446.9-163.9,1424-163.9z M1452.8-227.2c-4.8,0-15.7,11.6-22.6,23.7
		c10.9-2.3,25.1-13.5,25.1-21.4C1455.3-226.4,1454.5-227.2,1452.8-227.2z"/>
	<path class="st1" d="M1501.2-164.6c-6.5,0-12.7-5.1-12.7-12.3c0-15.7,14.5-38,18.1-43l-0.6-0.3c-7.6,7.3-22.5,24-30.2,35.7
		c-7.6,11.6-10.3,19.7-13.2,19.7c-2.8,0-8.8-4.1-8.8-9.2c0-6.5,26.3-61.6,32.4-61.6c2.1,0,9.5,1.8,9.5,5.7c0,3.4-4.7,13.6-5.4,16
		l0.1,0.1c2.5-2.5,18.2-20.8,25.8-20.8c5.1,0,11.7,3.4,11.7,5.9c0,3.7-1.7,6.1-3.6,9.8c-1.8,3.7-17.4,31.8-17.4,37.8
		c0,1.7,0.4,2.9,3.2,2.9c7.2,0,22.2-24.7,23.4-24.7s1.8,2.3,1.8,4.7C1535.3-194.3,1514.7-164.6,1501.2-164.6z M1525-253.6
		c-6.5,4.3-11.9,13.2-16.7,13.2c-3.9,0-4.5-9.5-6.8-13.2c-2.8-4.4-8.1-7.9-8.1-8.5c0-1.5,2.1-2.5,3.3-2.5c6.9,0,13,6.5,16,12.1
		c6.1-4.8,16.7-12.1,24.7-12.1c0.8,0,1.9,0.4,1.9,1.4C1539.3-260.5,1530.2-257.1,1525-253.6z"/>
</g>
<g>
	<path class="st0" d="M1057.3,136.6c-14.9,0-21.8-10.6-27.4-21.6c-10.9,11.3-23.7,20.4-37.2,20.4c-9.4,0-16.5-7.3-16.5-17.6
		c0-18.9,16.3-38.6,37.5-38.6c8.1,0,13.8,3,18.1,7.6c3.2-4.4,6.2-9,9.1-13.4c9.9-15,22.7-28.9,35.7-38.2c-3.3-0.7-7-1-11.2-1
		c-25.9,0-49.5,17.1-49.5,27.4c0,1.4,1.7,2.6,3.6,2.6c12.8,0,24.3-17.5,26.5-21.5c0.3-0.4,0.6-0.7,0.8-0.7c0.3,0,0.6,0.6,0.6,1.1
		c0,23.3-16.1,33.9-28.4,33.9c-7.6,0-13.6-4-13.6-11.6c0-13.6,27.4-37.5,64.9-37.5c5.4,0,10.5,0.6,15,1.8c6.6-3.6,13.1-5.5,19-5.5
		c3.9,0,6.2,1.2,6.2,1.7c0,0.8-0.7,0.8-3.6,0.8c-4.3,0-8.8,2.2-13.4,6.1c13.1,6.2,21.2,18.9,21.2,38.4
		C1114.6,101.8,1089.4,136.6,1057.3,136.6z M1006.9,89.6c-13.2,0-24.3,10.9-24.3,23.4c0,6.2,4,10.1,9,10.1
		c8.4,0,19.3-10.1,30.3-23.6C1018.2,93.7,1013.7,89.6,1006.9,89.6z M1086.2,39.7c-11.7,13.1-23.3,32.9-31.7,44.4
		c-3.7,5.1-8.3,11.4-13.5,18.1c4.7,9.9,8.7,19.4,18.3,19.4c22.2,0,35.6-31.3,35.6-55.9C1094.9,54.4,1092,44.7,1086.2,39.7z"/>
	<path class="st0" d="M1159,135.1c-9.6,0-11.9-11.4-12.3-11.4s-10.5,12.7-21.9,12.7c-7.6,0-15-6.2-15-18.5c0-20.3,24-52.2,46.6-52.2
		c11.2,0,12.1,9.5,12.5,9.5c0.7,0,8-9,10.5-9s2.3,0.4,4,0.8c1.4,0.3,3.4,0.6,3.4,2.5c0,7.6-24.3,41.8-24.3,50.3
		c0,1.4,0.7,2.3,2.1,2.3c8.8,0,23.3-24.4,24.7-24.4c1.2,0,1.8,2.3,1.8,5S1171,135.1,1159,135.1z M1154.3,73.2
		c-11.2,0-27.3,28.8-27.3,42.3c0,4.4,1.5,6.9,4.3,6.9c3.6,0,13.2-6.6,13.2-9.2c0-1.1-2.9-1.4-4-1.4v-1.1c3.6-1,19.4-17.2,19.4-29.9
		C1159.9,76.5,1157.6,73.2,1154.3,73.2z"/>
	<path class="st2" d="M1211.3,135.7c-8.7,0-15.4-5.1-15.4-15c0-13.5,18.6-38.3,18.6-38.7c0-0.3-4.5-2.2-6.9-2.2
		c-0.6,0-1,0.1-1.1,0.4c-6.8,11-13.5,21.1-18.3,28c-0.4,0.7-1,1.1-1.5,1.1c-1.2,0-2.1-1.7-2.1-4.1c0-1,0.8-2.3,1.2-3
		c1.8-2.6,5.4-8,9.1-15.8c4.1-8.3,5-14.2,7.6-20.4c2.8-6.9,4.8-8.3,9.4-8.3c2.1,0,3.2,1.2,3.2,3.6c0,2.8-1.4,3.9-1.4,4.3
		c0,0.6,0.8,1,3,1c6.5,0,14.2-1.1,16.1-1.1c3.9,0,9,7.6,9,10.7c0,2.5-4.3,4.7-7.3,8.1c-5.2,5.6-19.4,25.6-19.4,36.4
		c0,1,0.6,2.1,1.9,2.1c3.4,0,9.6-5.4,14.3-11.2c5.2-6.3,9.6-13.2,10.3-13.2c1.2,0,1.8,2.5,1.8,5
		C1243.4,105.8,1223.3,135.7,1211.3,135.7z"/>
	<path class="st2" d="M1280.2,72.2c-1.8,0-1.4,0.1-7.3,0.1c-10.2,19-20.7,37.8-20.7,44.2c0,4.5,3,5.5,5,5.5
		c8.8,0,23.4-24.4,24.7-24.4s1.8,2.3,1.8,5s-20.5,33.2-32.5,33.2c-9,0-19.2-5.1-19.2-13.1c0-9.6,14.7-35.1,21.6-48l1.7-3
		c-2.8-0.3-7-1.1-7-4.5c0-2.3,0-4.7,0.3-5.6c0.1-0.7,0.4-1,1.4-1c0.7,0,2.6,0.1,4.3,0.1c1.9,0,6.1-0.8,7.3-0.8
		c6.1-11.3,12.8-23.2,14.5-23.2c6.3,0,10.2,5.9,10.2,9c0,1.7-2.1,5.8-7,15h7.4c2.6,0,3.9,0.8,3.9,2.1
		C1290.4,67.8,1284.4,72.2,1280.2,72.2z"/>
	<path class="st2" d="M1332.6,88.2c-0.7,3.4-1.5,7.6-2.6,12.1c1.2,0.4,2.3,0.6,3.2,0.6c2.9,0,3.4-1.8,3.7-1.8c0.7,0,0.8,0.1,0.8,0.7
		v0.3c0.1,8-5.2,12.7-10.5,12.7c-0.4,0-0.8,0-1.1,0c-6.8,16.7-20.4,24-32.4,24s-22.2-7.3-22.2-20c0-11.6,9.5-24.1,24-24.1
		c1.9,0,3.9,0.1,5.8,0.4c4-4.5,9-10.7,13.2-17.2c7.6-11.4,18.5-17.9,23.7-17.9c3.4,0,6.1,1.2,6.1,3.2
		C1344.3,64.2,1335.2,76.3,1332.6,88.2z M1295.3,107.4c-9.1,0-13.8,5.9-13.8,11.3c0,4.3,3,8.3,9.2,8.3c6.3,0,14.2-4.7,18.5-17.2
		C1304.2,108.5,1299.7,107.4,1295.3,107.4z M1316.1,83.9c-1.1,1.5-4.7,6.1-8.3,10.3c1.8,0.6,3.6,1,5.4,1.5c1.4-5.1,2.5-9.1,3.3-11.6
		L1316.1,83.9z"/>
	<path class="st1" d="M1408.2,74.8c-9.1,0-17.6-2.1-24.9-5.8c-13.8,14.5-24.4,31-24.4,44.1c0,7.7,5.5,12.4,13.4,12.4
		c21.2,0,35.4-20,35.4-29.9c0-2.9-1.9-4.5-4.8-4.5c-4.8,0-11.6,5.4-13,12.8c-0.3,1-0.1,1.4-0.7,1.4s-1.8-2.8-1.8-5.6
		c0-8.1,7.2-17.2,18.2-17.2c8.1,0,11.7,4.7,11.7,11.4c0,16.1-20.9,43.5-49.9,43.5c-15.6,0-27.6-10.3-27.6-25.4
		c0-17.8,13-37.2,30.6-52.9c-6.1-6.9-9.6-15.7-9.6-26c0-8,5.8-15,7.6-15c0.3,0,0.3,0,0.3,0.3c0,0.6-0.1,1.5-0.1,3
		c0,11.9,4,22.2,12.3,29.4c18.3-13.6,39.7-22.7,56.2-22.7c12,0,18.9,5.8,18.9,13.5C1455.9,56,1436.1,74.8,1408.2,74.8z M1436.1,34.6
		c-9.4,0-26,9.9-41.6,23.7c5.1,1.7,11,2.5,17.8,2.5c19,0,33.1-10.6,33.1-18.9C1445.3,36.9,1441.5,34.6,1436.1,34.6z"/>
	<path class="st1" d="M1447.9,110.4c-1.2,4.1-2.1,7.9-2.1,11.2c0,2.6,2.5,4.8,5.4,4.8c13.1,0,29.9-28.7,31.4-28.7s1.8,3,1.8,4.5
		c0,4.8-21.4,33.6-39.1,33.6c-8.1,0-16.1-8.7-16.1-15.2c0-22,37.5-88.7,64.1-88.7c5.4,0,9.6,3.2,9.6,5.4
		C1502.9,43,1471.6,97.6,1447.9,110.4z M1491.6,43.4c-2.1,0-24.8,27.7-37.5,52.4c14.9-12.1,37.9-49.5,37.9-52
		C1492,43.6,1491.8,43.4,1491.6,43.4z"/>
	<path class="st1" d="M1519.3,135.9c-6.6,0-12.7-5.1-12.7-12.3c0-1.4,0-1.8,0.1-2.6c-2.2,3.2-12.8,15-19.2,15
		c-6.2,0-12.5-8-12.5-15.8c0-16.8,21.5-51.5,28.5-54.4c0.6-0.1,1.9-0.3,3.6-0.3c3.4,0,8.3,0.7,8.3,3c0,0.3-0.1,0.7-0.4,1.1
		c-2.9,5.5-23.6,41.6-23.6,51.1c0,2.1,0.8,2.9,1.9,2.9c3.2,0,14.5-12.4,22.3-25.8c6.9-11.4,15.8-32,18.9-32c6.8,0,11.9,2.3,11.9,4.8
		c0,3.7-2.2,7.2-4,10.9c-1.9,3.7-17.5,31.8-17.5,37.8c0,1.7,0.4,2.9,3.3,2.9c7,0,22.2-24.7,23.3-24.7c1.4,0,1.8,2.3,1.8,4.7
		C1553.3,106.3,1532.8,135.9,1519.3,135.9z"/>
	<path class="st1" d="M1564,135.7c-9.4,0-18.7-4.7-18.7-22.6c0-6.2,10.2-24.4,20.9-42.3c11.7-19.6,22.7-38.6,29.5-38.6
		c3.7,0,9.2,2.6,9.2,4.5c0,1.8-6.3,10.6-9.9,16.5c-3.7,6.1-8.8,15-8.8,15.6l0.3,0.1c3.6-1.9,7.2-2.9,10.2-2.9c7.6,0,13,5.5,13,16.4
		C1609.6,103.1,1590.7,135.7,1564,135.7z M1590,73.7c-4.8,0-9,5.2-11,7.4c-2.1,2.3-19.7,35.3-19.7,41.3c0,2.3,1.4,4.3,4.8,4.3
		c10.9,0,31.3-32.7,31.3-46.6C1595.4,77.6,1593.6,73.7,1590,73.7z"/>
</g>
<rect x="493.3" y="55.1" class="st3" width="330" height="57.9"/>
<g class="st4">
	<path class="st0" d="M676.3,336c-15.8,0-23-11.2-29.1-22.9c-11.5,11.9-25.1,21.6-39.5,21.6c-10,0-17.5-7.8-17.5-18.7
		c0-20,17.2-40.9,39.8-40.9c8.6,0,14.6,3.2,19.1,8c3.3-4.7,6.5-9.4,9.7-14.2c10.5-16,24.1-30.7,37.9-40.5c-3.5-0.7-7.5-1-11.8-1
		c-27.5,0-52.4,18.2-52.4,29.1c0,1.5,1.8,2.8,3.7,2.8c13.6,0,25.7-18.6,28-22.8c0.3-0.4,0.6-0.7,0.8-0.7c0.3,0,0.6,0.6,0.6,1.1
		c0,24.7-17.1,35.9-30.1,35.9c-8,0-14.4-4.3-14.4-12.3c0-14.4,29.1-39.8,68.8-39.8c5.7,0,11.1,0.6,16,1.9c7.1-3.7,13.9-5.8,20.1-5.8
		c4.2,0,6.5,1.2,6.5,1.8c0,0.8-0.7,0.8-3.7,0.8c-4.6,0-9.3,2.4-14.2,6.4c13.9,6.5,22.5,20,22.5,40.8
		C737.2,299.3,710.4,336,676.3,336z M622.8,286.2c-14,0-25.7,11.5-25.7,24.8c0,6.5,4.3,10.7,9.4,10.7c8.9,0,20.5-10.7,32.2-25
		C634.8,290.7,630.1,286.2,622.8,286.2z M707.1,233.4c-12.5,13.9-24.7,35-33.6,47c-3.9,5.4-8.7,12.1-14.3,19.1
		c5,10.5,9.2,20.7,19.4,20.7c23.6,0,37.7-33.2,37.7-59.4C716.2,248.9,713.2,238.5,707.1,233.4z"/>
	<path class="st0" d="M784.2,334.5c-10.3,0-12.6-12.1-13-12.1s-11.1,13.5-23.3,13.5c-8,0-16-6.5-16-19.6c0-21.5,25.4-55.4,49.4-55.4
		c11.8,0,12.9,10.1,13.3,10.1c0.7,0,8.5-9.4,11.1-9.4s2.5,0.4,4.3,0.8c1.5,0.3,3.6,0.6,3.6,2.6c0,8-25.7,44.3-25.7,53.4
		c0,1.5,0.7,2.5,2.2,2.5c9.3,0,24.7-25.9,26.2-25.9c1.2,0,1.9,2.5,1.9,5.3C818.3,302.9,797,334.5,784.2,334.5z M779.2,268.9
		c-11.8,0-29,30.5-29,45c0,4.7,1.7,7.4,4.6,7.4c3.7,0,14-7.1,14-9.9c0-1.1-3.1-1.5-4.3-1.5v-1.1c3.7-1,20.7-18.3,20.7-31.8
		C785.2,272.4,782.8,268.9,779.2,268.9z"/>
	<path class="st0" d="M839.7,335.2c-9.2,0-16.4-5.4-16.4-16c0-14.3,19.7-40.7,19.7-41.1c0-0.3-4.9-2.4-7.4-2.4c-0.6,0-1,0.1-1.1,0.4
		c-7.2,11.7-14.3,22.3-19.4,29.7c-0.4,0.7-1,1.1-1.7,1.1c-1.2,0-2.2-1.8-2.2-4.4c0-1,0.8-2.5,1.2-3.2c1.9-2.8,5.7-8.5,9.7-16.8
		c4.4-8.7,5.3-15.1,8-21.6c2.9-7.4,5.1-8.7,10-8.7c2.2,0,3.3,1.2,3.3,3.7c0,2.9-1.5,4.2-1.5,4.6c0,0.6,0.8,1,3.2,1
		c6.9,0,15.1-1.1,17.1-1.1c4.2,0,9.4,8,9.4,11.4c0,2.6-4.6,5-7.8,8.6c-5.5,6-20.7,27.2-20.7,38.6c0,1,0.6,2.2,2.1,2.2
		c3.6,0,10.3-5.7,15.3-11.8c5.5-6.7,10.3-14,11-14c1.2,0,1.9,2.6,1.9,5.3C873.8,303.4,852.5,335.2,839.7,335.2z"/>
	<path class="st0" d="M912.8,267.8c-1.9,0-1.5,0.1-7.8,0.1c-10.8,20.1-21.9,40.1-21.9,46.9c0,4.9,3.2,5.8,5.3,5.8
		c9.3,0,24.8-25.9,26.2-25.9c1.2,0,1.9,2.5,1.9,5.3s-21.8,35.2-34.5,35.2c-9.4,0-20.3-5.4-20.3-13.9c0-10.3,15.7-37.3,22.9-50.9
		l1.8-3.2c-2.9-0.3-7.5-1.1-7.5-4.9c0-2.5,0-5,0.3-6c0.1-0.7,0.4-1,1.5-1c0.7,0,2.8,0.1,4.6,0.1c2.1,0,6.4-0.8,7.8-0.8
		c6.4-11.9,13.6-24.6,15.4-24.6c6.7,0,10.8,6.2,10.8,9.4c0,1.8-2.2,6.1-7.5,16h7.9c2.8,0,4.2,0.8,4.2,2.2
		C923.6,263.2,917.3,267.8,912.8,267.8z"/>
	<path class="st0" d="M968.5,284.7c-0.7,3.6-1.7,8-2.8,12.9c1.2,0.4,2.5,0.6,3.3,0.6c3.1,0,3.6-1.9,3.9-1.9c0.7,0,0.8,0.1,0.8,0.7
		v0.3c0.1,8.5-5.5,13.5-11.1,13.5c-0.4,0-0.8,0-1.1,0c-7.2,17.8-21.6,25.4-34.4,25.4s-23.6-7.8-23.6-21.2
		c0-12.3,10.1-25.5,25.4-25.5c2.1,0,4,0.1,6.1,0.4c4.3-4.9,9.4-11.4,14-18.3c8.3-11.9,19.8-18.7,25.4-18.7c3.6,0,6.4,1.2,6.4,3.3
		C980.8,259.3,971.2,272.2,968.5,284.7z M928.8,305.1c-9.7,0-14.6,6.2-14.6,11.9c0,4.6,3.2,8.7,9.9,8.7c6.7,0,15.1-5,19.6-18.3
		C938.3,306.2,933.5,305.1,928.8,305.1z M950.8,280.3c-1.1,1.7-5,6.4-8.7,11c1.9,0.6,3.7,1,5.7,1.7c1.5-5.4,2.6-9.7,3.5-12.3
		L950.8,280.3z"/>
</g>
<g class="st4">
	<path class="st0" d="M-556.3,589.3c-16.2,0-23.6-11.6-29.8-23.6c-11.8,12.3-25.8,22.1-40.5,22.1c-10.2,0-18-8-18-19.2
		c0-20.5,17.6-41.9,40.8-41.9c8.9,0,15.1,3.3,19.6,8.2c3.4-4.7,6.7-9.8,10-14.5c10.7-16.3,24.7-31.4,38.8-41.6
		c-3.6-0.7-7.6-1.1-12.2-1.1c-28.1,0-53.7,18.5-53.7,29.8c0,1.5,1.8,2.9,3.8,2.9c14,0,26.3-19.1,28.9-23.4c0.4-0.4,0.5-0.7,0.9-0.7
		c0.4,0,0.5,0.5,0.5,1.3c0,25.4-17.6,36.9-30.9,36.9c-8.2,0-14.9-4.4-14.9-12.5c0-14.9,29.8-40.8,70.6-40.8c5.8,0,11.4,0.5,16.3,2
		c7.3-3.8,14.2-6,20.7-6c4.2,0,6.7,1.3,6.7,1.8c0,0.9-0.7,0.9-3.8,0.9c-4.7,0-9.6,2.4-14.5,6.5c14.2,6.7,23.1,20.5,23.1,41.8
		C-493.9,551.5-521.5,589.3-556.3,589.3z M-611.2,538.1c-14.3,0-26.3,11.8-26.3,25.4c0,6.7,4.4,10.9,9.8,10.9
		c9.1,0,21.1-10.9,33-25.6C-599,542.6-603.7,538.1-611.2,538.1z M-524.9,483.8c-12.7,14.2-25.4,35.8-34.5,48.3
		c-4,5.6-9.1,12.5-14.7,19.6c5.1,10.7,9.4,21.1,20,21.1c24.1,0,38.7-33.9,38.7-60.8C-515.5,500-518.6,489.3-524.9,483.8z"/>
	<path class="st0" d="M-449.8,588.6c-7.3,0-13.8-5.6-13.8-13.3c0-1.5,0-2,0.2-2.9c-2.4,3.4-14,16.3-20.9,16.3
		c-6.7,0-13.6-8.7-13.6-17.2c0-18.3,23.4-56.1,31-59.2c0.5-0.2,2.2-0.4,3.8-0.4c3.8,0,9.1,0.7,9.1,3.3c0,0.4-0.2,0.7-0.4,1.3
		c-3.1,6-25.6,45.2-25.6,55.5c0,2.2,0.9,3.1,2.2,3.1c3.4,0,15.8-13.4,24.3-28c7.4-12.5,17.2-34.9,20.5-34.9c7.3,0,12.9,2.5,12.9,5.3
		c0,4-2.4,7.8-4.4,11.8c-2.2,4-19.1,34.7-19.1,41c0,1.8,0.4,3.1,3.6,3.1c7.6,0,24.1-26.9,25.4-26.9c1.5,0,2,2.5,2,5.1
		C-412.7,556.2-435.1,588.6-449.8,588.6z"/>
	<path class="st0" d="M-402.8,589.3c-10.2,0-18.2-10.3-18.2-22.7c0-19.1,22.5-53.2,42.7-53.2c5.4,0,8.2-1.6,11.4-1.6
		c4.7,0,9.3,5.6,9.3,11.4c0,11.3-16.7,30.7-40.8,30.7c-0.4,0-0.9,0-1.3-0.2c-2,4.5-3.1,8.7-3.1,12.3c0,6.5,2.4,10.7,8,10.7
		c20,0,36.5-29.8,38.3-29.8c1.6,0,1.8,2.7,1.8,4.9C-355,557.5-377.9,589.3-402.8,589.3z M-371.5,520.5c-5.3,0-17.1,12.5-24.5,25.8
		c11.8-2.5,27.2-14.7,27.2-23.2C-368.8,521.4-369.7,520.5-371.5,520.5z"/>
	<path class="st0" d="M-344.3,560.8c-1.3,4.5-2.2,8.5-2.2,12.2c0,2.9,2.7,5.3,5.8,5.3c14.2,0,32.5-31.2,34.1-31.2s2,3.3,2,4.9
		c0,5.3-23.2,36.5-42.7,36.5c-8.9,0-17.6-9.4-17.6-16.5c0-24,40.8-96.6,69.7-96.6c5.8,0,10.5,3.4,10.5,5.8
		C-284.6,487.4-318.5,546.8-344.3,560.8z M-296.9,488c-2.2,0-27,30.1-40.8,57c16.2-13.3,41.2-53.7,41.2-56.5
		C-296.4,488-296.8,488-296.9,488z"/>
	<path class="st0" d="M-251.4,536.6c-0.7,3.8-1.6,8.2-2.9,13.3c1.3,0.4,2.5,0.5,3.4,0.5c3.1,0,3.8-2,4-2c0.7,0,0.9,0.2,0.9,0.7v0.4
		c0.2,8.7-5.6,13.8-11.4,13.8c-0.4,0-0.9,0-1.3,0c-7.3,18.2-22.1,26.1-35.2,26.1s-24.1-8-24.1-21.8c0-12.5,10.3-26.3,26.1-26.3
		c2.2,0,4.2,0.2,6.4,0.4c4.4-4.9,9.8-11.6,14.3-18.7c8.2-12.5,20.1-19.4,25.8-19.4c3.8,0,6.5,1.3,6.5,3.4
		C-238.7,510.5-248.6,523.7-251.4,536.6z M-292,557.5c-10,0-15.1,6.5-15.1,12.3c0,4.7,3.3,9.1,10,9.1c6.9,0,15.4-5.1,20.1-18.7
		C-282.4,558.6-287.3,557.5-292,557.5z M-269.3,531.9c-1.3,1.6-5.1,6.5-9.1,11.3c2,0.5,3.8,1.1,5.8,1.6c1.5-5.6,2.7-10,3.6-12.5
		L-269.3,531.9z"/>
</g>
<g class="st4">
	<path class="st0" d="M-41.2,208.3c-2.5,0-4.9-0.5-7.2-1.4c-1.9,2.4-3.1,4.7-3.1,6.5c0,2.5,1.9,4.3,4.4,4.3s3.9-1.3,6.2-1.3
		c1.3,0,2.5,0.9,2.5,2.2c0,3.6-6.5,3.5-14,6s-14,9.8-14,16.5c0,4.8,3.1,7.2,7.1,7.2c7.3,0,14.5-6.7,14.5-11.7c0-1.7-1-2.8-2.6-2.8
		c-5.1,0-7.4,5.3-7.7,6.6c-0.1,0.5-0.1,1.1-0.3,1.1c-0.3,0-0.6-0.5-0.6-2c0-6.6,4.8-11.7,10.4-11.7c3.7,0,6.1,3,6.1,6.1
		c0,8.8-10.9,19-24.2,19c-8.6,0-14.1-6.3-14.1-12.2c0-11.7,14.2-18.5,19.5-19.1v-0.4c-2-0.9-4.7-3-4.7-6.7c0-4.9,2.7-9.1,6.7-12.4
		c-3.9-3.6-6.5-7.9-6.5-11c0-2.2,1.3-3.7,1.5-3.7c0.4,0,3.4,6.6,10.2,11.2c6.5-3.5,14.3-5.4,20.1-5.4c4.9,0,8.4,1.8,8.4,4.7
		C-22.5,202-30,208.3-41.2,208.3z M-29.3,196.4c-4.7,0-9.9,2.5-14.1,5.6c2.1,0.6,4.4,0.9,6.9,0.9c6.5,0,9.8-2.8,9.8-4.8
		C-26.7,197.2-27.6,196.4-29.3,196.4z"/>
	<path class="st0" d="M-9.8,240c0,0.7,0.4,1.2,1.1,1.2c4.5,0,11.9-12.4,12.5-12.4c0.7,0,1,1.2,1,2.5s-10.3,16.5-16.4,16.5
		c-4.5,0-7-3.3-7.6-5.8c-1,1.5-5.1,6.5-9.6,6.5c-3.9,0-7.7-3.2-7.7-9.4c0-10.3,12.2-26.6,23.8-26.6c4,0,4.8,4.2,4.9,4.8
		c1.9-3.4,10.7-22.1,12.1-22.1c2.8,0,4.7,3.2,4.7,5.6C8.9,203.5-9.8,234.3-9.8,240z M-14.2,216.6c-6,0-13.6,14.8-13.6,21.6
		c0,2,0.7,3.2,2.2,3.2c4,0,14.2-18.1,14.2-19.9C-11.4,217.9-12.8,216.6-14.2,216.6z"/>
	<path class="st0" d="M5.8,248.3c-3.5,0-5.8-4.1-5.8-8.1c0-8.6,11-26.3,14.5-27.8c0.3-0.1,1-0.1,1.8-0.1c1.8,0,4.2,0.4,4.2,1.5
		c0,0.1-0.1,0.4-0.2,0.6c-1.5,2.8-12,21.2-12,26.1c0,1.1,0.4,1.5,1,1.5c4.4,0,12.4-13.3,13.1-13.3c0.8,0,0.8,1.6,0.8,2.6
		C23.3,232.6,13.1,248.3,5.8,248.3z M23,208.2c-3.3,0-6.2-2.4-6.2-5.8c0-3.7,3.3-6.5,6.8-6.5c3.3,0,6.2,2.4,6.2,5.8
		C29.8,205.4,26.5,208.2,23,208.2z"/>
	<path class="st0" d="M41.9,215.8c-0.9,0-0.7,0.1-3.7,0.1c-5.2,9.7-10.5,19.3-10.5,22.6c0,2.3,1.5,2.8,2.5,2.8
		c4.5,0,11.9-12.4,12.6-12.4s0.9,1.2,0.9,2.5s-10.5,16.9-16.6,16.9c-4.6,0-9.8-2.6-9.8-6.7c0-4.9,7.5-17.9,11-24.5l0.8-1.5
		c-1.4-0.1-3.6-0.6-3.6-2.3c0-1.2,0-2.4,0.1-2.9c0.1-0.4,0.2-0.5,0.7-0.5c0.4,0,1.3,0.1,2.2,0.1c1,0,3.1-0.4,3.7-0.4
		c3.1-5.8,6.5-11.8,7.4-11.8c3.2,0,5.2,3,5.2,4.6c0,0.8-1.1,3-3.6,7.7H45c1.3,0,2,0.4,2,1.1C47.1,213.5,44,215.8,41.9,215.8z"/>
	<path class="st0" d="M110.6,210c-1.5,3.4-3,7.3-4.2,11.4c-4.2,13.7-10.8,27.2-27.1,27.2c-13.2,0-19.2-9.8-19.2-20.2
		c0-3.7,0.8-7.4,2.3-10.9c-0.4-0.7-0.7-1.5-0.7-2.6c0-2.9,2-4.9,5-4.9c0.4,0,0.6,0,0.9,0.1c3.2-3.1,7.4-5.1,12.5-5.1
		c6,0,9.3,3.2,10.1,8.9c4-0.9,7.7-2.1,11.1-3.4c5.1-9.3,11.4-17.2,22.1-17.2c2.8,0,4.1,1.3,4.1,2.4
		C127.5,199.8,120.3,205.3,110.6,210z M90.4,217.6c-0.4,7.2-7.7,16.7-12.5,16.7c-2.3,0-6.3-1.8-6.3-2.2s1.3-0.4,2.3-0.8
		c0.7-0.4,4.8-4.4,6.2-11.2c-2.9,0.4-5.6,0.7-8,0.7c-2,0-3.9-0.1-5.4-0.6c-0.9,2.2-1.4,4.6-1.4,6.9c0,8,4.7,13.2,10.8,13.2
		c11.5,0,16.7-13.1,23-25.4C96.2,215.8,93.3,216.8,90.4,217.6z M77,209.5c-1.8,0-3.9,1.3-5.8,3.3c1.2,1.3,2.6,2.6,4.8,2.6
		c1.5,0,3.1-0.1,4.6-0.1C80.6,211.3,79.2,209.5,77,209.5z M120.3,197.1c-2,0-4.5,2.8-7,7.2c4.8-3.1,7.6-5.9,7.6-6.8
		C120.9,197.3,120.7,197.1,120.3,197.1z"/>
	<path class="st0" d="M115.6,248.6c-4.8,0-8.5-4.8-8.5-10.6c0-8.9,10.5-24.9,20-24.9c2.5,0,3.9-0.8,5.3-0.8c2.2,0,4.4,2.6,4.4,5.3
		c0,5.3-7.8,14.4-19.1,14.4c-0.2,0-0.4,0-0.6-0.1c-0.9,2.1-1.5,4.1-1.5,5.8c0,3.1,1.1,5.1,3.7,5.1c9.3,0,17.1-13.9,17.9-13.9
		c0.8,0,0.8,1.3,0.8,2.3C138,233.7,127.3,248.6,115.6,248.6z M130.3,216.4c-2.5,0-8,5.9-11.5,12.1c5.6-1.2,12.8-6.9,12.8-10.9
		C131.6,216.8,131.2,216.4,130.3,216.4z"/>
	<path class="st0" d="M158.9,247.8c-4.9,0-6-5.8-6.3-5.8c-0.2,0-5.3,6.5-11.2,6.5c-3.9,0-7.7-3.2-7.7-9.4
		c0-10.3,12.2-26.6,23.8-26.6c5.7,0,6.2,4.8,6.4,4.8c0.4,0,4.1-4.6,5.3-4.6s1.2,0.2,2,0.4c0.7,0.1,1.8,0.3,1.8,1.3
		c0,3.9-12.4,21.3-12.4,25.6c0,0.7,0.4,1.2,1.1,1.2c4.5,0,11.9-12.4,12.6-12.4c0.6,0,0.9,1.2,0.9,2.5
		C175.3,232.7,165,247.8,158.9,247.8z M156.5,216.3c-5.7,0-13.9,14.7-13.9,21.6c0,2.2,0.8,3.5,2.2,3.5c1.8,0,6.7-3.4,6.7-4.7
		c0-0.6-1.5-0.7-2-0.7v-0.6c1.8-0.5,9.9-8.8,9.9-15.2C159.4,218,158.2,216.3,156.5,216.3z"/>
	<path class="st0" d="M200.2,223.9c-0.4,1.8-0.8,3.9-1.3,6.2c0.6,0.2,1.2,0.3,1.6,0.3c1.5,0,1.8-0.9,1.9-0.9c0.4,0,0.4,0.1,0.4,0.4
		v0.1c0.1,4.1-2.7,6.5-5.3,6.5c-0.2,0-0.4,0-0.6,0c-3.4,8.5-10.4,12.2-16.5,12.2s-11.3-3.7-11.3-10.2c0-5.9,4.8-12.3,12.2-12.3
		c1,0,2,0.1,3,0.2c2-2.3,4.6-5.5,6.7-8.8c3.9-5.8,9.4-9.1,12.1-9.1c1.8,0,3.1,0.6,3.1,1.6C206.2,211.7,201.6,217.9,200.2,223.9z
		 M181.2,233.7c-4.6,0-7,3-7,5.8c0,2.2,1.5,4.2,4.7,4.2s7.2-2.4,9.4-8.8C185.8,234.3,183.4,233.7,181.2,233.7z M191.8,221.8
		c-0.6,0.8-2.4,3.1-4.2,5.3c0.9,0.3,1.8,0.5,2.7,0.8c0.7-2.6,1.3-4.6,1.7-5.9L191.8,221.8z"/>
	<path class="st0" d="M239.9,231.7c-3.6,7.1-9.4,10-13.8,10c-0.2,0-0.4,0-0.6,0c-3.7,4-7.9,6.8-12.5,6.8c-5.9,0-9.8-3.3-9.8-10
		c0-10.3,10.3-26.2,21.6-26.2c2,0,3.7,0.9,5.7,0.9c3.3,0,4.6,2.8,4.6,5.6c0,5.1-2,11.5-5.3,17.1c0.4,0.1,0.8,0.3,1.2,0.3
		c4.1,0,7.1-7,8.1-7c0.6,0,1.1,0.9,1.1,1.8C240.1,231.3,240,231.5,239.9,231.7z M227.8,217.1c-5.6,0-14.5,12.2-14.5,20.5
		c0,2.4,0.8,4.1,3,4.1c1.3,0,2.5-0.6,3.8-1.5c-1.8-1.1-2.8-2.7-2.8-4.5c0-2.5,1.7-4.7,4.7-4.7c1.7,0,3,0.8,4.1,1.8
		c2.5-4.4,4.2-9.3,4.2-12.2C230.4,219,229.8,217.1,227.8,217.1z"/>
	<path class="st0" d="M256.9,248.3c-3.3,0-6.5-2.6-6.5-6.3c0-8,7.4-19.4,9.2-21.9l-0.3-0.1c-3.9,3.7-11.5,12.2-15.4,18.2
		c-3.9,5.9-5.3,10-6.7,10c-1.4,0-4.5-2.1-4.5-4.7c0-3.3,13.4-31.4,16.5-31.4c1.1,0,4.8,0.9,4.8,2.9c0,1.8-2.4,7-2.7,8.2l0.1,0.1
		c1.3-1.3,9.3-10.6,13.1-10.6c2.6,0,6,1.8,6,3c0,1.9-0.8,3.1-1.8,5c-0.9,1.9-8.9,16.2-8.9,19.3c0,0.8,0.2,1.5,1.6,1.5
		c3.7,0,11.3-12.6,11.9-12.6s0.9,1.2,0.9,2.4C274.3,233.2,263.8,248.3,256.9,248.3z"/>
</g>
<g class="st4">
	<path class="st0" d="M98,39.8c-8.7,9.3-21.8,40-29.2,48c-7.3,8.1-13.9,12.6-24.5,12.6c-12.2,0-21.3-8.3-21.3-22.1
		c0-11.8,10.4-21.5,20.6-21.5c9.6,0,16.8,6.5,16.8,14.5c0,8.4-6.8,13.9-15.5,13.9c-1.1,0-2.3-0.1-2.3-0.4s1.5-0.6,2.8-1.3
		c1.1-0.8,5.2-5.5,5.2-11.3c0-6-4-11.1-9.2-11.1c-6.6,0-11.8,7-11.8,15.5c0,8.6,5,15.5,14.3,15.5c14.6,0,21.8-21.5,27.6-32.8
		c6.5-13.1,12.4-19,16.2-20.8v-0.3c-1.9,0.6-2.5,0.4-5.4,0.4c-5.5,0-15.6-3.2-23.4-3.2c-4.1,0-7.6,3.7-7.6,8.5
		c0,1.9,0.9,2.3,0.9,2.8c0,0.4-0.2,0.9-1,0.9c-0.7,0-1.9-2-1.9-7.1c0-8.4,6.5-15.3,16.4-15.3c8,0,19.7,5.5,31.7,5.5
		c4.8,0,3.9-1.8,10-1.5c9.4,0.4,10.7,2.4,17.4,2.2c4.6-0.1,5.6-3.1,5.6-2.8C133,38.2,103.6,33.7,98,39.8z"/>
	<path class="st0" d="M130,78.3c-4.6,9.2-12.3,13.1-18,13.1c-0.2,0-0.4,0-0.8,0c-4.8,5.2-10.3,8.9-16.3,8.9
		c-7.6,0-12.8-4.3-12.8-13.1c0-13.4,13.4-34.1,28.1-34.1c2.7,0,4.9,1.2,7.4,1.2c4.3,0,6,3.7,6,7.3c0,6.5-2.7,14.9-7,22.3
		c0.6,0.2,1,0.3,1.5,0.3c5.3,0,9.2-9.1,10.5-9.1c0.8,0,1.3,1.2,1.3,2.3C130.2,77.9,130.1,78.2,130,78.3z M114.2,59.4
		c-7.2,0-18.8,15.8-18.8,26.7c0,3.1,1.1,5.3,4,5.3c1.7,0,3.3-0.8,5-1.9c-2.3-1.3-3.7-3.5-3.7-5.9c0-3.2,2.2-6.1,6.1-6.1
		c2.2,0,4,1.1,5.4,2.3c3.3-5.8,5.5-12.2,5.5-15.8C117.6,61.8,116.8,59.4,114.2,59.4z"/>
	<path class="st0" d="M153.2,99.9c-4.4,0-8.4-3.4-8.4-8.1c0-0.9,0-1.2,0.1-1.8c-1.4,2.1-8.5,10-12.7,10c-4.1,0-8.3-5.3-8.3-10.5
		c0-11.2,14.3-34.2,18.9-36.1c0.3-0.1,1.3-0.2,2.3-0.2c2.3,0,5.5,0.4,5.5,2c0,0.2-0.1,0.4-0.2,0.8c-1.9,3.7-15.6,27.6-15.6,33.9
		c0,1.3,0.6,1.9,1.3,1.9c2.1,0,9.6-8.2,14.8-17c4.5-7.6,10.5-21.3,12.5-21.3c4.4,0,7.9,1.5,7.9,3.2c0,2.4-1.4,4.8-2.7,7.2
		c-1.3,2.4-11.6,21.1-11.6,25c0,1.1,0.2,1.9,2.2,1.9c4.6,0,14.7-16.4,15.5-16.4c0.9,0,1.2,1.5,1.2,3.1
		C175.8,80.3,162.2,99.9,153.2,99.9z"/>
	<path class="st0" d="M189.2,99.8c-5.8,0-10.2-3.4-10.2-10c0-9,12.3-25.5,12.3-25.7s-3-1.4-4.5-1.4c-0.3,0-0.7,0.1-0.8,0.2
		c-4.4,7.3-9,13.9-12.2,18.6c-0.2,0.4-0.7,0.8-1,0.8c-0.8,0-1.3-1.1-1.3-2.8c0-0.7,0.6-1.5,0.8-2c1.2-1.8,3.5-5.3,6.1-10.5
		c2.8-5.5,3.3-9.4,5-13.5c1.9-4.5,3.2-5.5,6.2-5.5c1.3,0,2.1,0.8,2.1,2.3c0,1.9-0.9,2.5-0.9,2.9c0,0.3,0.6,0.7,2,0.7
		c4.3,0,9.4-0.8,10.7-0.8c2.5,0,6,5,6,7.1c0,1.7-2.9,3.1-4.9,5.4c-3.4,3.8-12.8,17-12.8,24.1c0,0.7,0.3,1.3,1.3,1.3
		c2.3,0,6.4-3.5,9.5-7.4c3.4-4.2,6.4-8.7,6.9-8.7c0.8,0,1.2,1.7,1.2,3.3C210.5,80,197.1,99.8,189.2,99.8z"/>
	<path class="st0" d="M232.7,99.9c-4.3,0-8.4-3.4-8.4-8.1c0-10.4,9.6-25.2,12-28.6L236,63c-5,4.9-14.9,15.9-20,23.7
		c-5,7.6-6.9,13.1-8.7,13.1c-1.9,0-5.9-2.8-5.9-6.1c0-4.3,17.5-40.8,21.5-40.8c1.3,0,6.3,1.2,6.3,3.8c0,2.3-3.1,9.1-3.5,10.6
		l0.1,0.1c1.7-1.7,12.1-13.8,17-13.8c3.4,0,7.7,2.3,7.7,4c0,2.4-1.1,4-2.3,6.5c-1.2,2.4-11.5,21.1-11.5,25c0,1.1,0.2,1.9,2.1,1.9
		c4.8,0,14.7-16.4,15.5-16.4s1.2,1.5,1.2,3.1C255.4,80.3,241.6,99.9,232.7,99.9z"/>
	<path class="st0" d="M282.4,99.4c-6.4,0-7.9-7.6-8.2-7.6c-0.2,0-7,8.4-14.5,8.4c-5,0-10-4.1-10-12.3c0-13.4,15.9-34.6,30.9-34.6
		c7.4,0,8.1,6.3,8.3,6.3c0.4,0,5.3-6,7-6s1.5,0.2,2.7,0.6c0.9,0.2,2.3,0.3,2.3,1.7c0,5-16.1,27.7-16.1,33.3c0,0.9,0.4,1.5,1.3,1.5
		c5.9,0,15.5-16.2,16.4-16.2c0.8,0,1.2,1.5,1.2,3.3C303.6,79.7,290.4,99.4,282.4,99.4z M279.3,58.3c-7.4,0-18.2,19.2-18.2,28.1
		c0,2.9,1,4.5,2.9,4.5c2.3,0,8.7-4.4,8.7-6.1c0-0.8-1.9-0.9-2.7-0.9v-0.8c2.3-0.7,12.8-11.4,12.8-19.8
		C283,60.5,281.5,58.3,279.3,58.3z"/>
	<path class="st0" d="M349.1,99.9c-4.4,0-8.4-3.4-8.4-8.1c0-10.4,9.6-25.2,11.8-28.6l-0.2-0.2c-3.5,2.9-11.2,9.7-17.6,20.3
		c-5.4,8.6-8.7,17.2-10.6,17.2c-3.2,0-8.4-2-8.4-4c0-0.2,0-0.3,0.1-0.6c4.4-9.7,15.8-29.7,15.8-32.3l-0.2-0.2
		c-0.2,0-9.3,7.1-16.5,17c-6.1,8.6-12.2,19.7-14.6,19.7s-7.4-2.3-7.4-4.9c0-2.3,4.4-11.6,10.6-23.4c6.1-11.6,11.2-19.3,12.5-19.3
		c1.5,0,7.6,1.4,7.6,3.3c0,2-4,10.4-4.3,11.7c0.2,0,13.6-13.9,17.6-13.9s8.7,2.9,8.7,5.3c0,0.7-1.2,3.5-2.9,7.6
		c2.9-3.2,11.8-13.1,16.4-13.1c3.4,0,7.7,2.3,7.7,4c0,2.4-1.2,4-2.3,6.5c-1.3,2.4-11.6,21.1-11.6,25c0,1.1,0.2,1.9,2.2,1.9
		c4.6,0,14.7-16.4,15.5-16.4c0.9,0,1.2,1.5,1.2,3.1C371.7,80.3,358.1,99.9,349.1,99.9z"/>
	<path class="st0" d="M377.7,100.4c-6.2,0-11.1-6.3-11.1-13.8c0-11.6,13.7-32.4,26-32.4c3.3,0,5-1,7-1c2.9,0,5.6,3.4,5.6,7
		c0,6.9-10.2,18.7-24.9,18.7c-0.2,0-0.6,0-0.8-0.1c-1.2,2.8-1.9,5.3-1.9,7.5c0,4,1.4,6.5,4.9,6.5c12.2,0,22.2-18.2,23.4-18.2
		c1,0,1.1,1.7,1.1,3C406.9,81,392.9,100.4,377.7,100.4z M396.8,58.4c-3.2,0-10.4,7.6-14.9,15.7c7.2-1.5,16.6-9,16.6-14.2
		C398.5,59,398,58.4,396.8,58.4z"/>
	<path class="st0" d="M428.9,99.9c-4.3,0-8.4-3.4-8.4-8.1c0-10.4,9.6-25.2,12-28.6l-0.3-0.2c-5,4.9-14.9,15.9-20,23.7
		c-5,7.6-6.9,13.1-8.7,13.1s-5.9-2.8-5.9-6.1c0-4.3,17.5-40.8,21.5-40.8c1.3,0,6.3,1.2,6.3,3.8c0,2.3-3.1,9.1-3.5,10.6l0.1,0.1
		c1.7-1.7,12.1-13.8,17-13.8c3.4,0,7.7,2.3,7.7,4c0,2.4-1.1,4-2.3,6.5c-1.2,2.4-11.5,21.1-11.5,25c0,1.1,0.2,1.9,2.1,1.9
		c4.8,0,14.7-16.4,15.5-16.4s1.2,1.5,1.2,3.1C451.5,80.3,437.9,99.9,428.9,99.9z"/>
	<path class="st0" d="M475.8,57.7c-1.2,0-0.9,0.1-4.9,0.1c-6.8,12.6-13.7,25-13.7,29.3c0,3,2,3.7,3.3,3.7c5.9,0,15.5-16.2,16.4-16.2
		s1.2,1.5,1.2,3.3s-13.6,22-21.6,22c-6,0-12.7-3.4-12.7-8.6c0-6.4,9.7-23.4,14.4-31.8l1.1-2c-1.9-0.2-4.6-0.8-4.6-3
		c0-1.5,0-3.1,0.2-3.8c0.1-0.4,0.2-0.7,0.9-0.7c0.4,0,1.8,0.1,2.9,0.1c1.3,0,4-0.6,4.9-0.6c4-7.5,8.5-15.4,9.6-15.4
		c4.2,0,6.8,4,6.8,6c0,1.1-1.3,3.9-4.6,10h5c1.8,0,2.5,0.6,2.5,1.3C482.5,54.7,478.5,57.7,475.8,57.7z"/>
</g>
<g class="st4">
	<path class="st0" d="M-538.6-91.5h-0.2c-8.7,14.2-19.5,25.4-34.8,25.4c-17.3,0-25.7-12-25.7-24.4c0-13.2,8.7-26.9,25.7-26.9
		c4.1,0,7.3,1.2,9.9,3c-0.5-1-0.7-2.1-0.7-3.3c0-15.9,22.9-26.4,44.4-26.4c1.2,0,2.5,0.1,3.7,0.2c4.2-2.7,8.6-4.4,13.2-4.4
		c6,0,10.5,2.8,10.5,3.8c0,0.4-0.3,0.5-0.9,0.5c-0.9,0-2.4-0.2-4-0.2c-3.2,0-6.1,0.9-8.8,2.5c10.2,3.8,15.6,11.9,15.6,20.5
		C-490.8-107-505.6-91.5-538.6-91.5z M-523.1-139.4c-14.4-0.1-33,7.7-33,18.2c0,1.7,1.3,3.1,3.6,3.1c3.9,0,5.9-3.9,5.9-6
		c0-1.3,0.3-1.7,0.8-1.7c0.6,0,1,0.5,1,1.7c0,9.8-6.1,14.2-11.5,14.2c-1.4,0-2.8-0.3-4-0.8c2.2,3,3.3,6.8,3.3,10.7
		c0,9-5.5,18.2-15.1,18.2c-2.3,0-4.1-0.7-4.1-1.3c0-0.5,1.4-0.4,4.1-2.1c1.8-1.3,7.1-7.4,7.1-16.4c0-5.9-3.8-11.3-10.2-11.3
		c-10.2,0-15.9,10.9-15.9,21c0,8.6,5.4,16.6,15.2,16.6c16.5,0,26.2-24,34.1-38.5c4.6-8.3,11.4-18.4,19.4-25.4L-523.1-139.4z
		 M-511.9-137.2c-6.7,7-12.5,18.5-18.7,31c-1.4,2.9-2.9,5.7-4.5,8.5c21.8-0.5,31.9-14.6,31.9-26.1
		C-503.2-129.5-506-134.4-511.9-137.2z"/>
	<path class="st0" d="M-488-84.9c-0.9,3-1.5,5.6-1.5,8c0,1.9,1.8,3.5,3.9,3.5c9.4,0,21.5-20.6,22.6-20.6s1.3,2.2,1.3,3.3
		c0,3.5-15.3,24.2-28.1,24.2c-5.8,0-11.6-6.2-11.6-10.9c0-15.8,26.9-63.8,46-63.8c3.9,0,6.9,2.3,6.9,3.9
		C-448.5-133.3-471-94.1-488-84.9z M-456.6-133c-1.5,0-17.8,19.9-26.9,37.6c10.7-8.7,27.2-35.5,27.2-37.3
		C-456.3-132.9-456.5-133-456.6-133z"/>
	<path class="st0" d="M-432.5-67.2c-6.9,0-8.5-8.2-8.8-8.2s-7.5,9.1-15.7,9.1c-5.4,0-10.8-4.5-10.8-13.3c0-14.6,17.2-37.5,33.5-37.5
		c8,0,8.7,6.8,9,6.8c0.5,0,5.7-6.4,7.5-6.4s1.7,0.3,2.9,0.6c1,0.2,2.5,0.4,2.5,1.8c0,5.4-17.4,30-17.4,36.1c0,1,0.5,1.7,1.5,1.7
		c6.3,0,16.7-17.5,17.7-17.5c0.9,0,1.3,1.7,1.3,3.6C-409.4-88.6-423.8-67.2-432.5-67.2z M-435.8-111.6c-8,0-19.6,20.7-19.6,30.4
		c0,3.2,1.1,5,3.1,5c2.6,0,9.5-4.8,9.5-6.6c0-0.8-2.1-1-2.9-1v-0.9c2.6-0.7,14-12.4,14-21.5C-431.8-109.3-433.4-111.6-435.8-111.6z"
		/>
	<path class="st0" d="M-379.9-78.3c-7.5,16.9-14,36.6-19.1,43.5c-5,6.7-13.2,10.8-20.6,10.8c-11.5,0-18.4-8.4-18.4-17.7
		c0-13.1,9.5-20.7,17.8-20.7c6.4,0,12.1,4.7,12.1,14.8c0,1.7-0.5,2.9-1.2,2.9c-0.3,0-0.3-0.2-0.3-0.4s0-0.6,0-0.9
		c0-2.3-3.7-5.6-8.5-5.6c-8.8,0-13.9,5.6-13.9,11.3c0,6.4,5.3,10.2,10.6,10.2c13.2,0,16.1-16.8,19.5-26.8c3.5-10,5.8-14.8,7.1-17.4
		l-0.2-0.4c-3.6,3.9-8.8,8.5-14.3,8.5c-4.3,0-7.3-4.3-7.3-12.2c0-4.4,3.7-12.2,7.7-19.9c4.9-9.2,10.8-18.1,14.8-18.1
		c2.6,0,7.1,0.2,7.1,3.1c0,1.4-5.2,7.5-10.9,18.7c-3.5,6.9-6.2,13.9-6.2,17.7c0,1.1,0.4,1.7,1.4,1.7c2.7,0,12.5-9.3,14.9-13.7
		c2.5-4.5,5.1-10.6,8.7-16.8c3.6-6.3,6.7-11.7,9.8-11.7c2.3,0,6.5,1.1,6.5,3.5C-362.8-109.3-372.4-95.2-379.9-78.3z"/>
	<path class="st0" d="M-356.6-66.1c-6.7,0-12-6.8-12-14.9c0-12.6,14.8-35.1,28.1-35.1c3.6,0,5.4-1.1,7.5-1.1c3.2,0,6.1,3.7,6.1,7.5
		c0,7.4-11,20.3-26.9,20.3c-0.3,0-0.6,0-0.9-0.1c-1.3,3-2.1,5.7-2.1,8.1c0,4.4,1.6,7.1,5.2,7.1c13.2,0,24.1-19.6,25.2-19.6
		c1.1,0,1.2,1.8,1.2,3.3C-325-87.1-340.2-66.1-356.6-66.1z M-335.9-111.5c-3.5,0-11.3,8.3-16.2,17c7.8-1.7,18-9.7,18-15.3
		C-334.1-111-334.7-111.5-335.9-111.5z"/>
	<path class="st0" d="M-310.4-66.7c-6.2,0-11.1-3.7-11.1-10.8c0-9.7,13.4-27.5,13.4-27.8c0-0.2-3.3-1.6-5-1.6
		c-0.4,0-0.7,0.1-0.8,0.3c-4.9,7.9-9.7,15.1-13.2,20.1c-0.3,0.5-0.7,0.8-1.1,0.8c-0.9,0-1.5-1.2-1.5-3c0-0.7,0.6-1.7,0.9-2.2
		c1.3-1.9,3.9-5.7,6.5-11.4c3-5.9,3.6-10.2,5.4-14.7c2-4.9,3.5-5.9,6.7-5.9c1.5,0,2.3,0.9,2.3,2.6c0,2-1,2.8-1,3.1
		c0,0.4,0.6,0.7,2.2,0.7c4.7,0,10.2-0.8,11.6-0.8c2.8,0,6.4,5.4,6.4,7.7c0,1.8-3.1,3.4-5.2,5.8c-3.8,4.1-14,18.4-14,26.1
		c0,0.7,0.4,1.5,1.4,1.5c2.5,0,6.9-3.9,10.3-8c3.8-4.6,6.9-9.5,7.4-9.5c0.9,0,1.3,1.8,1.3,3.6C-287.3-88.2-301.8-66.7-310.4-66.7z"
		/>
</g>
<g class="st4">
	<path class="st0" d="M-463.1,34.1c-2.5,5.6-4.8,11.8-6.8,18.4c-6.8,22.2-17.4,44-43.8,44c-21.4,0-31-15.9-31-32.6
		c0-6,1.2-12,3.7-17.6c-0.7-1.1-1.1-2.5-1.1-4.2c0-4.7,3.2-8,8.1-8c0.6,0,1,0,1.5,0.1c5.2-5,12-8.2,20.2-8.2c9.8,0,15,5.2,16.4,14.4
		c6.5-1.5,12.5-3.4,18-5.6c8.3-15,18.4-27.8,35.7-27.8c4.5,0,6.6,2.2,6.6,3.9C-435.8,17.7-447.4,26.5-463.1,34.1z M-495.8,46.4
		c-0.6,11.6-12.4,26.9-20.2,26.9c-3.7,0-10.1-2.8-10.1-3.5c0-0.6,2.2-0.6,3.7-1.4c1.1-0.6,7.8-7.2,10-18.2c-4.7,0.7-9.1,1.1-13,1.1
		c-3.3,0-6.2-0.2-8.7-0.9c-1.5,3.6-2.3,7.4-2.3,11.1c0,13,7.6,21.4,17.5,21.4c18.5,0,27-21.1,37.2-41
		C-486.4,43.5-491.1,45.1-495.8,46.4z M-517.5,33.4c-3,0-6.4,2-9.4,5.3c1.9,2.2,4.2,4.2,7.8,4.2c2.5,0,5-0.1,7.4-0.2
		C-511.7,36.3-513.9,33.4-517.5,33.4z M-447.4,13.3c-3.2,0-7.3,4.5-11.4,11.7c7.8-5,12.3-9.5,12.3-11
		C-446.4,13.7-446.8,13.3-447.4,13.3z"/>
	<path class="st0" d="M-447.6,96.4c-5.2,0-10.5-4.4-12.6-9.2c-10.3,21.1-18.7,36.7-22.5,36.7c-2.5,0-6.6-4-6.6-6.9
		c0-3.1,9-19.5,20.8-42c11.9-22.6,20.4-40.3,23-40.3c3.6,0,8,2,8,3.8c0,1-0.7,3.1-2,6.1c4.8-3.5,10-6.6,14.9-6.6
		c6.8,0,10.5,4.4,10.5,13.2C-414.1,68.1-431.9,96.4-447.6,96.4z M-430.7,45.7c-3,0-8.6,4.3-13.4,8.4c-2.6,5.6-6.2,12.6-10.4,21.3
		c1.1,5.3,3.4,10.5,6.4,10.5c6.2,0,20.8-29.3,20.8-36.1C-427.3,47.4-428.4,45.7-430.7,45.7z"/>
	<path class="st0" d="M-375.9,95.3c-8,0-9.8-9.4-10.1-9.4s-8.6,10.5-18.1,10.5c-6.2,0-12.4-5.1-12.4-15.2
		c0-16.7,19.8-43.1,38.4-43.1c9.2,0,10,7.8,10.3,7.8c0.6,0,6.6-7.4,8.6-7.4s1.9,0.3,3.3,0.7c1.1,0.2,2.8,0.5,2.8,2
		c0,6.2-20,34.4-20,41.5c0,1.1,0.6,1.9,1.7,1.9c7.3,0,19.2-20.1,20.3-20.1c1,0,1.5,1.9,1.5,4.1C-349.4,70.8-366.1,95.3-375.9,95.3z
		 M-379.8,44.3c-9.2,0-22.5,23.7-22.5,34.9c0,3.6,1.2,5.7,3.5,5.7c3,0,10.9-5.5,10.9-7.6c0-0.9-2.4-1.1-3.3-1.1v-0.9
		c3-0.8,16-14.2,16-24.7C-375.1,47.1-377.1,44.3-379.8,44.3z"/>
	<path class="st0" d="M-332.8,95.9c-7.2,0-12.7-4.2-12.7-12.4c0-11.1,15.3-31.6,15.3-31.9c0-0.2-3.8-1.8-5.7-1.8
		c-0.5,0-0.8,0.1-0.9,0.3c-5.6,9.1-11.1,17.4-15.1,23.1c-0.3,0.6-0.8,0.9-1.2,0.9c-1,0-1.7-1.4-1.7-3.4c0-0.8,0.7-1.9,1-2.5
		c1.5-2.2,4.4-6.6,7.5-13.1c3.4-6.8,4.1-11.7,6.2-16.8c2.3-5.7,4-6.8,7.7-6.8c1.7,0,2.6,1,2.6,3c0,2.3-1.1,3.2-1.1,3.5
		c0,0.5,0.7,0.8,2.5,0.8c5.3,0,11.7-0.9,13.3-0.9c3.2,0,7.4,6.2,7.4,8.9c0,2-3.5,3.9-6,6.7c-4.3,4.7-16,21.1-16,30
		c0,0.8,0.5,1.7,1.6,1.7c2.8,0,8-4.4,11.8-9.2c4.3-5.2,8-10.9,8.5-10.9c1,0,1.5,2,1.5,4.1C-306.3,71.3-322.9,95.9-332.8,95.9z"/>
	<path class="st0" d="M-289.4,95.9c-7.2,0-12.7-4.2-12.7-12.4c0-11.1,15.3-31.6,15.3-31.9c0-0.2-3.8-1.8-5.7-1.8
		c-0.5,0-0.8,0.1-0.9,0.3c-5.6,9.1-11.1,17.4-15.1,23.1c-0.3,0.6-0.8,0.9-1.2,0.9c-1,0-1.7-1.4-1.7-3.4c0-0.8,0.7-1.9,1-2.5
		c1.5-2.2,4.4-6.6,7.5-13.1c3.4-6.8,4.1-11.7,6.2-16.8c2.3-5.7,4-6.8,7.7-6.8c1.7,0,2.6,1,2.6,3c0,2.3-1.1,3.2-1.1,3.5
		c0,0.5,0.7,0.8,2.5,0.8c5.3,0,11.7-0.9,13.3-0.9c3.2,0,7.4,6.2,7.4,8.9c0,2-3.5,3.9-6,6.7c-4.3,4.7-16,21.1-16,30
		c0,0.8,0.5,1.7,1.6,1.7c2.8,0,8-4.4,11.8-9.2c4.3-5.2,8-10.9,8.5-10.9c1,0,1.5,2,1.5,4.1C-262.9,71.3-279.5,95.9-289.4,95.9z"/>
	<path class="st0" d="M-260.8,96.1c-5.7,0-9.3-6.6-9.3-13.1c0-13.9,17.7-42.5,23.5-44.9c0.5-0.1,1.6-0.2,3-0.2
		c2.8,0,6.8,0.6,6.8,2.5c0,0.2-0.1,0.6-0.3,0.9c-2.4,4.5-19.4,34.3-19.4,42.2c0,1.7,0.7,2.4,1.6,2.4c7,0,20.1-21.5,21.1-21.5
		c1.2,0,1.4,2.6,1.4,4.2C-232.5,70.7-249,96.1-260.8,96.1z M-233,31.3c-5.3,0-10-3.9-10-9.3c0-5.9,5.3-10.5,11-10.5
		c5.3,0,10,3.9,10,9.3C-222,26.7-227.3,31.3-233,31.3z"/>
	<path class="st0" d="M-205.3,96c-5.3,0-10.5-4.2-10.5-10.1c0-13,11.9-31.4,14.9-35.5l-0.5-0.2c-6.2,6-18.5,19.8-24.9,29.4
		c-6.2,9.5-8.5,16.2-10.9,16.2c-2.3,0-7.3-3.4-7.3-7.6c0-5.3,21.7-50.8,26.7-50.8c1.7,0,7.8,1.5,7.8,4.7c0,2.8-3.9,11.2-4.4,13.2
		l0.1,0.1c2-2,15-17.2,21.2-17.2c4.2,0,9.7,2.8,9.7,4.9c0,3.1-1.4,5-3,8.1c-1.5,3.1-14.3,26.2-14.3,31.1c0,1.4,0.3,2.4,2.6,2.4
		c5.9,0,18.3-20.3,19.3-20.3s1.5,1.9,1.5,3.9C-177,71.6-194,96-205.3,96z"/>
	<path class="st0" d="M-138.7,84.4c-9.8,20.3-21.4,49-41.4,49c-10.2,0-18.7-5.9-18.7-15.1c0-11.1,10.1-19.5,19-19.5
		c5.2,0,8.2,3.3,8.2,6.7c0,3.6-2.8,6-3.3,6c-0.2,0-0.2-0.1-0.2-0.2c0-0.2,0-0.6,0-0.9c0-1.4-2.4-2.3-5.5-2.3
		c-6.9,0-11.4,4.9-11.4,9.2c0,4.8,3.6,7.4,7.7,7.4c9.5,0,16.5-12.6,19.9-19.4c3.5-6.7,6.1-14.2,6.4-15.3c-3.6,4.2-7.6,5.9-11.4,5.9
		c-7.4,0-13.8-7.3-13.8-16.4c0-22.3,24-41.8,38.6-41.8c5.5,0,9.5,2.7,10.7,9c0.6-0.7,4.5-6.1,5.8-6.8c0.9-0.6,2.5-0.7,4-0.7h1.4
		c1.6,0,4.9,0.9,4.9,2.5C-117.8,44.2-129,64.1-138.7,84.4z M-143.9,45.7c-10.5,0-25,23-25,33c0,3.4,1.6,6.4,4.8,6.4
		c8,0,24.2-26.9,24.2-33.4C-139.9,48.1-140.9,45.7-143.9,45.7z"/>
</g>
<rect x="-55.7" y="-249.9" class="st3" width="330" height="57.9"/>
<g class="st4">
	<path class="st5" d="M866.3,386.5c-7.9,0-15.3-1.8-21.7-5c-12,12.6-21.2,26.9-21.2,38.3c0,6.7,4.8,10.8,11.6,10.8
		c18.4,0,30.8-17.4,30.8-26c0-2.5-1.7-3.9-4.2-3.9c-4.2,0-10.1,4.7-11.2,11.1c-0.2,0.8-0.1,1.2-0.6,1.2s-1.6-2.4-1.6-4.9
		c0-7.1,6.2-15,15.8-15c7.1,0,10.2,4.1,10.2,9.9c0,14-18.2,37.8-43.3,37.8c-13.5,0-23.9-9-23.9-22c0-15.4,11.2-32.3,26.6-46
		c-5.3-6-8.4-13.6-8.4-22.6c0-6.9,5-13,6.6-13c0.2,0,0.2,0,0.2,0.2c0,0.5-0.1,1.3-0.1,2.6c0,10.3,3.5,19.3,10.7,25.5
		c15.9-11.8,34.5-19.7,48.8-19.7c10.4,0,16.4,5,16.4,11.7C907.7,370.1,890.5,386.5,866.3,386.5z M890.5,351.6
		c-8.1,0-22.6,8.6-36.1,20.6c4.4,1.4,9.6,2.2,15.4,2.2c16.5,0,28.7-9.2,28.7-16.4C898.5,353.6,895.1,351.6,890.5,351.6z"/>
	<path class="st5" d="M900.7,417.4c-1.1,3.6-1.8,6.8-1.8,9.7c0,2.3,2.2,4.2,4.7,4.2c11.4,0,26-24.9,27.3-24.9c1.3,0,1.6,2.6,1.6,3.9
		c0,4.2-18.5,29.2-34,29.2c-7.1,0-14-7.5-14-13.2c0-19.1,32.6-77.1,55.6-77.1c4.7,0,8.4,2.8,8.4,4.7
		C948.5,358.9,921.3,406.3,900.7,417.4z M938.7,359.2c-1.8,0-21.5,24.1-32.6,45.5c12.9-10.5,32.9-43,32.9-45.1
		C939,359.4,938.8,359.2,938.7,359.2z"/>
	<path class="st5" d="M962.7,439.5c-5.7,0-11-4.4-11-10.7c0-1.2,0-1.6,0.1-2.3c-1.9,2.8-11.1,13-16.6,13c-5.4,0-10.9-6.9-10.9-13.8
		c0-14.6,18.7-44.8,24.8-47.3c0.5-0.1,1.7-0.2,3.1-0.2c3,0,7.2,0.6,7.2,2.6c0,0.2-0.1,0.6-0.4,1c-2.5,4.8-20.5,36.1-20.5,44.4
		c0,1.8,0.7,2.5,1.7,2.5c2.8,0,12.6-10.8,19.4-22.4c6-9.9,13.8-27.8,16.4-27.8c5.9,0,10.3,2,10.3,4.2c0,3.2-1.9,6.2-3.5,9.5
		c-1.7,3.2-15.2,27.6-15.2,32.8c0,1.4,0.4,2.5,2.9,2.5c6.1,0,19.3-21.4,20.2-21.4c1.2,0,1.6,2,1.6,4.1
		C992.3,413.8,974.5,439.5,962.7,439.5z"/>
	<path class="st5" d="M1001.5,439.4c-8.1,0-16.3-4.1-16.3-19.6c0-5.4,8.9-21.2,18.2-36.7c10.2-17,19.7-33.5,25.6-33.5
		c3.2,0,8,2.3,8,3.9s-5.5,9.2-8.6,14.4c-3.2,5.3-7.7,13-7.7,13.5l0.2,0.1c3.1-1.7,6.2-2.5,8.9-2.5c6.6,0,11.2,4.8,11.2,14.2
		C1041.1,411.1,1024.7,439.4,1001.5,439.4z M1024.1,385.6c-4.2,0-7.8,4.5-9.6,6.5c-1.8,2-17.1,30.6-17.1,35.9c0,2,1.2,3.7,4.2,3.7
		c9.5,0,27.2-28.4,27.2-40.5C1028.8,388.9,1027.2,385.6,1024.1,385.6z"/>
</g>
<g class="st4">
	<path class="st5" d="M-363.8,141.4c-6.9,0-13.3-1.6-18.9-4.4c-10.4,11-18.4,23.4-18.4,33.3c0,5.8,4.2,9.4,10.1,9.4
		c16,0,26.8-15.1,26.8-22.6c0-2.2-1.5-3.4-3.7-3.4c-3.7,0-8.8,4.1-9.7,9.7c-0.2,0.7-0.1,1-0.5,1s-1.4-2.1-1.4-4.3
		c0-6.2,5.4-13.1,13.8-13.1c6.2,0,8.9,3.6,8.9,8.6c0,12.2-15.8,32.9-37.7,32.9c-11.7,0-20.8-7.8-20.8-19.1c0-13.4,9.7-28.1,23.1-40
		c-4.6-5.2-7.3-11.8-7.3-19.7c0-6,4.4-11.3,5.7-11.3c0.2,0,0.2,0,0.2,0.2c0,0.4-0.1,1.1-0.1,2.3c0,9,3,16.8,9.3,22.2
		c13.8-10.3,30-17.1,42.5-17.1c9.1,0,14.3,4.4,14.3,10.2C-327.8,127.1-342.8,141.4-363.8,141.4z M-342.8,111
		c-7,0-19.7,7.5-31.4,17.9c3.8,1.2,8.4,1.9,13.4,1.9c14.4,0,25-8,25-14.3C-335.8,112.7-338.8,111-342.8,111z"/>
	<path class="st5" d="M-333.9,168.3c-1,3.1-1.6,5.9-1.6,8.4c0,2,1.9,3.7,4.1,3.7c9.9,0,22.6-21.7,23.8-21.7c1.2,0,1.4,2.3,1.4,3.4
		c0,3.7-16.1,25.4-29.6,25.4c-6.2,0-12.2-6.5-12.2-11.5c0-16.6,28.4-67.1,48.4-67.1c4.1,0,7.3,2.4,7.3,4.1
		C-292.3,117.3-316,158.6-333.9,168.3z M-300.8,117.6c-1.6,0-18.7,21-28.4,39.6c11.2-9.1,28.6-37.4,28.6-39.2
		C-300.6,117.8-300.7,117.6-300.8,117.6z"/>
	<path class="st5" d="M-279.9,187.5c-5,0-9.6-3.8-9.6-9.3c0-1,0-1.4,0.1-2c-1.7,2.4-9.7,11.3-14.4,11.3s-9.5-6-9.5-12
		c0-12.7,16.3-39,21.6-41.2c0.4-0.1,1.5-0.2,2.7-0.2c2.6,0,6.3,0.5,6.3,2.3c0,0.2-0.1,0.5-0.3,0.9c-2.2,4.2-17.8,31.4-17.8,38.6
		c0,1.6,0.6,2.2,1.5,2.2c2.4,0,11-9.4,16.9-19.5c5.2-8.6,12-24.2,14.3-24.2c5.1,0,9,1.7,9,3.7c0,2.8-1.7,5.4-3,8.3
		c-1.5,2.8-13.2,24-13.2,28.5c0,1.2,0.3,2.2,2.5,2.2c5.3,0,16.8-18.6,17.6-18.6c1,0,1.4,1.7,1.4,3.6
		C-254.1,165.1-269.7,187.5-279.9,187.5z"/>
	<path class="st5" d="M-246.1,187.4c-7,0-14.2-3.6-14.2-17.1c0-4.7,7.7-18.4,15.8-31.9c8.9-14.8,17.1-29.2,22.3-29.2
		c2.8,0,7,2,7,3.4s-4.8,8-7.5,12.5c-2.8,4.6-6.7,11.3-6.7,11.7l0.2,0.1c2.7-1.5,5.4-2.2,7.7-2.2c5.7,0,9.7,4.2,9.7,12.4
		C-211.7,162.8-226,187.4-246.1,187.4z M-226.5,140.6c-3.7,0-6.8,3.9-8.4,5.7c-1.6,1.7-14.9,26.6-14.9,31.2c0,1.7,1,3.2,3.7,3.2
		c8.3,0,23.7-24.7,23.7-35.2C-222.4,143.4-223.8,140.6-226.5,140.6z"/>
</g>
<g class="st4">
	<path class="st0" d="M-444.2-230.4c-1.4,3.2-2.7,6.7-3.9,10.5c-3.9,12.6-9.9,25-24.9,25c-12.2,0-17.6-9-17.6-18.6
		c0-3.4,0.7-6.9,2.1-10c-0.4-0.6-0.6-1.4-0.6-2.4c0-2.7,1.8-4.5,4.6-4.5c0.3,0,0.6,0,0.8,0.1c3-2.8,6.9-4.7,11.5-4.7
		c5.6,0,8.5,3,9.3,8.2c3.7-0.8,7.1-1.9,10.2-3.2c4.7-8.5,10.5-15.8,20.3-15.8c2.6,0,3.7,1.2,3.7,2.2
		C-428.6-239.7-435.3-234.7-444.2-230.4z M-462.8-223.4c-0.3,6.6-7,15.3-11.5,15.3c-2.1,0-5.8-1.6-5.8-2c0-0.3,1.2-0.3,2.1-0.8
		c0.6-0.3,4.5-4.1,5.7-10.3c-2.6,0.4-5.2,0.6-7.4,0.6c-1.9,0-3.6-0.1-5-0.5c-0.8,2.1-1.3,4.2-1.3,6.3c0,7.4,4.3,12.2,10,12.2
		c10.5,0,15.4-12,21.1-23.3C-457.4-225-460.1-224.1-462.8-223.4z M-475.1-230.8c-1.7,0-3.6,1.2-5.4,3c1.1,1.2,2.4,2.4,4.5,2.4
		c1.4,0,2.8-0.1,4.2-0.1C-471.8-229.2-473-230.8-475.1-230.8z M-425.7-256.3c-3.6,2.4-6.6,7.4-9.2,7.4c-2.2,0-2.6-5.3-3.8-7.4
		c-1.5-2.5-4.5-4.4-4.5-4.8c0-0.8,1.1-1.4,1.8-1.4c3.8,0,7.2,3.6,8.9,6.8c3.4-2.7,9.3-6.8,13.8-6.8c0.5,0,1,0.3,1,0.8
		C-417.7-260.1-422.7-258.2-425.7-256.3z M-435.2-242.2c-1.8,0-4.1,2.6-6.5,6.7c4.5-2.8,7-5.4,7-6.3
		C-434.7-242-434.9-242.2-435.2-242.2z"/>
	<path class="st0" d="M-438.1-195.1c-3.3,0-5.3-3.7-5.3-7.4c0-7.9,10-24.2,13.4-25.5c0.3-0.1,0.9-0.1,1.6-0.1c1.7,0,3.9,0.3,3.9,1.4
		c0,0.1,0,0.3-0.1,0.5c-1.4,2.6-11.1,19.5-11.1,24c0,1,0.4,1.4,0.8,1.4c4,0,11.5-12.2,12.1-12.2c0.7,0,0.8,1.5,0.8,2.4
		C-422-209.6-431.5-195.1-438.1-195.1z M-429.1-231.5c-0.8,0-1.4-0.6-1.4-1.1c0-1,3.7-1.7,6.5-4.7c2.3-2.5,3.1-7.8,5.6-7.8
		c1.6,0,3.9,1.5,3.9,3.6C-414.5-237.5-425.3-231.5-429.1-231.5z"/>
	<path class="st0" d="M-414.1-195c-3,0-5.9-2.5-7.2-5.2c-5.9,12-10.7,20.9-12.8,20.9c-1.4,0-3.7-2.3-3.7-3.9
		c0-1.7,5.1-11.1,11.8-23.9c6.8-12.8,11.6-22.9,13.1-22.9c2.1,0,4.5,1.2,4.5,2.1c0,0.6-0.4,1.7-1.2,3.5c2.7-2,5.7-3.7,8.5-3.7
		c3.9,0,5.9,2.5,5.9,7.5C-395.1-211.1-405.2-195-414.1-195z M-404.5-223.8c-1.7,0-4.9,2.5-7.6,4.8c-1.5,3.2-3.5,7.2-5.9,12.1
		c0.6,3,1.9,5.9,3.6,5.9c3.6,0,11.8-16.7,11.8-20.6C-402.6-222.8-403.2-223.8-404.5-223.8z"/>
	<path class="st0" d="M-378.8-194.9c-4.1,0-6.9-3.3-6.9-7c0-4.7,1.9-8.8,2.9-10.8l-0.2-0.2c-2.5,2.4-6.5,7.9-8.7,11.9
		c-2.1,3.9-2.2,6-3,6c-1.4,0-4.8-2.3-4.8-5s5.8-13.3,10.5-22c4.7-8.6,11.2-20.2,13.9-20.2c1.4,0,3.9,0.8,3.9,2.5
		c0,2.6-2,5.8-4.6,9.8c-2.5,4.1-5,8.7-5.6,9.8l0.3,0.1c2-1.9,9.4-8.2,15.8-8.2c2.6,0,4.6,1.4,4.6,3.9c0,4.2-6,12.2-11.2,12.2
		c-1.6,0-2.1-0.6-2.4-0.6c-0.2,0-3.6,9.1-3.6,11.6c0,1,0.6,1.8,2,1.8c7.6,0,15.3-13.7,16.1-13.7c0.5,0,0.8,1.4,0.8,2.3
		C-358.8-210.2-367.1-194.9-378.8-194.9z M-366.4-225.7c-1,0-9.6,5.4-9.6,6.2c0,0.3,0.8,1,2,1c1.9,0,8-5,8-6.8
		C-366-225.6-366.2-225.7-366.4-225.7z"/>
	<path class="st0" d="M-339.7-195.6c-4.5,0-5.6-5.4-5.8-5.4s-4.9,5.9-10.3,5.9c-3.6,0-7-2.9-7-8.7c0-9.5,11.2-24.5,21.8-24.5
		c5.2,0,5.7,4.5,5.9,4.5c0.3,0,3.7-4.2,4.9-4.2s1.1,0.2,1.9,0.4c0.6,0.1,1.6,0.3,1.6,1.2c0,3.6-11.4,19.6-11.4,23.6
		c0,0.6,0.3,1.1,1,1.1c4.1,0,10.9-11.4,11.6-11.4c0.6,0,0.8,1.1,0.8,2.3C-324.7-209.5-334.1-195.6-339.7-195.6z M-341.9-224.6
		c-5.2,0-12.8,13.5-12.8,19.8c0,2.1,0.7,3.2,2,3.2c1.7,0,6.2-3.1,6.2-4.3c0-0.5-1.4-0.6-1.9-0.6v-0.5c1.7-0.5,9.1-8.1,9.1-14
		C-339.3-223-340.4-224.6-341.9-224.6z"/>
	<path class="st6" d="M-315.2-195.2c-4.1,0-7.2-2.4-7.2-7c0-6.3,8.7-18,8.7-18.2c0-0.1-2.1-1-3.2-1c-0.3,0-0.5,0.1-0.5,0.2
		c-3.2,5.2-6.3,9.9-8.6,13.1c-0.2,0.3-0.5,0.5-0.7,0.5c-0.6,0-1-0.8-1-1.9c0-0.5,0.4-1.1,0.6-1.4c0.8-1.2,2.5-3.7,4.3-7.4
		c1.9-3.9,2.3-6.7,3.6-9.6c1.3-3.2,2.3-3.9,4.4-3.9c1,0,1.5,0.6,1.5,1.7c0,1.3-0.6,1.8-0.6,2c0,0.3,0.4,0.5,1.4,0.5
		c3,0,6.7-0.5,7.6-0.5c1.8,0,4.2,3.6,4.2,5c0,1.2-2,2.2-3.4,3.8c-2.5,2.6-9.1,12-9.1,17.1c0,0.5,0.3,1,0.9,1c1.6,0,4.5-2.5,6.7-5.2
		c2.5-3,4.5-6.2,4.8-6.2c0.6,0,0.8,1.2,0.8,2.3C-300.1-209.3-309.6-195.2-315.2-195.2z"/>
	<path class="st6" d="M-295.7-194.9c-4.4,0-7.8-4.5-7.8-9.8c0-8.2,9.7-22.9,18.4-22.9c2.3,0,3.6-0.7,4.9-0.7c2.1,0,4,2.4,4,4.9
		c0,4.8-7.2,13.3-17.6,13.3c-0.2,0-0.4,0-0.6-0.1c-0.8,1.9-1.4,3.7-1.4,5.3c0,2.8,1,4.7,3.4,4.7c8.6,0,15.7-12.8,16.5-12.8
		c0.7,0,0.8,1.2,0.8,2.1C-275.1-208.6-285-194.9-295.7-194.9z M-282.2-224.5c-2.3,0-7.4,5.4-10.6,11.1c5.1-1.1,11.8-6.3,11.8-10
		C-281-224.1-281.4-224.5-282.2-224.5z"/>
	<path class="st6" d="M-259.5-195.2c-3,0-5.9-2.4-5.9-5.8c0-7.4,6.8-17.8,8.5-20.2l-0.3-0.1c-3.6,3.4-10.5,11.2-14.2,16.7
		c-3.6,5.4-4.8,9.2-6.2,9.2c-1.3,0-4.1-1.9-4.1-4.3c0-3,12.3-28.9,15.2-28.9c1,0,4.5,0.8,4.5,2.7c0,1.6-2.2,6.4-2.5,7.5l0.1,0.1
		c1.2-1.2,8.5-9.8,12.1-9.8c2.4,0,5.5,1.6,5.5,2.8c0,1.7-0.8,2.8-1.7,4.6c-0.8,1.7-8.1,14.9-8.1,17.7c0,0.8,0.2,1.4,1.5,1.4
		c3.4,0,10.4-11.6,11-11.6s0.8,1.1,0.8,2.2C-243.5-209.1-253.2-195.2-259.5-195.2z M-248.3-236.9c-3,2-5.6,6.2-7.8,6.2
		c-1.8,0-2.1-4.5-3.2-6.2c-1.3-2.1-3.8-3.7-3.8-4c0-0.7,1-1.2,1.6-1.2c3.2,0,6.1,3,7.5,5.7c2.8-2.3,7.8-5.7,11.6-5.7
		c0.4,0,0.9,0.2,0.9,0.6C-241.6-240.2-245.9-238.5-248.3-236.9z"/>
</g>
<circle class="st0" cx="737.3" cy="-185.5" r="37.5"/>
<circle class="st1" cx="737.3" cy="-185.5" r="28.5"/>
<circle class="st0" cx="737.3" cy="-185.5" r="20"/>
<circle class="st1" cx="737.3" cy="-185.5" r="10"/>
</svg>
